<?xml version="1.0" encoding="utf-8"?>
<!-- Generator: Adobe Illustrator 19.0.0, SVG Export Plug-In . SVG Version: 6.00 Build 0)  -->
<svg version="1.1" id="Layer_1" xmlns="http://www.w3.org/2000/svg" xmlns:xlink="http://www.w3.org/1999/xlink" x="0px" y="0px"
	 viewBox="654 -347 1451 838" style="enable-background:new 654 -347 1451 838;" xml:space="preserve">
<style type="text/css">
	.st0{fill:#FFFFFF;}
	.st1{clip-path:url(#SVGID_2_);}
	.st2{fill:#444444;}
	.st3{font-family:'SegoeUI';}
	.st4{font-size:16px;}
	.st5{fill-opacity:0;stroke:#000000;stroke-miterlimit:10;}
	.st6{clip-path:url(#SVGID_8_);}
	.st7{font-size:10px;}
	.st8{fill:none;stroke:#9C9C9C;}
	.st9{font-size:12px;}
	.st10{clip-path:url(#SVGID_10_);}
	.st11{opacity:0.75;fill:none;stroke:#E1E1E1;enable-background:new    ;}
	.st12{fill:none;}
	.st13{fill:none;stroke:#9C9C9C;stroke-opacity:0;}
	.st14{clip-path:url(#SVGID_13_);fill:none;stroke:#3998A0;stroke-width:1.35;}
	.st15{clip-path:url(#SVGID_15_);}
	.st16{stroke:#000000;stroke-miterlimit:10;}
	.st17{font-family:'MyriadPro-Regular';}
	.st18{stroke:#FF0033;stroke-miterlimit:10;}
</style>
<rect id="backgroundRect" x="654" y="-347" class="st0" width="1451" height="838"/>
<g>
	<defs>
		<rect id="SVGID_1_" x="653" y="-348" width="1448" height="832"/>
	</defs>
	<clipPath id="SVGID_2_">
		<use xlink:href="#SVGID_1_"  style="overflow:visible;"/>
	</clipPath>
	<g class="st1">
		<text transform="matrix(1 0 0 1 1169.4 -324)" class="st2 st3 st4">Profile Graph lc_1m_dem_InterpolateShape2</text>
	</g>
</g>
<g>
	<defs>
		<rect id="SVGID_3_" x="653" y="-348" width="1448" height="832"/>
	</defs>
	<clipPath id="SVGID_4_">
		<use xlink:href="#SVGID_3_"  style="overflow:visible;"/>
	</clipPath>
</g>
<g>
	<defs>
		<rect id="SVGID_5_" x="2099" y="81" width="2" height="2"/>
	</defs>
	<clipPath id="SVGID_6_">
		<use xlink:href="#SVGID_5_"  style="overflow:visible;"/>
	</clipPath>
</g>
<g>
	<rect x="732.7" y="-302" class="st5" width="1347.9" height="733"/>
</g>
<g>
	<defs>
		<rect id="SVGID_7_" x="653" y="-348" width="1448" height="832"/>
	</defs>
	<clipPath id="SVGID_8_">
		<use xlink:href="#SVGID_7_"  style="overflow:visible;"/>
	</clipPath>
	<g class="st6">
		<text transform="matrix(1 0 0 1 729.1 454)" class="st2 st3 st7">0</text>
		<line class="st8" x1="732.7" y1="431" x2="732.7" y2="435"/>
		<text transform="matrix(1 0 0 1 823.4 454)" class="st2 st3 st7">10</text>
		<line class="st8" x1="830.6" y1="431" x2="830.6" y2="435"/>
		<text transform="matrix(1 0 0 1 921.2 454)" class="st2 st3 st7">20</text>
		<line class="st8" x1="928.4" y1="431" x2="928.4" y2="435"/>
		<text transform="matrix(1 0 0 1 1019.1 454)" class="st2 st3 st7">30</text>
		<line class="st8" x1="1026.2" y1="431" x2="1026.2" y2="435"/>
		<text transform="matrix(1 0 0 1 1116.4 454)" class="st2 st3 st7">40</text>
		<line class="st8" x1="1124.1" y1="431" x2="1124.1" y2="435"/>
		<text transform="matrix(1 0 0 1 1214.7 454)" class="st2 st3 st7">50</text>
		<line class="st8" x1="1221.9" y1="431" x2="1221.9" y2="435"/>
		<text transform="matrix(1 0 0 1 1312.6 454)" class="st2 st3 st7">60</text>
		<line class="st8" x1="1319.8" y1="431" x2="1319.8" y2="435"/>
		<text transform="matrix(1 0 0 1 1410.4 454)" class="st2 st3 st7">70</text>
		<line class="st8" x1="1417.6" y1="431" x2="1417.6" y2="435"/>
		<text transform="matrix(1 0 0 1 1508.3 454)" class="st2 st3 st7">80</text>
		<line class="st8" x1="1515.4" y1="431" x2="1515.4" y2="435"/>
		<text transform="matrix(1 0 0 1 1606.1 454)" class="st2 st3 st7">90</text>
		<line class="st8" x1="1613.3" y1="431" x2="1613.3" y2="435"/>
		<text transform="matrix(1 0 0 1 1700.3 454)" class="st2 st3 st7">100</text>
		<line class="st8" x1="1711.1" y1="431" x2="1711.1" y2="435"/>
		<text transform="matrix(1 0 0 1 1798.2 454)" class="st2 st3 st7">110</text>
		<line class="st8" x1="1809" y1="431" x2="1809" y2="435"/>
		<text transform="matrix(1 0 0 1 1896 454)" class="st2 st3 st7">120</text>
		<line class="st8" x1="1906.8" y1="431" x2="1906.8" y2="435"/>
		<text transform="matrix(1 0 0 1 1993.9 454)" class="st2 st3 st7">130</text>
		<line class="st8" x1="2004.7" y1="431" x2="2004.7" y2="435"/>
		<line class="st8" x1="732.7" y1="431" x2="2080.6" y2="431"/>
		<text transform="matrix(1 0 0 1 1343.6 479)" class="st2 st3 st9">Horizontal Distance</text>
	</g>
</g>
<g>
	<defs>
		<rect id="SVGID_9_" x="653" y="-348" width="1448" height="832"/>
	</defs>
	<clipPath id="SVGID_10_">
		<use xlink:href="#SVGID_9_"  style="overflow:visible;"/>
	</clipPath>
	<g class="st10">
		<line class="st11" x1="732.7" y1="423.2" x2="2080.6" y2="423.2"/>
		<text transform="matrix(1 0 0 1 688.1 428.7)" class="st2 st3 st7">1,588</text>
		<line class="st11" x1="732.7" y1="391.9" x2="2080.6" y2="391.9"/>
		<text transform="matrix(1 0 0 1 688.1 397.4)" class="st2 st3 st7">1,590</text>
		<line class="st11" x1="732.7" y1="360.6" x2="2080.6" y2="360.6"/>
		<text transform="matrix(1 0 0 1 688.1 366.1)" class="st2 st3 st7">1,592</text>
		<line class="st11" x1="732.7" y1="329.3" x2="2080.6" y2="329.3"/>
		<text transform="matrix(1 0 0 1 688.1 334.8)" class="st2 st3 st7">1,594</text>
		<line class="st11" x1="732.7" y1="298" x2="2080.6" y2="298"/>
		<text transform="matrix(1 0 0 1 688.1 303.5)" class="st2 st3 st7">1,596</text>
		<line class="st11" x1="732.7" y1="266.8" x2="2080.6" y2="266.8"/>
		<text transform="matrix(1 0 0 1 688.1 272.3)" class="st2 st3 st7">1,598</text>
		<line class="st11" x1="732.7" y1="235.5" x2="2080.6" y2="235.5"/>
		<text transform="matrix(1 0 0 1 688.1 241)" class="st2 st3 st7">1,600</text>
		<line class="st11" x1="732.7" y1="204.2" x2="2080.6" y2="204.2"/>
		<text transform="matrix(1 0 0 1 688.1 209.7)" class="st2 st3 st7">1,602</text>
		<line class="st11" x1="732.7" y1="172.9" x2="2080.6" y2="172.9"/>
		<text transform="matrix(1 0 0 1 688.1 178.4)" class="st2 st3 st7">1,604</text>
		<line class="st11" x1="732.7" y1="141.6" x2="2080.6" y2="141.6"/>
		<text transform="matrix(1 0 0 1 688.1 147.1)" class="st2 st3 st7">1,606</text>
		<text class="st12">		<textPath  xlink:href="#SVGID_x5F_11_x5F_" startOffset="32.4281%">
		</textPath>
</text>
		<text transform="matrix(1 0 0 1 688.1 115.8)" class="st2 st3 st7">1,608</text>
		<line class="st11" x1="732.7" y1="79.1" x2="2080.6" y2="79.1"/>
		<text transform="matrix(1 0 0 1 688.1 84.6)" class="st2 st3 st7">1,610</text>
		<line class="st11" x1="732.7" y1="47.8" x2="2080.6" y2="47.8"/>
		<text transform="matrix(1 0 0 1 688.1 53.3)" class="st2 st3 st7">1,612</text>
		<line class="st11" x1="732.7" y1="16.5" x2="2080.6" y2="16.5"/>
		<text transform="matrix(1 0 0 1 688.1 22)" class="st2 st3 st7">1,614</text>
		<line class="st11" x1="732.7" y1="-14.8" x2="2080.6" y2="-14.8"/>
		<text transform="matrix(1 0 0 1 688.1 -9.3)" class="st2 st3 st7">1,616</text>
		<line class="st11" x1="732.7" y1="-46.1" x2="2080.6" y2="-46.1"/>
		<text transform="matrix(1 0 0 1 688.1 -40.6)" class="st2 st3 st7">1,618</text>
		<line class="st11" x1="732.7" y1="-77.3" x2="2080.6" y2="-77.3"/>
		<text transform="matrix(1 0 0 1 688.1 -71.8)" class="st2 st3 st7">1,620</text>
		<line class="st11" x1="732.7" y1="-108.6" x2="2080.6" y2="-108.6"/>
		<text transform="matrix(1 0 0 1 688.1 -103.1)" class="st2 st3 st7">1,622</text>
		<line class="st11" x1="732.7" y1="-139.9" x2="2080.6" y2="-139.9"/>
		<text transform="matrix(1 0 0 1 688.1 -134.4)" class="st2 st3 st7">1,624</text>
		<line class="st11" x1="732.7" y1="-171.2" x2="2080.6" y2="-171.2"/>
		<text transform="matrix(1 0 0 1 688.1 -165.7)" class="st2 st3 st7">1,626</text>
		<line class="st11" x1="732.7" y1="-202.5" x2="2080.6" y2="-202.5"/>
		<text transform="matrix(1 0 0 1 688.1 -197)" class="st2 st3 st7">1,628</text>
		<line class="st11" x1="732.7" y1="-233.8" x2="2080.6" y2="-233.8"/>
		<text transform="matrix(1 0 0 1 688.1 -228.3)" class="st2 st3 st7">1,630</text>
		<line class="st11" x1="732.7" y1="-265" x2="2080.6" y2="-265"/>
		<text transform="matrix(1 0 0 1 688.1 -259.5)" class="st2 st3 st7">1,632</text>
		<line class="st11" x1="732.7" y1="-296.3" x2="2080.6" y2="-296.3"/>
		<text transform="matrix(1 0 0 1 688.1 -290.8)" class="st2 st3 st7">1,634</text>
		<g transform="rotate(-90.0,10.5,411.5)">
			<text transform="matrix(1 0 0 1 325.5996 1072)" class="st2 st3 st9">Elevation</text>
		</g>
		<line class="st13" x1="732.7" y1="-302" x2="732.7" y2="431"/>
	</g>
</g>
<g>
	<g>
		<g>
			<defs>
				<rect id="SVGID_12_" x="731.7" y="-303" width="1349.9" height="735"/>
			</defs>
			<clipPath id="SVGID_13_">
				<use xlink:href="#SVGID_12_"  style="overflow:visible;"/>
			</clipPath>
			<polyline class="st14" points="732.7,351.3 742.5,358.8 752.3,366.2 762,374.3 771.8,383.8 781.6,392.2 791.3,400 801.1,407.3 
				810.9,413.9 820.6,419.1 830.4,422.6 840.2,425.1 849.9,427.4 859.7,429.4 869.5,430.6 879.2,431 889,430.9 898.8,430.4 
				908.5,428.3 918.3,423.6 928.1,417.4 937.8,410.3 947.6,402.5 957.4,394.5 967.1,386.4 976.9,378.6 986.7,370.5 996.4,362.3 
				1006.2,353.4 1016,344.5 1025.7,336.7 1035.5,328.9 1045.3,321.4 1055,315.4 1064.8,309.7 1074.6,303.3 1084.3,296.2 
				1094.1,288.9 1103.9,281.4 1113.6,273.8 1123.4,266.2 1133.2,258.8 1142.9,252.6 1152.7,246.9 1162.5,240.9 1172.2,233.8 
				1182,225.3 1191.8,216.4 1201.5,208.3 1211.3,201.1 1221.1,194.5 1230.8,187.3 1240.6,180 1250.4,172.2 1260.1,163.8 
				1269.9,155.9 1279.7,147.9 1289.4,138.8 1299.2,129 1309,122.2 1318.7,115.8 1328.5,109.7 1338.3,103.3 1348,96.6 1357.8,89.7 
				1367.6,83 1377.4,76.6 1387.1,70.2 1396.9,62.5 1406.7,54.2 1416.4,47.1 1426.2,41.3 1436,35.9 1445.7,29.6 1455.5,22.7 
				1465.3,15.5 1475,7.3 1484.8,-0.3 1494.6,-7.5 1504.3,-15 1514.1,-22.4 1523.9,-29.2 1533.6,-36 1543.4,-43 1553.2,-50.2 
				1562.9,-57.1 1572.7,-63.7 1582.5,-69.9 1592.2,-75.1 1602,-80.4 1611.8,-86.2 1621.5,-92.3 1631.3,-98.2 1641.1,-104.1 
				1650.8,-109.9 1660.6,-115.8 1670.4,-121.4 1680.1,-126.8 1689.9,-132.2 1699.7,-137.7 1709.4,-143.3 1719.2,-148.2 1729,-153.2 
				1738.7,-158.1 1748.5,-163 1758.3,-168.2 1768,-173.8 1777.8,-178.8 1787.6,-182.6 1797.3,-185.7 1807.1,-189.2 1816.9,-193.3 
				1826.6,-197.9 1836.4,-202.9 1846.2,-208.4 1855.9,-213.8 1865.7,-219 1875.5,-224.5 1885.2,-230.4 1895,-235.5 1904.8,-239.7 
				1914.5,-243.7 1924.3,-247.7 1934.1,-252 1943.8,-256 1953.6,-259.3 1963.4,-262.9 1973.1,-266.9 1982.9,-271 1992.7,-274.7 
				2002.4,-277.5 2012.2,-280.5 2022,-284 2031.8,-287.6 2041.5,-291.2 2051.3,-294.5 2061.1,-297.4 2070.8,-299.8 2080.6,-302 			
				"/>
		</g>
	</g>
</g>
<g>
	<defs>
		<rect id="SVGID_14_" x="731.7" y="-303" width="1349.9" height="735"/>
	</defs>
	<clipPath id="SVGID_15_">
		<use xlink:href="#SVGID_14_"  style="overflow:visible;"/>
	</clipPath>
	<g transform="translate(78.71875, 45)" class="st15">
	</g>
</g>
<polygon class="st16" points="1032.7,318.9 1036,325.5 1043.3,326.6 1038,331.7 1039.2,339 1032.7,335.5 1026.2,339 1027.5,331.7 
	1022.2,326.6 1029.5,325.5 "/>
<polygon class="st16" points="1118.9,261 1122.1,267.6 1129.4,268.7 1124.1,273.8 1125.4,281 1118.9,277.6 1112.4,281 1113.6,273.8 
	1108.3,268.7 1115.6,267.6 "/>
<polygon class="st16" points="1190.3,208.4 1193.5,215 1200.8,216 1195.5,221.2 1196.8,228.4 1190.3,225 1183.7,228.4 1185,221.2 
	1179.7,216 1187,215 "/>
<polygon class="st16" points="1223.7,179.9 1227,186.5 1234.3,187.6 1229,192.7 1230.2,200 1223.7,196.5 1217.2,200 1218.5,192.7 
	1213.2,187.6 1220.5,186.5 "/>
<polygon class="st16" points="1267.3,147.4 1270.5,154 1277.8,155.1 1272.5,160.2 1273.8,167.4 1267.3,164 1260.7,167.4 1262,160.2 
	1256.7,155.1 1264,154 "/>
<polygon class="st16" points="1306.3,116.4 1309.5,123 1316.8,124.1 1311.5,129.2 1312.8,136.4 1306.3,133 1299.7,136.4 1301,129.2 
	1295.7,124.1 1303,123 "/>
<polygon class="st16" points="1329.3,99.4 1332.6,106 1339.8,107 1334.6,112.2 1335.8,119.4 1329.3,116 1322.8,119.4 1324,112.2 
	1318.8,107 1326.1,106 "/>
<polygon class="st16" points="1354.5,82.6 1357.8,89.2 1365.1,90.3 1359.8,95.4 1361,102.7 1354.5,99.2 1348,102.7 1349.3,95.4 
	1344,90.3 1351.3,89.2 "/>
<polygon class="st16" points="1392.1,56 1395.4,62.6 1402.7,63.6 1397.4,68.8 1398.6,76 1392.1,72.6 1385.6,76 1386.9,68.8 
	1381.6,63.6 1388.9,62.6 "/>
<polygon class="st16" points="1438.3,24.4 1441.5,31 1448.8,32.1 1443.5,37.2 1444.8,44.4 1438.3,41 1431.7,44.4 1433,37.2 
	1427.7,32.1 1435,31 "/>
<polygon class="st16" points="1547.3,-57.6 1550.5,-51 1557.8,-49.9 1552.5,-44.8 1553.8,-37.6 1547.3,-41 1540.7,-37.6 1542,-44.8 
	1536.7,-49.9 1544,-51 "/>
<polygon class="st16" points="1837,-212.6 1840.3,-206 1847.5,-205 1842.3,-199.8 1843.5,-192.6 1837,-196 1830.5,-192.6 
	1831.7,-199.8 1826.5,-205 1833.7,-206 "/>
<polygon class="st16" points="1926.3,-259.8 1929.5,-253.2 1936.8,-252.1 1931.5,-247 1932.8,-239.8 1926.3,-243.2 1919.8,-239.8 
	1921,-247 1915.7,-252.1 1923,-253.2 "/>
<polygon class="st16" points="2075.7,-313 2079,-306.4 2086.3,-305.4 2081,-300.2 2082.3,-293 2075.7,-296.4 2069.2,-293 
	2070.5,-300.2 2065.2,-305.4 2072.5,-306.4 "/>
<text transform="matrix(1 0 0 1 975 328.9538)" class="st17 st9">0.57 m</text>
<text transform="matrix(1 0 0 1 1062 271.0328)" class="st17 st9">0.58 m</text>
<text transform="matrix(1 0 0 1 1141 223.9538)" class="st17 st9">1.1 m</text>
<text transform="matrix(1 0 0 1 1173 189.9535)" class="st17 st9">1.28 m</text>
<text transform="matrix(1 0 0 1 1225 157.4197)" class="st17 st9">0.38 m</text>
<text transform="matrix(1 0 0 1 1253 126.4197)" class="st17 st9">1.02 m</text>
<text transform="matrix(1 0 0 1 1277.7784 109.3984)" class="st17 st9">0.84 m</text>
<text transform="matrix(1 0 0 1 1302 92.6535)" class="st17 st9">0.74 m</text>
<text transform="matrix(1 0 0 1 1389.5984 34.4197)" class="st17 st9">1.07 m</text>
<text transform="matrix(1 0 0 1 1339.8301 67.9997)" class="st17 st9">0.9 m</text>
<text transform="matrix(1 0 0 1 1504 -47.5803)" class="st17 st9">1.2 m</text>
<text transform="matrix(1 0 0 1 1789 -201.0462)" class="st17 st9">1.79 m</text>
<text transform="matrix(1 0 0 1 1878 -249.7672)" class="st17 st9">1.97 m</text>
<text transform="matrix(1 0 0 1 2041 -307.0462)" class="st17 st9">0.49</text>
<g>
	<g>
		<defs>
			<polygon id="SVGID_16_" points="791.2,-168.6 1213.2,-168.6 1213.2,-201 791.2,-201 791.2,-168.6 			"/>
		</defs>
		<clipPath id="SVGID_17_">
			<use xlink:href="#SVGID_16_"  style="overflow:visible;"/>
		</clipPath>
		<g style="clip-path:url(#SVGID_17_);">
			
				<image style="overflow:visible;" width="831" height="63" xlink:href="C4EDCB59.png"  transform="matrix(0.5079 0 0 0.5143 791.1679 -201.0462)">
			</image>
		</g>
	</g>
</g>
<line class="st18" x1="1032" y1="328.6" x2="1032" y2="171.9"/>
<line class="st18" x1="1227" y1="172" x2="1227" y2="29"/>
<line class="st18" x1="1422.3" y1="29.4" x2="1422.3" y2="-109.6"/>
<line class="st18" x1="1618.3" y1="-109.1" x2="1618.3" y2="-220"/>
<line class="st18" x1="1814.6" y1="-220" x2="1814.6" y2="-303"/>
<line class="st18" x1="1031.3" y1="172" x2="1227.4" y2="172"/>
<line class="st18" x1="1227.4" y1="29.4" x2="1423.5" y2="29.4"/>
<line class="st18" x1="1422.3" y1="-109.1" x2="1618.4" y2="-109.1"/>
<line class="st18" x1="1618.8" y1="-220" x2="1814.9" y2="-220"/>
<text transform="matrix(1 0 0 1 1022.2112 102.6647)"><tspan x="0" y="0" class="st17 st9">Slope:  0.48</tspan><tspan x="0" y="14.4" class="st17 st9">Curvature: -2.91</tspan><tspan x="0" y="28.8" class="st17 st9">Max Bed Thickness:</tspan><tspan x="0" y="43.2" class="st17 st9">Mean Bed Thickness:</tspan><tspan x="0" y="57.6" class="st17 st9">Min Bed Thickness</tspan></text>
</svg>
