<?xml version="1.0" standalone="no"?>
<!DOCTYPE svg PUBLIC "-//W3C//DTD SVG 1.1//EN" "http://www.w3.org/Graphics/SVG/1.1/DTD/svg11.dtd">
<svg version="1.1" baseProfile="full"
xmlns="http://www.w3.org/2000/svg"
xmlns:xlink="http://www.w3.org/1999/xlink"
width="334px" height="206px" style="text-antialiasing:true">
<rect  x="0" y="0"  width="333" height="205" fill="white"/>
<rect  x="0" y="0"  width="333" height="205" fill="none" stroke="rgb(160,160,160)"/>
<text x="102" y="25" font-family="Arial" font-size="11pt"  font-weight="bold" fill="black">
Profile&#32;Graph&#32;Title
</text>
<text x="15" y="194" font-family="Arial" font-size="8pt"  font-style="italic" fill="black">
Profile&#32;Graph&#32;Subtitle
</text>
<rect  x="47" y="35"  width="276" height="123" fill="rgb(226,226,226)" stroke="gray"/>
<line x1="47" y1="158" x2="323" y2="158" fill="none"  stroke="black"/>
<line x1="321" y1="159" x2="321" y2="163" fill="none"  stroke="black"/>
<line x1="300" y1="159" x2="300" y2="163" fill="none"  stroke="black"/>
<line x1="279" y1="159" x2="279" y2="163" fill="none"  stroke="black"/>
<line x1="258" y1="159" x2="258" y2="163" fill="none"  stroke="black"/>
<line x1="237" y1="159" x2="237" y2="163" fill="none"  stroke="black"/>
<line x1="217" y1="159" x2="217" y2="163" fill="none"  stroke="black"/>
<line x1="196" y1="159" x2="196" y2="163" fill="none"  stroke="black"/>
<line x1="175" y1="159" x2="175" y2="163" fill="none"  stroke="black"/>
<line x1="154" y1="159" x2="154" y2="163" fill="none"  stroke="black"/>
<line x1="133" y1="159" x2="133" y2="163" fill="none"  stroke="black"/>
<line x1="112" y1="159" x2="112" y2="163" fill="none"  stroke="black"/>
<line x1="92" y1="159" x2="92" y2="163" fill="none"  stroke="black"/>
<line x1="71" y1="159" x2="71" y2="163" fill="none"  stroke="black"/>
<line x1="50" y1="159" x2="50" y2="163" fill="none"  stroke="black"/>
<text x="315" y="175" font-family="Arial" font-size="8pt"  fill="black">
65
</text>
<text x="294" y="175" font-family="Arial" font-size="8pt"  fill="black">
60
</text>
<text x="273" y="175" font-family="Arial" font-size="8pt"  fill="black">
55
</text>
<text x="252" y="175" font-family="Arial" font-size="8pt"  fill="black">
50
</text>
<text x="231" y="175" font-family="Arial" font-size="8pt"  fill="black">
45
</text>
<text x="211" y="175" font-family="Arial" font-size="8pt"  fill="black">
40
</text>
<text x="190" y="175" font-family="Arial" font-size="8pt"  fill="black">
35
</text>
<text x="169" y="175" font-family="Arial" font-size="8pt"  fill="black">
30
</text>
<text x="148" y="175" font-family="Arial" font-size="8pt"  fill="black">
25
</text>
<text x="127" y="175" font-family="Arial" font-size="8pt"  fill="black">
20
</text>
<text x="106" y="175" font-family="Arial" font-size="8pt"  fill="black">
15
</text>
<text x="86" y="175" font-family="Arial" font-size="8pt"  fill="black">
10
</text>
<text x="68" y="175" font-family="Arial" font-size="8pt"  fill="black">
5
</text>
<text x="47" y="175" font-family="Arial" font-size="8pt"  fill="black">
0
</text>
<line x1="47" y1="35" x2="47" y2="158" fill="none"  stroke="black"/>
<line x1="46" y1="58" x2="42" y2="58" fill="none"  stroke="black"/>
<line x1="46" y1="82" x2="42" y2="82" fill="none"  stroke="black"/>
<line x1="46" y1="105" x2="42" y2="105" fill="none"  stroke="black"/>
<line x1="46" y1="128" x2="42" y2="128" fill="none"  stroke="black"/>
<line x1="46" y1="152" x2="42" y2="152" fill="none"  stroke="black"/>
<line x1="48" y1="58" x2="323" y2="58" fill="none"  stroke="gray"/>
<line x1="48" y1="82" x2="323" y2="82" fill="none"  stroke="gray"/>
<line x1="48" y1="105" x2="323" y2="105" fill="none"  stroke="gray"/>
<line x1="48" y1="128" x2="323" y2="128" fill="none"  stroke="gray"/>
<line x1="48" y1="152" x2="323" y2="152" fill="none"  stroke="gray"/>
<text x="14" y="62" font-family="Arial" font-size="8pt"  fill="black">
1,595
</text>
<text x="14" y="86" font-family="Arial" font-size="8pt"  fill="black">
1,590
</text>
<text x="14" y="109" font-family="Arial" font-size="8pt"  fill="black">
1,585
</text>
<text x="14" y="132" font-family="Arial" font-size="8pt"  fill="black">
1,580
</text>
<text x="14" y="156" font-family="Arial" font-size="8pt"  fill="black">
1,575
</text>
<g clip-path="url(#Clip1)">
<defs>
<clipPath id="Clip1" style="clip-rule:nonzero">
<rect  x="48" y="35"  width="274" height="122"/>
</clipPath>
</defs>
<line x1="50" y1="155" x2="51" y2="155" fill="none"  stroke="black" stroke-width="2"/>
<line x1="51" y1="155" x2="52" y2="154" fill="none"  stroke="black" stroke-width="2"/>
<line x1="52" y1="154" x2="53" y2="154" fill="none"  stroke="black" stroke-width="2"/>
<line x1="53" y1="154" x2="53" y2="153" fill="none"  stroke="black" stroke-width="2"/>
<line x1="53" y1="153" x2="54" y2="153" fill="none"  stroke="black" stroke-width="2"/>
<line x1="54" y1="153" x2="55" y2="153" fill="none"  stroke="black" stroke-width="2"/>
<line x1="55" y1="153" x2="56" y2="153" fill="none"  stroke="black" stroke-width="2"/>
<line x1="56" y1="153" x2="56" y2="152" fill="none"  stroke="black" stroke-width="2"/>
<line x1="56" y1="152" x2="57" y2="152" fill="none"  stroke="black" stroke-width="2"/>
<line x1="57" y1="152" x2="58" y2="152" fill="none"  stroke="black" stroke-width="2"/>
<line x1="58" y1="152" x2="58" y2="151" fill="none"  stroke="black" stroke-width="2"/>
<line x1="58" y1="151" x2="59" y2="151" fill="none"  stroke="black" stroke-width="2"/>
<line x1="59" y1="151" x2="60" y2="151" fill="none"  stroke="black" stroke-width="2"/>
<line x1="60" y1="151" x2="61" y2="151" fill="none"  stroke="black" stroke-width="2"/>
<line x1="61" y1="151" x2="61" y2="150" fill="none"  stroke="black" stroke-width="2"/>
<line x1="61" y1="150" x2="62" y2="150" fill="none"  stroke="black" stroke-width="2"/>
<line x1="62" y1="150" x2="63" y2="150" fill="none"  stroke="black" stroke-width="2"/>
<line x1="63" y1="150" x2="64" y2="150" fill="none"  stroke="black" stroke-width="2"/>
<line x1="64" y1="150" x2="64" y2="149" fill="none"  stroke="black" stroke-width="2"/>
<line x1="64" y1="149" x2="65" y2="149" fill="none"  stroke="black" stroke-width="2"/>
<line x1="65" y1="149" x2="66" y2="149" fill="none"  stroke="black" stroke-width="2"/>
<line x1="66" y1="149" x2="66" y2="148" fill="none"  stroke="black" stroke-width="2"/>
<line x1="66" y1="148" x2="67" y2="148" fill="none"  stroke="black" stroke-width="2"/>
<line x1="67" y1="148" x2="68" y2="148" fill="none"  stroke="black" stroke-width="2"/>
<line x1="68" y1="148" x2="69" y2="147" fill="none"  stroke="black" stroke-width="2"/>
<line x1="69" y1="147" x2="70" y2="147" fill="none"  stroke="black" stroke-width="2"/>
<line x1="70" y1="147" x2="71" y2="147" fill="none"  stroke="black" stroke-width="2"/>
<line x1="71" y1="147" x2="71" y2="146" fill="none"  stroke="black" stroke-width="2"/>
<line x1="71" y1="146" x2="72" y2="146" fill="none"  stroke="black" stroke-width="2"/>
<line x1="72" y1="146" x2="73" y2="145" fill="none"  stroke="black" stroke-width="2"/>
<line x1="73" y1="145" x2="74" y2="145" fill="none"  stroke="black" stroke-width="2"/>
<line x1="74" y1="145" x2="75" y2="145" fill="none"  stroke="black" stroke-width="2"/>
<line x1="75" y1="145" x2="75" y2="144" fill="none"  stroke="black" stroke-width="2"/>
<line x1="75" y1="144" x2="76" y2="144" fill="none"  stroke="black" stroke-width="2"/>
<line x1="76" y1="144" x2="77" y2="144" fill="none"  stroke="black" stroke-width="2"/>
<line x1="77" y1="144" x2="78" y2="143" fill="none"  stroke="black" stroke-width="2"/>
<line x1="78" y1="143" x2="79" y2="143" fill="none"  stroke="black" stroke-width="2"/>
<line x1="79" y1="143" x2="79" y2="142" fill="none"  stroke="black" stroke-width="2"/>
<line x1="79" y1="142" x2="80" y2="142" fill="none"  stroke="black" stroke-width="2"/>
<line x1="80" y1="142" x2="81" y2="141" fill="none"  stroke="black" stroke-width="2"/>
<line x1="81" y1="141" x2="82" y2="140" fill="none"  stroke="black" stroke-width="2"/>
<line x1="82" y1="140" x2="83" y2="140" fill="none"  stroke="black" stroke-width="2"/>
<line x1="83" y1="140" x2="84" y2="140" fill="none"  stroke="black" stroke-width="2"/>
<line x1="84" y1="140" x2="84" y2="139" fill="none"  stroke="black" stroke-width="2"/>
<line x1="84" y1="139" x2="85" y2="138" fill="none"  stroke="black" stroke-width="2"/>
<line x1="85" y1="138" x2="85" y2="137" fill="none"  stroke="black" stroke-width="2"/>
<line x1="85" y1="137" x2="86" y2="137" fill="none"  stroke="black" stroke-width="2"/>
<line x1="86" y1="137" x2="87" y2="137" fill="none"  stroke="black" stroke-width="2"/>
<line x1="87" y1="137" x2="88" y2="137" fill="none"  stroke="black" stroke-width="2"/>
<line x1="88" y1="137" x2="89" y2="137" fill="none"  stroke="black" stroke-width="2"/>
<line x1="89" y1="137" x2="89" y2="136" fill="none"  stroke="black" stroke-width="2"/>
<line x1="89" y1="136" x2="90" y2="136" fill="none"  stroke="black" stroke-width="2"/>
<line x1="90" y1="136" x2="91" y2="136" fill="none"  stroke="black" stroke-width="2"/>
<line x1="91" y1="136" x2="91" y2="135" fill="none"  stroke="black" stroke-width="2"/>
<line x1="91" y1="135" x2="92" y2="135" fill="none"  stroke="black" stroke-width="2"/>
<line x1="92" y1="135" x2="93" y2="135" fill="none"  stroke="black" stroke-width="2"/>
<line x1="93" y1="135" x2="93" y2="134" fill="none"  stroke="black" stroke-width="2"/>
<line x1="93" y1="134" x2="94" y2="134" fill="none"  stroke="black" stroke-width="2"/>
<line x1="94" y1="134" x2="95" y2="134" fill="none"  stroke="black" stroke-width="2"/>
<line x1="95" y1="134" x2="96" y2="133" fill="none"  stroke="black" stroke-width="2"/>
<line x1="96" y1="133" x2="97" y2="133" fill="none"  stroke="black" stroke-width="2"/>
<line x1="97" y1="133" x2="98" y2="133" fill="none"  stroke="black" stroke-width="2"/>
<line x1="98" y1="133" x2="99" y2="132" fill="none"  stroke="black" stroke-width="2"/>
<line x1="99" y1="132" x2="100" y2="132" fill="none"  stroke="black" stroke-width="2"/>
<line x1="100" y1="132" x2="101" y2="132" fill="none"  stroke="black" stroke-width="2"/>
<line x1="101" y1="132" x2="102" y2="131" fill="none"  stroke="black" stroke-width="2"/>
<line x1="102" y1="131" x2="103" y2="131" fill="none"  stroke="black" stroke-width="2"/>
<line x1="103" y1="131" x2="104" y2="131" fill="none"  stroke="black" stroke-width="2"/>
<line x1="104" y1="131" x2="104" y2="130" fill="none"  stroke="black" stroke-width="2"/>
<line x1="104" y1="130" x2="105" y2="130" fill="none"  stroke="black" stroke-width="2"/>
<line x1="105" y1="130" x2="106" y2="129" fill="none"  stroke="black" stroke-width="2"/>
<line x1="106" y1="129" x2="107" y2="129" fill="none"  stroke="black" stroke-width="2"/>
<line x1="107" y1="129" x2="108" y2="128" fill="none"  stroke="black" stroke-width="2"/>
<line x1="108" y1="128" x2="109" y2="128" fill="none"  stroke="black" stroke-width="2"/>
<line x1="109" y1="128" x2="110" y2="128" fill="none"  stroke="black" stroke-width="2"/>
<line x1="110" y1="128" x2="110" y2="127" fill="none"  stroke="black" stroke-width="2"/>
<line x1="110" y1="127" x2="111" y2="127" fill="none"  stroke="black" stroke-width="2"/>
<line x1="111" y1="127" x2="112" y2="127" fill="none"  stroke="black" stroke-width="2"/>
<line x1="112" y1="127" x2="112" y2="126" fill="none"  stroke="black" stroke-width="2"/>
<line x1="112" y1="126" x2="113" y2="126" fill="none"  stroke="black" stroke-width="2"/>
<line x1="113" y1="126" x2="114" y2="126" fill="none"  stroke="black" stroke-width="2"/>
<line x1="114" y1="126" x2="115" y2="125" fill="none"  stroke="black" stroke-width="2"/>
<line x1="115" y1="125" x2="116" y2="125" fill="none"  stroke="black" stroke-width="2"/>
<line x1="116" y1="125" x2="117" y2="124" fill="none"  stroke="black" stroke-width="2"/>
<line x1="117" y1="124" x2="118" y2="124" fill="none"  stroke="black" stroke-width="2"/>
<line x1="118" y1="124" x2="119" y2="123" fill="none"  stroke="black" stroke-width="2"/>
<line x1="119" y1="123" x2="120" y2="123" fill="none"  stroke="black" stroke-width="2"/>
<line x1="120" y1="123" x2="121" y2="123" fill="none"  stroke="black" stroke-width="2"/>
<line x1="121" y1="123" x2="121" y2="122" fill="none"  stroke="black" stroke-width="2"/>
<line x1="121" y1="122" x2="122" y2="122" fill="none"  stroke="black" stroke-width="2"/>
<line x1="122" y1="122" x2="123" y2="121" fill="none"  stroke="black" stroke-width="2"/>
<line x1="123" y1="121" x2="124" y2="121" fill="none"  stroke="black" stroke-width="2"/>
<line x1="124" y1="121" x2="125" y2="120" fill="none"  stroke="black" stroke-width="2"/>
<line x1="125" y1="120" x2="126" y2="120" fill="none"  stroke="black" stroke-width="2"/>
<line x1="126" y1="120" x2="127" y2="119" fill="none"  stroke="black" stroke-width="2"/>
<line x1="127" y1="119" x2="127" y2="118" fill="none"  stroke="black" stroke-width="2"/>
<line x1="127" y1="118" x2="128" y2="118" fill="none"  stroke="black" stroke-width="2"/>
<line x1="128" y1="118" x2="129" y2="118" fill="none"  stroke="black" stroke-width="2"/>
<line x1="129" y1="118" x2="130" y2="118" fill="none"  stroke="black" stroke-width="2"/>
<line x1="130" y1="118" x2="130" y2="117" fill="none"  stroke="black" stroke-width="2"/>
<line x1="130" y1="117" x2="131" y2="117" fill="none"  stroke="black" stroke-width="2"/>
<line x1="131" y1="117" x2="132" y2="117" fill="none"  stroke="black" stroke-width="2"/>
<line x1="132" y1="117" x2="133" y2="117" fill="none"  stroke="black" stroke-width="2"/>
<line x1="133" y1="117" x2="133" y2="116" fill="none"  stroke="black" stroke-width="2"/>
<line x1="133" y1="116" x2="134" y2="116" fill="none"  stroke="black" stroke-width="2"/>
<line x1="134" y1="116" x2="135" y2="116" fill="none"  stroke="black" stroke-width="2"/>
<line x1="135" y1="116" x2="135" y2="115" fill="none"  stroke="black" stroke-width="2"/>
<line x1="135" y1="115" x2="136" y2="115" fill="none"  stroke="black" stroke-width="2"/>
<line x1="136" y1="115" x2="137" y2="115" fill="none"  stroke="black" stroke-width="2"/>
<line x1="137" y1="115" x2="138" y2="114" fill="none"  stroke="black" stroke-width="2"/>
<line x1="138" y1="114" x2="139" y2="114" fill="none"  stroke="black" stroke-width="2"/>
<line x1="139" y1="114" x2="140" y2="114" fill="none"  stroke="black" stroke-width="2"/>
<line x1="140" y1="114" x2="141" y2="114" fill="none"  stroke="black" stroke-width="2"/>
<line x1="141" y1="114" x2="142" y2="113" fill="none"  stroke="black" stroke-width="2"/>
<line x1="142" y1="113" x2="142" y2="112" fill="none"  stroke="black" stroke-width="2"/>
<line x1="142" y1="112" x2="143" y2="112" fill="none"  stroke="black" stroke-width="2"/>
<line x1="143" y1="112" x2="143" y2="111" fill="none"  stroke="black" stroke-width="2"/>
<line x1="143" y1="111" x2="144" y2="110" fill="none"  stroke="black" stroke-width="2"/>
<line x1="144" y1="110" x2="145" y2="110" fill="none"  stroke="black" stroke-width="2"/>
<line x1="145" y1="110" x2="145" y2="109" fill="none"  stroke="black" stroke-width="2"/>
<line x1="145" y1="109" x2="145" y2="108" fill="none"  stroke="black" stroke-width="2"/>
<line x1="145" y1="108" x2="146" y2="107" fill="none"  stroke="black" stroke-width="2"/>
<line x1="146" y1="107" x2="147" y2="106" fill="none"  stroke="black" stroke-width="2"/>
<line x1="147" y1="106" x2="148" y2="105" fill="none"  stroke="black" stroke-width="2"/>
<line x1="148" y1="105" x2="149" y2="105" fill="none"  stroke="black" stroke-width="2"/>
<line x1="149" y1="105" x2="150" y2="104" fill="none"  stroke="black" stroke-width="2"/>
<line x1="150" y1="104" x2="151" y2="104" fill="none"  stroke="black" stroke-width="2"/>
<line x1="151" y1="104" x2="152" y2="104" fill="none"  stroke="black" stroke-width="2"/>
<line x1="152" y1="104" x2="152" y2="103" fill="none"  stroke="black" stroke-width="2"/>
<line x1="152" y1="103" x2="153" y2="103" fill="none"  stroke="black" stroke-width="2"/>
<line x1="153" y1="103" x2="154" y2="103" fill="none"  stroke="black" stroke-width="2"/>
<line x1="154" y1="103" x2="154" y2="102" fill="none"  stroke="black" stroke-width="2"/>
<line x1="154" y1="102" x2="155" y2="102" fill="none"  stroke="black" stroke-width="2"/>
<line x1="155" y1="102" x2="156" y2="102" fill="none"  stroke="black" stroke-width="2"/>
<line x1="156" y1="102" x2="157" y2="102" fill="none"  stroke="black" stroke-width="2"/>
<line x1="157" y1="102" x2="157" y2="101" fill="none"  stroke="black" stroke-width="2"/>
<line x1="157" y1="101" x2="158" y2="101" fill="none"  stroke="black" stroke-width="2"/>
<line x1="158" y1="101" x2="159" y2="101" fill="none"  stroke="black" stroke-width="2"/>
<line x1="159" y1="101" x2="160" y2="100" fill="none"  stroke="black" stroke-width="2"/>
<line x1="160" y1="100" x2="161" y2="100" fill="none"  stroke="black" stroke-width="2"/>
<line x1="161" y1="100" x2="162" y2="100" fill="none"  stroke="black" stroke-width="2"/>
<line x1="162" y1="100" x2="163" y2="99" fill="none"  stroke="black" stroke-width="2"/>
<line x1="163" y1="99" x2="164" y2="99" fill="none"  stroke="black" stroke-width="2"/>
<line x1="164" y1="99" x2="165" y2="99" fill="none"  stroke="black" stroke-width="2"/>
<line x1="165" y1="99" x2="165" y2="98" fill="none"  stroke="black" stroke-width="2"/>
<line x1="165" y1="98" x2="166" y2="98" fill="none"  stroke="black" stroke-width="2"/>
<line x1="166" y1="98" x2="167" y2="98" fill="none"  stroke="black" stroke-width="2"/>
<line x1="167" y1="98" x2="168" y2="97" fill="none"  stroke="black" stroke-width="2"/>
<line x1="168" y1="97" x2="169" y2="97" fill="none"  stroke="black" stroke-width="2"/>
<line x1="169" y1="97" x2="170" y2="97" fill="none"  stroke="black" stroke-width="2"/>
<line x1="170" y1="97" x2="170" y2="96" fill="none"  stroke="black" stroke-width="2"/>
<line x1="170" y1="96" x2="171" y2="96" fill="none"  stroke="black" stroke-width="2"/>
<line x1="171" y1="96" x2="172" y2="95" fill="none"  stroke="black" stroke-width="2"/>
<line x1="172" y1="95" x2="173" y2="95" fill="none"  stroke="black" stroke-width="2"/>
<line x1="173" y1="95" x2="173" y2="94" fill="none"  stroke="black" stroke-width="2"/>
<line x1="173" y1="94" x2="174" y2="94" fill="none"  stroke="black" stroke-width="2"/>
<line x1="174" y1="94" x2="174" y2="93" fill="none"  stroke="black" stroke-width="2"/>
<line x1="174" y1="93" x2="175" y2="93" fill="none"  stroke="black" stroke-width="2"/>
<line x1="175" y1="93" x2="176" y2="89" fill="none"  stroke="black" stroke-width="2"/>
<line x1="176" y1="89" x2="176" y2="79" fill="none"  stroke="black" stroke-width="2"/>
<line x1="176" y1="79" x2="177" y2="78" fill="none"  stroke="black" stroke-width="2"/>
<line x1="177" y1="78" x2="178" y2="78" fill="none"  stroke="black" stroke-width="2"/>
<line x1="178" y1="78" x2="179" y2="78" fill="none"  stroke="black" stroke-width="2"/>
<line x1="179" y1="78" x2="180" y2="77" fill="none"  stroke="black" stroke-width="2"/>
<line x1="180" y1="77" x2="181" y2="77" fill="none"  stroke="black" stroke-width="2"/>
<line x1="181" y1="77" x2="182" y2="77" fill="none"  stroke="black" stroke-width="2"/>
<line x1="182" y1="77" x2="183" y2="77" fill="none"  stroke="black" stroke-width="2"/>
<line x1="183" y1="77" x2="184" y2="77" fill="none"  stroke="black" stroke-width="2"/>
<line x1="184" y1="77" x2="185" y2="77" fill="none"  stroke="black" stroke-width="2"/>
<line x1="185" y1="77" x2="185" y2="76" fill="none"  stroke="black" stroke-width="2"/>
<line x1="185" y1="76" x2="186" y2="76" fill="none"  stroke="black" stroke-width="2"/>
<line x1="186" y1="76" x2="187" y2="76" fill="none"  stroke="black" stroke-width="2"/>
<line x1="187" y1="76" x2="188" y2="77" fill="none"  stroke="black" stroke-width="2"/>
<line x1="188" y1="77" x2="188" y2="76" fill="none"  stroke="black" stroke-width="2"/>
<line x1="188" y1="76" x2="188" y2="77" fill="none"  stroke="black" stroke-width="2"/>
<line x1="188" y1="77" x2="189" y2="77" fill="none"  stroke="black" stroke-width="2"/>
<line x1="189" y1="77" x2="189" y2="76" fill="none"  stroke="black" stroke-width="2"/>
<line x1="189" y1="76" x2="190" y2="76" fill="none"  stroke="black" stroke-width="2"/>
<line x1="190" y1="76" x2="191" y2="76" fill="none"  stroke="black" stroke-width="2"/>
<line x1="191" y1="76" x2="191" y2="75" fill="none"  stroke="black" stroke-width="2"/>
<line x1="191" y1="75" x2="192" y2="75" fill="none"  stroke="black" stroke-width="2"/>
<line x1="192" y1="75" x2="193" y2="75" fill="none"  stroke="black" stroke-width="2"/>
<line x1="193" y1="75" x2="194" y2="75" fill="none"  stroke="black" stroke-width="2"/>
<line x1="194" y1="75" x2="195" y2="75" fill="none"  stroke="black" stroke-width="2"/>
<line x1="195" y1="75" x2="196" y2="75" fill="none"  stroke="black" stroke-width="2"/>
<line x1="196" y1="75" x2="197" y2="75" fill="none"  stroke="black" stroke-width="2"/>
<line x1="197" y1="75" x2="198" y2="75" fill="none"  stroke="black" stroke-width="2"/>
<line x1="198" y1="75" x2="199" y2="74" fill="none"  stroke="black" stroke-width="2"/>
<line x1="199" y1="74" x2="200" y2="74" fill="none"  stroke="black" stroke-width="2"/>
<line x1="200" y1="74" x2="201" y2="74" fill="none"  stroke="black" stroke-width="2"/>
<line x1="201" y1="74" x2="201" y2="73" fill="none"  stroke="black" stroke-width="2"/>
<line x1="201" y1="73" x2="202" y2="73" fill="none"  stroke="black" stroke-width="2"/>
<line x1="202" y1="73" x2="202" y2="72" fill="none"  stroke="black" stroke-width="2"/>
<line x1="202" y1="72" x2="203" y2="71" fill="none"  stroke="black" stroke-width="2"/>
<line x1="203" y1="71" x2="204" y2="71" fill="none"  stroke="black" stroke-width="2"/>
<line x1="204" y1="71" x2="205" y2="71" fill="none"  stroke="black" stroke-width="2"/>
<line x1="205" y1="71" x2="206" y2="71" fill="none"  stroke="black" stroke-width="2"/>
<line x1="206" y1="71" x2="206" y2="70" fill="none"  stroke="black" stroke-width="2"/>
<line x1="206" y1="70" x2="207" y2="70" fill="none"  stroke="black" stroke-width="2"/>
<line x1="207" y1="70" x2="208" y2="70" fill="none"  stroke="black" stroke-width="2"/>
<line x1="208" y1="70" x2="209" y2="70" fill="none"  stroke="black" stroke-width="2"/>
<line x1="209" y1="70" x2="209" y2="71" fill="none"  stroke="black" stroke-width="2"/>
<line x1="209" y1="71" x2="210" y2="71" fill="none"  stroke="black" stroke-width="2"/>
<line x1="210" y1="71" x2="211" y2="71" fill="none"  stroke="black" stroke-width="2"/>
<line x1="211" y1="71" x2="212" y2="71" fill="none"  stroke="black" stroke-width="2"/>
<line x1="212" y1="71" x2="213" y2="71" fill="none"  stroke="black" stroke-width="2"/>
<line x1="213" y1="71" x2="214" y2="71" fill="none"  stroke="black" stroke-width="2"/>
<line x1="214" y1="71" x2="215" y2="70" fill="none"  stroke="black" stroke-width="2"/>
<line x1="215" y1="70" x2="216" y2="70" fill="none"  stroke="black" stroke-width="2"/>
<line x1="216" y1="70" x2="217" y2="70" fill="none"  stroke="black" stroke-width="2"/>
<line x1="217" y1="70" x2="218" y2="70" fill="none"  stroke="black" stroke-width="2"/>
<line x1="218" y1="70" x2="219" y2="69" fill="none"  stroke="black" stroke-width="2"/>
<line x1="219" y1="69" x2="220" y2="69" fill="none"  stroke="black" stroke-width="2"/>
<line x1="220" y1="69" x2="221" y2="69" fill="none"  stroke="black" stroke-width="2"/>
<line x1="221" y1="69" x2="222" y2="69" fill="none"  stroke="black" stroke-width="2"/>
<line x1="222" y1="69" x2="223" y2="69" fill="none"  stroke="black" stroke-width="2"/>
<line x1="223" y1="69" x2="224" y2="69" fill="none"  stroke="black" stroke-width="2"/>
<line x1="224" y1="69" x2="224" y2="68" fill="none"  stroke="black" stroke-width="2"/>
<line x1="224" y1="68" x2="225" y2="68" fill="none"  stroke="black" stroke-width="2"/>
<line x1="225" y1="68" x2="226" y2="68" fill="none"  stroke="black" stroke-width="2"/>
<line x1="226" y1="68" x2="227" y2="68" fill="none"  stroke="black" stroke-width="2"/>
<line x1="227" y1="68" x2="227" y2="67" fill="none"  stroke="black" stroke-width="2"/>
<line x1="227" y1="67" x2="228" y2="67" fill="none"  stroke="black" stroke-width="2"/>
<line x1="228" y1="67" x2="229" y2="67" fill="none"  stroke="black" stroke-width="2"/>
<line x1="229" y1="67" x2="230" y2="67" fill="none"  stroke="black" stroke-width="2"/>
<line x1="230" y1="67" x2="230" y2="66" fill="none"  stroke="black" stroke-width="2"/>
<line x1="230" y1="66" x2="231" y2="66" fill="none"  stroke="black" stroke-width="2"/>
<line x1="231" y1="66" x2="232" y2="66" fill="none"  stroke="black" stroke-width="2"/>
<line x1="232" y1="66" x2="233" y2="66" fill="none"  stroke="black" stroke-width="2"/>
<line x1="233" y1="66" x2="234" y2="66" fill="none"  stroke="black" stroke-width="2"/>
<line x1="234" y1="66" x2="234" y2="65" fill="none"  stroke="black" stroke-width="2"/>
<line x1="234" y1="65" x2="235" y2="65" fill="none"  stroke="black" stroke-width="2"/>
<line x1="235" y1="65" x2="236" y2="65" fill="none"  stroke="black" stroke-width="2"/>
<line x1="236" y1="65" x2="237" y2="65" fill="none"  stroke="black" stroke-width="2"/>
<line x1="237" y1="65" x2="238" y2="65" fill="none"  stroke="black" stroke-width="2"/>
<line x1="238" y1="65" x2="239" y2="64" fill="none"  stroke="black" stroke-width="2"/>
<line x1="239" y1="64" x2="240" y2="64" fill="none"  stroke="black" stroke-width="2"/>
<line x1="240" y1="64" x2="241" y2="64" fill="none"  stroke="black" stroke-width="2"/>
<line x1="241" y1="64" x2="242" y2="64" fill="none"  stroke="black" stroke-width="2"/>
<line x1="242" y1="64" x2="242" y2="63" fill="none"  stroke="black" stroke-width="2"/>
<line x1="242" y1="63" x2="243" y2="63" fill="none"  stroke="black" stroke-width="2"/>
<line x1="243" y1="63" x2="244" y2="63" fill="none"  stroke="black" stroke-width="2"/>
<line x1="244" y1="63" x2="244" y2="62" fill="none"  stroke="black" stroke-width="2"/>
<line x1="244" y1="62" x2="245" y2="62" fill="none"  stroke="black" stroke-width="2"/>
<line x1="245" y1="62" x2="246" y2="61" fill="none"  stroke="black" stroke-width="2"/>
<line x1="246" y1="61" x2="247" y2="61" fill="none"  stroke="black" stroke-width="2"/>
<line x1="247" y1="61" x2="248" y2="61" fill="none"  stroke="black" stroke-width="2"/>
<line x1="248" y1="61" x2="248" y2="60" fill="none"  stroke="black" stroke-width="2"/>
<line x1="248" y1="60" x2="249" y2="60" fill="none"  stroke="black" stroke-width="2"/>
<line x1="249" y1="60" x2="249" y2="61" fill="none"  stroke="black" stroke-width="2"/>
<line x1="249" y1="61" x2="250" y2="61" fill="none"  stroke="black" stroke-width="2"/>
<line x1="250" y1="61" x2="251" y2="61" fill="none"  stroke="black" stroke-width="2"/>
<line x1="251" y1="61" x2="252" y2="61" fill="none"  stroke="black" stroke-width="2"/>
<line x1="252" y1="61" x2="252" y2="60" fill="none"  stroke="black" stroke-width="2"/>
<line x1="252" y1="60" x2="253" y2="60" fill="none"  stroke="black" stroke-width="2"/>
<line x1="253" y1="60" x2="254" y2="60" fill="none"  stroke="black" stroke-width="2"/>
<line x1="254" y1="60" x2="255" y2="60" fill="none"  stroke="black" stroke-width="2"/>
<line x1="255" y1="60" x2="256" y2="59" fill="none"  stroke="black" stroke-width="2"/>
<line x1="256" y1="59" x2="256" y2="58" fill="none"  stroke="black" stroke-width="2"/>
<line x1="256" y1="58" x2="257" y2="58" fill="none"  stroke="black" stroke-width="2"/>
<line x1="257" y1="58" x2="258" y2="58" fill="none"  stroke="black" stroke-width="2"/>
<line x1="258" y1="58" x2="259" y2="58" fill="none"  stroke="black" stroke-width="2"/>
<line x1="259" y1="58" x2="260" y2="58" fill="none"  stroke="black" stroke-width="2"/>
<line x1="260" y1="58" x2="261" y2="58" fill="none"  stroke="black" stroke-width="2"/>
<line x1="261" y1="58" x2="261" y2="57" fill="none"  stroke="black" stroke-width="2"/>
<line x1="261" y1="57" x2="262" y2="57" fill="none"  stroke="black" stroke-width="2"/>
<line x1="262" y1="57" x2="263" y2="57" fill="none"  stroke="black" stroke-width="2"/>
<line x1="263" y1="57" x2="264" y2="57" fill="none"  stroke="black" stroke-width="2"/>
<line x1="264" y1="57" x2="265" y2="56" fill="none"  stroke="black" stroke-width="2"/>
<line x1="265" y1="56" x2="266" y2="56" fill="none"  stroke="black" stroke-width="2"/>
<line x1="266" y1="56" x2="267" y2="56" fill="none"  stroke="black" stroke-width="2"/>
<line x1="267" y1="56" x2="268" y2="56" fill="none"  stroke="black" stroke-width="2"/>
<line x1="268" y1="56" x2="269" y2="55" fill="none"  stroke="black" stroke-width="2"/>
<line x1="269" y1="55" x2="270" y2="55" fill="none"  stroke="black" stroke-width="2"/>
<line x1="270" y1="55" x2="271" y2="55" fill="none"  stroke="black" stroke-width="2"/>
<line x1="271" y1="55" x2="272" y2="55" fill="none"  stroke="black" stroke-width="2"/>
<line x1="272" y1="55" x2="273" y2="54" fill="none"  stroke="black" stroke-width="2"/>
<line x1="273" y1="54" x2="274" y2="54" fill="none"  stroke="black" stroke-width="2"/>
<line x1="274" y1="54" x2="275" y2="53" fill="none"  stroke="black" stroke-width="2"/>
<line x1="275" y1="53" x2="276" y2="53" fill="none"  stroke="black" stroke-width="2"/>
<line x1="276" y1="53" x2="277" y2="53" fill="none"  stroke="black" stroke-width="2"/>
<line x1="277" y1="53" x2="278" y2="53" fill="none"  stroke="black" stroke-width="2"/>
<line x1="278" y1="53" x2="279" y2="53" fill="none"  stroke="black" stroke-width="2"/>
<line x1="279" y1="53" x2="280" y2="52" fill="none"  stroke="black" stroke-width="2"/>
<line x1="280" y1="52" x2="281" y2="52" fill="none"  stroke="black" stroke-width="2"/>
<line x1="281" y1="52" x2="282" y2="52" fill="none"  stroke="black" stroke-width="2"/>
<line x1="282" y1="52" x2="283" y2="52" fill="none"  stroke="black" stroke-width="2"/>
<line x1="283" y1="52" x2="283" y2="51" fill="none"  stroke="black" stroke-width="2"/>
<line x1="283" y1="51" x2="283" y2="50" fill="none"  stroke="black" stroke-width="2"/>
<line x1="283" y1="50" x2="284" y2="50" fill="none"  stroke="black" stroke-width="2"/>
<line x1="284" y1="50" x2="284" y2="49" fill="none"  stroke="black" stroke-width="2"/>
<line x1="284" y1="49" x2="285" y2="49" fill="none"  stroke="black" stroke-width="2"/>
<line x1="285" y1="49" x2="286" y2="48" fill="none"  stroke="black" stroke-width="2"/>
<line x1="286" y1="48" x2="287" y2="48" fill="none"  stroke="black" stroke-width="2"/>
<line x1="287" y1="48" x2="288" y2="47" fill="none"  stroke="black" stroke-width="2"/>
<line x1="288" y1="47" x2="289" y2="46" fill="none"  stroke="black" stroke-width="2"/>
<line x1="289" y1="46" x2="289" y2="45" fill="none"  stroke="black" stroke-width="2"/>
<line x1="289" y1="45" x2="290" y2="45" fill="none"  stroke="black" stroke-width="2"/>
<line x1="290" y1="45" x2="291" y2="45" fill="none"  stroke="black" stroke-width="2"/>
<line x1="291" y1="45" x2="292" y2="46" fill="none"  stroke="black" stroke-width="2"/>
<line x1="292" y1="46" x2="293" y2="46" fill="none"  stroke="black" stroke-width="2"/>
<line x1="293" y1="46" x2="294" y2="46" fill="none"  stroke="black" stroke-width="2"/>
<line x1="294" y1="46" x2="295" y2="46" fill="none"  stroke="black" stroke-width="2"/>
<line x1="295" y1="46" x2="296" y2="46" fill="none"  stroke="black" stroke-width="2"/>
<line x1="296" y1="46" x2="296" y2="45" fill="none"  stroke="black" stroke-width="2"/>
<line x1="296" y1="45" x2="297" y2="45" fill="none"  stroke="black" stroke-width="2"/>
<line x1="297" y1="45" x2="298" y2="44" fill="none"  stroke="black" stroke-width="2"/>
<line x1="298" y1="44" x2="299" y2="44" fill="none"  stroke="black" stroke-width="2"/>
<line x1="299" y1="44" x2="300" y2="44" fill="none"  stroke="black" stroke-width="2"/>
<line x1="300" y1="44" x2="301" y2="44" fill="none"  stroke="black" stroke-width="2"/>
<line x1="301" y1="44" x2="302" y2="43" fill="none"  stroke="black" stroke-width="2"/>
<line x1="302" y1="43" x2="302" y2="42" fill="none"  stroke="black" stroke-width="2"/>
<line x1="302" y1="42" x2="303" y2="42" fill="none"  stroke="black" stroke-width="2"/>
<line x1="303" y1="42" x2="303" y2="41" fill="none"  stroke="black" stroke-width="2"/>
<line x1="303" y1="41" x2="304" y2="41" fill="none"  stroke="black" stroke-width="2"/>
<line x1="304" y1="41" x2="305" y2="40" fill="none"  stroke="black" stroke-width="2"/>
<line x1="305" y1="40" x2="306" y2="40" fill="none"  stroke="black" stroke-width="2"/>
<line x1="306" y1="40" x2="307" y2="40" fill="none"  stroke="black" stroke-width="2"/>
<line x1="307" y1="40" x2="308" y2="40" fill="none"  stroke="black" stroke-width="2"/>
<line x1="308" y1="40" x2="309" y2="40" fill="none"  stroke="black" stroke-width="2"/>
<line x1="309" y1="40" x2="310" y2="40" fill="none"  stroke="black" stroke-width="2"/>
<line x1="310" y1="40" x2="311" y2="40" fill="none"  stroke="black" stroke-width="2"/>
<line x1="311" y1="40" x2="312" y2="40" fill="none"  stroke="black" stroke-width="2"/>
<line x1="312" y1="40" x2="313" y2="40" fill="none"  stroke="black" stroke-width="2"/>
<line x1="313" y1="40" x2="314" y2="40" fill="none"  stroke="black" stroke-width="2"/>
<line x1="314" y1="40" x2="314" y2="39" fill="none"  stroke="black" stroke-width="2"/>
<line x1="314" y1="39" x2="315" y2="39" fill="none"  stroke="black" stroke-width="2"/>
<line x1="315" y1="39" x2="316" y2="39" fill="none"  stroke="black" stroke-width="2"/>
<line x1="316" y1="39" x2="317" y2="39" fill="none"  stroke="black" stroke-width="2"/>
<line x1="317" y1="39" x2="318" y2="39" fill="none"  stroke="black" stroke-width="2"/>
<line x1="318" y1="39" x2="319" y2="39" fill="none"  stroke="black" stroke-width="2"/>
<line x1="319" y1="39" x2="319" y2="38" fill="none"  stroke="black" stroke-width="2"/>
<line x1="319" y1="38" x2="320" y2="38" fill="none"  stroke="black" stroke-width="2"/>
</g>
</svg>
