<?xml version="1.0" standalone="no"?>
<!DOCTYPE svg PUBLIC "-//W3C//DTD SVG 1.1//EN" "http://www.w3.org/Graphics/SVG/1.1/DTD/svg11.dtd">
<svg version="1.1" baseProfile="full"
xmlns="http://www.w3.org/2000/svg"
xmlns:xlink="http://www.w3.org/1999/xlink"
width="334px" height="206px" style="text-antialiasing:true">
<rect  x="0" y="0"  width="333" height="205" fill="white"/>
<rect  x="0" y="0"  width="333" height="205" fill="none" stroke="rgb(160,160,160)"/>
<text x="102" y="25" font-family="Arial" font-size="11pt"  font-weight="bold" fill="black">
Profile&#32;Graph&#32;Title
</text>
<text x="15" y="194" font-family="Arial" font-size="8pt"  font-style="italic" fill="black">
Profile&#32;Graph&#32;Subtitle
</text>
<rect  x="47" y="35"  width="276" height="123" fill="rgb(226,226,226)" stroke="gray"/>
<line x1="47" y1="158" x2="323" y2="158" fill="none"  stroke="black"/>
<line x1="289" y1="159" x2="289" y2="163" fill="none"  stroke="black"/>
<line x1="255" y1="159" x2="255" y2="163" fill="none"  stroke="black"/>
<line x1="221" y1="159" x2="221" y2="163" fill="none"  stroke="black"/>
<line x1="187" y1="159" x2="187" y2="163" fill="none"  stroke="black"/>
<line x1="153" y1="159" x2="153" y2="163" fill="none"  stroke="black"/>
<line x1="118" y1="159" x2="118" y2="163" fill="none"  stroke="black"/>
<line x1="84" y1="159" x2="84" y2="163" fill="none"  stroke="black"/>
<line x1="50" y1="159" x2="50" y2="163" fill="none"  stroke="black"/>
<text x="283" y="175" font-family="Arial" font-size="8pt"  fill="black">
70
</text>
<text x="249" y="175" font-family="Arial" font-size="8pt"  fill="black">
60
</text>
<text x="215" y="175" font-family="Arial" font-size="8pt"  fill="black">
50
</text>
<text x="181" y="175" font-family="Arial" font-size="8pt"  fill="black">
40
</text>
<text x="147" y="175" font-family="Arial" font-size="8pt"  fill="black">
30
</text>
<text x="112" y="175" font-family="Arial" font-size="8pt"  fill="black">
20
</text>
<text x="78" y="175" font-family="Arial" font-size="8pt"  fill="black">
10
</text>
<text x="47" y="175" font-family="Arial" font-size="8pt"  fill="black">
0
</text>
<line x1="47" y1="35" x2="47" y2="158" fill="none"  stroke="black"/>
<line x1="46" y1="49" x2="42" y2="49" fill="none"  stroke="black"/>
<line x1="46" y1="70" x2="42" y2="70" fill="none"  stroke="black"/>
<line x1="46" y1="91" x2="42" y2="91" fill="none"  stroke="black"/>
<line x1="46" y1="111" x2="42" y2="111" fill="none"  stroke="black"/>
<line x1="46" y1="132" x2="42" y2="132" fill="none"  stroke="black"/>
<line x1="46" y1="152" x2="42" y2="152" fill="none"  stroke="black"/>
<line x1="48" y1="49" x2="323" y2="49" fill="none"  stroke="gray"/>
<line x1="48" y1="70" x2="323" y2="70" fill="none"  stroke="gray"/>
<line x1="48" y1="91" x2="323" y2="91" fill="none"  stroke="gray"/>
<line x1="48" y1="111" x2="323" y2="111" fill="none"  stroke="gray"/>
<line x1="48" y1="132" x2="323" y2="132" fill="none"  stroke="gray"/>
<line x1="48" y1="152" x2="323" y2="152" fill="none"  stroke="gray"/>
<text x="14" y="53" font-family="Arial" font-size="8pt"  fill="black">
1,595
</text>
<text x="14" y="74" font-family="Arial" font-size="8pt"  fill="black">
1,590
</text>
<text x="14" y="95" font-family="Arial" font-size="8pt"  fill="black">
1,585
</text>
<text x="14" y="115" font-family="Arial" font-size="8pt"  fill="black">
1,580
</text>
<text x="14" y="136" font-family="Arial" font-size="8pt"  fill="black">
1,575
</text>
<text x="14" y="156" font-family="Arial" font-size="8pt"  fill="black">
1,570
</text>
<g clip-path="url(#Clip1)">
<defs>
<clipPath id="Clip1" style="clip-rule:nonzero">
<rect  x="48" y="35"  width="274" height="122"/>
</clipPath>
</defs>
<line x1="50" y1="155" x2="80" y2="147" fill="none"  stroke="black" stroke-width="2"/>
<line x1="80" y1="147" x2="110" y2="136" fill="none"  stroke="black" stroke-width="2"/>
<line x1="110" y1="136" x2="140" y2="125" fill="none"  stroke="black" stroke-width="2"/>
<line x1="140" y1="125" x2="170" y2="111" fill="none"  stroke="black" stroke-width="2"/>
<line x1="170" y1="111" x2="200" y2="94" fill="none"  stroke="black" stroke-width="2"/>
<line x1="200" y1="94" x2="230" y2="75" fill="none"  stroke="black" stroke-width="2"/>
<line x1="230" y1="75" x2="260" y2="60" fill="none"  stroke="black" stroke-width="2"/>
<line x1="260" y1="60" x2="290" y2="48" fill="none"  stroke="black" stroke-width="2"/>
<line x1="290" y1="48" x2="320" y2="38" fill="none"  stroke="black" stroke-width="2"/>
</g>
</svg>
