<svg xmlns="http://www.w3.org/2000/svg" width="1333" height="345" style="box-sizing: inherit; font-family: Calibri;"><rect id="backgroundRect" width="100%" height="100%" x="0" y="0" fill="rgb(255,255,255)" fill-opacity="1" visibility="visible" style="box-sizing: inherit; fill: rgb(255, 255, 255); fill-opacity: 1;"/><defs style="box-sizing: inherit;"/><clipPath id="chartRect903463" style="box-sizing: inherit;"><rect x="-1.0" y="-1.0" width="1330.0" height="339.0" style="box-sizing: inherit;"/></clipPath><g class="wj-header" style="box-sizing: inherit; background: rgb(238, 238, 238); color: rgb(68, 68, 68); font-weight: 700;" clip-path="url(#chartRect903463)"><text x="555.0" y="23.0" fill="rgb(68,68,68)" class="wj-title" fill-opacity="1" style="box-sizing: inherit; cursor: default; font-size: 16pt; font-family: &apos;Segoe UI&apos;; font-style: normal; font-weight: normal; fill: rgb(68, 68, 68); fill-opacity: 1;">Profile Graph lc13curve</text></g><g class="wj-footer" style="box-sizing: inherit;" clip-path="url(#chartRect903463)"/><clipPath id="legRect356656" style="box-sizing: inherit;"><rect x="1327.0" y="181.5" width="2.0" height="2.0" style="box-sizing: inherit;"/></clipPath><g class="wj-legend" style="box-sizing: inherit;" clip-path="url(#legRect356656)"/><g class="wj-plot-area" style="box-sizing: inherit;"><rect fill="#000000" stroke-width="1" x="81.2" y="45.0" width="1227.4" height="240.0" fill-opacity="0" style="box-sizing: inherit;"/></g><g class="wj-axis-x" style="box-sizing: inherit;" clip-path="url(#chartRect903463)"><text x="77.6" y="308.0" fill="rgb(68,68,68)" class="wj-label" fill-opacity="1" style="box-sizing: inherit; cursor: default; font-size: 10pt; font-family: &apos;Segoe UI&apos;; font-style: normal; font-weight: normal; fill: rgb(68, 68, 68); fill-opacity: 1;">0</text><line stroke="#666" stroke-width="1" x1="81.2" x2="81.2" y1="285.0" y2="289.0" class="wj-tick" style="box-sizing: inherit; stroke: rgb(170, 170, 170); stroke-width: 1px;"/><text x="152.9" y="308.0" fill="rgb(68,68,68)" class="wj-label" fill-opacity="1" style="box-sizing: inherit; cursor: default; font-size: 10pt; font-family: &apos;Segoe UI&apos;; font-style: normal; font-weight: normal; fill: rgb(68, 68, 68); fill-opacity: 1;">20</text><line stroke="#666" stroke-width="1" x1="160.1" x2="160.1" y1="285.0" y2="289.0" class="wj-tick" style="box-sizing: inherit; stroke: rgb(170, 170, 170); stroke-width: 1px;"/><text x="231.4" y="308.0" fill="rgb(68,68,68)" class="wj-label" fill-opacity="1" style="box-sizing: inherit; cursor: default; font-size: 10pt; font-family: &apos;Segoe UI&apos;; font-style: normal; font-weight: normal; fill: rgb(68, 68, 68); fill-opacity: 1;">40</text><line stroke="#666" stroke-width="1" x1="239.1" x2="239.1" y1="285.0" y2="289.0" class="wj-tick" style="box-sizing: inherit; stroke: rgb(170, 170, 170); stroke-width: 1px;"/><text x="310.8" y="308.0" fill="rgb(68,68,68)" class="wj-label" fill-opacity="1" style="box-sizing: inherit; cursor: default; font-size: 10pt; font-family: &apos;Segoe UI&apos;; font-style: normal; font-weight: normal; fill: rgb(68, 68, 68); fill-opacity: 1;">60</text><line stroke="#666" stroke-width="1" x1="318.0" x2="318.0" y1="285.0" y2="289.0" class="wj-tick" style="box-sizing: inherit; stroke: rgb(170, 170, 170); stroke-width: 1px;"/><text x="389.8" y="308.0" fill="rgb(68,68,68)" class="wj-label" fill-opacity="1" style="box-sizing: inherit; cursor: default; font-size: 10pt; font-family: &apos;Segoe UI&apos;; font-style: normal; font-weight: normal; fill: rgb(68, 68, 68); fill-opacity: 1;">80</text><line stroke="#666" stroke-width="1" x1="397.0" x2="397.0" y1="285.0" y2="289.0" class="wj-tick" style="box-sizing: inherit; stroke: rgb(170, 170, 170); stroke-width: 1px;"/><text x="465.1" y="308.0" fill="rgb(68,68,68)" class="wj-label" fill-opacity="1" style="box-sizing: inherit; cursor: default; font-size: 10pt; font-family: &apos;Segoe UI&apos;; font-style: normal; font-weight: normal; fill: rgb(68, 68, 68); fill-opacity: 1;">100</text><line stroke="#666" stroke-width="1" x1="475.9" x2="475.9" y1="285.0" y2="289.0" class="wj-tick" style="box-sizing: inherit; stroke: rgb(170, 170, 170); stroke-width: 1px;"/><text x="544.1" y="308.0" fill="rgb(68,68,68)" class="wj-label" fill-opacity="1" style="box-sizing: inherit; cursor: default; font-size: 10pt; font-family: &apos;Segoe UI&apos;; font-style: normal; font-weight: normal; fill: rgb(68, 68, 68); fill-opacity: 1;">120</text><line stroke="#666" stroke-width="1" x1="554.9" x2="554.9" y1="285.0" y2="289.0" class="wj-tick" style="box-sizing: inherit; stroke: rgb(170, 170, 170); stroke-width: 1px;"/><text x="623.0" y="308.0" fill="rgb(68,68,68)" class="wj-label" fill-opacity="1" style="box-sizing: inherit; cursor: default; font-size: 10pt; font-family: &apos;Segoe UI&apos;; font-style: normal; font-weight: normal; fill: rgb(68, 68, 68); fill-opacity: 1;">140</text><line stroke="#666" stroke-width="1" x1="633.8" x2="633.8" y1="285.0" y2="289.0" class="wj-tick" style="box-sizing: inherit; stroke: rgb(170, 170, 170); stroke-width: 1px;"/><text x="702.0" y="308.0" fill="rgb(68,68,68)" class="wj-label" fill-opacity="1" style="box-sizing: inherit; cursor: default; font-size: 10pt; font-family: &apos;Segoe UI&apos;; font-style: normal; font-weight: normal; fill: rgb(68, 68, 68); fill-opacity: 1;">160</text><line stroke="#666" stroke-width="1" x1="712.8" x2="712.8" y1="285.0" y2="289.0" class="wj-tick" style="box-sizing: inherit; stroke: rgb(170, 170, 170); stroke-width: 1px;"/><text x="780.9" y="308.0" fill="rgb(68,68,68)" class="wj-label" fill-opacity="1" style="box-sizing: inherit; cursor: default; font-size: 10pt; font-family: &apos;Segoe UI&apos;; font-style: normal; font-weight: normal; fill: rgb(68, 68, 68); fill-opacity: 1;">180</text><line stroke="#666" stroke-width="1" x1="791.7" x2="791.7" y1="285.0" y2="289.0" class="wj-tick" style="box-sizing: inherit; stroke: rgb(170, 170, 170); stroke-width: 1px;"/><text x="859.9" y="308.0" fill="rgb(68,68,68)" class="wj-label" fill-opacity="1" style="box-sizing: inherit; cursor: default; font-size: 10pt; font-family: &apos;Segoe UI&apos;; font-style: normal; font-weight: normal; fill: rgb(68, 68, 68); fill-opacity: 1;">200</text><line stroke="#666" stroke-width="1" x1="870.7" x2="870.7" y1="285.0" y2="289.0" class="wj-tick" style="box-sizing: inherit; stroke: rgb(170, 170, 170); stroke-width: 1px;"/><text x="938.8" y="308.0" fill="rgb(68,68,68)" class="wj-label" fill-opacity="1" style="box-sizing: inherit; cursor: default; font-size: 10pt; font-family: &apos;Segoe UI&apos;; font-style: normal; font-weight: normal; fill: rgb(68, 68, 68); fill-opacity: 1;">220</text><line stroke="#666" stroke-width="1" x1="949.6" x2="949.6" y1="285.0" y2="289.0" class="wj-tick" style="box-sizing: inherit; stroke: rgb(170, 170, 170); stroke-width: 1px;"/><text x="1017.8" y="308.0" fill="rgb(68,68,68)" class="wj-label" fill-opacity="1" style="box-sizing: inherit; cursor: default; font-size: 10pt; font-family: &apos;Segoe UI&apos;; font-style: normal; font-weight: normal; fill: rgb(68, 68, 68); fill-opacity: 1;">240</text><line stroke="#666" stroke-width="1" x1="1028.6" x2="1028.6" y1="285.0" y2="289.0" class="wj-tick" style="box-sizing: inherit; stroke: rgb(170, 170, 170); stroke-width: 1px;"/><text x="1096.7" y="308.0" fill="rgb(68,68,68)" class="wj-label" fill-opacity="1" style="box-sizing: inherit; cursor: default; font-size: 10pt; font-family: &apos;Segoe UI&apos;; font-style: normal; font-weight: normal; fill: rgb(68, 68, 68); fill-opacity: 1;">260</text><line stroke="#666" stroke-width="1" x1="1107.5" x2="1107.5" y1="285.0" y2="289.0" class="wj-tick" style="box-sizing: inherit; stroke: rgb(170, 170, 170); stroke-width: 1px;"/><text x="1175.7" y="308.0" fill="rgb(68,68,68)" class="wj-label" fill-opacity="1" style="box-sizing: inherit; cursor: default; font-size: 10pt; font-family: &apos;Segoe UI&apos;; font-style: normal; font-weight: normal; fill: rgb(68, 68, 68); fill-opacity: 1;">280</text><line stroke="#666" stroke-width="1" x1="1186.5" x2="1186.5" y1="285.0" y2="289.0" class="wj-tick" style="box-sizing: inherit; stroke: rgb(170, 170, 170); stroke-width: 1px;"/><text x="1254.6" y="308.0" fill="rgb(68,68,68)" class="wj-label" fill-opacity="1" style="box-sizing: inherit; cursor: default; font-size: 10pt; font-family: &apos;Segoe UI&apos;; font-style: normal; font-weight: normal; fill: rgb(68, 68, 68); fill-opacity: 1;">300</text><line stroke="#666" stroke-width="1" x1="1265.4" x2="1265.4" y1="285.0" y2="289.0" class="wj-tick" style="box-sizing: inherit; stroke: rgb(170, 170, 170); stroke-width: 1px;"/><line stroke="rgb(156,156,156)" stroke-width="1px" x1="81.2" x2="1308.6" y1="285.0" y2="285.0" class="wj-line" stroke-opacity="1" stroke-dasharray="none" style="box-sizing: inherit; stroke: rgb(156, 156, 156); stroke-opacity: 1; stroke-width: 1px; stroke-dasharray: none;"/><text x="631.9" y="333.0" fill="rgb(68,68,68)" class="wj-title" fill-opacity="1" style="box-sizing: inherit; cursor: default; font-size: 12pt; font-family: &apos;Segoe UI&apos;; font-style: normal; font-weight: normal; fill: rgb(68, 68, 68); fill-opacity: 1;">Horizontal Distance</text></g><g class="wj-axis-y" style="box-sizing: inherit;" clip-path="url(#chartRect903463)"><line stroke="rgb(225,225,225)" stroke-width="1px" x1="81.2" x2="1308.6" y1="241.1" y2="241.1" class="wj-gridline" stroke-opacity="1" stroke-dasharray="none" style="box-sizing: inherit; opacity: 0.75; stroke: rgb(225, 225, 225); stroke-opacity: 1; stroke-width: 1px; stroke-dasharray: none;"/><text x="41.3" y="246.6" fill="rgb(68,68,68)" class="wj-label" fill-opacity="1" style="box-sizing: inherit; cursor: default; font-size: 10pt; font-family: &apos;Segoe UI&apos;; font-style: normal; font-weight: normal; fill: rgb(68, 68, 68); fill-opacity: 1;">-100</text><line stroke="rgb(225,225,225)" stroke-width="1px" x1="81.2" x2="1308.6" y1="193.1" y2="193.1" class="wj-gridline" stroke-opacity="1" stroke-dasharray="none" style="box-sizing: inherit; opacity: 0.75; stroke: rgb(225, 225, 225); stroke-opacity: 1; stroke-width: 1px; stroke-dasharray: none;"/><text x="48.5" y="198.6" fill="rgb(68,68,68)" class="wj-label" fill-opacity="1" style="box-sizing: inherit; cursor: default; font-size: 10pt; font-family: &apos;Segoe UI&apos;; font-style: normal; font-weight: normal; fill: rgb(68, 68, 68); fill-opacity: 1;">-50</text><line stroke="rgb(225,225,225)" stroke-width="1px" x1="81.2" x2="1308.6" y1="145.2" y2="145.2" class="wj-gridline" stroke-opacity="1" stroke-dasharray="none" style="box-sizing: inherit; opacity: 0.75; stroke: rgb(225, 225, 225); stroke-opacity: 1; stroke-width: 1px; stroke-dasharray: none;"/><text x="61.0" y="150.7" fill="rgb(68,68,68)" class="wj-label" fill-opacity="1" style="box-sizing: inherit; cursor: default; font-size: 10pt; font-family: &apos;Segoe UI&apos;; font-style: normal; font-weight: normal; fill: rgb(68, 68, 68); fill-opacity: 1;">0</text><line stroke="rgb(225,225,225)" stroke-width="1px" x1="81.2" x2="1308.6" y1="97.2" y2="97.2" class="wj-gridline" stroke-opacity="1" stroke-dasharray="none" style="box-sizing: inherit; opacity: 0.75; stroke: rgb(225, 225, 225); stroke-opacity: 1; stroke-width: 1px; stroke-dasharray: none;"/><text x="53.8" y="102.7" fill="rgb(68,68,68)" class="wj-label" fill-opacity="1" style="box-sizing: inherit; cursor: default; font-size: 10pt; font-family: &apos;Segoe UI&apos;; font-style: normal; font-weight: normal; fill: rgb(68, 68, 68); fill-opacity: 1;">50</text><line stroke="rgb(225,225,225)" stroke-width="1px" x1="81.2" x2="1308.6" y1="49.2" y2="49.2" class="wj-gridline" stroke-opacity="1" stroke-dasharray="none" style="box-sizing: inherit; opacity: 0.75; stroke: rgb(225, 225, 225); stroke-opacity: 1; stroke-width: 1px; stroke-dasharray: none;"/><text x="46.6" y="54.7" fill="rgb(68,68,68)" class="wj-label" fill-opacity="1" style="box-sizing: inherit; cursor: default; font-size: 10pt; font-family: &apos;Segoe UI&apos;; font-style: normal; font-weight: normal; fill: rgb(68, 68, 68); fill-opacity: 1;">100</text><g transform="rotate(-90.0,10.5,165.0)" style="box-sizing: inherit;"><text x="-21.4" y="171.5" fill="rgb(68,68,68)" class="wj-title" fill-opacity="1" style="box-sizing: inherit; cursor: default; font-size: 12pt; font-family: &apos;Segoe UI&apos;; font-style: normal; font-weight: normal; fill: rgb(68, 68, 68); fill-opacity: 1;">Elevation</text></g><line stroke="rgb(156,156,156)" stroke-width="1px" x1="81.2" x2="81.2" y1="45.0" y2="285.0" class="wj-line" stroke-opacity="0" stroke-dasharray="none" style="box-sizing: inherit; stroke: rgb(156, 156, 156); stroke-opacity: 0; stroke-width: 1px; stroke-dasharray: none;"/></g><g class="wj-series-group" style="box-sizing: inherit;"><g style="box-sizing: inherit;"><polyline stroke="rgb(133,135,54)" stroke-width="1.35" fill="none" points="81.2,179.7 85.1,185.3 89.0,140.3 93.0,138.1 96.9,152.5 100.9,211.0 104.8,285.0 108.8,262.0 112.7,121.0 116.7,45.0 120.6,55.7 124.6,96.9 128.5,145.8 132.5,148.2 136.4,156.4 140.4,151.0 144.3,152.1 148.3,174.2 152.2,191.3 156.1,142.5 160.1,106.0 164.0,125.5 168.0,148.0 171.9,152.9 175.9,137.2 179.8,141.7 183.8,146.3 187.7,153.2 191.7,152.7 195.6,150.8 199.6,145.0 203.5,141.1 207.5,142.5 211.4,155.7 215.3,156.1 219.3,142.7 223.2,137.4 227.2,147.3 231.1,151.0 235.1,143.5 239.0,141.3 243.0,148.6 246.9,158.7 250.9,150.2 254.8,144.8 258.8,144.9 262.7,151.0 266.7,153.8 270.6,145.0 274.5,123.7 278.5,132.6 282.4,139.1 286.4,142.4 290.3,152.8 294.3,162.7 298.2,149.4 302.2,127.5 306.1,130.0 310.1,132.4 314.0,138.4 318.0,151.2 321.9,148.1 325.9,151.3 329.8,149.7 333.7,137.1 337.7,134.0 341.6,148.3 345.6,152.7 349.5,143.6 353.5,144.2 357.4,145.1 361.4,145.4 365.3,155.4 369.3,166.2 373.2,179.5 377.2,171.9 381.1,134.1 385.1,112.5 389.0,131.1 392.9,148.5 396.9,144.7 400.8,140.2 404.8,146.1 408.7,143.1 412.7,146.1 416.6,149.9 420.6,144.7 424.5,140.8 428.5,139.6 432.4,142.2 436.4,147.2 440.3,141.8 444.3,142.4 448.2,145.5 452.1,144.3 456.1,148.2 460.0,149.7 464.0,145.8 467.9,143.7 471.9,143.7 475.8,143.0 479.8,142.2 483.7,146.9 487.7,146.9 491.6,140.3 495.6,145.2 499.5,148.7 503.5,144.2 507.4,141.7 511.3,145.5 515.3,148.1 519.2,145.2 523.2,151.8 527.1,154.7 531.1,142.7 535.0,144.8 539.0,136.3 542.9,136.8 546.9,143.6 550.8,147.4 554.8,148.2 558.7,147.5 562.7,145.0 566.6,148.2 570.5,157.5 574.5,146.2 578.4,137.6 582.4,141.2 586.3,147.2 590.3,149.4 594.2,146.0 598.2,141.5 602.1,145.3 606.1,149.4 610.0,151.3 614.0,160.0 617.9,159.5 621.9,144.4 625.8,142.4 629.8,135.3 633.7,136.4 637.6,140.9 641.6,145.0 645.5,149.9 649.5,154.7 653.4,153.4 657.4,135.4 661.3,133.9 665.3,140.3 669.2,137.1 673.2,136.1 677.1,137.5 681.1,148.8 685.0,148.4 689.0,138.8 692.9,138.0 696.8,140.7 700.8,137.7 704.7,137.8 708.7,146.7 712.6,148.4 716.6,136.7 720.5,149.2 724.5,150.8 728.4,148.8 732.4,142.2 736.3,139.3 740.3,141.8 744.2,144.1 748.2,144.3 752.1,145.0 756.0,148.3 760.0,150.9 763.9,149.5 767.9,150.1 771.8,146.6 775.8,140.4 779.7,139.4 783.7,149.0 787.6,171.5 791.6,168.7 795.5,128.6 799.5,126.9 803.4,153.3 807.4,140.4 811.3,131.8 815.2,134.6 819.2,146.5 823.1,150.6 827.1,143.5 831.0,141.9 835.0,150.3 838.9,147.7 842.9,135.3 846.8,130.1 850.8,133.1 854.7,134.4 858.7,139.6 862.6,140.9 866.6,145.2 870.5,147.5 874.4,146.8 878.4,139.9 882.3,137.2 886.3,142.2 890.2,147.9 894.2,147.6 898.1,135.6 902.1,154.1 906.0,152.6 910.0,149.5 913.9,150.2 917.9,143.3 921.8,134.2 925.8,139.3 929.7,145.3 933.6,144.4 937.6,147.1 941.5,147.6 945.5,142.9 949.4,144.0 953.4,144.9 957.3,144.6 961.3,143.9 965.2,143.1 969.2,144.9 973.1,147.0 977.1,146.1 981.0,142.2 985.0,141.8 988.9,144.1 992.8,146.0 996.8,142.0 1000.7,141.1 1004.7,143.6 1008.6,148.2 1012.6,149.4 1016.5,149.6 1020.5,148.3 1024.4,143.7 1028.4,144.1 1032.3,146.9 1036.3,144.3 1040.2,142.8 1044.2,146.7 1048.1,146.0 1052.0,145.1 1056.0,145.5 1059.9,145.2 1063.9,146.9 1067.8,145.2 1071.8,139.1 1075.7,140.1 1079.7,143.7 1083.6,145.3 1087.6,145.1 1091.5,145.2 1095.5,146.5 1099.4,146.4 1103.4,145.6 1107.3,143.8 1111.2,143.9 1115.2,147.7 1119.1,147.1 1123.1,136.9 1127.0,137.6 1131.0,139.3 1134.9,141.4 1138.9,140.9 1142.8,143.6 1146.8,146.7 1150.7,147.1 1154.7,148.3 1158.6,142.3 1162.6,140.2 1166.5,143.9 1170.5,145.0 1174.4,143.9 1178.3,143.2 1182.3,143.6 1186.2,142.8 1190.2,142.9 1194.1,145.1 1198.1,146.5 1202.0,147.5 1206.0,144.0 1209.9,144.5 1213.9,146.6 1217.8,142.3 1221.8,140.4 1225.7,143.2 1229.7,144.4 1233.6,144.0 1237.5,144.5 1241.5,144.9 1245.4,145.0 1249.4,144.9 1253.3,145.3 1257.3,146.7 1261.2,148.5 1265.2,146.8 1269.1,144.9 1273.1,145.0 1277.0,144.7 1281.0,142.2 1284.9,143.2 1288.9,145.1 1292.8,144.9 1296.7,145.7 1300.7,147.6 1304.6,149.0 1308.6,146.4 " clip-path="url(#plotRect280309)" style="box-sizing: inherit; stroke-width: 1.35;" stroke-opacity="1"/></g></g><clipPath id="plotRect280309" style="box-sizing: inherit;"><rect x="80.2" y="44.0" width="1229.4" height="242.0" style="box-sizing: inherit;"/></clipPath><clipPath id="plotRect551304" style="box-sizing: inherit;"><rect x="-1.0" y="-1.0" width="1229.4" height="242.0" style="box-sizing: inherit;"/></clipPath><g class="wj-chart-annotationlayer" transform="translate(81.15625, 45)" style="box-sizing: inherit;" clip-path="url(#plotRect551304)"/></svg>