<svg xmlns="http://www.w3.org/2000/svg" width="1333" height="345" style="box-sizing: inherit; font-family: Calibri;"><rect id="backgroundRect" width="100%" height="100%" x="0" y="0" fill="rgb(255,255,255)" fill-opacity="1" visibility="visible" style="box-sizing: inherit; fill: rgb(255, 255, 255); fill-opacity: 1;"/><defs style="box-sizing: inherit;"/><clipPath id="chartRect768114" style="box-sizing: inherit;"><rect x="-1.0" y="-1.0" width="1330.0" height="339.0" style="box-sizing: inherit;"/></clipPath><g class="wj-header" style="box-sizing: inherit; background: rgb(238, 238, 238); color: rgb(68, 68, 68); font-weight: 700;" clip-path="url(#chartRect768114)"><text x="550.1" y="23.0" fill="rgb(68,68,68)" class="wj-title" fill-opacity="1" style="box-sizing: inherit; cursor: default; font-size: 16pt; font-family: &apos;Segoe UI&apos;; font-style: normal; font-weight: normal; fill: rgb(68, 68, 68); fill-opacity: 1;">Profile Graph lc13profile</text></g><g class="wj-footer" style="box-sizing: inherit;" clip-path="url(#chartRect768114)"/><clipPath id="legRect872622" style="box-sizing: inherit;"><rect x="1327.0" y="181.5" width="2.0" height="2.0" style="box-sizing: inherit;"/></clipPath><g class="wj-legend" style="box-sizing: inherit;" clip-path="url(#legRect872622)"/><g class="wj-plot-area" style="box-sizing: inherit;"><rect fill="#000000" stroke-width="1" x="85.9" y="45.0" width="1222.7" height="240.0" fill-opacity="0" style="box-sizing: inherit;"/></g><g class="wj-axis-x" style="box-sizing: inherit;" clip-path="url(#chartRect768114)"><text x="82.3" y="308.0" fill="rgb(68,68,68)" class="wj-label" fill-opacity="1" style="box-sizing: inherit; cursor: default; font-size: 10pt; font-family: &apos;Segoe UI&apos;; font-style: normal; font-weight: normal; fill: rgb(68, 68, 68); fill-opacity: 1;">0</text><line stroke="#666" stroke-width="1" x1="85.9" x2="85.9" y1="285.0" y2="289.0" class="wj-tick" style="box-sizing: inherit; stroke: rgb(170, 170, 170); stroke-width: 1px;"/><text x="157.4" y="308.0" fill="rgb(68,68,68)" class="wj-label" fill-opacity="1" style="box-sizing: inherit; cursor: default; font-size: 10pt; font-family: &apos;Segoe UI&apos;; font-style: normal; font-weight: normal; fill: rgb(68, 68, 68); fill-opacity: 1;">20</text><line stroke="#666" stroke-width="1" x1="164.6" x2="164.6" y1="285.0" y2="289.0" class="wj-tick" style="box-sizing: inherit; stroke: rgb(170, 170, 170); stroke-width: 1px;"/><text x="235.5" y="308.0" fill="rgb(68,68,68)" class="wj-label" fill-opacity="1" style="box-sizing: inherit; cursor: default; font-size: 10pt; font-family: &apos;Segoe UI&apos;; font-style: normal; font-weight: normal; fill: rgb(68, 68, 68); fill-opacity: 1;">40</text><line stroke="#666" stroke-width="1" x1="243.2" x2="243.2" y1="285.0" y2="289.0" class="wj-tick" style="box-sizing: inherit; stroke: rgb(170, 170, 170); stroke-width: 1px;"/><text x="314.7" y="308.0" fill="rgb(68,68,68)" class="wj-label" fill-opacity="1" style="box-sizing: inherit; cursor: default; font-size: 10pt; font-family: &apos;Segoe UI&apos;; font-style: normal; font-weight: normal; fill: rgb(68, 68, 68); fill-opacity: 1;">60</text><line stroke="#666" stroke-width="1" x1="321.8" x2="321.8" y1="285.0" y2="289.0" class="wj-tick" style="box-sizing: inherit; stroke: rgb(170, 170, 170); stroke-width: 1px;"/><text x="393.3" y="308.0" fill="rgb(68,68,68)" class="wj-label" fill-opacity="1" style="box-sizing: inherit; cursor: default; font-size: 10pt; font-family: &apos;Segoe UI&apos;; font-style: normal; font-weight: normal; fill: rgb(68, 68, 68); fill-opacity: 1;">80</text><line stroke="#666" stroke-width="1" x1="400.5" x2="400.5" y1="285.0" y2="289.0" class="wj-tick" style="box-sizing: inherit; stroke: rgb(170, 170, 170); stroke-width: 1px;"/><text x="468.3" y="308.0" fill="rgb(68,68,68)" class="wj-label" fill-opacity="1" style="box-sizing: inherit; cursor: default; font-size: 10pt; font-family: &apos;Segoe UI&apos;; font-style: normal; font-weight: normal; fill: rgb(68, 68, 68); fill-opacity: 1;">100</text><line stroke="#666" stroke-width="1" x1="479.1" x2="479.1" y1="285.0" y2="289.0" class="wj-tick" style="box-sizing: inherit; stroke: rgb(170, 170, 170); stroke-width: 1px;"/><text x="547.0" y="308.0" fill="rgb(68,68,68)" class="wj-label" fill-opacity="1" style="box-sizing: inherit; cursor: default; font-size: 10pt; font-family: &apos;Segoe UI&apos;; font-style: normal; font-weight: normal; fill: rgb(68, 68, 68); fill-opacity: 1;">120</text><line stroke="#666" stroke-width="1" x1="557.8" x2="557.8" y1="285.0" y2="289.0" class="wj-tick" style="box-sizing: inherit; stroke: rgb(170, 170, 170); stroke-width: 1px;"/><text x="625.6" y="308.0" fill="rgb(68,68,68)" class="wj-label" fill-opacity="1" style="box-sizing: inherit; cursor: default; font-size: 10pt; font-family: &apos;Segoe UI&apos;; font-style: normal; font-weight: normal; fill: rgb(68, 68, 68); fill-opacity: 1;">140</text><line stroke="#666" stroke-width="1" x1="636.4" x2="636.4" y1="285.0" y2="289.0" class="wj-tick" style="box-sizing: inherit; stroke: rgb(170, 170, 170); stroke-width: 1px;"/><text x="704.3" y="308.0" fill="rgb(68,68,68)" class="wj-label" fill-opacity="1" style="box-sizing: inherit; cursor: default; font-size: 10pt; font-family: &apos;Segoe UI&apos;; font-style: normal; font-weight: normal; fill: rgb(68, 68, 68); fill-opacity: 1;">160</text><line stroke="#666" stroke-width="1" x1="715.1" x2="715.1" y1="285.0" y2="289.0" class="wj-tick" style="box-sizing: inherit; stroke: rgb(170, 170, 170); stroke-width: 1px;"/><text x="782.9" y="308.0" fill="rgb(68,68,68)" class="wj-label" fill-opacity="1" style="box-sizing: inherit; cursor: default; font-size: 10pt; font-family: &apos;Segoe UI&apos;; font-style: normal; font-weight: normal; fill: rgb(68, 68, 68); fill-opacity: 1;">180</text><line stroke="#666" stroke-width="1" x1="793.7" x2="793.7" y1="285.0" y2="289.0" class="wj-tick" style="box-sizing: inherit; stroke: rgb(170, 170, 170); stroke-width: 1px;"/><text x="861.6" y="308.0" fill="rgb(68,68,68)" class="wj-label" fill-opacity="1" style="box-sizing: inherit; cursor: default; font-size: 10pt; font-family: &apos;Segoe UI&apos;; font-style: normal; font-weight: normal; fill: rgb(68, 68, 68); fill-opacity: 1;">200</text><line stroke="#666" stroke-width="1" x1="872.4" x2="872.4" y1="285.0" y2="289.0" class="wj-tick" style="box-sizing: inherit; stroke: rgb(170, 170, 170); stroke-width: 1px;"/><text x="940.2" y="308.0" fill="rgb(68,68,68)" class="wj-label" fill-opacity="1" style="box-sizing: inherit; cursor: default; font-size: 10pt; font-family: &apos;Segoe UI&apos;; font-style: normal; font-weight: normal; fill: rgb(68, 68, 68); fill-opacity: 1;">220</text><line stroke="#666" stroke-width="1" x1="951.0" x2="951.0" y1="285.0" y2="289.0" class="wj-tick" style="box-sizing: inherit; stroke: rgb(170, 170, 170); stroke-width: 1px;"/><text x="1018.9" y="308.0" fill="rgb(68,68,68)" class="wj-label" fill-opacity="1" style="box-sizing: inherit; cursor: default; font-size: 10pt; font-family: &apos;Segoe UI&apos;; font-style: normal; font-weight: normal; fill: rgb(68, 68, 68); fill-opacity: 1;">240</text><line stroke="#666" stroke-width="1" x1="1029.6" x2="1029.6" y1="285.0" y2="289.0" class="wj-tick" style="box-sizing: inherit; stroke: rgb(170, 170, 170); stroke-width: 1px;"/><text x="1097.5" y="308.0" fill="rgb(68,68,68)" class="wj-label" fill-opacity="1" style="box-sizing: inherit; cursor: default; font-size: 10pt; font-family: &apos;Segoe UI&apos;; font-style: normal; font-weight: normal; fill: rgb(68, 68, 68); fill-opacity: 1;">260</text><line stroke="#666" stroke-width="1" x1="1108.3" x2="1108.3" y1="285.0" y2="289.0" class="wj-tick" style="box-sizing: inherit; stroke: rgb(170, 170, 170); stroke-width: 1px;"/><text x="1176.2" y="308.0" fill="rgb(68,68,68)" class="wj-label" fill-opacity="1" style="box-sizing: inherit; cursor: default; font-size: 10pt; font-family: &apos;Segoe UI&apos;; font-style: normal; font-weight: normal; fill: rgb(68, 68, 68); fill-opacity: 1;">280</text><line stroke="#666" stroke-width="1" x1="1186.9" x2="1186.9" y1="285.0" y2="289.0" class="wj-tick" style="box-sizing: inherit; stroke: rgb(170, 170, 170); stroke-width: 1px;"/><text x="1254.8" y="308.0" fill="rgb(68,68,68)" class="wj-label" fill-opacity="1" style="box-sizing: inherit; cursor: default; font-size: 10pt; font-family: &apos;Segoe UI&apos;; font-style: normal; font-weight: normal; fill: rgb(68, 68, 68); fill-opacity: 1;">300</text><line stroke="#666" stroke-width="1" x1="1265.6" x2="1265.6" y1="285.0" y2="289.0" class="wj-tick" style="box-sizing: inherit; stroke: rgb(170, 170, 170); stroke-width: 1px;"/><line stroke="rgb(156,156,156)" stroke-width="1px" x1="85.9" x2="1308.6" y1="285.0" y2="285.0" class="wj-line" stroke-opacity="1" stroke-dasharray="none" style="box-sizing: inherit; stroke: rgb(156, 156, 156); stroke-opacity: 1; stroke-width: 1px; stroke-dasharray: none;"/><text x="634.2" y="333.0" fill="rgb(68,68,68)" class="wj-title" fill-opacity="1" style="box-sizing: inherit; cursor: default; font-size: 12pt; font-family: &apos;Segoe UI&apos;; font-style: normal; font-weight: normal; fill: rgb(68, 68, 68); fill-opacity: 1;">Horizontal Distance</text></g><g class="wj-axis-y" style="box-sizing: inherit;" clip-path="url(#chartRect768114)"><line stroke="rgb(225,225,225)" stroke-width="1px" x1="85.9" x2="1308.6" y1="261.3" y2="261.3" class="wj-gridline" stroke-opacity="1" stroke-dasharray="none" style="box-sizing: inherit; opacity: 0.75; stroke: rgb(225, 225, 225); stroke-opacity: 1; stroke-width: 1px; stroke-dasharray: none;"/><text x="41.3" y="266.8" fill="rgb(68,68,68)" class="wj-label" fill-opacity="1" style="box-sizing: inherit; cursor: default; font-size: 10pt; font-family: &apos;Segoe UI&apos;; font-style: normal; font-weight: normal; fill: rgb(68, 68, 68); fill-opacity: 1;">1,540</text><line stroke="rgb(225,225,225)" stroke-width="1px" x1="85.9" x2="1308.6" y1="224.8" y2="224.8" class="wj-gridline" stroke-opacity="1" stroke-dasharray="none" style="box-sizing: inherit; opacity: 0.75; stroke: rgb(225, 225, 225); stroke-opacity: 1; stroke-width: 1px; stroke-dasharray: none;"/><text x="41.3" y="230.3" fill="rgb(68,68,68)" class="wj-label" fill-opacity="1" style="box-sizing: inherit; cursor: default; font-size: 10pt; font-family: &apos;Segoe UI&apos;; font-style: normal; font-weight: normal; fill: rgb(68, 68, 68); fill-opacity: 1;">1,560</text><line stroke="rgb(225,225,225)" stroke-width="1px" x1="85.9" x2="1308.6" y1="188.3" y2="188.3" class="wj-gridline" stroke-opacity="1" stroke-dasharray="none" style="box-sizing: inherit; opacity: 0.75; stroke: rgb(225, 225, 225); stroke-opacity: 1; stroke-width: 1px; stroke-dasharray: none;"/><text x="41.3" y="193.8" fill="rgb(68,68,68)" class="wj-label" fill-opacity="1" style="box-sizing: inherit; cursor: default; font-size: 10pt; font-family: &apos;Segoe UI&apos;; font-style: normal; font-weight: normal; fill: rgb(68, 68, 68); fill-opacity: 1;">1,580</text><line stroke="rgb(225,225,225)" stroke-width="1px" x1="85.9" x2="1308.6" y1="151.9" y2="151.9" class="wj-gridline" stroke-opacity="1" stroke-dasharray="none" style="box-sizing: inherit; opacity: 0.75; stroke: rgb(225, 225, 225); stroke-opacity: 1; stroke-width: 1px; stroke-dasharray: none;"/><text x="41.3" y="157.4" fill="rgb(68,68,68)" class="wj-label" fill-opacity="1" style="box-sizing: inherit; cursor: default; font-size: 10pt; font-family: &apos;Segoe UI&apos;; font-style: normal; font-weight: normal; fill: rgb(68, 68, 68); fill-opacity: 1;">1,600</text><line stroke="rgb(225,225,225)" stroke-width="1px" x1="85.9" x2="1308.6" y1="115.4" y2="115.4" class="wj-gridline" stroke-opacity="1" stroke-dasharray="none" style="box-sizing: inherit; opacity: 0.75; stroke: rgb(225, 225, 225); stroke-opacity: 1; stroke-width: 1px; stroke-dasharray: none;"/><text x="41.3" y="120.9" fill="rgb(68,68,68)" class="wj-label" fill-opacity="1" style="box-sizing: inherit; cursor: default; font-size: 10pt; font-family: &apos;Segoe UI&apos;; font-style: normal; font-weight: normal; fill: rgb(68, 68, 68); fill-opacity: 1;">1,620</text><line stroke="rgb(225,225,225)" stroke-width="1px" x1="85.9" x2="1308.6" y1="78.9" y2="78.9" class="wj-gridline" stroke-opacity="1" stroke-dasharray="none" style="box-sizing: inherit; opacity: 0.75; stroke: rgb(225, 225, 225); stroke-opacity: 1; stroke-width: 1px; stroke-dasharray: none;"/><text x="41.3" y="84.4" fill="rgb(68,68,68)" class="wj-label" fill-opacity="1" style="box-sizing: inherit; cursor: default; font-size: 10pt; font-family: &apos;Segoe UI&apos;; font-style: normal; font-weight: normal; fill: rgb(68, 68, 68); fill-opacity: 1;">1,640</text><g transform="rotate(-90.0,10.5,165.0)" style="box-sizing: inherit;"><text x="-21.4" y="171.5" fill="rgb(68,68,68)" class="wj-title" fill-opacity="1" style="box-sizing: inherit; cursor: default; font-size: 12pt; font-family: &apos;Segoe UI&apos;; font-style: normal; font-weight: normal; fill: rgb(68, 68, 68); fill-opacity: 1;">Elevation</text></g><line stroke="rgb(156,156,156)" stroke-width="1px" x1="85.9" x2="85.9" y1="45.0" y2="285.0" class="wj-line" stroke-opacity="0" stroke-dasharray="none" style="box-sizing: inherit; stroke: rgb(156, 156, 156); stroke-opacity: 0; stroke-width: 1px; stroke-dasharray: none;"/></g><g class="wj-series-group" style="box-sizing: inherit;"><g style="box-sizing: inherit;"><polyline stroke="rgb(143,78,163)" stroke-width="1.35" fill="none" points="85.9,285.0 89.8,284.3 93.8,283.0 97.7,281.8 101.6,280.9 105.6,279.9 109.5,277.9 113.4,274.2 117.4,268.9 121.3,264.2 125.2,261.1 129.2,259.1 133.1,258.0 137.0,257.0 140.9,256.0 144.9,254.9 148.8,254.0 152.7,253.1 156.7,252.0 160.6,250.3 164.5,248.6 168.5,247.4 172.4,246.5 176.3,245.5 180.3,244.2 184.2,243.1 188.1,242.1 192.1,241.2 196.0,240.2 199.9,239.2 203.8,238.1 207.8,237.1 211.7,236.1 215.6,235.2 219.6,234.1 223.5,232.9 227.4,231.7 231.4,230.6 235.3,229.5 239.2,228.3 243.2,227.1 247.1,226.1 251.0,225.0 255.0,223.8 258.9,222.6 262.8,221.5 266.8,220.5 270.7,219.3 274.6,218.0 278.5,216.6 282.5,215.4 286.4,214.3 290.3,213.4 294.3,212.5 298.2,211.4 302.1,210.1 306.1,208.7 310.0,207.5 313.9,206.3 317.9,205.2 321.8,204.2 325.7,203.2 329.7,202.1 333.6,201.0 337.5,199.8 341.5,198.7 345.4,197.7 349.3,196.7 353.2,195.7 357.2,194.6 361.1,193.6 365.0,192.5 369.0,191.6 372.9,190.6 376.8,189.4 380.8,187.9 384.7,186.1 388.6,184.6 392.6,183.4 396.5,182.5 400.4,181.5 404.4,180.5 408.3,179.5 412.2,178.4 416.1,177.3 420.1,176.2 424.0,175.1 427.9,174.0 431.9,173.0 435.8,172.1 439.7,171.2 443.7,170.3 447.6,169.3 451.5,168.4 455.5,167.5 459.4,166.6 463.3,165.7 467.3,164.7 471.2,163.7 475.1,162.7 479.1,161.7 483.0,160.7 486.9,159.7 490.8,158.7 494.8,157.7 498.7,156.8 502.6,155.9 506.6,155.0 510.5,154.1 514.4,153.2 518.4,152.3 522.3,151.4 526.2,150.4 530.2,149.3 534.1,148.1 538.0,146.9 542.0,145.8 545.9,144.8 549.8,144.0 553.7,143.2 557.7,142.4 561.6,141.6 565.5,140.7 569.5,139.9 573.4,139.0 577.3,138.0 581.3,136.9 585.2,136.0 589.1,135.1 593.1,134.3 597.0,133.4 600.9,132.5 604.9,131.6 608.8,130.7 612.7,129.7 616.7,128.7 620.6,127.5 624.5,126.2 628.4,125.1 632.4,124.1 636.3,123.2 640.2,122.5 644.2,121.8 648.1,121.1 652.0,120.2 656.0,119.2 659.9,118.0 663.8,116.8 667.8,115.7 671.7,114.6 675.6,113.6 679.6,112.7 683.5,112.0 687.4,111.1 691.3,110.1 695.3,109.2 699.2,108.4 703.1,107.7 707.1,107.0 711.0,106.3 714.9,105.5 718.9,104.7 722.8,103.9 726.7,103.2 730.7,102.3 734.6,101.4 738.5,100.6 742.5,99.8 746.4,99.1 750.3,98.4 754.3,97.7 758.2,97.0 762.1,96.2 766.0,95.3 770.0,94.5 773.9,93.6 777.8,92.6 781.8,91.8 785.7,90.9 789.6,90.0 793.6,88.8 797.5,87.5 801.4,86.5 805.4,85.8 809.3,84.8 813.2,83.9 817.2,83.1 821.1,82.4 825.0,81.7 828.9,80.9 832.9,80.1 836.8,79.3 840.7,78.3 844.7,77.2 848.6,76.2 852.5,75.3 856.5,74.7 860.4,74.1 864.3,73.6 868.3,73.1 872.2,72.6 876.1,72.0 880.1,71.4 884.0,70.8 887.9,70.3 891.9,69.9 895.8,69.4 899.7,68.9 903.6,68.5 907.6,68.1 911.5,67.7 915.4,67.2 919.4,66.7 923.3,66.2 927.2,65.9 931.2,65.5 935.1,65.2 939.0,64.8 943.0,64.4 946.9,64.0 950.8,63.6 954.8,63.3 958.7,63.0 962.6,62.7 966.6,62.5 970.5,62.2 974.4,61.9 978.3,61.6 982.3,61.2 986.2,60.9 990.1,60.7 994.1,60.4 998.0,60.0 1001.9,59.7 1005.9,59.4 1009.8,59.1 1013.7,58.8 1017.7,58.5 1021.6,58.1 1025.5,57.6 1029.5,57.2 1033.4,56.8 1037.3,56.4 1041.2,56.0 1045.2,55.6 1049.1,55.2 1053.0,54.7 1057.0,54.3 1060.9,53.8 1064.8,53.3 1068.8,52.8 1072.7,52.3 1076.6,51.9 1080.6,51.5 1084.5,51.2 1088.4,50.8 1092.4,50.5 1096.3,50.1 1100.2,49.7 1104.2,49.3 1108.1,49.0 1112.0,48.7 1115.9,48.4 1119.9,48.2 1123.8,47.9 1127.7,47.8 1131.7,47.7 1135.6,47.6 1139.5,47.5 1143.5,47.5 1147.4,47.4 1151.3,47.4 1155.3,47.3 1159.2,47.1 1163.1,47.0 1167.1,47.0 1171.0,46.9 1174.9,46.8 1178.8,46.7 1182.8,46.7 1186.7,46.6 1190.6,46.6 1194.6,46.5 1198.5,46.5 1202.4,46.5 1206.4,46.4 1210.3,46.3 1214.2,46.2 1218.2,46.1 1222.1,46.0 1226.0,46.0 1230.0,45.9 1233.9,45.9 1237.8,45.9 1241.8,45.8 1245.7,45.8 1249.6,45.7 1253.5,45.7 1257.5,45.7 1261.4,45.6 1265.3,45.6 1269.3,45.5 1273.2,45.5 1277.1,45.4 1281.1,45.3 1285.0,45.3 1288.9,45.2 1292.9,45.2 1296.8,45.2 1300.7,45.1 1304.7,45.1 1308.6,45.0 " clip-path="url(#plotRect830797)" style="box-sizing: inherit; stroke-width: 1.35;" stroke-opacity="1"/></g></g><clipPath id="plotRect830797" style="box-sizing: inherit;"><rect x="84.9" y="44.0" width="1224.7" height="242.0" style="box-sizing: inherit;"/></clipPath><clipPath id="plotRect943388" style="box-sizing: inherit;"><rect x="-1.0" y="-1.0" width="1224.7" height="242.0" style="box-sizing: inherit;"/></clipPath><g class="wj-chart-annotationlayer" transform="translate(85.90625, 45)" style="box-sizing: inherit;" clip-path="url(#plotRect943388)"/></svg>