<svg xmlns="http://www.w3.org/2000/svg" width="1333" height="345" style="box-sizing: inherit; font-family: Calibri;"><rect id="backgroundRect" width="100%" height="100%" x="0" y="0" fill="rgb(255,255,255)" fill-opacity="1" visibility="visible" style="box-sizing: inherit; fill: rgb(255, 255, 255); fill-opacity: 1;"/><defs style="box-sizing: inherit;"/><clipPath id="chartRect791539" style="box-sizing: inherit;"><rect x="-1.0" y="-1.0" width="1330.0" height="339.0" style="box-sizing: inherit;"/></clipPath><g class="wj-header" style="box-sizing: inherit; background: rgb(238, 238, 238); color: rgb(68, 68, 68); font-weight: 700;" clip-path="url(#chartRect791539)"><text x="555.0" y="23.0" fill="rgb(68,68,68)" class="wj-title" fill-opacity="1" style="box-sizing: inherit; cursor: default; font-size: 16pt; font-family: &apos;Segoe UI&apos;; font-style: normal; font-weight: normal; fill: rgb(68, 68, 68); fill-opacity: 1;">Profile Graph lc14curve</text></g><g class="wj-footer" style="box-sizing: inherit;" clip-path="url(#chartRect791539)"/><clipPath id="legRect279468" style="box-sizing: inherit;"><rect x="1327.0" y="181.5" width="2.0" height="2.0" style="box-sizing: inherit;"/></clipPath><g class="wj-legend" style="box-sizing: inherit;" clip-path="url(#legRect279468)"/><g class="wj-plot-area" style="box-sizing: inherit;"><rect fill="#000000" stroke-width="1" x="81.2" y="45.0" width="1227.4" height="240.0" fill-opacity="0" style="box-sizing: inherit;"/></g><g class="wj-axis-x" style="box-sizing: inherit;" clip-path="url(#chartRect791539)"><text x="77.6" y="308.0" fill="rgb(68,68,68)" class="wj-label" fill-opacity="1" style="box-sizing: inherit; cursor: default; font-size: 10pt; font-family: &apos;Segoe UI&apos;; font-style: normal; font-weight: normal; fill: rgb(68, 68, 68); fill-opacity: 1;">0</text><line stroke="#666" stroke-width="1" x1="81.2" x2="81.2" y1="285.0" y2="289.0" class="wj-tick" style="box-sizing: inherit; stroke: rgb(170, 170, 170); stroke-width: 1px;"/><text x="152.8" y="308.0" fill="rgb(68,68,68)" class="wj-label" fill-opacity="1" style="box-sizing: inherit; cursor: default; font-size: 10pt; font-family: &apos;Segoe UI&apos;; font-style: normal; font-weight: normal; fill: rgb(68, 68, 68); fill-opacity: 1;">20</text><line stroke="#666" stroke-width="1" x1="160.0" x2="160.0" y1="285.0" y2="289.0" class="wj-tick" style="box-sizing: inherit; stroke: rgb(170, 170, 170); stroke-width: 1px;"/><text x="231.1" y="308.0" fill="rgb(68,68,68)" class="wj-label" fill-opacity="1" style="box-sizing: inherit; cursor: default; font-size: 10pt; font-family: &apos;Segoe UI&apos;; font-style: normal; font-weight: normal; fill: rgb(68, 68, 68); fill-opacity: 1;">40</text><line stroke="#666" stroke-width="1" x1="238.8" x2="238.8" y1="285.0" y2="289.0" class="wj-tick" style="box-sizing: inherit; stroke: rgb(170, 170, 170); stroke-width: 1px;"/><text x="310.5" y="308.0" fill="rgb(68,68,68)" class="wj-label" fill-opacity="1" style="box-sizing: inherit; cursor: default; font-size: 10pt; font-family: &apos;Segoe UI&apos;; font-style: normal; font-weight: normal; fill: rgb(68, 68, 68); fill-opacity: 1;">60</text><line stroke="#666" stroke-width="1" x1="317.7" x2="317.7" y1="285.0" y2="289.0" class="wj-tick" style="box-sizing: inherit; stroke: rgb(170, 170, 170); stroke-width: 1px;"/><text x="389.3" y="308.0" fill="rgb(68,68,68)" class="wj-label" fill-opacity="1" style="box-sizing: inherit; cursor: default; font-size: 10pt; font-family: &apos;Segoe UI&apos;; font-style: normal; font-weight: normal; fill: rgb(68, 68, 68); fill-opacity: 1;">80</text><line stroke="#666" stroke-width="1" x1="396.5" x2="396.5" y1="285.0" y2="289.0" class="wj-tick" style="box-sizing: inherit; stroke: rgb(170, 170, 170); stroke-width: 1px;"/><text x="464.6" y="308.0" fill="rgb(68,68,68)" class="wj-label" fill-opacity="1" style="box-sizing: inherit; cursor: default; font-size: 10pt; font-family: &apos;Segoe UI&apos;; font-style: normal; font-weight: normal; fill: rgb(68, 68, 68); fill-opacity: 1;">100</text><line stroke="#666" stroke-width="1" x1="475.3" x2="475.3" y1="285.0" y2="289.0" class="wj-tick" style="box-sizing: inherit; stroke: rgb(170, 170, 170); stroke-width: 1px;"/><text x="543.4" y="308.0" fill="rgb(68,68,68)" class="wj-label" fill-opacity="1" style="box-sizing: inherit; cursor: default; font-size: 10pt; font-family: &apos;Segoe UI&apos;; font-style: normal; font-weight: normal; fill: rgb(68, 68, 68); fill-opacity: 1;">120</text><line stroke="#666" stroke-width="1" x1="554.2" x2="554.2" y1="285.0" y2="289.0" class="wj-tick" style="box-sizing: inherit; stroke: rgb(170, 170, 170); stroke-width: 1px;"/><text x="622.2" y="308.0" fill="rgb(68,68,68)" class="wj-label" fill-opacity="1" style="box-sizing: inherit; cursor: default; font-size: 10pt; font-family: &apos;Segoe UI&apos;; font-style: normal; font-weight: normal; fill: rgb(68, 68, 68); fill-opacity: 1;">140</text><line stroke="#666" stroke-width="1" x1="633.0" x2="633.0" y1="285.0" y2="289.0" class="wj-tick" style="box-sizing: inherit; stroke: rgb(170, 170, 170); stroke-width: 1px;"/><text x="701.1" y="308.0" fill="rgb(68,68,68)" class="wj-label" fill-opacity="1" style="box-sizing: inherit; cursor: default; font-size: 10pt; font-family: &apos;Segoe UI&apos;; font-style: normal; font-weight: normal; fill: rgb(68, 68, 68); fill-opacity: 1;">160</text><line stroke="#666" stroke-width="1" x1="711.8" x2="711.8" y1="285.0" y2="289.0" class="wj-tick" style="box-sizing: inherit; stroke: rgb(170, 170, 170); stroke-width: 1px;"/><text x="779.9" y="308.0" fill="rgb(68,68,68)" class="wj-label" fill-opacity="1" style="box-sizing: inherit; cursor: default; font-size: 10pt; font-family: &apos;Segoe UI&apos;; font-style: normal; font-weight: normal; fill: rgb(68, 68, 68); fill-opacity: 1;">180</text><line stroke="#666" stroke-width="1" x1="790.7" x2="790.7" y1="285.0" y2="289.0" class="wj-tick" style="box-sizing: inherit; stroke: rgb(170, 170, 170); stroke-width: 1px;"/><text x="858.7" y="308.0" fill="rgb(68,68,68)" class="wj-label" fill-opacity="1" style="box-sizing: inherit; cursor: default; font-size: 10pt; font-family: &apos;Segoe UI&apos;; font-style: normal; font-weight: normal; fill: rgb(68, 68, 68); fill-opacity: 1;">200</text><line stroke="#666" stroke-width="1" x1="869.5" x2="869.5" y1="285.0" y2="289.0" class="wj-tick" style="box-sizing: inherit; stroke: rgb(170, 170, 170); stroke-width: 1px;"/><text x="937.6" y="308.0" fill="rgb(68,68,68)" class="wj-label" fill-opacity="1" style="box-sizing: inherit; cursor: default; font-size: 10pt; font-family: &apos;Segoe UI&apos;; font-style: normal; font-weight: normal; fill: rgb(68, 68, 68); fill-opacity: 1;">220</text><line stroke="#666" stroke-width="1" x1="948.4" x2="948.4" y1="285.0" y2="289.0" class="wj-tick" style="box-sizing: inherit; stroke: rgb(170, 170, 170); stroke-width: 1px;"/><text x="1016.4" y="308.0" fill="rgb(68,68,68)" class="wj-label" fill-opacity="1" style="box-sizing: inherit; cursor: default; font-size: 10pt; font-family: &apos;Segoe UI&apos;; font-style: normal; font-weight: normal; fill: rgb(68, 68, 68); fill-opacity: 1;">240</text><line stroke="#666" stroke-width="1" x1="1027.2" x2="1027.2" y1="285.0" y2="289.0" class="wj-tick" style="box-sizing: inherit; stroke: rgb(170, 170, 170); stroke-width: 1px;"/><text x="1095.2" y="308.0" fill="rgb(68,68,68)" class="wj-label" fill-opacity="1" style="box-sizing: inherit; cursor: default; font-size: 10pt; font-family: &apos;Segoe UI&apos;; font-style: normal; font-weight: normal; fill: rgb(68, 68, 68); fill-opacity: 1;">260</text><line stroke="#666" stroke-width="1" x1="1106.0" x2="1106.0" y1="285.0" y2="289.0" class="wj-tick" style="box-sizing: inherit; stroke: rgb(170, 170, 170); stroke-width: 1px;"/><text x="1174.1" y="308.0" fill="rgb(68,68,68)" class="wj-label" fill-opacity="1" style="box-sizing: inherit; cursor: default; font-size: 10pt; font-family: &apos;Segoe UI&apos;; font-style: normal; font-weight: normal; fill: rgb(68, 68, 68); fill-opacity: 1;">280</text><line stroke="#666" stroke-width="1" x1="1184.9" x2="1184.9" y1="285.0" y2="289.0" class="wj-tick" style="box-sizing: inherit; stroke: rgb(170, 170, 170); stroke-width: 1px;"/><text x="1252.9" y="308.0" fill="rgb(68,68,68)" class="wj-label" fill-opacity="1" style="box-sizing: inherit; cursor: default; font-size: 10pt; font-family: &apos;Segoe UI&apos;; font-style: normal; font-weight: normal; fill: rgb(68, 68, 68); fill-opacity: 1;">300</text><line stroke="#666" stroke-width="1" x1="1263.7" x2="1263.7" y1="285.0" y2="289.0" class="wj-tick" style="box-sizing: inherit; stroke: rgb(170, 170, 170); stroke-width: 1px;"/><line stroke="rgb(156,156,156)" stroke-width="1px" x1="81.2" x2="1308.6" y1="285.0" y2="285.0" class="wj-line" stroke-opacity="1" stroke-dasharray="none" style="box-sizing: inherit; stroke: rgb(156, 156, 156); stroke-opacity: 1; stroke-width: 1px; stroke-dasharray: none;"/><text x="631.9" y="333.0" fill="rgb(68,68,68)" class="wj-title" fill-opacity="1" style="box-sizing: inherit; cursor: default; font-size: 12pt; font-family: &apos;Segoe UI&apos;; font-style: normal; font-weight: normal; fill: rgb(68, 68, 68); fill-opacity: 1;">Horizontal Distance</text></g><g class="wj-axis-y" style="box-sizing: inherit;" clip-path="url(#chartRect791539)"><line stroke="rgb(225,225,225)" stroke-width="1px" x1="81.2" x2="1308.6" y1="260.0" y2="260.0" class="wj-gridline" stroke-opacity="1" stroke-dasharray="none" style="box-sizing: inherit; opacity: 0.75; stroke: rgb(225, 225, 225); stroke-opacity: 1; stroke-width: 1px; stroke-dasharray: none;"/><text x="41.3" y="265.5" fill="rgb(68,68,68)" class="wj-label" fill-opacity="1" style="box-sizing: inherit; cursor: default; font-size: 10pt; font-family: &apos;Segoe UI&apos;; font-style: normal; font-weight: normal; fill: rgb(68, 68, 68); fill-opacity: 1;">-120</text><line stroke="rgb(225,225,225)" stroke-width="1px" x1="81.2" x2="1308.6" y1="216.4" y2="216.4" class="wj-gridline" stroke-opacity="1" stroke-dasharray="none" style="box-sizing: inherit; opacity: 0.75; stroke: rgb(225, 225, 225); stroke-opacity: 1; stroke-width: 1px; stroke-dasharray: none;"/><text x="48.5" y="221.9" fill="rgb(68,68,68)" class="wj-label" fill-opacity="1" style="box-sizing: inherit; cursor: default; font-size: 10pt; font-family: &apos;Segoe UI&apos;; font-style: normal; font-weight: normal; fill: rgb(68, 68, 68); fill-opacity: 1;">-80</text><line stroke="rgb(225,225,225)" stroke-width="1px" x1="81.2" x2="1308.6" y1="172.8" y2="172.8" class="wj-gridline" stroke-opacity="1" stroke-dasharray="none" style="box-sizing: inherit; opacity: 0.75; stroke: rgb(225, 225, 225); stroke-opacity: 1; stroke-width: 1px; stroke-dasharray: none;"/><text x="48.5" y="178.3" fill="rgb(68,68,68)" class="wj-label" fill-opacity="1" style="box-sizing: inherit; cursor: default; font-size: 10pt; font-family: &apos;Segoe UI&apos;; font-style: normal; font-weight: normal; fill: rgb(68, 68, 68); fill-opacity: 1;">-40</text><line stroke="rgb(225,225,225)" stroke-width="1px" x1="81.2" x2="1308.6" y1="129.2" y2="129.2" class="wj-gridline" stroke-opacity="1" stroke-dasharray="none" style="box-sizing: inherit; opacity: 0.75; stroke: rgb(225, 225, 225); stroke-opacity: 1; stroke-width: 1px; stroke-dasharray: none;"/><text x="61.0" y="134.7" fill="rgb(68,68,68)" class="wj-label" fill-opacity="1" style="box-sizing: inherit; cursor: default; font-size: 10pt; font-family: &apos;Segoe UI&apos;; font-style: normal; font-weight: normal; fill: rgb(68, 68, 68); fill-opacity: 1;">0</text><line stroke="rgb(225,225,225)" stroke-width="1px" x1="81.2" x2="1308.6" y1="85.6" y2="85.6" class="wj-gridline" stroke-opacity="1" stroke-dasharray="none" style="box-sizing: inherit; opacity: 0.75; stroke: rgb(225, 225, 225); stroke-opacity: 1; stroke-width: 1px; stroke-dasharray: none;"/><text x="52.8" y="91.1" fill="rgb(68,68,68)" class="wj-label" fill-opacity="1" style="box-sizing: inherit; cursor: default; font-size: 10pt; font-family: &apos;Segoe UI&apos;; font-style: normal; font-weight: normal; fill: rgb(68, 68, 68); fill-opacity: 1;">40</text><g transform="rotate(-90.0,10.5,165.0)" style="box-sizing: inherit;"><text x="-21.4" y="171.5" fill="rgb(68,68,68)" class="wj-title" fill-opacity="1" style="box-sizing: inherit; cursor: default; font-size: 12pt; font-family: &apos;Segoe UI&apos;; font-style: normal; font-weight: normal; fill: rgb(68, 68, 68); fill-opacity: 1;">Elevation</text></g><line stroke="rgb(156,156,156)" stroke-width="1px" x1="81.2" x2="81.2" y1="45.0" y2="285.0" class="wj-line" stroke-opacity="0" stroke-dasharray="none" style="box-sizing: inherit; stroke: rgb(156, 156, 156); stroke-opacity: 0; stroke-width: 1px; stroke-dasharray: none;"/></g><g class="wj-series-group" style="box-sizing: inherit;"><g style="box-sizing: inherit;"><polyline stroke="rgb(160,106,65)" stroke-width="1.35" fill="none" points="81.2,149.2 85.1,177.9 89.0,161.2 93.0,124.3 96.9,124.4 100.8,131.6 104.8,130.8 108.7,124.7 112.6,127.4 116.6,134.2 120.5,140.6 124.4,136.6 128.4,126.2 132.3,139.3 136.2,136.8 140.2,120.0 144.1,119.8 148.0,119.0 152.0,126.8 155.9,134.9 159.8,135.8 163.8,128.6 167.7,123.7 171.6,147.1 175.6,134.9 179.5,99.2 183.4,114.5 187.4,141.0 191.3,128.4 195.2,112.3 199.2,131.4 203.1,118.9 207.0,125.7 211.0,132.1 214.9,137.8 218.8,136.0 222.8,128.0 226.7,130.2 230.7,149.7 234.6,160.0 238.5,142.3 242.5,116.6 246.4,103.9 250.3,121.0 254.3,122.6 258.2,124.6 262.1,126.8 266.1,141.0 270.0,133.3 273.9,120.9 277.9,119.3 281.8,129.9 285.7,137.9 289.7,128.7 293.6,124.0 297.5,128.1 301.5,129.9 305.4,124.4 309.3,118.9 313.3,129.9 317.2,129.1 321.1,120.7 325.1,123.2 329.0,128.6 332.9,130.7 336.9,125.2 340.8,129.5 344.7,132.3 348.7,129.1 352.6,116.9 356.5,118.9 360.5,121.6 364.4,122.3 368.3,143.1 372.3,144.7 376.2,128.8 380.1,126.4 384.1,125.9 388.0,118.9 391.9,121.1 395.9,132.0 399.8,139.1 403.7,134.0 407.7,120.1 411.6,122.8 415.6,131.7 419.5,134.1 423.4,133.7 427.4,125.8 431.3,105.7 435.2,117.4 439.2,136.2 443.1,120.9 447.0,125.3 451.0,130.9 454.9,124.6 458.8,119.8 462.8,132.7 466.7,138.5 470.6,129.1 474.6,127.1 478.5,128.0 482.4,134.1 486.4,140.0 490.3,125.0 494.2,111.1 498.2,118.0 502.1,118.8 506.0,125.1 510.0,128.8 513.9,167.3 517.8,273.7 521.8,285.0 525.7,114.7 529.6,45.0 533.6,103.1 537.5,141.9 541.4,117.6 545.4,120.3 549.3,145.5 553.2,133.0 557.2,117.4 561.1,121.5 565.0,138.9 569.0,135.0 572.9,119.9 576.8,110.0 580.8,112.0 584.7,132.6 588.7,162.4 592.6,242.0 596.5,156.0 600.5,54.5 604.4,45.8 608.3,105.5 612.3,119.6 616.2,123.8 620.1,131.3 624.1,133.6 628.0,130.7 631.9,135.9 635.9,126.0 639.8,116.4 643.7,122.4 647.7,120.6 651.6,103.6 655.5,109.7 659.5,111.6 663.4,114.8 667.3,132.1 671.3,137.3 675.2,117.1 679.1,129.1 683.1,129.1 687.0,119.4 690.9,121.2 694.9,125.6 698.8,129.3 702.7,121.6 706.7,125.1 710.6,117.3 714.5,107.8 718.5,114.8 722.4,123.7 726.3,131.2 730.3,131.5 734.2,130.4 738.1,129.2 742.1,125.0 746.0,124.2 749.9,128.6 753.9,126.3 757.8,126.5 761.8,125.3 765.7,138.7 769.6,135.0 773.6,120.9 777.5,122.9 781.4,128.5 785.4,126.2 789.3,121.4 793.2,124.3 797.2,130.0 801.1,132.0 805.0,131.9 809.0,126.9 812.9,129.1 816.8,131.7 820.8,126.3 824.7,123.1 828.6,130.1 832.6,129.2 836.5,124.3 840.4,128.0 844.4,133.9 848.3,131.9 852.2,130.5 856.2,130.8 860.1,124.2 864.0,126.7 868.0,128.9 871.9,133.8 875.8,130.4 879.8,123.6 883.7,127.9 887.6,132.8 891.6,129.6 895.5,129.3 899.4,132.2 903.4,130.2 907.3,132.2 911.2,131.3 915.2,121.7 919.1,121.3 923.0,126.0 927.0,131.2 930.9,130.5 934.8,124.3 938.8,126.3 942.7,127.4 946.7,134.6 950.6,132.0 954.5,127.2 958.5,127.3 962.4,122.2 966.3,117.9 970.3,120.0 974.2,118.3 978.1,115.0 982.1,121.4 986.0,134.4 989.9,137.3 993.9,126.7 997.8,126.1 1001.7,129.1 1005.7,130.0 1009.6,127.8 1013.5,130.2 1017.5,125.7 1021.4,123.0 1025.3,123.4 1029.3,128.5 1033.2,125.3 1037.1,116.1 1041.1,130.2 1045.0,129.9 1048.9,124.4 1052.9,127.2 1056.8,128.2 1060.7,128.4 1064.7,128.4 1068.6,125.8 1072.5,127.9 1076.5,131.8 1080.4,136.7 1084.3,132.6 1088.3,128.6 1092.2,127.1 1096.1,126.5 1100.1,124.4 1104.0,125.9 1107.9,125.7 1111.9,127.3 1115.8,126.5 1119.8,130.4 1123.7,130.1 1127.6,127.9 1131.6,126.9 1135.5,128.6 1139.4,130.2 1143.4,129.4 1147.3,130.2 1151.2,128.9 1155.2,126.8 1159.1,131.2 1163.0,130.9 1167.0,129.2 1170.9,127.2 1174.8,123.2 1178.8,124.0 1182.7,128.5 1186.6,132.1 1190.6,131.0 1194.5,129.2 1198.4,131.8 1202.4,128.3 1206.3,126.7 1210.2,126.4 1214.2,128.7 1218.1,128.6 1222.0,128.2 1226.0,129.3 1229.9,129.3 1233.8,128.1 1237.8,126.7 1241.7,126.8 1245.6,128.2 1249.6,129.7 1253.5,130.5 1257.4,129.2 1261.4,130.7 1265.3,130.8 1269.2,118.4 1273.2,117.4 1277.1,124.0 1281.0,129.5 1285.0,132.7 1288.9,133.5 1292.8,130.8 1296.8,130.0 1300.7,130.3 1304.7,128.1 1308.6,127.5 " clip-path="url(#plotRect508933)" style="box-sizing: inherit; stroke-width: 1.35;" stroke-opacity="1"/></g></g><clipPath id="plotRect508933" style="box-sizing: inherit;"><rect x="80.2" y="44.0" width="1229.4" height="242.0" style="box-sizing: inherit;"/></clipPath><clipPath id="plotRect153226" style="box-sizing: inherit;"><rect x="-1.0" y="-1.0" width="1229.4" height="242.0" style="box-sizing: inherit;"/></clipPath><g class="wj-chart-annotationlayer" transform="translate(81.15625, 45)" style="box-sizing: inherit;" clip-path="url(#plotRect153226)"/></svg>