<svg xmlns="http://www.w3.org/2000/svg" width="1333" height="345" style="box-sizing: inherit; font-family: Calibri;"><rect id="backgroundRect" width="100%" height="100%" x="0" y="0" fill="rgb(255,255,255)" fill-opacity="1" visibility="visible" style="box-sizing: inherit; fill: rgb(255, 255, 255); fill-opacity: 1;"/><defs style="box-sizing: inherit;"/><clipPath id="chartRect44055" style="box-sizing: inherit;"><rect x="-1.0" y="-1.0" width="1330.0" height="339.0" style="box-sizing: inherit;"/></clipPath><g class="wj-header" style="box-sizing: inherit; background: rgb(238, 238, 238); color: rgb(68, 68, 68); font-weight: 700;" clip-path="url(#chartRect44055)"><text x="439.2" y="23.0" fill="rgb(68,68,68)" class="wj-title" fill-opacity="1" style="box-sizing: inherit; cursor: default; font-size: 16pt; font-family: &apos;Segoe UI&apos;; font-style: normal; font-weight: normal; fill: rgb(68, 68, 68); fill-opacity: 1;">Profile Graph Curvatu_1m_InterpolateShapeaafjj</text></g><g class="wj-footer" style="box-sizing: inherit;" clip-path="url(#chartRect44055)"/><clipPath id="legRect512802" style="box-sizing: inherit;"><rect x="1327.0" y="181.5" width="2.0" height="2.0" style="box-sizing: inherit;"/></clipPath><g class="wj-legend" style="box-sizing: inherit;" clip-path="url(#legRect512802)"/><g class="wj-plot-area" style="box-sizing: inherit;"><rect fill="#000000" stroke-width="1" x="78.7" y="45.0" width="1229.9" height="240.0" fill-opacity="0" style="box-sizing: inherit;"/></g><g class="wj-axis-x" style="box-sizing: inherit;" clip-path="url(#chartRect44055)"><text x="75.1" y="308.0" fill="rgb(68,68,68)" class="wj-label" fill-opacity="1" style="box-sizing: inherit; cursor: default; font-size: 10pt; font-family: &apos;Segoe UI&apos;; font-style: normal; font-weight: normal; fill: rgb(68, 68, 68); fill-opacity: 1;">0</text><line stroke="#666" stroke-width="1" x1="78.7" x2="78.7" y1="285.0" y2="289.0" class="wj-tick" style="box-sizing: inherit; stroke: rgb(170, 170, 170); stroke-width: 1px;"/><text x="161.7" y="308.0" fill="rgb(68,68,68)" class="wj-label" fill-opacity="1" style="box-sizing: inherit; cursor: default; font-size: 10pt; font-family: &apos;Segoe UI&apos;; font-style: normal; font-weight: normal; fill: rgb(68, 68, 68); fill-opacity: 1;">10</text><line stroke="#666" stroke-width="1" x1="168.9" x2="168.9" y1="285.0" y2="289.0" class="wj-tick" style="box-sizing: inherit; stroke: rgb(170, 170, 170); stroke-width: 1px;"/><text x="252.0" y="308.0" fill="rgb(68,68,68)" class="wj-label" fill-opacity="1" style="box-sizing: inherit; cursor: default; font-size: 10pt; font-family: &apos;Segoe UI&apos;; font-style: normal; font-weight: normal; fill: rgb(68, 68, 68); fill-opacity: 1;">20</text><line stroke="#666" stroke-width="1" x1="259.1" x2="259.1" y1="285.0" y2="289.0" class="wj-tick" style="box-sizing: inherit; stroke: rgb(170, 170, 170); stroke-width: 1px;"/><text x="342.2" y="308.0" fill="rgb(68,68,68)" class="wj-label" fill-opacity="1" style="box-sizing: inherit; cursor: default; font-size: 10pt; font-family: &apos;Segoe UI&apos;; font-style: normal; font-weight: normal; fill: rgb(68, 68, 68); fill-opacity: 1;">30</text><line stroke="#666" stroke-width="1" x1="349.3" x2="349.3" y1="285.0" y2="289.0" class="wj-tick" style="box-sizing: inherit; stroke: rgb(170, 170, 170); stroke-width: 1px;"/><text x="431.9" y="308.0" fill="rgb(68,68,68)" class="wj-label" fill-opacity="1" style="box-sizing: inherit; cursor: default; font-size: 10pt; font-family: &apos;Segoe UI&apos;; font-style: normal; font-weight: normal; fill: rgb(68, 68, 68); fill-opacity: 1;">40</text><line stroke="#666" stroke-width="1" x1="439.6" x2="439.6" y1="285.0" y2="289.0" class="wj-tick" style="box-sizing: inherit; stroke: rgb(170, 170, 170); stroke-width: 1px;"/><text x="522.6" y="308.0" fill="rgb(68,68,68)" class="wj-label" fill-opacity="1" style="box-sizing: inherit; cursor: default; font-size: 10pt; font-family: &apos;Segoe UI&apos;; font-style: normal; font-weight: normal; fill: rgb(68, 68, 68); fill-opacity: 1;">50</text><line stroke="#666" stroke-width="1" x1="529.8" x2="529.8" y1="285.0" y2="289.0" class="wj-tick" style="box-sizing: inherit; stroke: rgb(170, 170, 170); stroke-width: 1px;"/><text x="612.8" y="308.0" fill="rgb(68,68,68)" class="wj-label" fill-opacity="1" style="box-sizing: inherit; cursor: default; font-size: 10pt; font-family: &apos;Segoe UI&apos;; font-style: normal; font-weight: normal; fill: rgb(68, 68, 68); fill-opacity: 1;">60</text><line stroke="#666" stroke-width="1" x1="620.0" x2="620.0" y1="285.0" y2="289.0" class="wj-tick" style="box-sizing: inherit; stroke: rgb(170, 170, 170); stroke-width: 1px;"/><text x="703.0" y="308.0" fill="rgb(68,68,68)" class="wj-label" fill-opacity="1" style="box-sizing: inherit; cursor: default; font-size: 10pt; font-family: &apos;Segoe UI&apos;; font-style: normal; font-weight: normal; fill: rgb(68, 68, 68); fill-opacity: 1;">70</text><line stroke="#666" stroke-width="1" x1="710.2" x2="710.2" y1="285.0" y2="289.0" class="wj-tick" style="box-sizing: inherit; stroke: rgb(170, 170, 170); stroke-width: 1px;"/><text x="793.2" y="308.0" fill="rgb(68,68,68)" class="wj-label" fill-opacity="1" style="box-sizing: inherit; cursor: default; font-size: 10pt; font-family: &apos;Segoe UI&apos;; font-style: normal; font-weight: normal; fill: rgb(68, 68, 68); fill-opacity: 1;">80</text><line stroke="#666" stroke-width="1" x1="800.4" x2="800.4" y1="285.0" y2="289.0" class="wj-tick" style="box-sizing: inherit; stroke: rgb(170, 170, 170); stroke-width: 1px;"/><text x="883.4" y="308.0" fill="rgb(68,68,68)" class="wj-label" fill-opacity="1" style="box-sizing: inherit; cursor: default; font-size: 10pt; font-family: &apos;Segoe UI&apos;; font-style: normal; font-weight: normal; fill: rgb(68, 68, 68); fill-opacity: 1;">90</text><line stroke="#666" stroke-width="1" x1="890.6" x2="890.6" y1="285.0" y2="289.0" class="wj-tick" style="box-sizing: inherit; stroke: rgb(170, 170, 170); stroke-width: 1px;"/><text x="970.0" y="308.0" fill="rgb(68,68,68)" class="wj-label" fill-opacity="1" style="box-sizing: inherit; cursor: default; font-size: 10pt; font-family: &apos;Segoe UI&apos;; font-style: normal; font-weight: normal; fill: rgb(68, 68, 68); fill-opacity: 1;">100</text><line stroke="#666" stroke-width="1" x1="980.8" x2="980.8" y1="285.0" y2="289.0" class="wj-tick" style="box-sizing: inherit; stroke: rgb(170, 170, 170); stroke-width: 1px;"/><text x="1060.2" y="308.0" fill="rgb(68,68,68)" class="wj-label" fill-opacity="1" style="box-sizing: inherit; cursor: default; font-size: 10pt; font-family: &apos;Segoe UI&apos;; font-style: normal; font-weight: normal; fill: rgb(68, 68, 68); fill-opacity: 1;">110</text><line stroke="#666" stroke-width="1" x1="1071.0" x2="1071.0" y1="285.0" y2="289.0" class="wj-tick" style="box-sizing: inherit; stroke: rgb(170, 170, 170); stroke-width: 1px;"/><text x="1150.5" y="308.0" fill="rgb(68,68,68)" class="wj-label" fill-opacity="1" style="box-sizing: inherit; cursor: default; font-size: 10pt; font-family: &apos;Segoe UI&apos;; font-style: normal; font-weight: normal; fill: rgb(68, 68, 68); fill-opacity: 1;">120</text><line stroke="#666" stroke-width="1" x1="1161.2" x2="1161.2" y1="285.0" y2="289.0" class="wj-tick" style="box-sizing: inherit; stroke: rgb(170, 170, 170); stroke-width: 1px;"/><text x="1240.7" y="308.0" fill="rgb(68,68,68)" class="wj-label" fill-opacity="1" style="box-sizing: inherit; cursor: default; font-size: 10pt; font-family: &apos;Segoe UI&apos;; font-style: normal; font-weight: normal; fill: rgb(68, 68, 68); fill-opacity: 1;">130</text><line stroke="#666" stroke-width="1" x1="1251.4" x2="1251.4" y1="285.0" y2="289.0" class="wj-tick" style="box-sizing: inherit; stroke: rgb(170, 170, 170); stroke-width: 1px;"/><line stroke="rgb(156,156,156)" stroke-width="1px" x1="78.7" x2="1308.6" y1="285.0" y2="285.0" class="wj-line" stroke-opacity="1" stroke-dasharray="none" style="box-sizing: inherit; stroke: rgb(156, 156, 156); stroke-opacity: 1; stroke-width: 1px; stroke-dasharray: none;"/><text x="630.6" y="333.0" fill="rgb(68,68,68)" class="wj-title" fill-opacity="1" style="box-sizing: inherit; cursor: default; font-size: 12pt; font-family: &apos;Segoe UI&apos;; font-style: normal; font-weight: normal; fill: rgb(68, 68, 68); fill-opacity: 1;">Horizontal Distance</text></g><g class="wj-axis-y" style="box-sizing: inherit;" clip-path="url(#chartRect44055)"><line stroke="rgb(225,225,225)" stroke-width="1px" x1="78.7" x2="1308.6" y1="278.0" y2="278.0" class="wj-gridline" stroke-opacity="1" stroke-dasharray="none" style="box-sizing: inherit; opacity: 0.75; stroke: rgb(225, 225, 225); stroke-opacity: 1; stroke-width: 1px; stroke-dasharray: none;"/><text x="34.1" y="283.5" fill="rgb(68,68,68)" class="wj-label" fill-opacity="1" style="box-sizing: inherit; cursor: default; font-size: 10pt; font-family: &apos;Segoe UI&apos;; font-style: normal; font-weight: normal; fill: rgb(68, 68, 68); fill-opacity: 1;">1,635</text><line stroke="rgb(225,225,225)" stroke-width="1px" x1="78.7" x2="1308.6" y1="246.1" y2="246.1" class="wj-gridline" stroke-opacity="1" stroke-dasharray="none" style="box-sizing: inherit; opacity: 0.75; stroke: rgb(225, 225, 225); stroke-opacity: 1; stroke-width: 1px; stroke-dasharray: none;"/><text x="34.1" y="251.6" fill="rgb(68,68,68)" class="wj-label" fill-opacity="1" style="box-sizing: inherit; cursor: default; font-size: 10pt; font-family: &apos;Segoe UI&apos;; font-style: normal; font-weight: normal; fill: rgb(68, 68, 68); fill-opacity: 1;">1,640</text><line stroke="rgb(225,225,225)" stroke-width="1px" x1="78.7" x2="1308.6" y1="214.2" y2="214.2" class="wj-gridline" stroke-opacity="1" stroke-dasharray="none" style="box-sizing: inherit; opacity: 0.75; stroke: rgb(225, 225, 225); stroke-opacity: 1; stroke-width: 1px; stroke-dasharray: none;"/><text x="34.1" y="219.7" fill="rgb(68,68,68)" class="wj-label" fill-opacity="1" style="box-sizing: inherit; cursor: default; font-size: 10pt; font-family: &apos;Segoe UI&apos;; font-style: normal; font-weight: normal; fill: rgb(68, 68, 68); fill-opacity: 1;">1,645</text><line stroke="rgb(225,225,225)" stroke-width="1px" x1="78.7" x2="1308.6" y1="182.3" y2="182.3" class="wj-gridline" stroke-opacity="1" stroke-dasharray="none" style="box-sizing: inherit; opacity: 0.75; stroke: rgb(225, 225, 225); stroke-opacity: 1; stroke-width: 1px; stroke-dasharray: none;"/><text x="34.1" y="187.8" fill="rgb(68,68,68)" class="wj-label" fill-opacity="1" style="box-sizing: inherit; cursor: default; font-size: 10pt; font-family: &apos;Segoe UI&apos;; font-style: normal; font-weight: normal; fill: rgb(68, 68, 68); fill-opacity: 1;">1,650</text><line stroke="rgb(225,225,225)" stroke-width="1px" x1="78.7" x2="1308.6" y1="150.4" y2="150.4" class="wj-gridline" stroke-opacity="1" stroke-dasharray="none" style="box-sizing: inherit; opacity: 0.75; stroke: rgb(225, 225, 225); stroke-opacity: 1; stroke-width: 1px; stroke-dasharray: none;"/><text x="34.1" y="155.9" fill="rgb(68,68,68)" class="wj-label" fill-opacity="1" style="box-sizing: inherit; cursor: default; font-size: 10pt; font-family: &apos;Segoe UI&apos;; font-style: normal; font-weight: normal; fill: rgb(68, 68, 68); fill-opacity: 1;">1,655</text><line stroke="rgb(225,225,225)" stroke-width="1px" x1="78.7" x2="1308.6" y1="118.5" y2="118.5" class="wj-gridline" stroke-opacity="1" stroke-dasharray="none" style="box-sizing: inherit; opacity: 0.75; stroke: rgb(225, 225, 225); stroke-opacity: 1; stroke-width: 1px; stroke-dasharray: none;"/><text x="34.1" y="124.0" fill="rgb(68,68,68)" class="wj-label" fill-opacity="1" style="box-sizing: inherit; cursor: default; font-size: 10pt; font-family: &apos;Segoe UI&apos;; font-style: normal; font-weight: normal; fill: rgb(68, 68, 68); fill-opacity: 1;">1,660</text><line stroke="rgb(225,225,225)" stroke-width="1px" x1="78.7" x2="1308.6" y1="86.6" y2="86.6" class="wj-gridline" stroke-opacity="1" stroke-dasharray="none" style="box-sizing: inherit; opacity: 0.75; stroke: rgb(225, 225, 225); stroke-opacity: 1; stroke-width: 1px; stroke-dasharray: none;"/><text x="34.1" y="92.1" fill="rgb(68,68,68)" class="wj-label" fill-opacity="1" style="box-sizing: inherit; cursor: default; font-size: 10pt; font-family: &apos;Segoe UI&apos;; font-style: normal; font-weight: normal; fill: rgb(68, 68, 68); fill-opacity: 1;">1,665</text><line stroke="rgb(225,225,225)" stroke-width="1px" x1="78.7" x2="1308.6" y1="54.7" y2="54.7" class="wj-gridline" stroke-opacity="1" stroke-dasharray="none" style="box-sizing: inherit; opacity: 0.75; stroke: rgb(225, 225, 225); stroke-opacity: 1; stroke-width: 1px; stroke-dasharray: none;"/><text x="34.1" y="60.2" fill="rgb(68,68,68)" class="wj-label" fill-opacity="1" style="box-sizing: inherit; cursor: default; font-size: 10pt; font-family: &apos;Segoe UI&apos;; font-style: normal; font-weight: normal; fill: rgb(68, 68, 68); fill-opacity: 1;">1,670</text><g transform="rotate(-90.0,10.5,165.0)" style="box-sizing: inherit;"><text x="-21.4" y="171.5" fill="rgb(68,68,68)" class="wj-title" fill-opacity="1" style="box-sizing: inherit; cursor: default; font-size: 12pt; font-family: &apos;Segoe UI&apos;; font-style: normal; font-weight: normal; fill: rgb(68, 68, 68); fill-opacity: 1;">Elevation</text></g><line stroke="rgb(156,156,156)" stroke-width="1px" x1="78.7" x2="78.7" y1="45.0" y2="285.0" class="wj-line" stroke-opacity="0" stroke-dasharray="none" style="box-sizing: inherit; stroke: rgb(156, 156, 156); stroke-opacity: 0; stroke-width: 1px; stroke-dasharray: none;"/></g><g class="wj-series-group" style="box-sizing: inherit;"><g style="box-sizing: inherit;"><polyline stroke="rgb(146,86,175)" stroke-width="1.35" fill="none" points="78.7,285.0 87.7,283.4 96.7,280.4 105.7,277.0 114.6,273.7 123.6,270.6 132.6,267.7 141.6,264.6 150.5,261.4 159.5,258.4 168.5,255.2 177.5,251.3 186.4,246.7 195.4,241.2 204.4,234.6 213.4,226.6 222.4,217.7 231.3,210.5 240.3,205.9 249.3,202.6 258.3,199.3 267.2,195.7 276.2,191.9 285.2,188.1 294.2,184.5 303.1,181.2 312.1,178.4 321.1,175.7 330.1,172.5 339.1,169.4 348.0,166.6 357.0,164.0 366.0,161.2 375.0,158.6 383.9,156.4 392.9,154.1 401.9,151.7 410.9,149.1 419.8,146.6 428.8,144.1 437.8,141.3 446.8,138.3 455.8,135.6 464.7,133.2 473.7,130.6 482.7,127.8 491.7,125.2 500.6,122.4 509.6,119.4 518.6,116.4 527.6,113.8 536.6,111.8 545.5,110.1 554.5,108.2 563.5,106.2 572.5,104.3 581.4,102.1 590.4,99.7 599.4,97.6 608.4,95.8 617.3,94.0 626.3,92.0 635.3,89.8 644.3,87.5 653.3,85.1 662.2,82.8 671.2,80.9 680.2,79.2 689.2,77.3 698.1,75.1 707.1,72.5 716.1,70.7 725.1,69.6 734.0,68.5 743.0,67.4 752.0,65.9 761.0,64.5 770.0,63.4 778.9,62.4 787.9,61.4 796.9,60.3 805.9,59.3 814.8,58.5 823.8,57.7 832.8,57.1 841.8,56.6 850.8,56.2 859.7,55.9 868.7,55.6 877.7,55.2 886.7,54.7 895.6,54.1 904.6,53.6 913.6,53.4 922.6,53.2 931.5,53.0 940.5,52.6 949.5,52.1 958.5,51.6 967.5,51.2 976.4,50.6 985.4,50.2 994.4,49.8 1003.4,49.5 1012.3,49.5 1021.3,49.3 1030.3,49.0 1039.3,48.7 1048.2,48.4 1057.2,48.3 1066.2,48.2 1075.2,47.9 1084.2,47.4 1093.1,46.9 1102.1,46.6 1111.1,46.5 1120.1,46.4 1129.0,46.3 1138.0,46.3 1147.0,46.2 1156.0,46.0 1165.0,45.8 1173.9,45.7 1182.9,45.6 1191.9,45.5 1200.9,45.2 1209.8,45.0 1218.8,45.1 1227.8,45.5 1236.8,45.7 1245.7,45.8 1254.7,45.7 1263.7,45.7 1272.7,45.6 1281.7,45.6 1290.6,45.5 1299.6,45.3 1308.6,45.2 " clip-path="url(#plotRect452499)" style="box-sizing: inherit; stroke-width: 1.35;" stroke-opacity="1"/></g></g><clipPath id="plotRect452499" style="box-sizing: inherit;"><rect x="77.7" y="44.0" width="1231.9" height="242.0" style="box-sizing: inherit;"/></clipPath><clipPath id="plotRect345696" style="box-sizing: inherit;"><rect x="-1.0" y="-1.0" width="1231.9" height="242.0" style="box-sizing: inherit;"/></clipPath><g class="wj-chart-annotationlayer" transform="translate(78.71875, 45)" style="box-sizing: inherit;" clip-path="url(#plotRect345696)"/></svg>