<svg xmlns="http://www.w3.org/2000/svg" width="1333" height="345" style="box-sizing: inherit; font-family: Calibri;"><rect id="backgroundRect" width="100%" height="100%" x="0" y="0" fill="rgb(255,255,255)" fill-opacity="1" visibility="visible" style="box-sizing: inherit; fill: rgb(255, 255, 255); fill-opacity: 1;"/><defs style="box-sizing: inherit;"/><clipPath id="chartRect359724" style="box-sizing: inherit;"><rect x="-1.0" y="-1.0" width="1330.0" height="339.0" style="box-sizing: inherit;"/></clipPath><g class="wj-header" style="box-sizing: inherit; background: rgb(238, 238, 238); color: rgb(68, 68, 68); font-weight: 700;" clip-path="url(#chartRect359724)"><text x="560.8" y="23.0" fill="rgb(68,68,68)" class="wj-title" fill-opacity="1" style="box-sizing: inherit; cursor: default; font-size: 16pt; font-family: &apos;Segoe UI&apos;; font-style: normal; font-weight: normal; fill: rgb(68, 68, 68); fill-opacity: 1;">Profile Graph lc1curve</text></g><g class="wj-footer" style="box-sizing: inherit;" clip-path="url(#chartRect359724)"/><clipPath id="legRect638090" style="box-sizing: inherit;"><rect x="1327.0" y="181.5" width="2.0" height="2.0" style="box-sizing: inherit;"/></clipPath><g class="wj-legend" style="box-sizing: inherit;" clip-path="url(#legRect638090)"/><g class="wj-plot-area" style="box-sizing: inherit;"><rect fill="#000000" stroke-width="1" x="66.8" y="45.0" width="1241.8" height="240.0" fill-opacity="0" style="box-sizing: inherit;"/></g><g class="wj-axis-x" style="box-sizing: inherit;" clip-path="url(#chartRect359724)"><text x="63.2" y="308.0" fill="rgb(68,68,68)" class="wj-label" fill-opacity="1" style="box-sizing: inherit; cursor: default; font-size: 10pt; font-family: &apos;Segoe UI&apos;; font-style: normal; font-weight: normal; fill: rgb(68, 68, 68); fill-opacity: 1;">0</text><line stroke="#666" stroke-width="1" x1="66.8" x2="66.8" y1="285.0" y2="289.0" class="wj-tick" style="box-sizing: inherit; stroke: rgb(170, 170, 170); stroke-width: 1px;"/><text x="164.1" y="308.0" fill="rgb(68,68,68)" class="wj-label" fill-opacity="1" style="box-sizing: inherit; cursor: default; font-size: 10pt; font-family: &apos;Segoe UI&apos;; font-style: normal; font-weight: normal; fill: rgb(68, 68, 68); fill-opacity: 1;">20</text><line stroke="#666" stroke-width="1" x1="171.3" x2="171.3" y1="285.0" y2="289.0" class="wj-tick" style="box-sizing: inherit; stroke: rgb(170, 170, 170); stroke-width: 1px;"/><text x="268.1" y="308.0" fill="rgb(68,68,68)" class="wj-label" fill-opacity="1" style="box-sizing: inherit; cursor: default; font-size: 10pt; font-family: &apos;Segoe UI&apos;; font-style: normal; font-weight: normal; fill: rgb(68, 68, 68); fill-opacity: 1;">40</text><line stroke="#666" stroke-width="1" x1="275.8" x2="275.8" y1="285.0" y2="289.0" class="wj-tick" style="box-sizing: inherit; stroke: rgb(170, 170, 170); stroke-width: 1px;"/><text x="373.2" y="308.0" fill="rgb(68,68,68)" class="wj-label" fill-opacity="1" style="box-sizing: inherit; cursor: default; font-size: 10pt; font-family: &apos;Segoe UI&apos;; font-style: normal; font-weight: normal; fill: rgb(68, 68, 68); fill-opacity: 1;">60</text><line stroke="#666" stroke-width="1" x1="380.3" x2="380.3" y1="285.0" y2="289.0" class="wj-tick" style="box-sizing: inherit; stroke: rgb(170, 170, 170); stroke-width: 1px;"/><text x="477.7" y="308.0" fill="rgb(68,68,68)" class="wj-label" fill-opacity="1" style="box-sizing: inherit; cursor: default; font-size: 10pt; font-family: &apos;Segoe UI&apos;; font-style: normal; font-weight: normal; fill: rgb(68, 68, 68); fill-opacity: 1;">80</text><line stroke="#666" stroke-width="1" x1="484.9" x2="484.9" y1="285.0" y2="289.0" class="wj-tick" style="box-sizing: inherit; stroke: rgb(170, 170, 170); stroke-width: 1px;"/><text x="578.6" y="308.0" fill="rgb(68,68,68)" class="wj-label" fill-opacity="1" style="box-sizing: inherit; cursor: default; font-size: 10pt; font-family: &apos;Segoe UI&apos;; font-style: normal; font-weight: normal; fill: rgb(68, 68, 68); fill-opacity: 1;">100</text><line stroke="#666" stroke-width="1" x1="589.4" x2="589.4" y1="285.0" y2="289.0" class="wj-tick" style="box-sizing: inherit; stroke: rgb(170, 170, 170); stroke-width: 1px;"/><text x="683.1" y="308.0" fill="rgb(68,68,68)" class="wj-label" fill-opacity="1" style="box-sizing: inherit; cursor: default; font-size: 10pt; font-family: &apos;Segoe UI&apos;; font-style: normal; font-weight: normal; fill: rgb(68, 68, 68); fill-opacity: 1;">120</text><line stroke="#666" stroke-width="1" x1="693.9" x2="693.9" y1="285.0" y2="289.0" class="wj-tick" style="box-sizing: inherit; stroke: rgb(170, 170, 170); stroke-width: 1px;"/><text x="787.7" y="308.0" fill="rgb(68,68,68)" class="wj-label" fill-opacity="1" style="box-sizing: inherit; cursor: default; font-size: 10pt; font-family: &apos;Segoe UI&apos;; font-style: normal; font-weight: normal; fill: rgb(68, 68, 68); fill-opacity: 1;">140</text><line stroke="#666" stroke-width="1" x1="798.4" x2="798.4" y1="285.0" y2="289.0" class="wj-tick" style="box-sizing: inherit; stroke: rgb(170, 170, 170); stroke-width: 1px;"/><text x="892.2" y="308.0" fill="rgb(68,68,68)" class="wj-label" fill-opacity="1" style="box-sizing: inherit; cursor: default; font-size: 10pt; font-family: &apos;Segoe UI&apos;; font-style: normal; font-weight: normal; fill: rgb(68, 68, 68); fill-opacity: 1;">160</text><line stroke="#666" stroke-width="1" x1="903.0" x2="903.0" y1="285.0" y2="289.0" class="wj-tick" style="box-sizing: inherit; stroke: rgb(170, 170, 170); stroke-width: 1px;"/><text x="996.7" y="308.0" fill="rgb(68,68,68)" class="wj-label" fill-opacity="1" style="box-sizing: inherit; cursor: default; font-size: 10pt; font-family: &apos;Segoe UI&apos;; font-style: normal; font-weight: normal; fill: rgb(68, 68, 68); fill-opacity: 1;">180</text><line stroke="#666" stroke-width="1" x1="1007.5" x2="1007.5" y1="285.0" y2="289.0" class="wj-tick" style="box-sizing: inherit; stroke: rgb(170, 170, 170); stroke-width: 1px;"/><text x="1101.2" y="308.0" fill="rgb(68,68,68)" class="wj-label" fill-opacity="1" style="box-sizing: inherit; cursor: default; font-size: 10pt; font-family: &apos;Segoe UI&apos;; font-style: normal; font-weight: normal; fill: rgb(68, 68, 68); fill-opacity: 1;">200</text><line stroke="#666" stroke-width="1" x1="1112.0" x2="1112.0" y1="285.0" y2="289.0" class="wj-tick" style="box-sizing: inherit; stroke: rgb(170, 170, 170); stroke-width: 1px;"/><text x="1205.7" y="308.0" fill="rgb(68,68,68)" class="wj-label" fill-opacity="1" style="box-sizing: inherit; cursor: default; font-size: 10pt; font-family: &apos;Segoe UI&apos;; font-style: normal; font-weight: normal; fill: rgb(68, 68, 68); fill-opacity: 1;">220</text><line stroke="#666" stroke-width="1" x1="1216.5" x2="1216.5" y1="285.0" y2="289.0" class="wj-tick" style="box-sizing: inherit; stroke: rgb(170, 170, 170); stroke-width: 1px;"/><line stroke="rgb(156,156,156)" stroke-width="1px" x1="66.8" x2="1308.6" y1="285.0" y2="285.0" class="wj-line" stroke-opacity="1" stroke-dasharray="none" style="box-sizing: inherit; stroke: rgb(156, 156, 156); stroke-opacity: 1; stroke-width: 1px; stroke-dasharray: none;"/><text x="624.7" y="333.0" fill="rgb(68,68,68)" class="wj-title" fill-opacity="1" style="box-sizing: inherit; cursor: default; font-size: 12pt; font-family: &apos;Segoe UI&apos;; font-style: normal; font-weight: normal; fill: rgb(68, 68, 68); fill-opacity: 1;">Horizontal Distance</text></g><g class="wj-axis-y" style="box-sizing: inherit;" clip-path="url(#chartRect359724)"><line stroke="rgb(225,225,225)" stroke-width="1px" x1="66.8" x2="1308.6" y1="273.2" y2="273.2" class="wj-gridline" stroke-opacity="1" stroke-dasharray="none" style="box-sizing: inherit; opacity: 0.75; stroke: rgb(225, 225, 225); stroke-opacity: 1; stroke-width: 1px; stroke-dasharray: none;"/><text x="34.1" y="278.7" fill="rgb(68,68,68)" class="wj-label" fill-opacity="1" style="box-sizing: inherit; cursor: default; font-size: 10pt; font-family: &apos;Segoe UI&apos;; font-style: normal; font-weight: normal; fill: rgb(68, 68, 68); fill-opacity: 1;">-50</text><line stroke="rgb(225,225,225)" stroke-width="1px" x1="66.8" x2="1308.6" y1="249.2" y2="249.2" class="wj-gridline" stroke-opacity="1" stroke-dasharray="none" style="box-sizing: inherit; opacity: 0.75; stroke: rgb(225, 225, 225); stroke-opacity: 1; stroke-width: 1px; stroke-dasharray: none;"/><text x="34.1" y="254.7" fill="rgb(68,68,68)" class="wj-label" fill-opacity="1" style="box-sizing: inherit; cursor: default; font-size: 10pt; font-family: &apos;Segoe UI&apos;; font-style: normal; font-weight: normal; fill: rgb(68, 68, 68); fill-opacity: 1;">-40</text><line stroke="rgb(225,225,225)" stroke-width="1px" x1="66.8" x2="1308.6" y1="225.1" y2="225.1" class="wj-gridline" stroke-opacity="1" stroke-dasharray="none" style="box-sizing: inherit; opacity: 0.75; stroke: rgb(225, 225, 225); stroke-opacity: 1; stroke-width: 1px; stroke-dasharray: none;"/><text x="34.1" y="230.6" fill="rgb(68,68,68)" class="wj-label" fill-opacity="1" style="box-sizing: inherit; cursor: default; font-size: 10pt; font-family: &apos;Segoe UI&apos;; font-style: normal; font-weight: normal; fill: rgb(68, 68, 68); fill-opacity: 1;">-30</text><line stroke="rgb(225,225,225)" stroke-width="1px" x1="66.8" x2="1308.6" y1="201.1" y2="201.1" class="wj-gridline" stroke-opacity="1" stroke-dasharray="none" style="box-sizing: inherit; opacity: 0.75; stroke: rgb(225, 225, 225); stroke-opacity: 1; stroke-width: 1px; stroke-dasharray: none;"/><text x="34.1" y="206.6" fill="rgb(68,68,68)" class="wj-label" fill-opacity="1" style="box-sizing: inherit; cursor: default; font-size: 10pt; font-family: &apos;Segoe UI&apos;; font-style: normal; font-weight: normal; fill: rgb(68, 68, 68); fill-opacity: 1;">-20</text><line stroke="rgb(225,225,225)" stroke-width="1px" x1="66.8" x2="1308.6" y1="177.1" y2="177.1" class="wj-gridline" stroke-opacity="1" stroke-dasharray="none" style="box-sizing: inherit; opacity: 0.75; stroke: rgb(225, 225, 225); stroke-opacity: 1; stroke-width: 1px; stroke-dasharray: none;"/><text x="34.1" y="182.6" fill="rgb(68,68,68)" class="wj-label" fill-opacity="1" style="box-sizing: inherit; cursor: default; font-size: 10pt; font-family: &apos;Segoe UI&apos;; font-style: normal; font-weight: normal; fill: rgb(68, 68, 68); fill-opacity: 1;">-10</text><line stroke="rgb(225,225,225)" stroke-width="1px" x1="66.8" x2="1308.6" y1="153.0" y2="153.0" class="wj-gridline" stroke-opacity="1" stroke-dasharray="none" style="box-sizing: inherit; opacity: 0.75; stroke: rgb(225, 225, 225); stroke-opacity: 1; stroke-width: 1px; stroke-dasharray: none;"/><text x="46.6" y="158.5" fill="rgb(68,68,68)" class="wj-label" fill-opacity="1" style="box-sizing: inherit; cursor: default; font-size: 10pt; font-family: &apos;Segoe UI&apos;; font-style: normal; font-weight: normal; fill: rgb(68, 68, 68); fill-opacity: 1;">0</text><line stroke="rgb(225,225,225)" stroke-width="1px" x1="66.8" x2="1308.6" y1="129.0" y2="129.0" class="wj-gridline" stroke-opacity="1" stroke-dasharray="none" style="box-sizing: inherit; opacity: 0.75; stroke: rgb(225, 225, 225); stroke-opacity: 1; stroke-width: 1px; stroke-dasharray: none;"/><text x="39.4" y="134.5" fill="rgb(68,68,68)" class="wj-label" fill-opacity="1" style="box-sizing: inherit; cursor: default; font-size: 10pt; font-family: &apos;Segoe UI&apos;; font-style: normal; font-weight: normal; fill: rgb(68, 68, 68); fill-opacity: 1;">10</text><line stroke="rgb(225,225,225)" stroke-width="1px" x1="66.8" x2="1308.6" y1="105.0" y2="105.0" class="wj-gridline" stroke-opacity="1" stroke-dasharray="none" style="box-sizing: inherit; opacity: 0.75; stroke: rgb(225, 225, 225); stroke-opacity: 1; stroke-width: 1px; stroke-dasharray: none;"/><text x="39.4" y="110.5" fill="rgb(68,68,68)" class="wj-label" fill-opacity="1" style="box-sizing: inherit; cursor: default; font-size: 10pt; font-family: &apos;Segoe UI&apos;; font-style: normal; font-weight: normal; fill: rgb(68, 68, 68); fill-opacity: 1;">20</text><line stroke="rgb(225,225,225)" stroke-width="1px" x1="66.8" x2="1308.6" y1="81.0" y2="81.0" class="wj-gridline" stroke-opacity="1" stroke-dasharray="none" style="box-sizing: inherit; opacity: 0.75; stroke: rgb(225, 225, 225); stroke-opacity: 1; stroke-width: 1px; stroke-dasharray: none;"/><text x="39.4" y="86.5" fill="rgb(68,68,68)" class="wj-label" fill-opacity="1" style="box-sizing: inherit; cursor: default; font-size: 10pt; font-family: &apos;Segoe UI&apos;; font-style: normal; font-weight: normal; fill: rgb(68, 68, 68); fill-opacity: 1;">30</text><line stroke="rgb(225,225,225)" stroke-width="1px" x1="66.8" x2="1308.6" y1="56.9" y2="56.9" class="wj-gridline" stroke-opacity="1" stroke-dasharray="none" style="box-sizing: inherit; opacity: 0.75; stroke: rgb(225, 225, 225); stroke-opacity: 1; stroke-width: 1px; stroke-dasharray: none;"/><text x="38.4" y="62.4" fill="rgb(68,68,68)" class="wj-label" fill-opacity="1" style="box-sizing: inherit; cursor: default; font-size: 10pt; font-family: &apos;Segoe UI&apos;; font-style: normal; font-weight: normal; fill: rgb(68, 68, 68); fill-opacity: 1;">40</text><g transform="rotate(-90.0,10.5,165.0)" style="box-sizing: inherit;"><text x="-21.4" y="171.5" fill="rgb(68,68,68)" class="wj-title" fill-opacity="1" style="box-sizing: inherit; cursor: default; font-size: 12pt; font-family: &apos;Segoe UI&apos;; font-style: normal; font-weight: normal; fill: rgb(68, 68, 68); fill-opacity: 1;">Elevation</text></g><line stroke="rgb(156,156,156)" stroke-width="1px" x1="66.8" x2="66.8" y1="45.0" y2="285.0" class="wj-line" stroke-opacity="0" stroke-dasharray="none" style="box-sizing: inherit; stroke: rgb(156, 156, 156); stroke-opacity: 0; stroke-width: 1px; stroke-dasharray: none;"/></g><g class="wj-series-group" style="box-sizing: inherit;"><g style="box-sizing: inherit;"><polyline stroke="rgb(67,80,165)" stroke-width="1.35" fill="none" points="66.8,183.0 72.0,175.0 77.2,159.6 82.4,156.9 87.7,158.5 92.9,146.4 98.1,149.3 103.3,169.6 108.5,195.7 113.7,194.9 119.0,285.0 124.2,246.6 129.4,175.5 134.6,138.8 139.8,98.8 145.0,79.2 150.3,95.1 155.5,129.5 160.7,156.3 165.9,161.4 171.1,133.9 176.4,131.7 181.6,154.6 186.8,178.7 192.0,165.4 197.2,151.4 202.4,131.4 207.7,126.0 212.9,142.6 218.1,171.6 223.3,186.9 228.5,161.0 233.7,122.5 239.0,125.5 244.2,153.8 249.4,163.9 254.6,174.5 259.8,151.6 265.1,117.9 270.3,143.4 275.5,163.8 280.7,155.8 285.9,152.2 291.1,156.6 296.4,154.5 301.6,145.2 306.8,156.4 312.0,201.8 317.2,211.3 322.4,162.0 327.7,116.7 332.9,107.2 338.1,132.2 343.3,181.3 348.5,197.8 353.8,172.7 359.0,160.0 364.2,183.0 369.4,216.0 374.6,162.0 379.8,45.0 385.1,50.2 390.3,116.0 395.5,146.8 400.7,156.7 405.9,148.8 411.1,117.1 416.4,166.3 421.6,203.2 426.8,106.3 432.0,86.0 437.2,145.2 442.5,233.0 447.7,197.6 452.9,99.3 458.1,75.4 463.3,143.8 468.5,199.4 473.8,184.0 479.0,168.9 484.2,191.4 489.4,240.7 494.6,218.3 499.8,69.6 505.1,48.3 510.3,118.4 515.5,145.2 520.7,190.8 525.9,151.0 531.2,110.1 536.4,130.5 541.6,152.0 546.8,143.5 552.0,134.7 557.2,160.7 562.5,183.3 567.7,166.2 572.9,140.4 578.1,135.6 583.3,145.4 588.5,170.9 593.8,159.4 599.0,145.7 604.2,153.3 609.4,156.4 614.6,149.3 619.9,152.1 625.1,159.1 630.3,150.4 635.5,142.5 640.7,146.2 645.9,149.2 651.2,152.6 656.4,152.1 661.6,148.9 666.8,155.9 672.0,141.7 677.2,147.8 682.5,145.3 687.7,131.5 692.9,150.8 698.1,163.4 703.3,171.4 708.6,165.1 713.8,151.7 719.0,144.2 724.2,139.8 729.4,152.6 734.6,157.6 739.9,142.6 745.1,146.6 750.3,156.5 755.5,155.6 760.7,150.1 765.9,138.6 771.2,147.5 776.4,142.7 781.6,142.3 786.8,150.5 792.0,153.2 797.3,145.6 802.5,145.5 807.7,155.7 812.9,158.7 818.1,150.7 823.3,149.2 828.6,151.4 833.8,160.1 839.0,170.8 844.2,166.8 849.4,152.2 854.6,146.0 859.9,153.1 865.1,147.3 870.3,149.8 875.5,158.7 880.7,160.5 886.0,159.5 891.2,155.5 896.4,138.1 901.6,123.9 906.8,146.7 912.0,158.4 917.3,149.6 922.5,151.6 927.7,154.9 932.9,153.8 938.1,155.7 943.3,158.8 948.6,149.6 953.8,132.6 959.0,139.5 964.2,152.7 969.4,158.7 974.7,158.3 979.9,155.9 985.1,154.7 990.3,156.1 995.5,157.1 1000.7,157.0 1006.0,155.8 1011.2,147.5 1016.4,145.9 1021.6,147.3 1026.8,155.7 1032.0,160.2 1037.3,159.0 1042.5,155.3 1047.7,153.3 1052.9,153.1 1058.1,150.8 1063.4,147.2 1068.6,146.5 1073.8,148.4 1079.0,153.5 1084.2,156.0 1089.4,159.3 1094.7,159.7 1099.9,157.2 1105.1,154.7 1110.3,159.4 1115.5,158.7 1120.7,151.8 1126.0,148.6 1131.2,147.7 1136.4,145.0 1141.6,147.4 1146.8,155.9 1152.1,158.2 1157.3,151.8 1162.5,150.1 1167.7,152.3 1172.9,155.0 1178.1,150.6 1183.4,148.8 1188.6,156.2 1193.8,157.4 1199.0,151.9 1204.2,146.1 1209.5,147.2 1214.7,151.9 1219.9,153.3 1225.1,154.4 1230.3,156.1 1235.5,153.8 1240.8,149.5 1246.0,138.8 1251.2,132.7 1256.4,136.9 1261.6,143.5 1266.8,155.3 1272.1,165.7 1277.3,165.3 1282.5,163.9 1287.7,162.6 1292.9,160.9 1298.2,159.2 1303.4,159.5 1308.6,158.9 " clip-path="url(#plotRect115759)" style="box-sizing: inherit; stroke-width: 1.35;" stroke-opacity="1"/></g></g><clipPath id="plotRect115759" style="box-sizing: inherit;"><rect x="65.8" y="44.0" width="1243.8" height="242.0" style="box-sizing: inherit;"/></clipPath><clipPath id="plotRect210544" style="box-sizing: inherit;"><rect x="-1.0" y="-1.0" width="1243.8" height="242.0" style="box-sizing: inherit;"/></clipPath><g class="wj-chart-annotationlayer" transform="translate(66.78125, 45)" style="box-sizing: inherit;" clip-path="url(#plotRect210544)"/></svg>