<svg xmlns="http://www.w3.org/2000/svg" width="1333" height="345" style="box-sizing: inherit; font-family: Calibri;"><rect id="backgroundRect" width="100%" height="100%" x="0" y="0" fill="rgb(255,255,255)" fill-opacity="1" visibility="visible" style="box-sizing: inherit; fill: rgb(255, 255, 255); fill-opacity: 1;"/><defs style="box-sizing: inherit;"/><clipPath id="chartRect499912" style="box-sizing: inherit;"><rect x="-1.0" y="-1.0" width="1330.0" height="339.0" style="box-sizing: inherit;"/></clipPath><g class="wj-header" style="box-sizing: inherit; background: rgb(238, 238, 238); color: rgb(68, 68, 68); font-weight: 700;" clip-path="url(#chartRect499912)"><text x="550.1" y="23.0" fill="rgb(68,68,68)" class="wj-title" fill-opacity="1" style="box-sizing: inherit; cursor: default; font-size: 16pt; font-family: &apos;Segoe UI&apos;; font-style: normal; font-weight: normal; fill: rgb(68, 68, 68); fill-opacity: 1;">Profile Graph lc14profile</text></g><g class="wj-footer" style="box-sizing: inherit;" clip-path="url(#chartRect499912)"/><clipPath id="legRect631065" style="box-sizing: inherit;"><rect x="1327.0" y="181.5" width="2.0" height="2.0" style="box-sizing: inherit;"/></clipPath><g class="wj-legend" style="box-sizing: inherit;" clip-path="url(#legRect631065)"/><g class="wj-plot-area" style="box-sizing: inherit;"><rect fill="#000000" stroke-width="1" x="85.9" y="45.0" width="1222.7" height="240.0" fill-opacity="0" style="box-sizing: inherit;"/></g><g class="wj-axis-x" style="box-sizing: inherit;" clip-path="url(#chartRect499912)"><text x="82.3" y="308.0" fill="rgb(68,68,68)" class="wj-label" fill-opacity="1" style="box-sizing: inherit; cursor: default; font-size: 10pt; font-family: &apos;Segoe UI&apos;; font-style: normal; font-weight: normal; fill: rgb(68, 68, 68); fill-opacity: 1;">0</text><line stroke="#666" stroke-width="1" x1="85.9" x2="85.9" y1="285.0" y2="289.0" class="wj-tick" style="box-sizing: inherit; stroke: rgb(170, 170, 170); stroke-width: 1px;"/><text x="157.2" y="308.0" fill="rgb(68,68,68)" class="wj-label" fill-opacity="1" style="box-sizing: inherit; cursor: default; font-size: 10pt; font-family: &apos;Segoe UI&apos;; font-style: normal; font-weight: normal; fill: rgb(68, 68, 68); fill-opacity: 1;">20</text><line stroke="#666" stroke-width="1" x1="164.4" x2="164.4" y1="285.0" y2="289.0" class="wj-tick" style="box-sizing: inherit; stroke: rgb(170, 170, 170); stroke-width: 1px;"/><text x="235.3" y="308.0" fill="rgb(68,68,68)" class="wj-label" fill-opacity="1" style="box-sizing: inherit; cursor: default; font-size: 10pt; font-family: &apos;Segoe UI&apos;; font-style: normal; font-weight: normal; fill: rgb(68, 68, 68); fill-opacity: 1;">40</text><line stroke="#666" stroke-width="1" x1="243.0" x2="243.0" y1="285.0" y2="289.0" class="wj-tick" style="box-sizing: inherit; stroke: rgb(170, 170, 170); stroke-width: 1px;"/><text x="314.3" y="308.0" fill="rgb(68,68,68)" class="wj-label" fill-opacity="1" style="box-sizing: inherit; cursor: default; font-size: 10pt; font-family: &apos;Segoe UI&apos;; font-style: normal; font-weight: normal; fill: rgb(68, 68, 68); fill-opacity: 1;">60</text><line stroke="#666" stroke-width="1" x1="321.5" x2="321.5" y1="285.0" y2="289.0" class="wj-tick" style="box-sizing: inherit; stroke: rgb(170, 170, 170); stroke-width: 1px;"/><text x="392.8" y="308.0" fill="rgb(68,68,68)" class="wj-label" fill-opacity="1" style="box-sizing: inherit; cursor: default; font-size: 10pt; font-family: &apos;Segoe UI&apos;; font-style: normal; font-weight: normal; fill: rgb(68, 68, 68); fill-opacity: 1;">80</text><line stroke="#666" stroke-width="1" x1="400.0" x2="400.0" y1="285.0" y2="289.0" class="wj-tick" style="box-sizing: inherit; stroke: rgb(170, 170, 170); stroke-width: 1px;"/><text x="467.8" y="308.0" fill="rgb(68,68,68)" class="wj-label" fill-opacity="1" style="box-sizing: inherit; cursor: default; font-size: 10pt; font-family: &apos;Segoe UI&apos;; font-style: normal; font-weight: normal; fill: rgb(68, 68, 68); fill-opacity: 1;">100</text><line stroke="#666" stroke-width="1" x1="478.6" x2="478.6" y1="285.0" y2="289.0" class="wj-tick" style="box-sizing: inherit; stroke: rgb(170, 170, 170); stroke-width: 1px;"/><text x="546.3" y="308.0" fill="rgb(68,68,68)" class="wj-label" fill-opacity="1" style="box-sizing: inherit; cursor: default; font-size: 10pt; font-family: &apos;Segoe UI&apos;; font-style: normal; font-weight: normal; fill: rgb(68, 68, 68); fill-opacity: 1;">120</text><line stroke="#666" stroke-width="1" x1="557.1" x2="557.1" y1="285.0" y2="289.0" class="wj-tick" style="box-sizing: inherit; stroke: rgb(170, 170, 170); stroke-width: 1px;"/><text x="624.8" y="308.0" fill="rgb(68,68,68)" class="wj-label" fill-opacity="1" style="box-sizing: inherit; cursor: default; font-size: 10pt; font-family: &apos;Segoe UI&apos;; font-style: normal; font-weight: normal; fill: rgb(68, 68, 68); fill-opacity: 1;">140</text><line stroke="#666" stroke-width="1" x1="635.6" x2="635.6" y1="285.0" y2="289.0" class="wj-tick" style="box-sizing: inherit; stroke: rgb(170, 170, 170); stroke-width: 1px;"/><text x="703.4" y="308.0" fill="rgb(68,68,68)" class="wj-label" fill-opacity="1" style="box-sizing: inherit; cursor: default; font-size: 10pt; font-family: &apos;Segoe UI&apos;; font-style: normal; font-weight: normal; fill: rgb(68, 68, 68); fill-opacity: 1;">160</text><line stroke="#666" stroke-width="1" x1="714.2" x2="714.2" y1="285.0" y2="289.0" class="wj-tick" style="box-sizing: inherit; stroke: rgb(170, 170, 170); stroke-width: 1px;"/><text x="781.9" y="308.0" fill="rgb(68,68,68)" class="wj-label" fill-opacity="1" style="box-sizing: inherit; cursor: default; font-size: 10pt; font-family: &apos;Segoe UI&apos;; font-style: normal; font-weight: normal; fill: rgb(68, 68, 68); fill-opacity: 1;">180</text><line stroke="#666" stroke-width="1" x1="792.7" x2="792.7" y1="285.0" y2="289.0" class="wj-tick" style="box-sizing: inherit; stroke: rgb(170, 170, 170); stroke-width: 1px;"/><text x="860.4" y="308.0" fill="rgb(68,68,68)" class="wj-label" fill-opacity="1" style="box-sizing: inherit; cursor: default; font-size: 10pt; font-family: &apos;Segoe UI&apos;; font-style: normal; font-weight: normal; fill: rgb(68, 68, 68); fill-opacity: 1;">200</text><line stroke="#666" stroke-width="1" x1="871.2" x2="871.2" y1="285.0" y2="289.0" class="wj-tick" style="box-sizing: inherit; stroke: rgb(170, 170, 170); stroke-width: 1px;"/><text x="939.0" y="308.0" fill="rgb(68,68,68)" class="wj-label" fill-opacity="1" style="box-sizing: inherit; cursor: default; font-size: 10pt; font-family: &apos;Segoe UI&apos;; font-style: normal; font-weight: normal; fill: rgb(68, 68, 68); fill-opacity: 1;">220</text><line stroke="#666" stroke-width="1" x1="949.7" x2="949.7" y1="285.0" y2="289.0" class="wj-tick" style="box-sizing: inherit; stroke: rgb(170, 170, 170); stroke-width: 1px;"/><text x="1017.5" y="308.0" fill="rgb(68,68,68)" class="wj-label" fill-opacity="1" style="box-sizing: inherit; cursor: default; font-size: 10pt; font-family: &apos;Segoe UI&apos;; font-style: normal; font-weight: normal; fill: rgb(68, 68, 68); fill-opacity: 1;">240</text><line stroke="#666" stroke-width="1" x1="1028.3" x2="1028.3" y1="285.0" y2="289.0" class="wj-tick" style="box-sizing: inherit; stroke: rgb(170, 170, 170); stroke-width: 1px;"/><text x="1096.0" y="308.0" fill="rgb(68,68,68)" class="wj-label" fill-opacity="1" style="box-sizing: inherit; cursor: default; font-size: 10pt; font-family: &apos;Segoe UI&apos;; font-style: normal; font-weight: normal; fill: rgb(68, 68, 68); fill-opacity: 1;">260</text><line stroke="#666" stroke-width="1" x1="1106.8" x2="1106.8" y1="285.0" y2="289.0" class="wj-tick" style="box-sizing: inherit; stroke: rgb(170, 170, 170); stroke-width: 1px;"/><text x="1174.6" y="308.0" fill="rgb(68,68,68)" class="wj-label" fill-opacity="1" style="box-sizing: inherit; cursor: default; font-size: 10pt; font-family: &apos;Segoe UI&apos;; font-style: normal; font-weight: normal; fill: rgb(68, 68, 68); fill-opacity: 1;">280</text><line stroke="#666" stroke-width="1" x1="1185.3" x2="1185.3" y1="285.0" y2="289.0" class="wj-tick" style="box-sizing: inherit; stroke: rgb(170, 170, 170); stroke-width: 1px;"/><text x="1253.1" y="308.0" fill="rgb(68,68,68)" class="wj-label" fill-opacity="1" style="box-sizing: inherit; cursor: default; font-size: 10pt; font-family: &apos;Segoe UI&apos;; font-style: normal; font-weight: normal; fill: rgb(68, 68, 68); fill-opacity: 1;">300</text><line stroke="#666" stroke-width="1" x1="1263.9" x2="1263.9" y1="285.0" y2="289.0" class="wj-tick" style="box-sizing: inherit; stroke: rgb(170, 170, 170); stroke-width: 1px;"/><line stroke="rgb(156,156,156)" stroke-width="1px" x1="85.9" x2="1308.6" y1="285.0" y2="285.0" class="wj-line" stroke-opacity="1" stroke-dasharray="none" style="box-sizing: inherit; stroke: rgb(156, 156, 156); stroke-opacity: 1; stroke-width: 1px; stroke-dasharray: none;"/><text x="634.2" y="333.0" fill="rgb(68,68,68)" class="wj-title" fill-opacity="1" style="box-sizing: inherit; cursor: default; font-size: 12pt; font-family: &apos;Segoe UI&apos;; font-style: normal; font-weight: normal; fill: rgb(68, 68, 68); fill-opacity: 1;">Horizontal Distance</text></g><g class="wj-axis-y" style="box-sizing: inherit;" clip-path="url(#chartRect499912)"><line stroke="rgb(225,225,225)" stroke-width="1px" x1="85.9" x2="1308.6" y1="255.5" y2="255.5" class="wj-gridline" stroke-opacity="1" stroke-dasharray="none" style="box-sizing: inherit; opacity: 0.75; stroke: rgb(225, 225, 225); stroke-opacity: 1; stroke-width: 1px; stroke-dasharray: none;"/><text x="41.3" y="261.0" fill="rgb(68,68,68)" class="wj-label" fill-opacity="1" style="box-sizing: inherit; cursor: default; font-size: 10pt; font-family: &apos;Segoe UI&apos;; font-style: normal; font-weight: normal; fill: rgb(68, 68, 68); fill-opacity: 1;">1,560</text><line stroke="rgb(225,225,225)" stroke-width="1px" x1="85.9" x2="1308.6" y1="214.6" y2="214.6" class="wj-gridline" stroke-opacity="1" stroke-dasharray="none" style="box-sizing: inherit; opacity: 0.75; stroke: rgb(225, 225, 225); stroke-opacity: 1; stroke-width: 1px; stroke-dasharray: none;"/><text x="41.3" y="220.1" fill="rgb(68,68,68)" class="wj-label" fill-opacity="1" style="box-sizing: inherit; cursor: default; font-size: 10pt; font-family: &apos;Segoe UI&apos;; font-style: normal; font-weight: normal; fill: rgb(68, 68, 68); fill-opacity: 1;">1,580</text><line stroke="rgb(225,225,225)" stroke-width="1px" x1="85.9" x2="1308.6" y1="173.7" y2="173.7" class="wj-gridline" stroke-opacity="1" stroke-dasharray="none" style="box-sizing: inherit; opacity: 0.75; stroke: rgb(225, 225, 225); stroke-opacity: 1; stroke-width: 1px; stroke-dasharray: none;"/><text x="41.3" y="179.2" fill="rgb(68,68,68)" class="wj-label" fill-opacity="1" style="box-sizing: inherit; cursor: default; font-size: 10pt; font-family: &apos;Segoe UI&apos;; font-style: normal; font-weight: normal; fill: rgb(68, 68, 68); fill-opacity: 1;">1,600</text><line stroke="rgb(225,225,225)" stroke-width="1px" x1="85.9" x2="1308.6" y1="132.7" y2="132.7" class="wj-gridline" stroke-opacity="1" stroke-dasharray="none" style="box-sizing: inherit; opacity: 0.75; stroke: rgb(225, 225, 225); stroke-opacity: 1; stroke-width: 1px; stroke-dasharray: none;"/><text x="41.3" y="138.2" fill="rgb(68,68,68)" class="wj-label" fill-opacity="1" style="box-sizing: inherit; cursor: default; font-size: 10pt; font-family: &apos;Segoe UI&apos;; font-style: normal; font-weight: normal; fill: rgb(68, 68, 68); fill-opacity: 1;">1,620</text><line stroke="rgb(225,225,225)" stroke-width="1px" x1="85.9" x2="1308.6" y1="91.8" y2="91.8" class="wj-gridline" stroke-opacity="1" stroke-dasharray="none" style="box-sizing: inherit; opacity: 0.75; stroke: rgb(225, 225, 225); stroke-opacity: 1; stroke-width: 1px; stroke-dasharray: none;"/><text x="41.3" y="97.3" fill="rgb(68,68,68)" class="wj-label" fill-opacity="1" style="box-sizing: inherit; cursor: default; font-size: 10pt; font-family: &apos;Segoe UI&apos;; font-style: normal; font-weight: normal; fill: rgb(68, 68, 68); fill-opacity: 1;">1,640</text><line stroke="rgb(225,225,225)" stroke-width="1px" x1="85.9" x2="1308.6" y1="50.9" y2="50.9" class="wj-gridline" stroke-opacity="1" stroke-dasharray="none" style="box-sizing: inherit; opacity: 0.75; stroke: rgb(225, 225, 225); stroke-opacity: 1; stroke-width: 1px; stroke-dasharray: none;"/><text x="41.3" y="56.4" fill="rgb(68,68,68)" class="wj-label" fill-opacity="1" style="box-sizing: inherit; cursor: default; font-size: 10pt; font-family: &apos;Segoe UI&apos;; font-style: normal; font-weight: normal; fill: rgb(68, 68, 68); fill-opacity: 1;">1,660</text><g transform="rotate(-90.0,10.5,165.0)" style="box-sizing: inherit;"><text x="-21.4" y="171.5" fill="rgb(68,68,68)" class="wj-title" fill-opacity="1" style="box-sizing: inherit; cursor: default; font-size: 12pt; font-family: &apos;Segoe UI&apos;; font-style: normal; font-weight: normal; fill: rgb(68, 68, 68); fill-opacity: 1;">Elevation</text></g><line stroke="rgb(156,156,156)" stroke-width="1px" x1="85.9" x2="85.9" y1="45.0" y2="285.0" class="wj-line" stroke-opacity="0" stroke-dasharray="none" style="box-sizing: inherit; stroke: rgb(156, 156, 156); stroke-opacity: 0; stroke-width: 1px; stroke-dasharray: none;"/></g><g class="wj-series-group" style="box-sizing: inherit;"><g style="box-sizing: inherit;"><polyline stroke="rgb(51,142,66)" stroke-width="1.35" fill="none" points="85.9,285.0 89.8,284.8 93.7,284.0 97.7,282.7 101.6,281.4 105.5,280.2 109.4,279.0 113.3,277.8 117.3,276.6 121.2,275.5 125.1,274.4 129.0,273.2 132.9,271.9 136.9,270.6 140.8,269.3 144.7,268.0 148.6,266.7 152.5,265.6 156.4,264.5 160.4,263.4 164.3,262.2 168.2,260.9 172.1,259.4 176.0,257.9 180.0,255.9 183.9,253.8 187.8,252.1 191.7,250.7 195.6,249.1 199.6,247.5 203.5,246.2 207.4,244.8 211.3,243.7 215.2,242.5 219.1,241.2 223.1,239.8 227.0,238.3 230.9,237.0 234.8,235.7 238.7,234.4 242.7,232.6 246.6,230.8 250.5,229.2 254.4,227.9 258.3,226.7 262.3,225.5 266.2,224.3 270.1,223.1 274.0,221.6 277.9,219.9 281.8,218.4 285.8,217.0 289.7,215.6 293.6,214.1 297.5,212.7 301.4,211.2 305.4,209.8 309.3,208.3 313.2,206.8 317.1,205.5 321.0,204.2 325.0,202.8 328.9,201.5 332.8,200.3 336.7,199.1 340.6,197.9 344.6,196.8 348.5,195.6 352.4,194.3 356.3,192.9 360.2,191.6 364.1,190.4 368.1,189.2 372.0,188.0 375.9,186.6 379.8,185.1 383.7,183.6 387.7,182.4 391.6,181.2 395.5,180.2 399.4,179.2 403.3,178.2 407.3,177.1 411.2,175.8 415.1,174.7 419.0,173.7 422.9,172.6 426.8,171.5 430.8,170.3 434.7,169.1 438.6,168.2 442.5,167.3 446.4,166.2 450.4,165.0 454.3,163.9 458.2,162.7 462.1,161.6 466.0,160.7 470.0,159.6 473.9,158.5 477.8,157.4 481.7,156.3 485.6,155.2 489.5,153.9 493.5,152.4 497.4,150.8 501.3,149.4 505.2,148.3 509.1,147.2 513.1,146.2 517.0,145.1 520.9,143.5 524.8,140.4 528.7,135.9 532.7,132.8 536.6,131.3 540.5,130.4 544.4,129.3 548.3,128.3 552.2,127.4 556.2,126.2 560.1,125.0 564.0,123.8 567.9,122.8 571.8,121.6 575.8,120.3 579.7,119.2 583.6,118.4 587.5,117.7 591.4,116.8 595.4,115.7 599.3,112.9 603.2,110.1 607.1,108.2 611.0,107.7 615.0,107.2 618.9,106.7 622.8,106.1 626.7,105.4 630.6,104.5 634.5,103.6 638.5,102.5 642.4,101.4 646.3,100.3 650.2,99.1 654.1,97.8 658.1,96.7 662.0,96.0 665.9,95.5 669.8,95.1 673.7,94.7 677.7,94.1 681.6,93.7 685.5,93.2 689.4,92.7 693.3,92.2 697.2,91.8 701.2,91.4 705.1,91.0 709.0,90.6 712.9,90.2 716.8,89.7 720.8,89.5 724.7,89.3 728.6,89.1 732.5,88.8 736.4,88.4 740.4,88.0 744.3,87.6 748.2,87.2 752.1,86.9 756.0,86.6 759.9,86.3 763.9,85.9 767.8,85.6 771.7,85.1 775.6,84.5 779.5,84.0 783.5,83.6 787.4,83.2 791.3,82.7 795.2,82.4 799.1,82.1 803.1,81.8 807.0,81.4 810.9,80.9 814.8,80.5 818.7,80.2 822.6,79.7 826.6,79.3 830.5,79.0 834.4,78.7 838.3,78.3 842.2,78.0 846.2,77.7 850.1,77.3 854.0,76.9 857.9,76.5 861.8,76.0 865.8,75.6 869.7,75.2 873.6,74.8 877.5,74.4 881.4,73.9 885.4,73.5 889.3,73.1 893.2,72.6 897.1,72.1 901.0,71.7 904.9,71.2 908.9,70.6 912.8,70.0 916.7,69.4 920.6,68.7 924.5,68.1 928.5,67.5 932.4,66.9 936.3,66.2 940.2,65.7 944.1,65.2 948.1,64.7 952.0,64.1 955.9,63.5 959.8,62.8 963.7,62.1 967.6,61.4 971.6,60.7 975.5,60.2 979.4,59.7 983.3,59.4 987.2,59.2 991.2,58.9 995.1,58.5 999.0,58.1 1002.9,57.7 1006.8,57.4 1010.8,57.0 1014.7,56.7 1018.6,56.3 1022.5,56.0 1026.4,55.7 1030.3,55.4 1034.3,55.0 1038.2,54.6 1042.1,54.4 1046.0,54.2 1049.9,53.8 1053.9,53.5 1057.8,53.3 1061.7,53.0 1065.6,52.7 1069.5,52.4 1073.5,52.2 1077.4,52.0 1081.3,51.8 1085.2,51.4 1089.1,51.0 1093.0,50.6 1097.0,50.2 1100.9,49.9 1104.8,49.6 1108.7,49.4 1112.6,49.3 1116.6,49.1 1120.5,49.0 1124.4,48.8 1128.3,48.6 1132.2,48.4 1136.2,48.2 1140.1,48.1 1144.0,47.9 1147.9,47.8 1151.8,47.6 1155.8,47.4 1159.7,47.3 1163.6,47.2 1167.5,47.1 1171.4,46.9 1175.3,46.8 1179.3,46.7 1183.2,46.7 1187.1,46.8 1191.0,46.7 1194.9,46.7 1198.9,46.6 1202.8,46.5 1206.7,46.4 1210.6,46.4 1214.5,46.3 1218.5,46.3 1222.4,46.3 1226.3,46.2 1230.2,46.2 1234.1,46.1 1238.0,46.0 1242.0,45.9 1245.9,45.9 1249.8,45.8 1253.7,45.8 1257.6,45.7 1261.6,45.7 1265.5,45.6 1269.4,45.5 1273.3,45.4 1277.2,45.4 1281.2,45.4 1285.1,45.4 1289.0,45.4 1292.9,45.3 1296.8,45.2 1300.7,45.1 1304.7,45.0 1308.6,45.0 " clip-path="url(#plotRect333385)" style="box-sizing: inherit; stroke-width: 1.35;" stroke-opacity="1"/></g></g><clipPath id="plotRect333385" style="box-sizing: inherit;"><rect x="84.9" y="44.0" width="1224.7" height="242.0" style="box-sizing: inherit;"/></clipPath><clipPath id="plotRect242469" style="box-sizing: inherit;"><rect x="-1.0" y="-1.0" width="1224.7" height="242.0" style="box-sizing: inherit;"/></clipPath><g class="wj-chart-annotationlayer" transform="translate(85.90625, 45)" style="box-sizing: inherit;" clip-path="url(#plotRect242469)"/></svg>