<svg xmlns="http://www.w3.org/2000/svg" width="1333" height="345" style="box-sizing: inherit; font-family: Calibri;"><rect id="backgroundRect" width="100%" height="100%" x="0" y="0" fill="rgb(255,255,255)" fill-opacity="1" visibility="visible" style="box-sizing: inherit; fill: rgb(255, 255, 255); fill-opacity: 1;"/><defs style="box-sizing: inherit;"/><clipPath id="chartRect366883" style="box-sizing: inherit;"><rect x="-1.0" y="-1.0" width="1330.0" height="339.0" style="box-sizing: inherit;"/></clipPath><g class="wj-header" style="box-sizing: inherit; background: rgb(238, 238, 238); color: rgb(68, 68, 68); font-weight: 700;" clip-path="url(#chartRect366883)"><text x="453.2" y="23.0" fill="rgb(68,68,68)" class="wj-title" fill-opacity="1" style="box-sizing: inherit; cursor: default; font-size: 16pt; font-family: &apos;Segoe UI&apos;; font-style: normal; font-weight: normal; fill: rgb(68, 68, 68); fill-opacity: 1;">Profile Graph Curvatu_1m_InterpolateShapea</text></g><g class="wj-footer" style="box-sizing: inherit;" clip-path="url(#chartRect366883)"/><clipPath id="legRect669473" style="box-sizing: inherit;"><rect x="1327.0" y="181.5" width="2.0" height="2.0" style="box-sizing: inherit;"/></clipPath><g class="wj-legend" style="box-sizing: inherit;" clip-path="url(#legRect669473)"/><g class="wj-plot-area" style="box-sizing: inherit;"><rect fill="#000000" stroke-width="1" x="66.8" y="45.0" width="1241.8" height="240.0" fill-opacity="0" style="box-sizing: inherit;"/></g><g class="wj-axis-x" style="box-sizing: inherit;" clip-path="url(#chartRect366883)"><text x="63.2" y="308.0" fill="rgb(68,68,68)" class="wj-label" fill-opacity="1" style="box-sizing: inherit; cursor: default; font-size: 10pt; font-family: &apos;Segoe UI&apos;; font-style: normal; font-weight: normal; fill: rgb(68, 68, 68); fill-opacity: 1;">0</text><line stroke="#666" stroke-width="1" x1="66.8" x2="66.8" y1="285.0" y2="289.0" class="wj-tick" style="box-sizing: inherit; stroke: rgb(170, 170, 170); stroke-width: 1px;"/><text x="113.9" y="308.0" fill="rgb(68,68,68)" class="wj-label" fill-opacity="1" style="box-sizing: inherit; cursor: default; font-size: 10pt; font-family: &apos;Segoe UI&apos;; font-style: normal; font-weight: normal; fill: rgb(68, 68, 68); fill-opacity: 1;">20</text><line stroke="#666" stroke-width="1" x1="121.1" x2="121.1" y1="285.0" y2="289.0" class="wj-tick" style="box-sizing: inherit; stroke: rgb(170, 170, 170); stroke-width: 1px;"/><text x="167.8" y="308.0" fill="rgb(68,68,68)" class="wj-label" fill-opacity="1" style="box-sizing: inherit; cursor: default; font-size: 10pt; font-family: &apos;Segoe UI&apos;; font-style: normal; font-weight: normal; fill: rgb(68, 68, 68); fill-opacity: 1;">40</text><line stroke="#666" stroke-width="1" x1="175.5" x2="175.5" y1="285.0" y2="289.0" class="wj-tick" style="box-sizing: inherit; stroke: rgb(170, 170, 170); stroke-width: 1px;"/><text x="222.7" y="308.0" fill="rgb(68,68,68)" class="wj-label" fill-opacity="1" style="box-sizing: inherit; cursor: default; font-size: 10pt; font-family: &apos;Segoe UI&apos;; font-style: normal; font-weight: normal; fill: rgb(68, 68, 68); fill-opacity: 1;">60</text><line stroke="#666" stroke-width="1" x1="229.8" x2="229.8" y1="285.0" y2="289.0" class="wj-tick" style="box-sizing: inherit; stroke: rgb(170, 170, 170); stroke-width: 1px;"/><text x="277.0" y="308.0" fill="rgb(68,68,68)" class="wj-label" fill-opacity="1" style="box-sizing: inherit; cursor: default; font-size: 10pt; font-family: &apos;Segoe UI&apos;; font-style: normal; font-weight: normal; fill: rgb(68, 68, 68); fill-opacity: 1;">80</text><line stroke="#666" stroke-width="1" x1="284.2" x2="284.2" y1="285.0" y2="289.0" class="wj-tick" style="box-sizing: inherit; stroke: rgb(170, 170, 170); stroke-width: 1px;"/><text x="327.8" y="308.0" fill="rgb(68,68,68)" class="wj-label" fill-opacity="1" style="box-sizing: inherit; cursor: default; font-size: 10pt; font-family: &apos;Segoe UI&apos;; font-style: normal; font-weight: normal; fill: rgb(68, 68, 68); fill-opacity: 1;">100</text><line stroke="#666" stroke-width="1" x1="338.5" x2="338.5" y1="285.0" y2="289.0" class="wj-tick" style="box-sizing: inherit; stroke: rgb(170, 170, 170); stroke-width: 1px;"/><text x="382.1" y="308.0" fill="rgb(68,68,68)" class="wj-label" fill-opacity="1" style="box-sizing: inherit; cursor: default; font-size: 10pt; font-family: &apos;Segoe UI&apos;; font-style: normal; font-weight: normal; fill: rgb(68, 68, 68); fill-opacity: 1;">120</text><line stroke="#666" stroke-width="1" x1="392.9" x2="392.9" y1="285.0" y2="289.0" class="wj-tick" style="box-sizing: inherit; stroke: rgb(170, 170, 170); stroke-width: 1px;"/><text x="436.5" y="308.0" fill="rgb(68,68,68)" class="wj-label" fill-opacity="1" style="box-sizing: inherit; cursor: default; font-size: 10pt; font-family: &apos;Segoe UI&apos;; font-style: normal; font-weight: normal; fill: rgb(68, 68, 68); fill-opacity: 1;">140</text><line stroke="#666" stroke-width="1" x1="447.2" x2="447.2" y1="285.0" y2="289.0" class="wj-tick" style="box-sizing: inherit; stroke: rgb(170, 170, 170); stroke-width: 1px;"/><text x="490.8" y="308.0" fill="rgb(68,68,68)" class="wj-label" fill-opacity="1" style="box-sizing: inherit; cursor: default; font-size: 10pt; font-family: &apos;Segoe UI&apos;; font-style: normal; font-weight: normal; fill: rgb(68, 68, 68); fill-opacity: 1;">160</text><line stroke="#666" stroke-width="1" x1="501.6" x2="501.6" y1="285.0" y2="289.0" class="wj-tick" style="box-sizing: inherit; stroke: rgb(170, 170, 170); stroke-width: 1px;"/><text x="545.2" y="308.0" fill="rgb(68,68,68)" class="wj-label" fill-opacity="1" style="box-sizing: inherit; cursor: default; font-size: 10pt; font-family: &apos;Segoe UI&apos;; font-style: normal; font-weight: normal; fill: rgb(68, 68, 68); fill-opacity: 1;">180</text><line stroke="#666" stroke-width="1" x1="556.0" x2="556.0" y1="285.0" y2="289.0" class="wj-tick" style="box-sizing: inherit; stroke: rgb(170, 170, 170); stroke-width: 1px;"/><text x="599.5" y="308.0" fill="rgb(68,68,68)" class="wj-label" fill-opacity="1" style="box-sizing: inherit; cursor: default; font-size: 10pt; font-family: &apos;Segoe UI&apos;; font-style: normal; font-weight: normal; fill: rgb(68, 68, 68); fill-opacity: 1;">200</text><line stroke="#666" stroke-width="1" x1="610.3" x2="610.3" y1="285.0" y2="289.0" class="wj-tick" style="box-sizing: inherit; stroke: rgb(170, 170, 170); stroke-width: 1px;"/><text x="653.9" y="308.0" fill="rgb(68,68,68)" class="wj-label" fill-opacity="1" style="box-sizing: inherit; cursor: default; font-size: 10pt; font-family: &apos;Segoe UI&apos;; font-style: normal; font-weight: normal; fill: rgb(68, 68, 68); fill-opacity: 1;">220</text><line stroke="#666" stroke-width="1" x1="664.7" x2="664.7" y1="285.0" y2="289.0" class="wj-tick" style="box-sizing: inherit; stroke: rgb(170, 170, 170); stroke-width: 1px;"/><text x="708.2" y="308.0" fill="rgb(68,68,68)" class="wj-label" fill-opacity="1" style="box-sizing: inherit; cursor: default; font-size: 10pt; font-family: &apos;Segoe UI&apos;; font-style: normal; font-weight: normal; fill: rgb(68, 68, 68); fill-opacity: 1;">240</text><line stroke="#666" stroke-width="1" x1="719.0" x2="719.0" y1="285.0" y2="289.0" class="wj-tick" style="box-sizing: inherit; stroke: rgb(170, 170, 170); stroke-width: 1px;"/><text x="762.6" y="308.0" fill="rgb(68,68,68)" class="wj-label" fill-opacity="1" style="box-sizing: inherit; cursor: default; font-size: 10pt; font-family: &apos;Segoe UI&apos;; font-style: normal; font-weight: normal; fill: rgb(68, 68, 68); fill-opacity: 1;">260</text><line stroke="#666" stroke-width="1" x1="773.4" x2="773.4" y1="285.0" y2="289.0" class="wj-tick" style="box-sizing: inherit; stroke: rgb(170, 170, 170); stroke-width: 1px;"/><text x="816.9" y="308.0" fill="rgb(68,68,68)" class="wj-label" fill-opacity="1" style="box-sizing: inherit; cursor: default; font-size: 10pt; font-family: &apos;Segoe UI&apos;; font-style: normal; font-weight: normal; fill: rgb(68, 68, 68); fill-opacity: 1;">280</text><line stroke="#666" stroke-width="1" x1="827.7" x2="827.7" y1="285.0" y2="289.0" class="wj-tick" style="box-sizing: inherit; stroke: rgb(170, 170, 170); stroke-width: 1px;"/><text x="871.3" y="308.0" fill="rgb(68,68,68)" class="wj-label" fill-opacity="1" style="box-sizing: inherit; cursor: default; font-size: 10pt; font-family: &apos;Segoe UI&apos;; font-style: normal; font-weight: normal; fill: rgb(68, 68, 68); fill-opacity: 1;">300</text><line stroke="#666" stroke-width="1" x1="882.1" x2="882.1" y1="285.0" y2="289.0" class="wj-tick" style="box-sizing: inherit; stroke: rgb(170, 170, 170); stroke-width: 1px;"/><text x="925.6" y="308.0" fill="rgb(68,68,68)" class="wj-label" fill-opacity="1" style="box-sizing: inherit; cursor: default; font-size: 10pt; font-family: &apos;Segoe UI&apos;; font-style: normal; font-weight: normal; fill: rgb(68, 68, 68); fill-opacity: 1;">320</text><line stroke="#666" stroke-width="1" x1="936.4" x2="936.4" y1="285.0" y2="289.0" class="wj-tick" style="box-sizing: inherit; stroke: rgb(170, 170, 170); stroke-width: 1px;"/><text x="980.0" y="308.0" fill="rgb(68,68,68)" class="wj-label" fill-opacity="1" style="box-sizing: inherit; cursor: default; font-size: 10pt; font-family: &apos;Segoe UI&apos;; font-style: normal; font-weight: normal; fill: rgb(68, 68, 68); fill-opacity: 1;">340</text><line stroke="#666" stroke-width="1" x1="990.8" x2="990.8" y1="285.0" y2="289.0" class="wj-tick" style="box-sizing: inherit; stroke: rgb(170, 170, 170); stroke-width: 1px;"/><text x="1034.3" y="308.0" fill="rgb(68,68,68)" class="wj-label" fill-opacity="1" style="box-sizing: inherit; cursor: default; font-size: 10pt; font-family: &apos;Segoe UI&apos;; font-style: normal; font-weight: normal; fill: rgb(68, 68, 68); fill-opacity: 1;">360</text><line stroke="#666" stroke-width="1" x1="1045.1" x2="1045.1" y1="285.0" y2="289.0" class="wj-tick" style="box-sizing: inherit; stroke: rgb(170, 170, 170); stroke-width: 1px;"/><text x="1088.7" y="308.0" fill="rgb(68,68,68)" class="wj-label" fill-opacity="1" style="box-sizing: inherit; cursor: default; font-size: 10pt; font-family: &apos;Segoe UI&apos;; font-style: normal; font-weight: normal; fill: rgb(68, 68, 68); fill-opacity: 1;">380</text><line stroke="#666" stroke-width="1" x1="1099.5" x2="1099.5" y1="285.0" y2="289.0" class="wj-tick" style="box-sizing: inherit; stroke: rgb(170, 170, 170); stroke-width: 1px;"/><text x="1142.6" y="308.0" fill="rgb(68,68,68)" class="wj-label" fill-opacity="1" style="box-sizing: inherit; cursor: default; font-size: 10pt; font-family: &apos;Segoe UI&apos;; font-style: normal; font-weight: normal; fill: rgb(68, 68, 68); fill-opacity: 1;">400</text><line stroke="#666" stroke-width="1" x1="1153.8" x2="1153.8" y1="285.0" y2="289.0" class="wj-tick" style="box-sizing: inherit; stroke: rgb(170, 170, 170); stroke-width: 1px;"/><text x="1196.9" y="308.0" fill="rgb(68,68,68)" class="wj-label" fill-opacity="1" style="box-sizing: inherit; cursor: default; font-size: 10pt; font-family: &apos;Segoe UI&apos;; font-style: normal; font-weight: normal; fill: rgb(68, 68, 68); fill-opacity: 1;">420</text><line stroke="#666" stroke-width="1" x1="1208.2" x2="1208.2" y1="285.0" y2="289.0" class="wj-tick" style="box-sizing: inherit; stroke: rgb(170, 170, 170); stroke-width: 1px;"/><text x="1251.3" y="308.0" fill="rgb(68,68,68)" class="wj-label" fill-opacity="1" style="box-sizing: inherit; cursor: default; font-size: 10pt; font-family: &apos;Segoe UI&apos;; font-style: normal; font-weight: normal; fill: rgb(68, 68, 68); fill-opacity: 1;">440</text><line stroke="#666" stroke-width="1" x1="1262.5" x2="1262.5" y1="285.0" y2="289.0" class="wj-tick" style="box-sizing: inherit; stroke: rgb(170, 170, 170); stroke-width: 1px;"/><line stroke="rgb(156,156,156)" stroke-width="1px" x1="66.8" x2="1308.6" y1="285.0" y2="285.0" class="wj-line" stroke-opacity="1" stroke-dasharray="none" style="box-sizing: inherit; stroke: rgb(156, 156, 156); stroke-opacity: 1; stroke-width: 1px; stroke-dasharray: none;"/><text x="624.7" y="333.0" fill="rgb(68,68,68)" class="wj-title" fill-opacity="1" style="box-sizing: inherit; cursor: default; font-size: 12pt; font-family: &apos;Segoe UI&apos;; font-style: normal; font-weight: normal; fill: rgb(68, 68, 68); fill-opacity: 1;">Horizontal Distance</text></g><g class="wj-axis-y" style="box-sizing: inherit;" clip-path="url(#chartRect366883)"><line stroke="rgb(225,225,225)" stroke-width="1px" x1="66.8" x2="1308.6" y1="258.5" y2="258.5" class="wj-gridline" stroke-opacity="1" stroke-dasharray="none" style="box-sizing: inherit; opacity: 0.75; stroke: rgb(225, 225, 225); stroke-opacity: 1; stroke-width: 1px; stroke-dasharray: none;"/><text x="34.1" y="264.0" fill="rgb(68,68,68)" class="wj-label" fill-opacity="1" style="box-sizing: inherit; cursor: default; font-size: 10pt; font-family: &apos;Segoe UI&apos;; font-style: normal; font-weight: normal; fill: rgb(68, 68, 68); fill-opacity: 1;">-20</text><line stroke="rgb(225,225,225)" stroke-width="1px" x1="66.8" x2="1308.6" y1="222.9" y2="222.9" class="wj-gridline" stroke-opacity="1" stroke-dasharray="none" style="box-sizing: inherit; opacity: 0.75; stroke: rgb(225, 225, 225); stroke-opacity: 1; stroke-width: 1px; stroke-dasharray: none;"/><text x="34.1" y="228.4" fill="rgb(68,68,68)" class="wj-label" fill-opacity="1" style="box-sizing: inherit; cursor: default; font-size: 10pt; font-family: &apos;Segoe UI&apos;; font-style: normal; font-weight: normal; fill: rgb(68, 68, 68); fill-opacity: 1;">-10</text><line stroke="rgb(225,225,225)" stroke-width="1px" x1="66.8" x2="1308.6" y1="187.3" y2="187.3" class="wj-gridline" stroke-opacity="1" stroke-dasharray="none" style="box-sizing: inherit; opacity: 0.75; stroke: rgb(225, 225, 225); stroke-opacity: 1; stroke-width: 1px; stroke-dasharray: none;"/><text x="46.6" y="192.8" fill="rgb(68,68,68)" class="wj-label" fill-opacity="1" style="box-sizing: inherit; cursor: default; font-size: 10pt; font-family: &apos;Segoe UI&apos;; font-style: normal; font-weight: normal; fill: rgb(68, 68, 68); fill-opacity: 1;">0</text><line stroke="rgb(225,225,225)" stroke-width="1px" x1="66.8" x2="1308.6" y1="151.7" y2="151.7" class="wj-gridline" stroke-opacity="1" stroke-dasharray="none" style="box-sizing: inherit; opacity: 0.75; stroke: rgb(225, 225, 225); stroke-opacity: 1; stroke-width: 1px; stroke-dasharray: none;"/><text x="39.4" y="157.2" fill="rgb(68,68,68)" class="wj-label" fill-opacity="1" style="box-sizing: inherit; cursor: default; font-size: 10pt; font-family: &apos;Segoe UI&apos;; font-style: normal; font-weight: normal; fill: rgb(68, 68, 68); fill-opacity: 1;">10</text><line stroke="rgb(225,225,225)" stroke-width="1px" x1="66.8" x2="1308.6" y1="116.1" y2="116.1" class="wj-gridline" stroke-opacity="1" stroke-dasharray="none" style="box-sizing: inherit; opacity: 0.75; stroke: rgb(225, 225, 225); stroke-opacity: 1; stroke-width: 1px; stroke-dasharray: none;"/><text x="39.4" y="121.6" fill="rgb(68,68,68)" class="wj-label" fill-opacity="1" style="box-sizing: inherit; cursor: default; font-size: 10pt; font-family: &apos;Segoe UI&apos;; font-style: normal; font-weight: normal; fill: rgb(68, 68, 68); fill-opacity: 1;">20</text><line stroke="rgb(225,225,225)" stroke-width="1px" x1="66.8" x2="1308.6" y1="80.6" y2="80.6" class="wj-gridline" stroke-opacity="1" stroke-dasharray="none" style="box-sizing: inherit; opacity: 0.75; stroke: rgb(225, 225, 225); stroke-opacity: 1; stroke-width: 1px; stroke-dasharray: none;"/><text x="39.4" y="86.1" fill="rgb(68,68,68)" class="wj-label" fill-opacity="1" style="box-sizing: inherit; cursor: default; font-size: 10pt; font-family: &apos;Segoe UI&apos;; font-style: normal; font-weight: normal; fill: rgb(68, 68, 68); fill-opacity: 1;">30</text><g transform="rotate(-90.0,10.5,165.0)" style="box-sizing: inherit;"><text x="-21.4" y="171.5" fill="rgb(68,68,68)" class="wj-title" fill-opacity="1" style="box-sizing: inherit; cursor: default; font-size: 12pt; font-family: &apos;Segoe UI&apos;; font-style: normal; font-weight: normal; fill: rgb(68, 68, 68); fill-opacity: 1;">Elevation</text></g><line stroke="rgb(156,156,156)" stroke-width="1px" x1="66.8" x2="66.8" y1="45.0" y2="285.0" class="wj-line" stroke-opacity="0" stroke-dasharray="none" style="box-sizing: inherit; stroke: rgb(156, 156, 156); stroke-opacity: 0; stroke-width: 1px; stroke-dasharray: none;"/></g><g class="wj-series-group" style="box-sizing: inherit;"><g style="box-sizing: inherit;"><polyline stroke="rgb(124,44,127)" stroke-width="1.35" fill="none" points="66.8,173.3 69.5,146.2 72.2,181.7 74.9,213.2 77.6,224.3 80.3,216.6 83.0,203.1 85.7,202.8 88.4,214.9 91.1,227.3 93.8,236.1 96.5,219.7 99.2,201.3 101.9,208.2 104.6,202.7 107.3,188.1 110.0,175.5 112.7,166.4 115.4,179.8 118.1,223.9 120.8,260.5 123.5,285.0 126.2,154.2 128.9,45.0 131.6,112.5 134.3,165.0 137.0,158.1 139.7,161.4 142.4,199.2 145.1,189.1 147.8,138.9 150.5,174.0 153.2,209.7 155.9,207.8 158.6,240.6 161.3,179.9 164.0,122.3 166.7,122.4 169.4,161.9 172.1,190.7 174.8,200.6 177.5,171.7 180.2,165.3 182.9,210.4 185.6,229.5 188.3,171.9 191.0,108.6 193.7,115.2 196.4,170.7 199.1,211.3 201.8,216.2 204.5,178.3 207.2,164.2 209.9,185.7 212.6,185.4 215.3,228.0 218.0,263.6 220.7,184.1 223.4,82.3 226.1,66.3 228.8,124.9 231.5,182.4 234.2,186.0 236.9,190.1 239.6,198.5 242.3,197.2 245.0,218.3 247.7,211.3 250.5,177.0 253.2,155.6 255.9,170.5 258.6,175.3 261.3,176.6 264.0,175.7 266.7,145.9 269.4,156.1 272.2,152.7 274.9,164.7 277.6,186.8 280.3,190.1 283.0,195.4 285.7,194.0 288.4,172.4 291.2,161.1 293.9,170.9 296.6,175.0 299.3,176.9 302.0,187.0 304.7,186.6 307.4,178.8 310.1,192.2 312.9,206.1 315.6,210.9 318.3,201.6 321.0,192.1 323.7,191.9 326.4,174.8 329.1,160.8 331.8,170.8 334.6,181.0 337.3,204.8 340.0,200.0 342.7,180.3 345.4,203.6 348.1,207.1 350.8,137.4 353.6,119.2 356.3,146.4 359.0,155.1 361.7,148.9 364.4,166.6 367.1,187.9 369.8,190.1 372.5,187.9 375.3,194.0 378.0,182.0 380.7,172.2 383.4,179.1 386.1,188.5 388.8,198.9 391.5,214.9 394.3,202.0 397.0,188.7 399.7,195.7 402.4,198.4 405.1,200.9 407.8,171.1 410.5,157.2 413.2,175.3 416.0,197.3 418.7,198.7 421.4,195.1 424.1,195.4 426.8,194.7 429.5,194.1 432.2,181.6 434.9,174.3 437.7,152.8 440.4,150.5 443.1,192.5 445.8,218.5 448.5,190.2 451.2,178.4 453.9,195.3 456.7,212.8 459.4,184.0 462.1,150.9 464.8,174.4 467.5,179.9 470.2,184.2 472.9,183.7 475.6,194.7 478.4,194.6 481.1,186.6 483.8,183.4 486.5,183.3 489.2,180.1 491.9,181.5 494.6,188.0 497.4,189.4 500.1,180.6 502.8,190.7 505.5,189.8 508.2,166.2 510.9,181.2 513.6,194.7 516.3,189.8 519.1,185.5 521.8,181.2 524.5,180.4 527.2,191.2 529.9,196.9 532.6,188.2 535.3,182.0 538.0,185.5 540.8,188.8 543.5,190.1 546.2,186.8 548.9,176.5 551.6,182.6 554.3,182.5 557.0,185.8 559.8,182.4 562.5,181.6 565.2,184.2 567.9,193.2 570.6,199.6 573.3,177.1 576.0,168.5 578.7,187.9 581.5,189.8 584.2,193.5 586.9,194.3 589.6,189.9 592.3,185.3 595.0,174.3 597.7,188.7 600.5,172.6 603.2,186.7 605.9,197.6 608.6,196.1 611.3,177.3 614.0,184.1 616.7,200.6 619.4,203.4 622.2,190.5 624.9,172.0 627.6,180.2 630.3,199.7 633.0,190.7 635.7,183.3 638.4,202.8 641.1,181.9 643.9,184.8 646.6,171.4 649.3,186.9 652.0,189.0 654.7,181.4 657.4,182.2 660.1,186.2 662.9,195.3 665.6,209.1 668.3,204.9 671.0,194.1 673.7,191.8 676.4,199.5 679.1,203.5 681.8,189.3 684.6,158.7 687.3,161.2 690.0,174.5 692.7,180.3 695.4,180.9 698.1,191.1 700.8,208.6 703.6,211.6 706.3,203.1 709.0,187.4 711.7,163.8 714.4,172.0 717.1,192.0 719.8,174.2 722.5,163.3 725.3,184.2 728.0,201.5 730.7,203.3 733.4,205.8 736.1,192.8 738.8,170.8 741.5,170.7 744.2,184.1 747.0,192.9 749.7,182.8 752.4,191.4 755.1,188.2 757.8,179.1 760.5,180.9 763.2,187.2 766.0,199.6 768.7,208.3 771.4,204.8 774.1,195.7 776.8,178.0 779.5,171.5 782.2,174.2 784.9,180.2 787.7,189.5 790.4,188.9 793.1,186.8 795.8,197.9 798.5,195.7 801.2,201.6 803.9,188.4 806.7,182.7 809.4,188.4 812.1,182.5 814.8,177.2 817.5,171.2 820.2,168.6 822.9,173.1 825.6,179.6 828.4,187.7 831.1,207.2 833.8,209.3 836.5,178.7 839.2,151.4 841.9,162.3 844.6,168.1 847.3,189.5 850.1,217.1 852.8,226.5 855.5,211.6 858.2,193.0 860.9,182.6 863.6,181.1 866.3,175.0 869.1,179.7 871.8,201.0 874.5,216.0 877.2,220.3 879.9,235.3 882.6,214.6 885.3,143.4 888.0,134.3 890.8,144.6 893.5,179.0 896.2,179.1 898.9,188.0 901.6,200.6 904.3,199.9 907.0,187.7 909.8,184.0 912.5,184.0 915.2,186.6 917.9,189.7 920.6,198.1 923.3,216.9 926.0,226.7 928.7,197.4 931.5,209.1 934.2,173.3 936.9,166.4 939.6,187.4 942.3,181.3 945.0,167.4 947.7,168.0 950.4,173.5 953.2,185.8 955.9,198.7 958.6,203.7 961.3,199.3 964.0,184.1 966.7,172.5 969.4,203.4 972.2,203.1 974.9,152.0 977.6,177.3 980.3,197.6 983.0,195.0 985.7,197.1 988.4,186.6 991.1,162.5 993.9,146.3 996.6,158.4 999.3,177.6 1002.0,176.2 1004.7,170.7 1007.4,188.1 1010.1,209.7 1012.9,203.0 1015.6,215.9 1018.3,242.4 1021.0,185.4 1023.7,132.4 1026.4,161.3 1029.1,187.5 1031.8,192.4 1034.6,186.4 1037.3,184.8 1040.0,192.5 1042.7,193.4 1045.4,193.2 1048.1,196.8 1050.8,190.8 1053.5,187.2 1056.3,184.6 1059.0,184.6 1061.7,188.4 1064.4,204.1 1067.1,170.0 1069.8,165.7 1072.5,195.2 1075.3,214.3 1078.0,215.6 1080.7,198.3 1083.4,161.5 1086.1,144.8 1088.8,154.2 1091.5,174.8 1094.2,185.3 1097.0,190.1 1099.7,203.6 1102.4,192.9 1105.1,191.8 1107.8,197.6 1110.5,202.8 1113.2,203.8 1116.0,204.7 1118.7,189.8 1121.4,173.2 1124.1,183.9 1126.8,199.3 1129.5,171.8 1132.2,156.7 1134.9,189.4 1137.7,215.3 1140.4,198.0 1143.1,171.8 1145.8,169.6 1148.5,189.7 1151.2,206.1 1153.9,194.5 1156.6,172.2 1159.4,173.2 1162.1,183.3 1164.8,188.5 1167.5,187.5 1170.2,186.0 1172.9,180.8 1175.6,186.4 1178.4,191.6 1181.1,189.6 1183.8,191.2 1186.5,190.6 1189.2,190.8 1191.9,197.8 1194.6,191.0 1197.3,178.6 1200.1,178.5 1202.8,176.6 1205.5,168.1 1208.2,166.8 1210.9,162.4 1213.6,160.4 1216.3,187.3 1219.1,190.2 1221.8,189.0 1224.5,180.2 1227.2,176.7 1229.9,190.0 1232.6,194.6 1235.3,189.0 1238.0,185.0 1240.8,186.2 1243.5,189.8 1246.2,191.2 1248.9,189.3 1251.6,186.0 1254.3,180.9 1257.0,187.7 1259.7,190.5 1262.5,179.5 1265.2,187.3 1267.9,180.7 1270.6,191.1 1273.3,199.1 1276.0,197.5 1278.7,187.3 1281.5,182.1 1284.2,180.9 1286.9,183.3 1289.6,185.3 1292.3,186.9 1295.0,188.0 1297.7,181.5 1300.4,188.4 1303.2,187.7 1305.9,192.2 1308.6,191.4 " clip-path="url(#plotRect470087)" style="box-sizing: inherit; stroke-width: 1.35;" stroke-opacity="1"/></g></g><clipPath id="plotRect470087" style="box-sizing: inherit;"><rect x="65.8" y="44.0" width="1243.8" height="242.0" style="box-sizing: inherit;"/></clipPath><clipPath id="plotRect294050" style="box-sizing: inherit;"><rect x="-1.0" y="-1.0" width="1243.8" height="242.0" style="box-sizing: inherit;"/></clipPath><g class="wj-chart-annotationlayer" transform="translate(66.78125, 45)" style="box-sizing: inherit;" clip-path="url(#plotRect294050)"/></svg>