<svg xmlns="http://www.w3.org/2000/svg" width="1333" height="345" style="box-sizing: inherit; font-family: Calibri;"><rect id="backgroundRect" width="100%" height="100%" x="0" y="0" fill="rgb(255,255,255)" fill-opacity="1" visibility="visible" style="box-sizing: inherit; fill: rgb(255, 255, 255); fill-opacity: 1;"/><defs style="box-sizing: inherit;"/><clipPath id="chartRect556262" style="box-sizing: inherit;"><rect x="-1.0" y="-1.0" width="1330.0" height="339.0" style="box-sizing: inherit;"/></clipPath><g class="wj-header" style="box-sizing: inherit; background: rgb(238, 238, 238); color: rgb(68, 68, 68); font-weight: 700;" clip-path="url(#chartRect556262)"><text x="452.9" y="23.0" fill="rgb(68,68,68)" class="wj-title" fill-opacity="1" style="box-sizing: inherit; cursor: default; font-size: 16pt; font-family: &apos;Segoe UI&apos;; font-style: normal; font-weight: normal; fill: rgb(68, 68, 68); fill-opacity: 1;">Profile Graph Curvatu_1m_InterpolateShape2</text></g><g class="wj-footer" style="box-sizing: inherit;" clip-path="url(#chartRect556262)"/><clipPath id="legRect842785" style="box-sizing: inherit;"><rect x="1327.0" y="181.5" width="2.0" height="2.0" style="box-sizing: inherit;"/></clipPath><g class="wj-legend" style="box-sizing: inherit;" clip-path="url(#legRect842785)"/><g class="wj-plot-area" style="box-sizing: inherit;"><rect fill="#000000" stroke-width="1" x="74.0" y="45.0" width="1234.6" height="240.0" fill-opacity="0" style="box-sizing: inherit;"/></g><g class="wj-axis-x" style="box-sizing: inherit;" clip-path="url(#chartRect556262)"><text x="70.4" y="308.0" fill="rgb(68,68,68)" class="wj-label" fill-opacity="1" style="box-sizing: inherit; cursor: default; font-size: 10pt; font-family: &apos;Segoe UI&apos;; font-style: normal; font-weight: normal; fill: rgb(68, 68, 68); fill-opacity: 1;">0</text><line stroke="#666" stroke-width="1" x1="74.0" x2="74.0" y1="285.0" y2="289.0" class="wj-tick" style="box-sizing: inherit; stroke: rgb(170, 170, 170); stroke-width: 1px;"/><text x="142.0" y="308.0" fill="rgb(68,68,68)" class="wj-label" fill-opacity="1" style="box-sizing: inherit; cursor: default; font-size: 10pt; font-family: &apos;Segoe UI&apos;; font-style: normal; font-weight: normal; fill: rgb(68, 68, 68); fill-opacity: 1;">20</text><line stroke="#666" stroke-width="1" x1="149.2" x2="149.2" y1="285.0" y2="289.0" class="wj-tick" style="box-sizing: inherit; stroke: rgb(170, 170, 170); stroke-width: 1px;"/><text x="216.8" y="308.0" fill="rgb(68,68,68)" class="wj-label" fill-opacity="1" style="box-sizing: inherit; cursor: default; font-size: 10pt; font-family: &apos;Segoe UI&apos;; font-style: normal; font-weight: normal; fill: rgb(68, 68, 68); fill-opacity: 1;">40</text><line stroke="#666" stroke-width="1" x1="224.4" x2="224.4" y1="285.0" y2="289.0" class="wj-tick" style="box-sizing: inherit; stroke: rgb(170, 170, 170); stroke-width: 1px;"/><text x="292.5" y="308.0" fill="rgb(68,68,68)" class="wj-label" fill-opacity="1" style="box-sizing: inherit; cursor: default; font-size: 10pt; font-family: &apos;Segoe UI&apos;; font-style: normal; font-weight: normal; fill: rgb(68, 68, 68); fill-opacity: 1;">60</text><line stroke="#666" stroke-width="1" x1="299.7" x2="299.7" y1="285.0" y2="289.0" class="wj-tick" style="box-sizing: inherit; stroke: rgb(170, 170, 170); stroke-width: 1px;"/><text x="367.7" y="308.0" fill="rgb(68,68,68)" class="wj-label" fill-opacity="1" style="box-sizing: inherit; cursor: default; font-size: 10pt; font-family: &apos;Segoe UI&apos;; font-style: normal; font-weight: normal; fill: rgb(68, 68, 68); fill-opacity: 1;">80</text><line stroke="#666" stroke-width="1" x1="374.9" x2="374.9" y1="285.0" y2="289.0" class="wj-tick" style="box-sizing: inherit; stroke: rgb(170, 170, 170); stroke-width: 1px;"/><text x="439.4" y="308.0" fill="rgb(68,68,68)" class="wj-label" fill-opacity="1" style="box-sizing: inherit; cursor: default; font-size: 10pt; font-family: &apos;Segoe UI&apos;; font-style: normal; font-weight: normal; fill: rgb(68, 68, 68); fill-opacity: 1;">100</text><line stroke="#666" stroke-width="1" x1="450.2" x2="450.2" y1="285.0" y2="289.0" class="wj-tick" style="box-sizing: inherit; stroke: rgb(170, 170, 170); stroke-width: 1px;"/><text x="514.6" y="308.0" fill="rgb(68,68,68)" class="wj-label" fill-opacity="1" style="box-sizing: inherit; cursor: default; font-size: 10pt; font-family: &apos;Segoe UI&apos;; font-style: normal; font-weight: normal; fill: rgb(68, 68, 68); fill-opacity: 1;">120</text><line stroke="#666" stroke-width="1" x1="525.4" x2="525.4" y1="285.0" y2="289.0" class="wj-tick" style="box-sizing: inherit; stroke: rgb(170, 170, 170); stroke-width: 1px;"/><text x="589.8" y="308.0" fill="rgb(68,68,68)" class="wj-label" fill-opacity="1" style="box-sizing: inherit; cursor: default; font-size: 10pt; font-family: &apos;Segoe UI&apos;; font-style: normal; font-weight: normal; fill: rgb(68, 68, 68); fill-opacity: 1;">140</text><line stroke="#666" stroke-width="1" x1="600.6" x2="600.6" y1="285.0" y2="289.0" class="wj-tick" style="box-sizing: inherit; stroke: rgb(170, 170, 170); stroke-width: 1px;"/><text x="665.1" y="308.0" fill="rgb(68,68,68)" class="wj-label" fill-opacity="1" style="box-sizing: inherit; cursor: default; font-size: 10pt; font-family: &apos;Segoe UI&apos;; font-style: normal; font-weight: normal; fill: rgb(68, 68, 68); fill-opacity: 1;">160</text><line stroke="#666" stroke-width="1" x1="675.9" x2="675.9" y1="285.0" y2="289.0" class="wj-tick" style="box-sizing: inherit; stroke: rgb(170, 170, 170); stroke-width: 1px;"/><text x="740.3" y="308.0" fill="rgb(68,68,68)" class="wj-label" fill-opacity="1" style="box-sizing: inherit; cursor: default; font-size: 10pt; font-family: &apos;Segoe UI&apos;; font-style: normal; font-weight: normal; fill: rgb(68, 68, 68); fill-opacity: 1;">180</text><line stroke="#666" stroke-width="1" x1="751.1" x2="751.1" y1="285.0" y2="289.0" class="wj-tick" style="box-sizing: inherit; stroke: rgb(170, 170, 170); stroke-width: 1px;"/><text x="815.6" y="308.0" fill="rgb(68,68,68)" class="wj-label" fill-opacity="1" style="box-sizing: inherit; cursor: default; font-size: 10pt; font-family: &apos;Segoe UI&apos;; font-style: normal; font-weight: normal; fill: rgb(68, 68, 68); fill-opacity: 1;">200</text><line stroke="#666" stroke-width="1" x1="826.3" x2="826.3" y1="285.0" y2="289.0" class="wj-tick" style="box-sizing: inherit; stroke: rgb(170, 170, 170); stroke-width: 1px;"/><text x="890.8" y="308.0" fill="rgb(68,68,68)" class="wj-label" fill-opacity="1" style="box-sizing: inherit; cursor: default; font-size: 10pt; font-family: &apos;Segoe UI&apos;; font-style: normal; font-weight: normal; fill: rgb(68, 68, 68); fill-opacity: 1;">220</text><line stroke="#666" stroke-width="1" x1="901.6" x2="901.6" y1="285.0" y2="289.0" class="wj-tick" style="box-sizing: inherit; stroke: rgb(170, 170, 170); stroke-width: 1px;"/><text x="966.0" y="308.0" fill="rgb(68,68,68)" class="wj-label" fill-opacity="1" style="box-sizing: inherit; cursor: default; font-size: 10pt; font-family: &apos;Segoe UI&apos;; font-style: normal; font-weight: normal; fill: rgb(68, 68, 68); fill-opacity: 1;">240</text><line stroke="#666" stroke-width="1" x1="976.8" x2="976.8" y1="285.0" y2="289.0" class="wj-tick" style="box-sizing: inherit; stroke: rgb(170, 170, 170); stroke-width: 1px;"/><text x="1041.3" y="308.0" fill="rgb(68,68,68)" class="wj-label" fill-opacity="1" style="box-sizing: inherit; cursor: default; font-size: 10pt; font-family: &apos;Segoe UI&apos;; font-style: normal; font-weight: normal; fill: rgb(68, 68, 68); fill-opacity: 1;">260</text><line stroke="#666" stroke-width="1" x1="1052.0" x2="1052.0" y1="285.0" y2="289.0" class="wj-tick" style="box-sizing: inherit; stroke: rgb(170, 170, 170); stroke-width: 1px;"/><text x="1116.5" y="308.0" fill="rgb(68,68,68)" class="wj-label" fill-opacity="1" style="box-sizing: inherit; cursor: default; font-size: 10pt; font-family: &apos;Segoe UI&apos;; font-style: normal; font-weight: normal; fill: rgb(68, 68, 68); fill-opacity: 1;">280</text><line stroke="#666" stroke-width="1" x1="1127.3" x2="1127.3" y1="285.0" y2="289.0" class="wj-tick" style="box-sizing: inherit; stroke: rgb(170, 170, 170); stroke-width: 1px;"/><text x="1191.7" y="308.0" fill="rgb(68,68,68)" class="wj-label" fill-opacity="1" style="box-sizing: inherit; cursor: default; font-size: 10pt; font-family: &apos;Segoe UI&apos;; font-style: normal; font-weight: normal; fill: rgb(68, 68, 68); fill-opacity: 1;">300</text><line stroke="#666" stroke-width="1" x1="1202.5" x2="1202.5" y1="285.0" y2="289.0" class="wj-tick" style="box-sizing: inherit; stroke: rgb(170, 170, 170); stroke-width: 1px;"/><text x="1267.0" y="308.0" fill="rgb(68,68,68)" class="wj-label" fill-opacity="1" style="box-sizing: inherit; cursor: default; font-size: 10pt; font-family: &apos;Segoe UI&apos;; font-style: normal; font-weight: normal; fill: rgb(68, 68, 68); fill-opacity: 1;">320</text><line stroke="#666" stroke-width="1" x1="1277.8" x2="1277.8" y1="285.0" y2="289.0" class="wj-tick" style="box-sizing: inherit; stroke: rgb(170, 170, 170); stroke-width: 1px;"/><line stroke="rgb(156,156,156)" stroke-width="1px" x1="74.0" x2="1308.6" y1="285.0" y2="285.0" class="wj-line" stroke-opacity="1" stroke-dasharray="none" style="box-sizing: inherit; stroke: rgb(156, 156, 156); stroke-opacity: 1; stroke-width: 1px; stroke-dasharray: none;"/><text x="628.3" y="333.0" fill="rgb(68,68,68)" class="wj-title" fill-opacity="1" style="box-sizing: inherit; cursor: default; font-size: 12pt; font-family: &apos;Segoe UI&apos;; font-style: normal; font-weight: normal; fill: rgb(68, 68, 68); fill-opacity: 1;">Horizontal Distance</text></g><g class="wj-axis-y" style="box-sizing: inherit;" clip-path="url(#chartRect556262)"><line stroke="rgb(225,225,225)" stroke-width="1px" x1="74.0" x2="1308.6" y1="243.7" y2="243.7" class="wj-gridline" stroke-opacity="1" stroke-dasharray="none" style="box-sizing: inherit; opacity: 0.75; stroke: rgb(225, 225, 225); stroke-opacity: 1; stroke-width: 1px; stroke-dasharray: none;"/><text x="41.3" y="249.2" fill="rgb(68,68,68)" class="wj-label" fill-opacity="1" style="box-sizing: inherit; cursor: default; font-size: 10pt; font-family: &apos;Segoe UI&apos;; font-style: normal; font-weight: normal; fill: rgb(68, 68, 68); fill-opacity: 1;">-40</text><line stroke="rgb(225,225,225)" stroke-width="1px" x1="74.0" x2="1308.6" y1="198.9" y2="198.9" class="wj-gridline" stroke-opacity="1" stroke-dasharray="none" style="box-sizing: inherit; opacity: 0.75; stroke: rgb(225, 225, 225); stroke-opacity: 1; stroke-width: 1px; stroke-dasharray: none;"/><text x="41.3" y="204.4" fill="rgb(68,68,68)" class="wj-label" fill-opacity="1" style="box-sizing: inherit; cursor: default; font-size: 10pt; font-family: &apos;Segoe UI&apos;; font-style: normal; font-weight: normal; fill: rgb(68, 68, 68); fill-opacity: 1;">-20</text><line stroke="rgb(225,225,225)" stroke-width="1px" x1="74.0" x2="1308.6" y1="154.1" y2="154.1" class="wj-gridline" stroke-opacity="1" stroke-dasharray="none" style="box-sizing: inherit; opacity: 0.75; stroke: rgb(225, 225, 225); stroke-opacity: 1; stroke-width: 1px; stroke-dasharray: none;"/><text x="53.8" y="159.6" fill="rgb(68,68,68)" class="wj-label" fill-opacity="1" style="box-sizing: inherit; cursor: default; font-size: 10pt; font-family: &apos;Segoe UI&apos;; font-style: normal; font-weight: normal; fill: rgb(68, 68, 68); fill-opacity: 1;">0</text><line stroke="rgb(225,225,225)" stroke-width="1px" x1="74.0" x2="1308.6" y1="109.3" y2="109.3" class="wj-gridline" stroke-opacity="1" stroke-dasharray="none" style="box-sizing: inherit; opacity: 0.75; stroke: rgb(225, 225, 225); stroke-opacity: 1; stroke-width: 1px; stroke-dasharray: none;"/><text x="46.6" y="114.8" fill="rgb(68,68,68)" class="wj-label" fill-opacity="1" style="box-sizing: inherit; cursor: default; font-size: 10pt; font-family: &apos;Segoe UI&apos;; font-style: normal; font-weight: normal; fill: rgb(68, 68, 68); fill-opacity: 1;">20</text><line stroke="rgb(225,225,225)" stroke-width="1px" x1="74.0" x2="1308.6" y1="64.5" y2="64.5" class="wj-gridline" stroke-opacity="1" stroke-dasharray="none" style="box-sizing: inherit; opacity: 0.75; stroke: rgb(225, 225, 225); stroke-opacity: 1; stroke-width: 1px; stroke-dasharray: none;"/><text x="45.6" y="70.0" fill="rgb(68,68,68)" class="wj-label" fill-opacity="1" style="box-sizing: inherit; cursor: default; font-size: 10pt; font-family: &apos;Segoe UI&apos;; font-style: normal; font-weight: normal; fill: rgb(68, 68, 68); fill-opacity: 1;">40</text><g transform="rotate(-90.0,10.5,165.0)" style="box-sizing: inherit;"><text x="-21.4" y="171.5" fill="rgb(68,68,68)" class="wj-title" fill-opacity="1" style="box-sizing: inherit; cursor: default; font-size: 12pt; font-family: &apos;Segoe UI&apos;; font-style: normal; font-weight: normal; fill: rgb(68, 68, 68); fill-opacity: 1;">Elevation</text></g><line stroke="rgb(156,156,156)" stroke-width="1px" x1="74.0" x2="74.0" y1="45.0" y2="285.0" class="wj-line" stroke-opacity="0" stroke-dasharray="none" style="box-sizing: inherit; stroke: rgb(156, 156, 156); stroke-opacity: 0; stroke-width: 1px; stroke-dasharray: none;"/></g><g class="wj-series-group" style="box-sizing: inherit;"><g style="box-sizing: inherit;"><polyline stroke="rgb(111,66,150)" stroke-width="1.35" fill="none" points="74.0,149.0 77.7,155.9 81.5,154.9 85.2,147.0 89.0,145.7 92.7,142.0 96.5,137.2 100.2,141.8 104.0,153.7 107.7,165.1 111.5,155.9 115.2,147.4 119.0,146.4 122.8,143.2 126.5,153.4 130.3,171.3 134.0,168.6 137.8,157.6 141.5,154.7 145.3,146.4 149.0,132.7 152.8,137.4 156.5,160.9 160.3,167.5 164.0,160.7 167.8,160.6 171.5,151.4 175.3,145.3 179.0,157.0 182.8,162.1 186.5,159.6 190.3,163.2 194.1,169.5 197.8,164.9 201.6,154.4 205.3,154.5 209.1,166.3 212.8,161.3 216.6,143.9 220.3,143.2 224.1,155.3 227.8,148.6 231.6,147.3 235.3,162.6 239.1,155.2 242.8,144.0 246.6,148.4 250.3,155.6 254.1,147.9 257.8,156.5 261.6,162.4 265.4,154.8 269.1,160.4 272.9,164.7 276.6,158.0 280.4,146.5 284.1,145.0 287.9,141.6 291.6,155.5 295.4,159.6 299.1,138.7 302.9,135.9 306.6,160.2 310.4,169.0 314.1,154.6 317.9,141.9 321.6,148.2 325.4,153.9 329.1,144.9 332.9,146.8 336.7,147.9 340.4,151.1 344.2,159.3 347.9,171.0 351.7,153.2 355.4,140.4 359.2,150.8 362.9,164.3 366.7,164.0 370.4,153.2 374.2,149.1 377.9,157.7 381.7,161.0 385.4,158.8 389.2,169.0 392.9,165.5 396.7,136.4 400.4,130.4 404.2,159.9 408.0,165.7 411.7,149.9 415.5,159.4 419.2,151.4 423.0,159.6 426.7,165.8 430.5,159.8 434.2,153.0 438.0,154.0 441.7,159.7 445.5,160.7 449.2,159.1 453.0,158.1 456.7,134.5 460.5,136.9 464.2,150.9 468.0,157.9 471.7,155.3 475.5,148.7 479.3,134.9 483.0,145.9 486.8,162.1 490.5,162.8 494.3,172.6 498.0,166.4 501.8,142.4 505.5,137.3 509.3,177.0 513.0,183.0 516.8,168.1 520.5,174.1 524.3,149.3 528.0,147.0 531.8,141.8 535.5,147.9 539.3,138.6 543.0,135.7 546.8,146.6 550.6,180.2 554.3,164.3 558.1,134.2 561.8,138.6 565.6,154.9 569.3,171.7 573.1,172.2 576.8,170.7 580.6,165.6 584.3,141.6 588.1,106.9 591.8,140.1 595.6,175.0 599.3,171.4 603.1,155.4 606.8,143.5 610.6,165.2 614.3,168.6 618.1,141.5 621.9,125.1 625.6,160.4 629.4,171.0 633.1,171.3 636.9,183.3 640.6,157.4 644.4,142.6 648.1,161.6 651.9,82.2 655.6,178.8 659.4,126.0 663.1,139.3 666.9,189.5 670.6,170.5 674.4,151.1 678.1,149.7 681.9,150.1 685.6,155.9 689.4,158.8 693.2,153.1 696.9,143.0 700.7,150.3 704.4,181.0 708.2,170.0 711.9,150.3 715.7,148.1 719.4,156.5 723.2,158.9 726.9,155.7 730.7,154.9 734.4,160.6 738.2,160.7 741.9,165.2 745.7,167.7 749.4,149.0 753.2,119.5 756.9,142.4 760.7,148.9 764.5,162.4 768.2,178.6 772.0,169.1 775.7,152.8 779.5,140.0 783.2,114.3 787.0,145.9 790.7,173.0 794.5,154.0 798.2,152.5 802.0,170.3 805.7,165.2 809.5,159.2 813.2,149.8 817.0,150.6 820.7,145.5 824.5,154.0 828.2,167.5 832.0,132.3 835.8,134.3 839.5,153.1 843.3,154.3 847.0,162.8 850.8,168.2 854.5,160.8 858.3,153.3 862.0,156.3 865.8,150.3 869.5,142.7 873.3,144.1 877.0,148.6 880.8,155.7 884.5,155.7 888.3,150.3 892.0,152.0 895.8,159.4 899.5,159.3 903.3,145.7 907.1,146.2 910.8,161.5 914.6,157.8 918.3,136.1 922.1,120.0 925.8,115.2 929.6,143.2 933.3,143.7 937.1,140.5 940.8,100.8 944.6,62.4 948.3,99.8 952.1,117.0 955.8,62.4 959.6,45.0 963.3,95.7 967.1,159.1 970.8,213.4 974.6,221.1 978.4,209.8 982.1,203.2 985.9,157.7 989.6,106.0 993.4,123.8 997.1,205.1 1000.9,216.6 1004.6,160.0 1008.4,152.1 1012.1,175.7 1015.9,178.7 1019.6,158.0 1023.4,146.4 1027.1,159.0 1030.9,151.3 1034.6,124.7 1038.4,154.6 1042.1,182.1 1045.9,133.6 1049.7,123.1 1053.4,168.2 1057.2,159.6 1060.9,134.0 1064.7,137.1 1068.4,140.0 1072.2,132.7 1075.9,126.5 1079.7,138.0 1083.4,148.0 1087.2,137.8 1090.9,146.0 1094.7,147.6 1098.4,130.8 1102.2,125.2 1105.9,133.1 1109.7,153.1 1113.4,145.2 1117.2,129.0 1121.0,160.5 1124.7,172.7 1128.5,168.1 1132.2,161.5 1136.0,167.9 1139.7,160.0 1143.5,138.8 1147.2,150.3 1151.0,168.1 1154.7,169.7 1158.5,164.5 1162.2,157.0 1166.0,145.4 1169.7,134.7 1173.5,128.3 1177.2,130.6 1181.0,143.3 1184.7,155.8 1188.5,143.2 1192.3,124.5 1196.0,138.4 1199.8,151.6 1203.5,149.5 1207.3,137.7 1211.0,119.8 1214.8,97.5 1218.5,83.3 1222.3,108.4 1226.0,131.4 1229.8,111.5 1233.5,99.4 1237.3,99.9 1241.0,93.7 1244.8,115.1 1248.5,164.9 1252.3,183.2 1256.0,147.8 1259.8,159.9 1263.6,217.6 1267.3,250.9 1271.1,212.2 1274.8,164.4 1278.6,133.8 1282.3,107.2 1286.1,92.2 1289.8,116.1 1293.6,166.5 1297.3,240.4 1301.1,285.0 1304.8,233.8 1308.6,238.3 " clip-path="url(#plotRect368879)" style="box-sizing: inherit; stroke-width: 1.35;" stroke-opacity="1"/></g></g><clipPath id="plotRect368879" style="box-sizing: inherit;"><rect x="73.0" y="44.0" width="1236.6" height="242.0" style="box-sizing: inherit;"/></clipPath><clipPath id="plotRect769990" style="box-sizing: inherit;"><rect x="-1.0" y="-1.0" width="1236.6" height="242.0" style="box-sizing: inherit;"/></clipPath><g class="wj-chart-annotationlayer" transform="translate(73.96875, 45)" style="box-sizing: inherit;" clip-path="url(#plotRect769990)"/></svg>