<svg xmlns="http://www.w3.org/2000/svg" width="1333" height="345" style="box-sizing: inherit; font-family: Calibri;"><rect id="backgroundRect" width="100%" height="100%" x="0" y="0" fill="rgb(255,255,255)" fill-opacity="1" visibility="visible" style="box-sizing: inherit; fill: rgb(255, 255, 255); fill-opacity: 1;"/><defs style="box-sizing: inherit;"/><clipPath id="chartRect74520" style="box-sizing: inherit;"><rect x="-1.0" y="-1.0" width="1330.0" height="339.0" style="box-sizing: inherit;"/></clipPath><g class="wj-header" style="box-sizing: inherit; background: rgb(238, 238, 238); color: rgb(68, 68, 68); font-weight: 700;" clip-path="url(#chartRect74520)"><text x="452.9" y="23.0" fill="rgb(68,68,68)" class="wj-title" fill-opacity="1" style="box-sizing: inherit; cursor: default; font-size: 16pt; font-family: &apos;Segoe UI&apos;; font-style: normal; font-weight: normal; fill: rgb(68, 68, 68); fill-opacity: 1;">Profile Graph Curvatu_1m_InterpolateShape4</text></g><g class="wj-footer" style="box-sizing: inherit;" clip-path="url(#chartRect74520)"/><clipPath id="legRect723928" style="box-sizing: inherit;"><rect x="1327.0" y="181.5" width="2.0" height="2.0" style="box-sizing: inherit;"/></clipPath><g class="wj-legend" style="box-sizing: inherit;" clip-path="url(#legRect723928)"/><g class="wj-plot-area" style="box-sizing: inherit;"><rect fill="#000000" stroke-width="1" x="78.7" y="45.0" width="1229.9" height="240.0" fill-opacity="0" style="box-sizing: inherit;"/></g><g class="wj-axis-x" style="box-sizing: inherit;" clip-path="url(#chartRect74520)"><text x="75.1" y="308.0" fill="rgb(68,68,68)" class="wj-label" fill-opacity="1" style="box-sizing: inherit; cursor: default; font-size: 10pt; font-family: &apos;Segoe UI&apos;; font-style: normal; font-weight: normal; fill: rgb(68, 68, 68); fill-opacity: 1;">0</text><line stroke="#666" stroke-width="1" x1="78.7" x2="78.7" y1="285.0" y2="289.0" class="wj-tick" style="box-sizing: inherit; stroke: rgb(170, 170, 170); stroke-width: 1px;"/><text x="125.4" y="308.0" fill="rgb(68,68,68)" class="wj-label" fill-opacity="1" style="box-sizing: inherit; cursor: default; font-size: 10pt; font-family: &apos;Segoe UI&apos;; font-style: normal; font-weight: normal; fill: rgb(68, 68, 68); fill-opacity: 1;">20</text><line stroke="#666" stroke-width="1" x1="132.5" x2="132.5" y1="285.0" y2="289.0" class="wj-tick" style="box-sizing: inherit; stroke: rgb(170, 170, 170); stroke-width: 1px;"/><text x="178.7" y="308.0" fill="rgb(68,68,68)" class="wj-label" fill-opacity="1" style="box-sizing: inherit; cursor: default; font-size: 10pt; font-family: &apos;Segoe UI&apos;; font-style: normal; font-weight: normal; fill: rgb(68, 68, 68); fill-opacity: 1;">40</text><line stroke="#666" stroke-width="1" x1="186.4" x2="186.4" y1="285.0" y2="289.0" class="wj-tick" style="box-sizing: inherit; stroke: rgb(170, 170, 170); stroke-width: 1px;"/><text x="233.0" y="308.0" fill="rgb(68,68,68)" class="wj-label" fill-opacity="1" style="box-sizing: inherit; cursor: default; font-size: 10pt; font-family: &apos;Segoe UI&apos;; font-style: normal; font-weight: normal; fill: rgb(68, 68, 68); fill-opacity: 1;">60</text><line stroke="#666" stroke-width="1" x1="240.2" x2="240.2" y1="285.0" y2="289.0" class="wj-tick" style="box-sizing: inherit; stroke: rgb(170, 170, 170); stroke-width: 1px;"/><text x="286.9" y="308.0" fill="rgb(68,68,68)" class="wj-label" fill-opacity="1" style="box-sizing: inherit; cursor: default; font-size: 10pt; font-family: &apos;Segoe UI&apos;; font-style: normal; font-weight: normal; fill: rgb(68, 68, 68); fill-opacity: 1;">80</text><line stroke="#666" stroke-width="1" x1="294.0" x2="294.0" y1="285.0" y2="289.0" class="wj-tick" style="box-sizing: inherit; stroke: rgb(170, 170, 170); stroke-width: 1px;"/><text x="337.1" y="308.0" fill="rgb(68,68,68)" class="wj-label" fill-opacity="1" style="box-sizing: inherit; cursor: default; font-size: 10pt; font-family: &apos;Segoe UI&apos;; font-style: normal; font-weight: normal; fill: rgb(68, 68, 68); fill-opacity: 1;">100</text><line stroke="#666" stroke-width="1" x1="347.9" x2="347.9" y1="285.0" y2="289.0" class="wj-tick" style="box-sizing: inherit; stroke: rgb(170, 170, 170); stroke-width: 1px;"/><text x="390.9" y="308.0" fill="rgb(68,68,68)" class="wj-label" fill-opacity="1" style="box-sizing: inherit; cursor: default; font-size: 10pt; font-family: &apos;Segoe UI&apos;; font-style: normal; font-weight: normal; fill: rgb(68, 68, 68); fill-opacity: 1;">120</text><line stroke="#666" stroke-width="1" x1="401.7" x2="401.7" y1="285.0" y2="289.0" class="wj-tick" style="box-sizing: inherit; stroke: rgb(170, 170, 170); stroke-width: 1px;"/><text x="444.7" y="308.0" fill="rgb(68,68,68)" class="wj-label" fill-opacity="1" style="box-sizing: inherit; cursor: default; font-size: 10pt; font-family: &apos;Segoe UI&apos;; font-style: normal; font-weight: normal; fill: rgb(68, 68, 68); fill-opacity: 1;">140</text><line stroke="#666" stroke-width="1" x1="455.5" x2="455.5" y1="285.0" y2="289.0" class="wj-tick" style="box-sizing: inherit; stroke: rgb(170, 170, 170); stroke-width: 1px;"/><text x="498.6" y="308.0" fill="rgb(68,68,68)" class="wj-label" fill-opacity="1" style="box-sizing: inherit; cursor: default; font-size: 10pt; font-family: &apos;Segoe UI&apos;; font-style: normal; font-weight: normal; fill: rgb(68, 68, 68); fill-opacity: 1;">160</text><line stroke="#666" stroke-width="1" x1="509.4" x2="509.4" y1="285.0" y2="289.0" class="wj-tick" style="box-sizing: inherit; stroke: rgb(170, 170, 170); stroke-width: 1px;"/><text x="552.4" y="308.0" fill="rgb(68,68,68)" class="wj-label" fill-opacity="1" style="box-sizing: inherit; cursor: default; font-size: 10pt; font-family: &apos;Segoe UI&apos;; font-style: normal; font-weight: normal; fill: rgb(68, 68, 68); fill-opacity: 1;">180</text><line stroke="#666" stroke-width="1" x1="563.2" x2="563.2" y1="285.0" y2="289.0" class="wj-tick" style="box-sizing: inherit; stroke: rgb(170, 170, 170); stroke-width: 1px;"/><text x="606.2" y="308.0" fill="rgb(68,68,68)" class="wj-label" fill-opacity="1" style="box-sizing: inherit; cursor: default; font-size: 10pt; font-family: &apos;Segoe UI&apos;; font-style: normal; font-weight: normal; fill: rgb(68, 68, 68); fill-opacity: 1;">200</text><line stroke="#666" stroke-width="1" x1="617.0" x2="617.0" y1="285.0" y2="289.0" class="wj-tick" style="box-sizing: inherit; stroke: rgb(170, 170, 170); stroke-width: 1px;"/><text x="660.1" y="308.0" fill="rgb(68,68,68)" class="wj-label" fill-opacity="1" style="box-sizing: inherit; cursor: default; font-size: 10pt; font-family: &apos;Segoe UI&apos;; font-style: normal; font-weight: normal; fill: rgb(68, 68, 68); fill-opacity: 1;">220</text><line stroke="#666" stroke-width="1" x1="670.9" x2="670.9" y1="285.0" y2="289.0" class="wj-tick" style="box-sizing: inherit; stroke: rgb(170, 170, 170); stroke-width: 1px;"/><text x="713.9" y="308.0" fill="rgb(68,68,68)" class="wj-label" fill-opacity="1" style="box-sizing: inherit; cursor: default; font-size: 10pt; font-family: &apos;Segoe UI&apos;; font-style: normal; font-weight: normal; fill: rgb(68, 68, 68); fill-opacity: 1;">240</text><line stroke="#666" stroke-width="1" x1="724.7" x2="724.7" y1="285.0" y2="289.0" class="wj-tick" style="box-sizing: inherit; stroke: rgb(170, 170, 170); stroke-width: 1px;"/><text x="767.7" y="308.0" fill="rgb(68,68,68)" class="wj-label" fill-opacity="1" style="box-sizing: inherit; cursor: default; font-size: 10pt; font-family: &apos;Segoe UI&apos;; font-style: normal; font-weight: normal; fill: rgb(68, 68, 68); fill-opacity: 1;">260</text><line stroke="#666" stroke-width="1" x1="778.5" x2="778.5" y1="285.0" y2="289.0" class="wj-tick" style="box-sizing: inherit; stroke: rgb(170, 170, 170); stroke-width: 1px;"/><text x="821.6" y="308.0" fill="rgb(68,68,68)" class="wj-label" fill-opacity="1" style="box-sizing: inherit; cursor: default; font-size: 10pt; font-family: &apos;Segoe UI&apos;; font-style: normal; font-weight: normal; fill: rgb(68, 68, 68); fill-opacity: 1;">280</text><line stroke="#666" stroke-width="1" x1="832.3" x2="832.3" y1="285.0" y2="289.0" class="wj-tick" style="box-sizing: inherit; stroke: rgb(170, 170, 170); stroke-width: 1px;"/><text x="875.4" y="308.0" fill="rgb(68,68,68)" class="wj-label" fill-opacity="1" style="box-sizing: inherit; cursor: default; font-size: 10pt; font-family: &apos;Segoe UI&apos;; font-style: normal; font-weight: normal; fill: rgb(68, 68, 68); fill-opacity: 1;">300</text><line stroke="#666" stroke-width="1" x1="886.2" x2="886.2" y1="285.0" y2="289.0" class="wj-tick" style="box-sizing: inherit; stroke: rgb(170, 170, 170); stroke-width: 1px;"/><text x="929.2" y="308.0" fill="rgb(68,68,68)" class="wj-label" fill-opacity="1" style="box-sizing: inherit; cursor: default; font-size: 10pt; font-family: &apos;Segoe UI&apos;; font-style: normal; font-weight: normal; fill: rgb(68, 68, 68); fill-opacity: 1;">320</text><line stroke="#666" stroke-width="1" x1="940.0" x2="940.0" y1="285.0" y2="289.0" class="wj-tick" style="box-sizing: inherit; stroke: rgb(170, 170, 170); stroke-width: 1px;"/><text x="983.0" y="308.0" fill="rgb(68,68,68)" class="wj-label" fill-opacity="1" style="box-sizing: inherit; cursor: default; font-size: 10pt; font-family: &apos;Segoe UI&apos;; font-style: normal; font-weight: normal; fill: rgb(68, 68, 68); fill-opacity: 1;">340</text><line stroke="#666" stroke-width="1" x1="993.8" x2="993.8" y1="285.0" y2="289.0" class="wj-tick" style="box-sizing: inherit; stroke: rgb(170, 170, 170); stroke-width: 1px;"/><text x="1036.9" y="308.0" fill="rgb(68,68,68)" class="wj-label" fill-opacity="1" style="box-sizing: inherit; cursor: default; font-size: 10pt; font-family: &apos;Segoe UI&apos;; font-style: normal; font-weight: normal; fill: rgb(68, 68, 68); fill-opacity: 1;">360</text><line stroke="#666" stroke-width="1" x1="1047.7" x2="1047.7" y1="285.0" y2="289.0" class="wj-tick" style="box-sizing: inherit; stroke: rgb(170, 170, 170); stroke-width: 1px;"/><text x="1090.7" y="308.0" fill="rgb(68,68,68)" class="wj-label" fill-opacity="1" style="box-sizing: inherit; cursor: default; font-size: 10pt; font-family: &apos;Segoe UI&apos;; font-style: normal; font-weight: normal; fill: rgb(68, 68, 68); fill-opacity: 1;">380</text><line stroke="#666" stroke-width="1" x1="1101.5" x2="1101.5" y1="285.0" y2="289.0" class="wj-tick" style="box-sizing: inherit; stroke: rgb(170, 170, 170); stroke-width: 1px;"/><text x="1144.0" y="308.0" fill="rgb(68,68,68)" class="wj-label" fill-opacity="1" style="box-sizing: inherit; cursor: default; font-size: 10pt; font-family: &apos;Segoe UI&apos;; font-style: normal; font-weight: normal; fill: rgb(68, 68, 68); fill-opacity: 1;">400</text><line stroke="#666" stroke-width="1" x1="1155.3" x2="1155.3" y1="285.0" y2="289.0" class="wj-tick" style="box-sizing: inherit; stroke: rgb(170, 170, 170); stroke-width: 1px;"/><text x="1197.9" y="308.0" fill="rgb(68,68,68)" class="wj-label" fill-opacity="1" style="box-sizing: inherit; cursor: default; font-size: 10pt; font-family: &apos;Segoe UI&apos;; font-style: normal; font-weight: normal; fill: rgb(68, 68, 68); fill-opacity: 1;">420</text><line stroke="#666" stroke-width="1" x1="1209.2" x2="1209.2" y1="285.0" y2="289.0" class="wj-tick" style="box-sizing: inherit; stroke: rgb(170, 170, 170); stroke-width: 1px;"/><text x="1251.7" y="308.0" fill="rgb(68,68,68)" class="wj-label" fill-opacity="1" style="box-sizing: inherit; cursor: default; font-size: 10pt; font-family: &apos;Segoe UI&apos;; font-style: normal; font-weight: normal; fill: rgb(68, 68, 68); fill-opacity: 1;">440</text><line stroke="#666" stroke-width="1" x1="1263.0" x2="1263.0" y1="285.0" y2="289.0" class="wj-tick" style="box-sizing: inherit; stroke: rgb(170, 170, 170); stroke-width: 1px;"/><line stroke="rgb(156,156,156)" stroke-width="1px" x1="78.7" x2="1308.6" y1="285.0" y2="285.0" class="wj-line" stroke-opacity="1" stroke-dasharray="none" style="box-sizing: inherit; stroke: rgb(156, 156, 156); stroke-opacity: 1; stroke-width: 1px; stroke-dasharray: none;"/><text x="630.6" y="333.0" fill="rgb(68,68,68)" class="wj-title" fill-opacity="1" style="box-sizing: inherit; cursor: default; font-size: 12pt; font-family: &apos;Segoe UI&apos;; font-style: normal; font-weight: normal; fill: rgb(68, 68, 68); fill-opacity: 1;">Horizontal Distance</text></g><g class="wj-axis-y" style="box-sizing: inherit;" clip-path="url(#chartRect74520)"><line stroke="rgb(225,225,225)" stroke-width="1px" x1="78.7" x2="1308.6" y1="260.1" y2="260.1" class="wj-gridline" stroke-opacity="1" stroke-dasharray="none" style="box-sizing: inherit; opacity: 0.75; stroke: rgb(225, 225, 225); stroke-opacity: 1; stroke-width: 1px; stroke-dasharray: none;"/><text x="34.1" y="265.6" fill="rgb(68,68,68)" class="wj-label" fill-opacity="1" style="box-sizing: inherit; cursor: default; font-size: 10pt; font-family: &apos;Segoe UI&apos;; font-style: normal; font-weight: normal; fill: rgb(68, 68, 68); fill-opacity: 1;">1,560</text><line stroke="rgb(225,225,225)" stroke-width="1px" x1="78.7" x2="1308.6" y1="232.6" y2="232.6" class="wj-gridline" stroke-opacity="1" stroke-dasharray="none" style="box-sizing: inherit; opacity: 0.75; stroke: rgb(225, 225, 225); stroke-opacity: 1; stroke-width: 1px; stroke-dasharray: none;"/><text x="34.1" y="238.1" fill="rgb(68,68,68)" class="wj-label" fill-opacity="1" style="box-sizing: inherit; cursor: default; font-size: 10pt; font-family: &apos;Segoe UI&apos;; font-style: normal; font-weight: normal; fill: rgb(68, 68, 68); fill-opacity: 1;">1,570</text><line stroke="rgb(225,225,225)" stroke-width="1px" x1="78.7" x2="1308.6" y1="205.1" y2="205.1" class="wj-gridline" stroke-opacity="1" stroke-dasharray="none" style="box-sizing: inherit; opacity: 0.75; stroke: rgb(225, 225, 225); stroke-opacity: 1; stroke-width: 1px; stroke-dasharray: none;"/><text x="34.1" y="210.6" fill="rgb(68,68,68)" class="wj-label" fill-opacity="1" style="box-sizing: inherit; cursor: default; font-size: 10pt; font-family: &apos;Segoe UI&apos;; font-style: normal; font-weight: normal; fill: rgb(68, 68, 68); fill-opacity: 1;">1,580</text><line stroke="rgb(225,225,225)" stroke-width="1px" x1="78.7" x2="1308.6" y1="177.6" y2="177.6" class="wj-gridline" stroke-opacity="1" stroke-dasharray="none" style="box-sizing: inherit; opacity: 0.75; stroke: rgb(225, 225, 225); stroke-opacity: 1; stroke-width: 1px; stroke-dasharray: none;"/><text x="34.1" y="183.1" fill="rgb(68,68,68)" class="wj-label" fill-opacity="1" style="box-sizing: inherit; cursor: default; font-size: 10pt; font-family: &apos;Segoe UI&apos;; font-style: normal; font-weight: normal; fill: rgb(68, 68, 68); fill-opacity: 1;">1,590</text><line stroke="rgb(225,225,225)" stroke-width="1px" x1="78.7" x2="1308.6" y1="150.0" y2="150.0" class="wj-gridline" stroke-opacity="1" stroke-dasharray="none" style="box-sizing: inherit; opacity: 0.75; stroke: rgb(225, 225, 225); stroke-opacity: 1; stroke-width: 1px; stroke-dasharray: none;"/><text x="34.1" y="155.5" fill="rgb(68,68,68)" class="wj-label" fill-opacity="1" style="box-sizing: inherit; cursor: default; font-size: 10pt; font-family: &apos;Segoe UI&apos;; font-style: normal; font-weight: normal; fill: rgb(68, 68, 68); fill-opacity: 1;">1,600</text><line stroke="rgb(225,225,225)" stroke-width="1px" x1="78.7" x2="1308.6" y1="122.5" y2="122.5" class="wj-gridline" stroke-opacity="1" stroke-dasharray="none" style="box-sizing: inherit; opacity: 0.75; stroke: rgb(225, 225, 225); stroke-opacity: 1; stroke-width: 1px; stroke-dasharray: none;"/><text x="34.1" y="128.0" fill="rgb(68,68,68)" class="wj-label" fill-opacity="1" style="box-sizing: inherit; cursor: default; font-size: 10pt; font-family: &apos;Segoe UI&apos;; font-style: normal; font-weight: normal; fill: rgb(68, 68, 68); fill-opacity: 1;">1,610</text><line stroke="rgb(225,225,225)" stroke-width="1px" x1="78.7" x2="1308.6" y1="95.0" y2="95.0" class="wj-gridline" stroke-opacity="1" stroke-dasharray="none" style="box-sizing: inherit; opacity: 0.75; stroke: rgb(225, 225, 225); stroke-opacity: 1; stroke-width: 1px; stroke-dasharray: none;"/><text x="34.1" y="100.5" fill="rgb(68,68,68)" class="wj-label" fill-opacity="1" style="box-sizing: inherit; cursor: default; font-size: 10pt; font-family: &apos;Segoe UI&apos;; font-style: normal; font-weight: normal; fill: rgb(68, 68, 68); fill-opacity: 1;">1,620</text><line stroke="rgb(225,225,225)" stroke-width="1px" x1="78.7" x2="1308.6" y1="67.4" y2="67.4" class="wj-gridline" stroke-opacity="1" stroke-dasharray="none" style="box-sizing: inherit; opacity: 0.75; stroke: rgb(225, 225, 225); stroke-opacity: 1; stroke-width: 1px; stroke-dasharray: none;"/><text x="34.1" y="72.9" fill="rgb(68,68,68)" class="wj-label" fill-opacity="1" style="box-sizing: inherit; cursor: default; font-size: 10pt; font-family: &apos;Segoe UI&apos;; font-style: normal; font-weight: normal; fill: rgb(68, 68, 68); fill-opacity: 1;">1,630</text><g transform="rotate(-90.0,10.5,165.0)" style="box-sizing: inherit;"><text x="-21.4" y="171.5" fill="rgb(68,68,68)" class="wj-title" fill-opacity="1" style="box-sizing: inherit; cursor: default; font-size: 12pt; font-family: &apos;Segoe UI&apos;; font-style: normal; font-weight: normal; fill: rgb(68, 68, 68); fill-opacity: 1;">Elevation</text></g><line stroke="rgb(156,156,156)" stroke-width="1px" x1="78.7" x2="78.7" y1="45.0" y2="285.0" class="wj-line" stroke-opacity="0" stroke-dasharray="none" style="box-sizing: inherit; stroke: rgb(156, 156, 156); stroke-opacity: 0; stroke-width: 1px; stroke-dasharray: none;"/></g><g class="wj-series-group" style="box-sizing: inherit;"><g style="box-sizing: inherit;"><polyline stroke="rgb(50,168,130)" stroke-width="1.35" fill="none" points="78.7,285.0 81.4,284.8 84.1,284.9 86.7,285.0 89.4,285.0 92.1,284.8 94.8,284.5 97.4,284.2 100.1,283.7 102.8,283.1 105.5,282.2 108.1,281.0 110.8,279.7 113.5,278.4 116.2,276.9 118.8,275.4 121.5,273.9 124.2,272.4 126.9,271.0 129.5,269.6 132.2,268.1 134.9,266.3 137.6,263.9 140.2,261.7 142.9,260.1 145.6,258.7 148.3,257.3 150.9,256.0 153.6,254.8 156.3,253.5 159.0,252.1 161.6,250.9 164.3,249.8 167.0,248.6 169.7,247.4 172.3,245.9 175.0,244.4 177.7,243.0 180.4,242.0 183.0,241.0 185.7,240.0 188.4,238.7 191.0,237.4 193.7,235.9 196.4,234.0 199.1,231.6 201.7,229.3 204.4,227.4 207.1,225.9 209.8,224.5 212.4,223.0 215.1,221.5 217.8,220.1 220.5,218.9 223.1,217.7 225.8,216.3 228.5,214.5 231.2,211.8 233.8,209.0 236.5,207.1 239.2,206.1 241.9,205.6 244.5,205.1 247.2,204.7 249.9,204.4 252.6,203.9 255.3,203.6 257.9,203.2 260.6,202.7 263.3,202.2 266.0,201.9 268.7,201.6 271.4,201.4 274.1,201.1 276.7,200.7 279.4,200.5 282.1,200.3 284.8,200.1 287.5,200.0 290.2,199.9 292.9,199.8 295.6,199.6 298.2,199.2 300.9,198.9 303.6,198.7 306.3,198.5 309.0,198.4 311.7,198.2 314.4,198.1 317.1,197.9 319.7,197.8 322.4,197.6 325.1,197.4 327.8,197.2 330.5,196.9 333.2,196.6 335.9,196.3 338.5,196.0 341.2,195.8 343.9,195.6 346.6,195.5 349.3,195.3 352.0,195.0 354.7,194.8 357.4,194.5 360.0,193.9 362.7,193.5 365.4,193.3 368.1,193.2 370.8,193.0 373.5,192.8 376.2,192.7 378.9,192.4 381.5,192.2 384.2,191.9 386.9,191.6 389.6,191.3 392.3,191.1 395.0,190.9 397.7,190.8 400.4,190.6 403.0,190.2 405.7,189.8 408.4,189.5 411.1,189.1 413.8,188.7 416.5,188.2 419.2,187.8 421.8,187.5 424.5,187.3 427.2,187.0 429.9,186.6 432.6,186.1 435.3,185.7 438.0,185.1 440.7,184.5 443.3,183.9 446.0,183.3 448.7,182.9 451.4,182.6 454.1,182.3 456.8,181.8 459.5,181.3 462.2,180.8 464.8,180.2 467.5,179.5 470.2,178.7 472.9,178.3 475.6,177.9 478.3,177.5 481.0,177.1 483.7,176.8 486.3,176.4 489.0,176.0 491.7,175.6 494.4,175.2 497.1,174.9 499.8,174.5 502.5,174.2 505.1,173.9 507.8,173.6 510.5,173.2 513.2,172.8 515.9,172.3 518.6,172.0 521.3,171.7 524.0,171.3 526.6,170.9 529.3,170.5 532.0,170.2 534.7,169.9 537.4,169.6 540.1,169.2 542.8,168.9 545.5,168.5 548.1,168.2 550.8,167.8 553.5,167.4 556.2,167.1 558.9,166.7 561.6,166.4 564.3,166.1 567.0,165.8 569.6,165.4 572.3,165.1 575.0,164.8 577.7,164.5 580.4,164.1 583.1,163.8 585.8,163.6 588.4,163.4 591.1,163.2 593.8,162.9 596.5,162.6 599.2,162.1 601.9,161.7 604.6,161.3 607.3,160.9 609.9,160.6 612.6,160.3 615.3,159.9 618.0,159.5 620.7,159.2 623.4,158.9 626.1,158.6 628.8,158.1 631.4,157.6 634.1,157.2 636.8,156.9 639.5,156.5 642.2,156.1 644.9,155.8 647.6,155.3 650.3,154.9 652.9,154.5 655.6,154.1 658.3,153.7 661.0,153.3 663.7,152.9 666.4,152.5 669.1,152.2 671.7,151.8 674.4,151.4 677.1,150.9 679.8,150.4 682.5,149.9 685.2,149.4 687.9,148.8 690.6,148.2 693.2,147.7 695.9,147.3 698.6,146.8 701.3,146.4 704.0,146.0 706.7,145.7 709.4,145.4 712.1,145.0 714.7,144.5 717.4,144.0 720.1,143.6 722.8,143.3 725.5,142.8 728.2,142.4 730.9,142.1 733.6,141.9 736.2,141.6 738.9,141.1 741.6,140.6 744.3,140.1 747.0,139.7 749.7,139.3 752.4,139.0 755.0,138.5 757.7,138.1 760.4,137.7 763.1,137.2 765.8,136.9 768.5,136.6 771.2,136.4 773.9,136.0 776.5,135.6 779.2,135.1 781.9,134.5 784.6,134.0 787.3,133.6 790.0,133.2 792.7,132.9 795.4,132.5 798.0,132.1 800.7,131.7 803.4,131.3 806.1,130.8 808.8,130.3 811.5,129.8 814.2,129.4 816.9,128.9 819.5,128.4 822.2,127.9 824.9,127.4 827.6,127.0 830.3,126.6 833.0,126.2 835.7,125.8 838.3,125.3 841.0,124.7 843.7,124.1 846.4,123.7 849.1,123.3 851.8,122.9 854.5,122.6 857.2,122.2 859.8,121.7 862.5,121.1 865.2,120.6 867.9,120.2 870.6,119.7 873.3,119.4 876.0,119.1 878.7,118.8 881.3,118.3 884.0,117.6 886.7,116.7 889.4,115.6 892.1,114.7 894.8,114.2 897.5,113.7 900.1,113.2 902.8,112.7 905.5,112.1 908.2,111.5 910.9,110.8 913.6,110.1 916.3,109.5 919.0,109.0 921.6,108.4 924.3,107.9 927.0,107.4 929.7,106.8 932.4,106.1 935.1,105.3 937.8,104.5 940.5,103.8 943.1,103.2 945.8,102.6 948.5,102.0 951.2,101.4 953.9,100.9 956.6,100.4 959.3,99.9 962.0,99.2 964.6,98.5 967.3,97.7 970.0,97.0 972.7,96.4 975.4,95.7 978.1,94.9 980.8,94.3 983.4,93.7 986.1,93.0 988.8,92.3 991.5,91.5 994.2,90.6 996.9,89.8 999.6,89.2 1002.3,88.7 1004.9,88.3 1007.6,87.9 1010.3,87.6 1013.0,87.2 1015.7,86.7 1018.4,86.1 1021.1,85.4 1023.8,84.4 1026.4,83.4 1029.1,82.7 1031.8,82.2 1034.5,81.7 1037.2,81.2 1039.9,80.7 1042.6,80.1 1045.3,79.5 1047.9,78.9 1050.6,78.2 1053.3,77.5 1056.0,76.8 1058.7,76.1 1061.4,75.5 1064.1,74.9 1066.7,74.3 1069.4,73.6 1072.1,73.1 1074.8,72.6 1077.5,72.1 1080.2,71.5 1082.9,70.7 1085.6,69.9 1088.2,69.3 1090.9,68.8 1093.6,68.6 1096.3,68.3 1099.0,68.0 1101.7,67.6 1104.4,67.1 1107.1,66.5 1109.7,65.9 1112.4,65.2 1115.1,64.5 1117.8,63.7 1120.5,62.9 1123.2,62.0 1125.9,61.3 1128.6,60.6 1131.2,59.9 1133.9,59.2 1136.6,58.9 1139.3,58.5 1142.0,58.0 1144.7,57.4 1147.4,57.0 1150.0,56.7 1152.7,56.3 1155.4,55.8 1158.1,55.3 1160.8,54.9 1163.5,54.6 1166.2,54.3 1168.9,54.0 1171.5,53.7 1174.2,53.4 1176.9,53.2 1179.6,52.9 1182.3,52.6 1185.0,52.3 1187.7,52.0 1190.4,51.6 1193.0,51.3 1195.7,50.8 1198.4,50.4 1201.1,50.0 1203.8,49.6 1206.5,49.3 1209.2,49.1 1211.9,48.9 1214.5,48.7 1217.2,48.7 1219.9,48.6 1222.6,48.4 1225.3,48.1 1228.0,48.0 1230.7,47.8 1233.3,47.7 1236.0,47.5 1238.7,47.3 1241.4,47.2 1244.1,47.0 1246.8,46.8 1249.5,46.6 1252.2,46.4 1254.8,46.2 1257.5,46.1 1260.2,46.0 1262.9,45.9 1265.6,45.8 1268.3,45.7 1271.0,45.7 1273.7,45.7 1276.3,45.6 1279.0,45.4 1281.7,45.3 1284.4,45.2 1287.1,45.2 1289.8,45.1 1292.5,45.1 1295.2,45.0 1297.8,45.0 1300.5,45.0 1303.2,45.0 1305.9,45.0 1308.6,45.0 " clip-path="url(#plotRect764009)" style="box-sizing: inherit; stroke-width: 1.35;" stroke-opacity="1"/></g></g><clipPath id="plotRect764009" style="box-sizing: inherit;"><rect x="77.7" y="44.0" width="1231.9" height="242.0" style="box-sizing: inherit;"/></clipPath><clipPath id="plotRect299384" style="box-sizing: inherit;"><rect x="-1.0" y="-1.0" width="1231.9" height="242.0" style="box-sizing: inherit;"/></clipPath><g class="wj-chart-annotationlayer" transform="translate(78.71875, 45)" style="box-sizing: inherit;" clip-path="url(#plotRect299384)"/></svg>