<svg xmlns="http://www.w3.org/2000/svg" width="1333" height="345" style="box-sizing: inherit; font-family: Calibri;"><rect id="backgroundRect" width="100%" height="100%" x="0" y="0" fill="rgb(255,255,255)" fill-opacity="1" visibility="visible" style="box-sizing: inherit; fill: rgb(255, 255, 255); fill-opacity: 1;"/><defs style="box-sizing: inherit;"/><clipPath id="chartRect133994" style="box-sizing: inherit;"><rect x="-1.0" y="-1.0" width="1330.0" height="339.0" style="box-sizing: inherit;"/></clipPath><g class="wj-header" style="box-sizing: inherit; background: rgb(238, 238, 238); color: rgb(68, 68, 68); font-weight: 700;" clip-path="url(#chartRect133994)"><text x="452.9" y="23.0" fill="rgb(68,68,68)" class="wj-title" fill-opacity="1" style="box-sizing: inherit; cursor: default; font-size: 16pt; font-family: &apos;Segoe UI&apos;; font-style: normal; font-weight: normal; fill: rgb(68, 68, 68); fill-opacity: 1;">Profile Graph Curvatu_1m_InterpolateShape3</text></g><g class="wj-footer" style="box-sizing: inherit;" clip-path="url(#chartRect133994)"/><clipPath id="legRect839399" style="box-sizing: inherit;"><rect x="1327.0" y="181.5" width="2.0" height="2.0" style="box-sizing: inherit;"/></clipPath><g class="wj-legend" style="box-sizing: inherit;" clip-path="url(#legRect839399)"/><g class="wj-plot-area" style="box-sizing: inherit;"><rect fill="#000000" stroke-width="1" x="85.9" y="45.0" width="1222.7" height="240.0" fill-opacity="0" style="box-sizing: inherit;"/></g><g class="wj-axis-x" style="box-sizing: inherit;" clip-path="url(#chartRect133994)"><text x="82.3" y="308.0" fill="rgb(68,68,68)" class="wj-label" fill-opacity="1" style="box-sizing: inherit; cursor: default; font-size: 10pt; font-family: &apos;Segoe UI&apos;; font-style: normal; font-weight: normal; fill: rgb(68, 68, 68); fill-opacity: 1;">0</text><line stroke="#666" stroke-width="1" x1="85.9" x2="85.9" y1="285.0" y2="289.0" class="wj-tick" style="box-sizing: inherit; stroke: rgb(170, 170, 170); stroke-width: 1px;"/><text x="153.2" y="308.0" fill="rgb(68,68,68)" class="wj-label" fill-opacity="1" style="box-sizing: inherit; cursor: default; font-size: 10pt; font-family: &apos;Segoe UI&apos;; font-style: normal; font-weight: normal; fill: rgb(68, 68, 68); fill-opacity: 1;">20</text><line stroke="#666" stroke-width="1" x1="160.4" x2="160.4" y1="285.0" y2="289.0" class="wj-tick" style="box-sizing: inherit; stroke: rgb(170, 170, 170); stroke-width: 1px;"/><text x="227.2" y="308.0" fill="rgb(68,68,68)" class="wj-label" fill-opacity="1" style="box-sizing: inherit; cursor: default; font-size: 10pt; font-family: &apos;Segoe UI&apos;; font-style: normal; font-weight: normal; fill: rgb(68, 68, 68); fill-opacity: 1;">40</text><line stroke="#666" stroke-width="1" x1="234.9" x2="234.9" y1="285.0" y2="289.0" class="wj-tick" style="box-sizing: inherit; stroke: rgb(170, 170, 170); stroke-width: 1px;"/><text x="302.2" y="308.0" fill="rgb(68,68,68)" class="wj-label" fill-opacity="1" style="box-sizing: inherit; cursor: default; font-size: 10pt; font-family: &apos;Segoe UI&apos;; font-style: normal; font-weight: normal; fill: rgb(68, 68, 68); fill-opacity: 1;">60</text><line stroke="#666" stroke-width="1" x1="309.4" x2="309.4" y1="285.0" y2="289.0" class="wj-tick" style="box-sizing: inherit; stroke: rgb(170, 170, 170); stroke-width: 1px;"/><text x="376.8" y="308.0" fill="rgb(68,68,68)" class="wj-label" fill-opacity="1" style="box-sizing: inherit; cursor: default; font-size: 10pt; font-family: &apos;Segoe UI&apos;; font-style: normal; font-weight: normal; fill: rgb(68, 68, 68); fill-opacity: 1;">80</text><line stroke="#666" stroke-width="1" x1="383.9" x2="383.9" y1="285.0" y2="289.0" class="wj-tick" style="box-sizing: inherit; stroke: rgb(170, 170, 170); stroke-width: 1px;"/><text x="447.7" y="308.0" fill="rgb(68,68,68)" class="wj-label" fill-opacity="1" style="box-sizing: inherit; cursor: default; font-size: 10pt; font-family: &apos;Segoe UI&apos;; font-style: normal; font-weight: normal; fill: rgb(68, 68, 68); fill-opacity: 1;">100</text><line stroke="#666" stroke-width="1" x1="458.5" x2="458.5" y1="285.0" y2="289.0" class="wj-tick" style="box-sizing: inherit; stroke: rgb(170, 170, 170); stroke-width: 1px;"/><text x="522.2" y="308.0" fill="rgb(68,68,68)" class="wj-label" fill-opacity="1" style="box-sizing: inherit; cursor: default; font-size: 10pt; font-family: &apos;Segoe UI&apos;; font-style: normal; font-weight: normal; fill: rgb(68, 68, 68); fill-opacity: 1;">120</text><line stroke="#666" stroke-width="1" x1="533.0" x2="533.0" y1="285.0" y2="289.0" class="wj-tick" style="box-sizing: inherit; stroke: rgb(170, 170, 170); stroke-width: 1px;"/><text x="596.7" y="308.0" fill="rgb(68,68,68)" class="wj-label" fill-opacity="1" style="box-sizing: inherit; cursor: default; font-size: 10pt; font-family: &apos;Segoe UI&apos;; font-style: normal; font-weight: normal; fill: rgb(68, 68, 68); fill-opacity: 1;">140</text><line stroke="#666" stroke-width="1" x1="607.5" x2="607.5" y1="285.0" y2="289.0" class="wj-tick" style="box-sizing: inherit; stroke: rgb(170, 170, 170); stroke-width: 1px;"/><text x="671.2" y="308.0" fill="rgb(68,68,68)" class="wj-label" fill-opacity="1" style="box-sizing: inherit; cursor: default; font-size: 10pt; font-family: &apos;Segoe UI&apos;; font-style: normal; font-weight: normal; fill: rgb(68, 68, 68); fill-opacity: 1;">160</text><line stroke="#666" stroke-width="1" x1="682.0" x2="682.0" y1="285.0" y2="289.0" class="wj-tick" style="box-sizing: inherit; stroke: rgb(170, 170, 170); stroke-width: 1px;"/><text x="745.7" y="308.0" fill="rgb(68,68,68)" class="wj-label" fill-opacity="1" style="box-sizing: inherit; cursor: default; font-size: 10pt; font-family: &apos;Segoe UI&apos;; font-style: normal; font-weight: normal; fill: rgb(68, 68, 68); fill-opacity: 1;">180</text><line stroke="#666" stroke-width="1" x1="756.5" x2="756.5" y1="285.0" y2="289.0" class="wj-tick" style="box-sizing: inherit; stroke: rgb(170, 170, 170); stroke-width: 1px;"/><text x="820.2" y="308.0" fill="rgb(68,68,68)" class="wj-label" fill-opacity="1" style="box-sizing: inherit; cursor: default; font-size: 10pt; font-family: &apos;Segoe UI&apos;; font-style: normal; font-weight: normal; fill: rgb(68, 68, 68); fill-opacity: 1;">200</text><line stroke="#666" stroke-width="1" x1="831.0" x2="831.0" y1="285.0" y2="289.0" class="wj-tick" style="box-sizing: inherit; stroke: rgb(170, 170, 170); stroke-width: 1px;"/><text x="894.7" y="308.0" fill="rgb(68,68,68)" class="wj-label" fill-opacity="1" style="box-sizing: inherit; cursor: default; font-size: 10pt; font-family: &apos;Segoe UI&apos;; font-style: normal; font-weight: normal; fill: rgb(68, 68, 68); fill-opacity: 1;">220</text><line stroke="#666" stroke-width="1" x1="905.5" x2="905.5" y1="285.0" y2="289.0" class="wj-tick" style="box-sizing: inherit; stroke: rgb(170, 170, 170); stroke-width: 1px;"/><text x="969.2" y="308.0" fill="rgb(68,68,68)" class="wj-label" fill-opacity="1" style="box-sizing: inherit; cursor: default; font-size: 10pt; font-family: &apos;Segoe UI&apos;; font-style: normal; font-weight: normal; fill: rgb(68, 68, 68); fill-opacity: 1;">240</text><line stroke="#666" stroke-width="1" x1="980.0" x2="980.0" y1="285.0" y2="289.0" class="wj-tick" style="box-sizing: inherit; stroke: rgb(170, 170, 170); stroke-width: 1px;"/><text x="1043.7" y="308.0" fill="rgb(68,68,68)" class="wj-label" fill-opacity="1" style="box-sizing: inherit; cursor: default; font-size: 10pt; font-family: &apos;Segoe UI&apos;; font-style: normal; font-weight: normal; fill: rgb(68, 68, 68); fill-opacity: 1;">260</text><line stroke="#666" stroke-width="1" x1="1054.5" x2="1054.5" y1="285.0" y2="289.0" class="wj-tick" style="box-sizing: inherit; stroke: rgb(170, 170, 170); stroke-width: 1px;"/><text x="1118.3" y="308.0" fill="rgb(68,68,68)" class="wj-label" fill-opacity="1" style="box-sizing: inherit; cursor: default; font-size: 10pt; font-family: &apos;Segoe UI&apos;; font-style: normal; font-weight: normal; fill: rgb(68, 68, 68); fill-opacity: 1;">280</text><line stroke="#666" stroke-width="1" x1="1129.0" x2="1129.0" y1="285.0" y2="289.0" class="wj-tick" style="box-sizing: inherit; stroke: rgb(170, 170, 170); stroke-width: 1px;"/><text x="1192.8" y="308.0" fill="rgb(68,68,68)" class="wj-label" fill-opacity="1" style="box-sizing: inherit; cursor: default; font-size: 10pt; font-family: &apos;Segoe UI&apos;; font-style: normal; font-weight: normal; fill: rgb(68, 68, 68); fill-opacity: 1;">300</text><line stroke="#666" stroke-width="1" x1="1203.5" x2="1203.5" y1="285.0" y2="289.0" class="wj-tick" style="box-sizing: inherit; stroke: rgb(170, 170, 170); stroke-width: 1px;"/><text x="1267.3" y="308.0" fill="rgb(68,68,68)" class="wj-label" fill-opacity="1" style="box-sizing: inherit; cursor: default; font-size: 10pt; font-family: &apos;Segoe UI&apos;; font-style: normal; font-weight: normal; fill: rgb(68, 68, 68); fill-opacity: 1;">320</text><line stroke="#666" stroke-width="1" x1="1278.1" x2="1278.1" y1="285.0" y2="289.0" class="wj-tick" style="box-sizing: inherit; stroke: rgb(170, 170, 170); stroke-width: 1px;"/><line stroke="rgb(156,156,156)" stroke-width="1px" x1="85.9" x2="1308.6" y1="285.0" y2="285.0" class="wj-line" stroke-opacity="1" stroke-dasharray="none" style="box-sizing: inherit; stroke: rgb(156, 156, 156); stroke-opacity: 1; stroke-width: 1px; stroke-dasharray: none;"/><text x="634.2" y="333.0" fill="rgb(68,68,68)" class="wj-title" fill-opacity="1" style="box-sizing: inherit; cursor: default; font-size: 12pt; font-family: &apos;Segoe UI&apos;; font-style: normal; font-weight: normal; fill: rgb(68, 68, 68); fill-opacity: 1;">Horizontal Distance</text></g><g class="wj-axis-y" style="box-sizing: inherit;" clip-path="url(#chartRect133994)"><line stroke="rgb(225,225,225)" stroke-width="1px" x1="85.9" x2="1308.6" y1="273.4" y2="273.4" class="wj-gridline" stroke-opacity="1" stroke-dasharray="none" style="box-sizing: inherit; opacity: 0.75; stroke: rgb(225, 225, 225); stroke-opacity: 1; stroke-width: 1px; stroke-dasharray: none;"/><text x="41.3" y="278.9" fill="rgb(68,68,68)" class="wj-label" fill-opacity="1" style="box-sizing: inherit; cursor: default; font-size: 10pt; font-family: &apos;Segoe UI&apos;; font-style: normal; font-weight: normal; fill: rgb(68, 68, 68); fill-opacity: 1;">1,480</text><line stroke="rgb(225,225,225)" stroke-width="1px" x1="85.9" x2="1308.6" y1="240.0" y2="240.0" class="wj-gridline" stroke-opacity="1" stroke-dasharray="none" style="box-sizing: inherit; opacity: 0.75; stroke: rgb(225, 225, 225); stroke-opacity: 1; stroke-width: 1px; stroke-dasharray: none;"/><text x="41.3" y="245.5" fill="rgb(68,68,68)" class="wj-label" fill-opacity="1" style="box-sizing: inherit; cursor: default; font-size: 10pt; font-family: &apos;Segoe UI&apos;; font-style: normal; font-weight: normal; fill: rgb(68, 68, 68); fill-opacity: 1;">1,500</text><line stroke="rgb(225,225,225)" stroke-width="1px" x1="85.9" x2="1308.6" y1="206.6" y2="206.6" class="wj-gridline" stroke-opacity="1" stroke-dasharray="none" style="box-sizing: inherit; opacity: 0.75; stroke: rgb(225, 225, 225); stroke-opacity: 1; stroke-width: 1px; stroke-dasharray: none;"/><text x="41.3" y="212.1" fill="rgb(68,68,68)" class="wj-label" fill-opacity="1" style="box-sizing: inherit; cursor: default; font-size: 10pt; font-family: &apos;Segoe UI&apos;; font-style: normal; font-weight: normal; fill: rgb(68, 68, 68); fill-opacity: 1;">1,520</text><line stroke="rgb(225,225,225)" stroke-width="1px" x1="85.9" x2="1308.6" y1="173.2" y2="173.2" class="wj-gridline" stroke-opacity="1" stroke-dasharray="none" style="box-sizing: inherit; opacity: 0.75; stroke: rgb(225, 225, 225); stroke-opacity: 1; stroke-width: 1px; stroke-dasharray: none;"/><text x="41.3" y="178.7" fill="rgb(68,68,68)" class="wj-label" fill-opacity="1" style="box-sizing: inherit; cursor: default; font-size: 10pt; font-family: &apos;Segoe UI&apos;; font-style: normal; font-weight: normal; fill: rgb(68, 68, 68); fill-opacity: 1;">1,540</text><line stroke="rgb(225,225,225)" stroke-width="1px" x1="85.9" x2="1308.6" y1="139.8" y2="139.8" class="wj-gridline" stroke-opacity="1" stroke-dasharray="none" style="box-sizing: inherit; opacity: 0.75; stroke: rgb(225, 225, 225); stroke-opacity: 1; stroke-width: 1px; stroke-dasharray: none;"/><text x="41.3" y="145.3" fill="rgb(68,68,68)" class="wj-label" fill-opacity="1" style="box-sizing: inherit; cursor: default; font-size: 10pt; font-family: &apos;Segoe UI&apos;; font-style: normal; font-weight: normal; fill: rgb(68, 68, 68); fill-opacity: 1;">1,560</text><line stroke="rgb(225,225,225)" stroke-width="1px" x1="85.9" x2="1308.6" y1="106.4" y2="106.4" class="wj-gridline" stroke-opacity="1" stroke-dasharray="none" style="box-sizing: inherit; opacity: 0.75; stroke: rgb(225, 225, 225); stroke-opacity: 1; stroke-width: 1px; stroke-dasharray: none;"/><text x="41.3" y="111.9" fill="rgb(68,68,68)" class="wj-label" fill-opacity="1" style="box-sizing: inherit; cursor: default; font-size: 10pt; font-family: &apos;Segoe UI&apos;; font-style: normal; font-weight: normal; fill: rgb(68, 68, 68); fill-opacity: 1;">1,580</text><line stroke="rgb(225,225,225)" stroke-width="1px" x1="85.9" x2="1308.6" y1="73.0" y2="73.0" class="wj-gridline" stroke-opacity="1" stroke-dasharray="none" style="box-sizing: inherit; opacity: 0.75; stroke: rgb(225, 225, 225); stroke-opacity: 1; stroke-width: 1px; stroke-dasharray: none;"/><text x="41.3" y="78.5" fill="rgb(68,68,68)" class="wj-label" fill-opacity="1" style="box-sizing: inherit; cursor: default; font-size: 10pt; font-family: &apos;Segoe UI&apos;; font-style: normal; font-weight: normal; fill: rgb(68, 68, 68); fill-opacity: 1;">1,600</text><g transform="rotate(-90.0,10.5,165.0)" style="box-sizing: inherit;"><text x="-21.4" y="171.5" fill="rgb(68,68,68)" class="wj-title" fill-opacity="1" style="box-sizing: inherit; cursor: default; font-size: 12pt; font-family: &apos;Segoe UI&apos;; font-style: normal; font-weight: normal; fill: rgb(68, 68, 68); fill-opacity: 1;">Elevation</text></g><line stroke="rgb(156,156,156)" stroke-width="1px" x1="85.9" x2="85.9" y1="45.0" y2="285.0" class="wj-line" stroke-opacity="0" stroke-dasharray="none" style="box-sizing: inherit; stroke: rgb(156, 156, 156); stroke-opacity: 0; stroke-width: 1px; stroke-dasharray: none;"/></g><g class="wj-series-group" style="box-sizing: inherit;"><g style="box-sizing: inherit;"><polyline stroke="rgb(84,65,130)" stroke-width="1.35" fill="none" points="85.9,45.0 89.6,45.2 93.3,45.4 97.1,45.5 100.8,45.7 104.5,45.9 108.2,46.2 111.9,46.5 115.6,46.9 119.4,47.2 123.1,47.5 126.8,47.8 130.5,48.2 134.2,48.5 137.9,48.9 141.7,49.4 145.4,49.7 149.1,50.0 152.8,50.2 156.5,50.5 160.2,50.7 163.9,51.2 167.7,51.7 171.4,52.2 175.1,52.7 178.8,53.1 182.5,53.5 186.2,53.9 190.0,54.4 193.7,54.8 197.4,55.1 201.1,55.5 204.8,55.8 208.5,56.1 212.3,56.3 216.0,56.5 219.7,56.8 223.4,57.1 227.1,57.4 230.8,57.7 234.6,58.1 238.3,58.5 242.0,58.9 245.7,59.3 249.4,59.7 253.1,60.1 256.9,60.5 260.6,61.0 264.3,61.5 268.0,62.0 271.7,62.5 275.4,63.0 279.2,63.4 282.9,63.8 286.6,64.2 290.3,64.6 294.0,65.0 297.7,65.4 301.5,65.9 305.2,66.3 308.9,66.7 312.6,67.2 316.3,67.8 320.0,68.4 323.8,68.9 327.5,69.4 331.2,70.0 334.9,70.6 338.6,71.1 342.3,71.7 346.1,72.3 349.8,73.0 353.5,73.6 357.2,74.3 360.9,74.9 364.6,75.4 368.3,76.1 372.1,76.7 375.8,77.3 379.5,77.8 383.2,78.3 386.9,78.8 390.6,79.4 394.4,79.9 398.1,80.4 401.8,80.9 405.5,81.3 409.2,81.8 412.9,82.4 416.7,83.1 420.4,83.6 424.1,84.2 427.8,84.8 431.5,85.4 435.2,86.0 439.0,86.5 442.7,87.0 446.4,87.5 450.1,88.1 453.8,88.6 457.5,89.0 461.3,89.5 465.0,89.9 468.7,90.5 472.4,91.2 476.1,92.0 479.8,92.6 483.6,93.2 487.3,93.9 491.0,94.6 494.7,95.4 498.4,96.1 502.1,96.7 505.9,97.3 509.6,97.7 513.3,98.3 517.0,99.0 520.7,99.6 524.4,100.1 528.2,100.7 531.9,101.2 535.6,101.8 539.3,102.3 543.0,102.9 546.7,103.5 550.5,104.1 554.2,104.8 557.9,105.5 561.6,106.0 565.3,106.5 569.0,107.2 572.7,108.0 576.5,108.9 580.2,109.7 583.9,110.4 587.6,111.0 591.3,111.5 595.0,112.1 598.8,113.0 602.5,113.9 606.2,114.5 609.9,115.0 613.6,115.5 617.3,116.1 621.1,116.7 624.8,117.2 628.5,117.8 632.2,118.5 635.9,119.3 639.6,120.0 643.4,120.6 647.1,121.2 650.8,121.9 654.5,122.6 658.2,123.1 661.9,123.9 665.7,124.5 669.4,125.3 673.1,126.2 676.8,126.9 680.5,127.5 684.2,128.2 688.0,128.8 691.7,129.5 695.4,130.2 699.1,130.8 702.8,131.5 706.5,132.2 710.3,133.0 714.0,133.6 717.7,134.1 721.4,134.7 725.1,135.3 728.8,135.9 732.6,136.5 736.3,137.0 740.0,137.6 743.7,138.2 747.4,138.7 751.1,139.2 754.8,139.6 758.6,140.0 762.3,140.7 766.0,141.4 769.7,142.1 773.4,142.8 777.1,143.2 780.9,143.6 784.6,144.0 788.3,144.4 792.0,145.1 795.7,145.8 799.4,146.3 803.2,146.9 806.9,147.6 810.6,148.2 814.3,148.6 818.0,149.1 821.7,149.5 825.5,149.9 829.2,150.4 832.9,150.9 836.6,151.3 840.3,152.0 844.0,152.7 847.8,153.4 851.5,154.0 855.2,154.5 858.9,154.9 862.6,155.2 866.3,155.6 870.1,155.9 873.8,156.2 877.5,156.6 881.2,157.0 884.9,157.5 888.6,157.9 892.4,158.3 896.1,158.7 899.8,159.0 903.5,159.4 907.2,159.7 910.9,160.0 914.7,160.5 918.4,160.8 922.1,161.1 925.8,161.5 929.5,162.0 933.2,162.7 937.0,163.4 940.7,164.0 944.4,164.8 948.1,165.9 951.8,167.6 955.5,169.6 959.2,171.7 963.0,174.3 966.7,177.5 970.4,180.8 974.1,183.7 977.8,186.1 981.5,188.0 985.3,189.4 989.0,190.5 992.7,191.6 996.4,192.8 1000.1,194.3 1003.8,195.6 1007.6,196.6 1011.3,197.6 1015.0,198.8 1018.7,199.8 1022.4,200.8 1026.1,201.8 1029.9,202.9 1033.6,203.9 1037.3,205.0 1041.0,206.2 1044.7,207.5 1048.4,208.6 1052.2,209.7 1055.9,210.9 1059.6,212.0 1063.3,213.1 1067.0,214.2 1070.7,215.4 1074.5,216.6 1078.2,217.8 1081.9,219.0 1085.6,220.2 1089.3,221.3 1093.0,222.5 1096.8,223.6 1100.5,224.7 1104.2,225.9 1107.9,227.1 1111.6,228.3 1115.3,229.5 1119.1,230.6 1122.8,231.9 1126.5,233.2 1130.2,234.3 1133.9,235.5 1137.6,236.7 1141.4,237.8 1145.1,239.0 1148.8,240.2 1152.5,241.4 1156.2,242.6 1159.9,243.7 1163.6,244.8 1167.4,245.9 1171.1,247.0 1174.8,248.1 1178.5,249.2 1182.2,250.4 1185.9,251.6 1189.7,252.7 1193.4,253.8 1197.1,255.0 1200.8,256.2 1204.5,257.4 1208.2,258.5 1212.0,259.7 1215.7,261.0 1219.4,262.5 1223.1,264.1 1226.8,265.5 1230.5,266.7 1234.3,267.8 1238.0,269.1 1241.7,270.3 1245.4,271.7 1249.1,273.1 1252.8,274.4 1256.6,275.5 1260.3,276.6 1264.0,277.8 1267.7,278.7 1271.4,279.2 1275.1,279.5 1278.9,279.9 1282.6,280.3 1286.3,281.0 1290.0,282.0 1293.7,283.2 1297.4,284.3 1301.2,285.0 1304.9,285.0 1308.6,284.6 " clip-path="url(#plotRect881413)" style="box-sizing: inherit; stroke-width: 1.35;" stroke-opacity="1"/></g></g><clipPath id="plotRect881413" style="box-sizing: inherit;"><rect x="84.9" y="44.0" width="1224.7" height="242.0" style="box-sizing: inherit;"/></clipPath><clipPath id="plotRect686503" style="box-sizing: inherit;"><rect x="-1.0" y="-1.0" width="1224.7" height="242.0" style="box-sizing: inherit;"/></clipPath><g class="wj-chart-annotationlayer" transform="translate(85.90625, 45)" style="box-sizing: inherit;" clip-path="url(#plotRect686503)"/></svg>