<svg xmlns="http://www.w3.org/2000/svg" width="1451" height="838" style="box-sizing: inherit; font-family: Calibri;"><rect id="backgroundRect" width="100%" height="100%" x="0" y="0" fill="rgb(255,255,255)" fill-opacity="1" visibility="visible" style="box-sizing: inherit; fill: rgb(255, 255, 255); fill-opacity: 1;"/><defs style="box-sizing: inherit;"/><clipPath id="chartRect191654" style="box-sizing: inherit;"><rect x="-1.0" y="-1.0" width="1448.0" height="832.0" style="box-sizing: inherit;"/></clipPath><g class="wj-header" style="box-sizing: inherit; background: rgb(238, 238, 238); color: rgb(68, 68, 68); font-weight: 700;" clip-path="url(#chartRect191654)"><text x="515.4" y="23.0" fill="rgb(68,68,68)" class="wj-title" fill-opacity="1" style="box-sizing: inherit; cursor: default; font-size: 16pt; font-family: &apos;Segoe UI&apos;; font-style: normal; font-weight: normal; fill: rgb(68, 68, 68); fill-opacity: 1;">Profile Graph lc_1m_dem_InterpolateShape3</text></g><g class="wj-footer" style="box-sizing: inherit;" clip-path="url(#chartRect191654)"/><clipPath id="legRect487012" style="box-sizing: inherit;"><rect x="1445.0" y="428.0" width="2.0" height="2.0" style="box-sizing: inherit;"/></clipPath><g class="wj-legend" style="box-sizing: inherit;" clip-path="url(#legRect487012)"/><g class="wj-plot-area" style="box-sizing: inherit;"><rect fill="#000000" stroke-width="1" x="85.9" y="45.0" width="1340.7" height="733.0" fill-opacity="0" style="box-sizing: inherit;"/></g><g class="wj-axis-x" style="box-sizing: inherit;" clip-path="url(#chartRect191654)"><text x="82.3" y="801.0" fill="rgb(68,68,68)" class="wj-label" fill-opacity="1" style="box-sizing: inherit; cursor: default; font-size: 10pt; font-family: &apos;Segoe UI&apos;; font-style: normal; font-weight: normal; fill: rgb(68, 68, 68); fill-opacity: 1;">0</text><line stroke="rgb(156,156,156)" stroke-width="1px" x1="85.9" x2="85.9" y1="778.0" y2="782.0" class="wj-tick" stroke-opacity="1" stroke-dasharray="none" style="box-sizing: inherit; stroke: rgb(156, 156, 156); stroke-opacity: 1; stroke-width: 1px; stroke-dasharray: none;"/><text x="160.4" y="801.0" fill="rgb(68,68,68)" class="wj-label" fill-opacity="1" style="box-sizing: inherit; cursor: default; font-size: 10pt; font-family: &apos;Segoe UI&apos;; font-style: normal; font-weight: normal; fill: rgb(68, 68, 68); fill-opacity: 1;">20</text><line stroke="rgb(156,156,156)" stroke-width="1px" x1="167.6" x2="167.6" y1="778.0" y2="782.0" class="wj-tick" stroke-opacity="1" stroke-dasharray="none" style="box-sizing: inherit; stroke: rgb(156, 156, 156); stroke-opacity: 1; stroke-width: 1px; stroke-dasharray: none;"/><text x="241.6" y="801.0" fill="rgb(68,68,68)" class="wj-label" fill-opacity="1" style="box-sizing: inherit; cursor: default; font-size: 10pt; font-family: &apos;Segoe UI&apos;; font-style: normal; font-weight: normal; fill: rgb(68, 68, 68); fill-opacity: 1;">40</text><line stroke="rgb(156,156,156)" stroke-width="1px" x1="249.3" x2="249.3" y1="778.0" y2="782.0" class="wj-tick" stroke-opacity="1" stroke-dasharray="none" style="box-sizing: inherit; stroke: rgb(156, 156, 156); stroke-opacity: 1; stroke-width: 1px; stroke-dasharray: none;"/><text x="323.8" y="801.0" fill="rgb(68,68,68)" class="wj-label" fill-opacity="1" style="box-sizing: inherit; cursor: default; font-size: 10pt; font-family: &apos;Segoe UI&apos;; font-style: normal; font-weight: normal; fill: rgb(68, 68, 68); fill-opacity: 1;">60</text><line stroke="rgb(156,156,156)" stroke-width="1px" x1="331.0" x2="331.0" y1="778.0" y2="782.0" class="wj-tick" stroke-opacity="1" stroke-dasharray="none" style="box-sizing: inherit; stroke: rgb(156, 156, 156); stroke-opacity: 1; stroke-width: 1px; stroke-dasharray: none;"/><text x="405.5" y="801.0" fill="rgb(68,68,68)" class="wj-label" fill-opacity="1" style="box-sizing: inherit; cursor: default; font-size: 10pt; font-family: &apos;Segoe UI&apos;; font-style: normal; font-weight: normal; fill: rgb(68, 68, 68); fill-opacity: 1;">80</text><line stroke="rgb(156,156,156)" stroke-width="1px" x1="412.7" x2="412.7" y1="778.0" y2="782.0" class="wj-tick" stroke-opacity="1" stroke-dasharray="none" style="box-sizing: inherit; stroke: rgb(156, 156, 156); stroke-opacity: 1; stroke-width: 1px; stroke-dasharray: none;"/><text x="483.6" y="801.0" fill="rgb(68,68,68)" class="wj-label" fill-opacity="1" style="box-sizing: inherit; cursor: default; font-size: 10pt; font-family: &apos;Segoe UI&apos;; font-style: normal; font-weight: normal; fill: rgb(68, 68, 68); fill-opacity: 1;">100</text><line stroke="rgb(156,156,156)" stroke-width="1px" x1="494.4" x2="494.4" y1="778.0" y2="782.0" class="wj-tick" stroke-opacity="1" stroke-dasharray="none" style="box-sizing: inherit; stroke: rgb(156, 156, 156); stroke-opacity: 1; stroke-width: 1px; stroke-dasharray: none;"/><text x="565.3" y="801.0" fill="rgb(68,68,68)" class="wj-label" fill-opacity="1" style="box-sizing: inherit; cursor: default; font-size: 10pt; font-family: &apos;Segoe UI&apos;; font-style: normal; font-weight: normal; fill: rgb(68, 68, 68); fill-opacity: 1;">120</text><line stroke="rgb(156,156,156)" stroke-width="1px" x1="576.1" x2="576.1" y1="778.0" y2="782.0" class="wj-tick" stroke-opacity="1" stroke-dasharray="none" style="box-sizing: inherit; stroke: rgb(156, 156, 156); stroke-opacity: 1; stroke-width: 1px; stroke-dasharray: none;"/><text x="647.0" y="801.0" fill="rgb(68,68,68)" class="wj-label" fill-opacity="1" style="box-sizing: inherit; cursor: default; font-size: 10pt; font-family: &apos;Segoe UI&apos;; font-style: normal; font-weight: normal; fill: rgb(68, 68, 68); fill-opacity: 1;">140</text><line stroke="rgb(156,156,156)" stroke-width="1px" x1="657.8" x2="657.8" y1="778.0" y2="782.0" class="wj-tick" stroke-opacity="1" stroke-dasharray="none" style="box-sizing: inherit; stroke: rgb(156, 156, 156); stroke-opacity: 1; stroke-width: 1px; stroke-dasharray: none;"/><text x="728.7" y="801.0" fill="rgb(68,68,68)" class="wj-label" fill-opacity="1" style="box-sizing: inherit; cursor: default; font-size: 10pt; font-family: &apos;Segoe UI&apos;; font-style: normal; font-weight: normal; fill: rgb(68, 68, 68); fill-opacity: 1;">160</text><line stroke="rgb(156,156,156)" stroke-width="1px" x1="739.5" x2="739.5" y1="778.0" y2="782.0" class="wj-tick" stroke-opacity="1" stroke-dasharray="none" style="box-sizing: inherit; stroke: rgb(156, 156, 156); stroke-opacity: 1; stroke-width: 1px; stroke-dasharray: none;"/><text x="810.4" y="801.0" fill="rgb(68,68,68)" class="wj-label" fill-opacity="1" style="box-sizing: inherit; cursor: default; font-size: 10pt; font-family: &apos;Segoe UI&apos;; font-style: normal; font-weight: normal; fill: rgb(68, 68, 68); fill-opacity: 1;">180</text><line stroke="rgb(156,156,156)" stroke-width="1px" x1="821.2" x2="821.2" y1="778.0" y2="782.0" class="wj-tick" stroke-opacity="1" stroke-dasharray="none" style="box-sizing: inherit; stroke: rgb(156, 156, 156); stroke-opacity: 1; stroke-width: 1px; stroke-dasharray: none;"/><text x="892.1" y="801.0" fill="rgb(68,68,68)" class="wj-label" fill-opacity="1" style="box-sizing: inherit; cursor: default; font-size: 10pt; font-family: &apos;Segoe UI&apos;; font-style: normal; font-weight: normal; fill: rgb(68, 68, 68); fill-opacity: 1;">200</text><line stroke="rgb(156,156,156)" stroke-width="1px" x1="902.9" x2="902.9" y1="778.0" y2="782.0" class="wj-tick" stroke-opacity="1" stroke-dasharray="none" style="box-sizing: inherit; stroke: rgb(156, 156, 156); stroke-opacity: 1; stroke-width: 1px; stroke-dasharray: none;"/><text x="973.8" y="801.0" fill="rgb(68,68,68)" class="wj-label" fill-opacity="1" style="box-sizing: inherit; cursor: default; font-size: 10pt; font-family: &apos;Segoe UI&apos;; font-style: normal; font-weight: normal; fill: rgb(68, 68, 68); fill-opacity: 1;">220</text><line stroke="rgb(156,156,156)" stroke-width="1px" x1="984.6" x2="984.6" y1="778.0" y2="782.0" class="wj-tick" stroke-opacity="1" stroke-dasharray="none" style="box-sizing: inherit; stroke: rgb(156, 156, 156); stroke-opacity: 1; stroke-width: 1px; stroke-dasharray: none;"/><text x="1055.5" y="801.0" fill="rgb(68,68,68)" class="wj-label" fill-opacity="1" style="box-sizing: inherit; cursor: default; font-size: 10pt; font-family: &apos;Segoe UI&apos;; font-style: normal; font-weight: normal; fill: rgb(68, 68, 68); fill-opacity: 1;">240</text><line stroke="rgb(156,156,156)" stroke-width="1px" x1="1066.3" x2="1066.3" y1="778.0" y2="782.0" class="wj-tick" stroke-opacity="1" stroke-dasharray="none" style="box-sizing: inherit; stroke: rgb(156, 156, 156); stroke-opacity: 1; stroke-width: 1px; stroke-dasharray: none;"/><text x="1137.2" y="801.0" fill="rgb(68,68,68)" class="wj-label" fill-opacity="1" style="box-sizing: inherit; cursor: default; font-size: 10pt; font-family: &apos;Segoe UI&apos;; font-style: normal; font-weight: normal; fill: rgb(68, 68, 68); fill-opacity: 1;">260</text><line stroke="rgb(156,156,156)" stroke-width="1px" x1="1148.0" x2="1148.0" y1="778.0" y2="782.0" class="wj-tick" stroke-opacity="1" stroke-dasharray="none" style="box-sizing: inherit; stroke: rgb(156, 156, 156); stroke-opacity: 1; stroke-width: 1px; stroke-dasharray: none;"/><text x="1218.9" y="801.0" fill="rgb(68,68,68)" class="wj-label" fill-opacity="1" style="box-sizing: inherit; cursor: default; font-size: 10pt; font-family: &apos;Segoe UI&apos;; font-style: normal; font-weight: normal; fill: rgb(68, 68, 68); fill-opacity: 1;">280</text><line stroke="rgb(156,156,156)" stroke-width="1px" x1="1229.7" x2="1229.7" y1="778.0" y2="782.0" class="wj-tick" stroke-opacity="1" stroke-dasharray="none" style="box-sizing: inherit; stroke: rgb(156, 156, 156); stroke-opacity: 1; stroke-width: 1px; stroke-dasharray: none;"/><text x="1300.6" y="801.0" fill="rgb(68,68,68)" class="wj-label" fill-opacity="1" style="box-sizing: inherit; cursor: default; font-size: 10pt; font-family: &apos;Segoe UI&apos;; font-style: normal; font-weight: normal; fill: rgb(68, 68, 68); fill-opacity: 1;">300</text><line stroke="rgb(156,156,156)" stroke-width="1px" x1="1311.4" x2="1311.4" y1="778.0" y2="782.0" class="wj-tick" stroke-opacity="1" stroke-dasharray="none" style="box-sizing: inherit; stroke: rgb(156, 156, 156); stroke-opacity: 1; stroke-width: 1px; stroke-dasharray: none;"/><text x="1382.3" y="801.0" fill="rgb(68,68,68)" class="wj-label" fill-opacity="1" style="box-sizing: inherit; cursor: default; font-size: 10pt; font-family: &apos;Segoe UI&apos;; font-style: normal; font-weight: normal; fill: rgb(68, 68, 68); fill-opacity: 1;">320</text><line stroke="rgb(156,156,156)" stroke-width="1px" x1="1393.1" x2="1393.1" y1="778.0" y2="782.0" class="wj-tick" stroke-opacity="1" stroke-dasharray="none" style="box-sizing: inherit; stroke: rgb(156, 156, 156); stroke-opacity: 1; stroke-width: 1px; stroke-dasharray: none;"/><line stroke="rgb(156,156,156)" stroke-width="1px" x1="85.9" x2="1426.6" y1="778.0" y2="778.0" class="wj-line" stroke-opacity="1" stroke-dasharray="none" style="box-sizing: inherit; stroke: rgb(156, 156, 156); stroke-opacity: 1; stroke-width: 1px; stroke-dasharray: none;"/><text x="693.2" y="826.0" fill="rgb(68,68,68)" class="wj-title" fill-opacity="1" style="box-sizing: inherit; cursor: default; font-size: 12pt; font-family: &apos;Segoe UI&apos;; font-style: normal; font-weight: normal; fill: rgb(68, 68, 68); fill-opacity: 1;">Horizontal Distance</text></g><g class="wj-axis-y" style="box-sizing: inherit;" clip-path="url(#chartRect191654)"><line stroke="rgb(225,225,225)" stroke-width="1px" x1="85.9" x2="1426.6" y1="742.4" y2="742.4" class="wj-gridline" stroke-opacity="1" stroke-dasharray="none" style="box-sizing: inherit; opacity: 0.75; stroke: rgb(225, 225, 225); stroke-opacity: 1; stroke-width: 1px; stroke-dasharray: none;"/><text x="41.3" y="747.9" fill="rgb(68,68,68)" class="wj-label" fill-opacity="1" style="box-sizing: inherit; cursor: default; font-size: 10pt; font-family: &apos;Segoe UI&apos;; font-style: normal; font-weight: normal; fill: rgb(68, 68, 68); fill-opacity: 1;">1,480</text><line stroke="rgb(225,225,225)" stroke-width="1px" x1="85.9" x2="1426.6" y1="691.4" y2="691.4" class="wj-gridline" stroke-opacity="1" stroke-dasharray="none" style="box-sizing: inherit; opacity: 0.75; stroke: rgb(225, 225, 225); stroke-opacity: 1; stroke-width: 1px; stroke-dasharray: none;"/><text x="41.3" y="696.9" fill="rgb(68,68,68)" class="wj-label" fill-opacity="1" style="box-sizing: inherit; cursor: default; font-size: 10pt; font-family: &apos;Segoe UI&apos;; font-style: normal; font-weight: normal; fill: rgb(68, 68, 68); fill-opacity: 1;">1,490</text><line stroke="rgb(225,225,225)" stroke-width="1px" x1="85.9" x2="1426.6" y1="640.4" y2="640.4" class="wj-gridline" stroke-opacity="1" stroke-dasharray="none" style="box-sizing: inherit; opacity: 0.75; stroke: rgb(225, 225, 225); stroke-opacity: 1; stroke-width: 1px; stroke-dasharray: none;"/><text x="41.3" y="645.9" fill="rgb(68,68,68)" class="wj-label" fill-opacity="1" style="box-sizing: inherit; cursor: default; font-size: 10pt; font-family: &apos;Segoe UI&apos;; font-style: normal; font-weight: normal; fill: rgb(68, 68, 68); fill-opacity: 1;">1,500</text><line stroke="rgb(225,225,225)" stroke-width="1px" x1="85.9" x2="1426.6" y1="589.4" y2="589.4" class="wj-gridline" stroke-opacity="1" stroke-dasharray="none" style="box-sizing: inherit; opacity: 0.75; stroke: rgb(225, 225, 225); stroke-opacity: 1; stroke-width: 1px; stroke-dasharray: none;"/><text x="41.3" y="594.9" fill="rgb(68,68,68)" class="wj-label" fill-opacity="1" style="box-sizing: inherit; cursor: default; font-size: 10pt; font-family: &apos;Segoe UI&apos;; font-style: normal; font-weight: normal; fill: rgb(68, 68, 68); fill-opacity: 1;">1,510</text><line stroke="rgb(225,225,225)" stroke-width="1px" x1="85.9" x2="1426.6" y1="538.4" y2="538.4" class="wj-gridline" stroke-opacity="1" stroke-dasharray="none" style="box-sizing: inherit; opacity: 0.75; stroke: rgb(225, 225, 225); stroke-opacity: 1; stroke-width: 1px; stroke-dasharray: none;"/><text x="41.3" y="543.9" fill="rgb(68,68,68)" class="wj-label" fill-opacity="1" style="box-sizing: inherit; cursor: default; font-size: 10pt; font-family: &apos;Segoe UI&apos;; font-style: normal; font-weight: normal; fill: rgb(68, 68, 68); fill-opacity: 1;">1,520</text><line stroke="rgb(225,225,225)" stroke-width="1px" x1="85.9" x2="1426.6" y1="487.5" y2="487.5" class="wj-gridline" stroke-opacity="1" stroke-dasharray="none" style="box-sizing: inherit; opacity: 0.75; stroke: rgb(225, 225, 225); stroke-opacity: 1; stroke-width: 1px; stroke-dasharray: none;"/><text x="41.3" y="493.0" fill="rgb(68,68,68)" class="wj-label" fill-opacity="1" style="box-sizing: inherit; cursor: default; font-size: 10pt; font-family: &apos;Segoe UI&apos;; font-style: normal; font-weight: normal; fill: rgb(68, 68, 68); fill-opacity: 1;">1,530</text><line stroke="rgb(225,225,225)" stroke-width="1px" x1="85.9" x2="1426.6" y1="436.5" y2="436.5" class="wj-gridline" stroke-opacity="1" stroke-dasharray="none" style="box-sizing: inherit; opacity: 0.75; stroke: rgb(225, 225, 225); stroke-opacity: 1; stroke-width: 1px; stroke-dasharray: none;"/><text x="41.3" y="442.0" fill="rgb(68,68,68)" class="wj-label" fill-opacity="1" style="box-sizing: inherit; cursor: default; font-size: 10pt; font-family: &apos;Segoe UI&apos;; font-style: normal; font-weight: normal; fill: rgb(68, 68, 68); fill-opacity: 1;">1,540</text><line stroke="rgb(225,225,225)" stroke-width="1px" x1="85.9" x2="1426.6" y1="385.5" y2="385.5" class="wj-gridline" stroke-opacity="1" stroke-dasharray="none" style="box-sizing: inherit; opacity: 0.75; stroke: rgb(225, 225, 225); stroke-opacity: 1; stroke-width: 1px; stroke-dasharray: none;"/><text x="41.3" y="391.0" fill="rgb(68,68,68)" class="wj-label" fill-opacity="1" style="box-sizing: inherit; cursor: default; font-size: 10pt; font-family: &apos;Segoe UI&apos;; font-style: normal; font-weight: normal; fill: rgb(68, 68, 68); fill-opacity: 1;">1,550</text><line stroke="rgb(225,225,225)" stroke-width="1px" x1="85.9" x2="1426.6" y1="334.5" y2="334.5" class="wj-gridline" stroke-opacity="1" stroke-dasharray="none" style="box-sizing: inherit; opacity: 0.75; stroke: rgb(225, 225, 225); stroke-opacity: 1; stroke-width: 1px; stroke-dasharray: none;"/><text x="41.3" y="340.0" fill="rgb(68,68,68)" class="wj-label" fill-opacity="1" style="box-sizing: inherit; cursor: default; font-size: 10pt; font-family: &apos;Segoe UI&apos;; font-style: normal; font-weight: normal; fill: rgb(68, 68, 68); fill-opacity: 1;">1,560</text><line stroke="rgb(225,225,225)" stroke-width="1px" x1="85.9" x2="1426.6" y1="283.5" y2="283.5" class="wj-gridline" stroke-opacity="1" stroke-dasharray="none" style="box-sizing: inherit; opacity: 0.75; stroke: rgb(225, 225, 225); stroke-opacity: 1; stroke-width: 1px; stroke-dasharray: none;"/><text x="41.3" y="289.0" fill="rgb(68,68,68)" class="wj-label" fill-opacity="1" style="box-sizing: inherit; cursor: default; font-size: 10pt; font-family: &apos;Segoe UI&apos;; font-style: normal; font-weight: normal; fill: rgb(68, 68, 68); fill-opacity: 1;">1,570</text><line stroke="rgb(225,225,225)" stroke-width="1px" x1="85.9" x2="1426.6" y1="232.5" y2="232.5" class="wj-gridline" stroke-opacity="1" stroke-dasharray="none" style="box-sizing: inherit; opacity: 0.75; stroke: rgb(225, 225, 225); stroke-opacity: 1; stroke-width: 1px; stroke-dasharray: none;"/><text x="41.3" y="238.0" fill="rgb(68,68,68)" class="wj-label" fill-opacity="1" style="box-sizing: inherit; cursor: default; font-size: 10pt; font-family: &apos;Segoe UI&apos;; font-style: normal; font-weight: normal; fill: rgb(68, 68, 68); fill-opacity: 1;">1,580</text><line stroke="rgb(225,225,225)" stroke-width="1px" x1="85.9" x2="1426.6" y1="181.5" y2="181.5" class="wj-gridline" stroke-opacity="1" stroke-dasharray="none" style="box-sizing: inherit; opacity: 0.75; stroke: rgb(225, 225, 225); stroke-opacity: 1; stroke-width: 1px; stroke-dasharray: none;"/><text x="41.3" y="187.0" fill="rgb(68,68,68)" class="wj-label" fill-opacity="1" style="box-sizing: inherit; cursor: default; font-size: 10pt; font-family: &apos;Segoe UI&apos;; font-style: normal; font-weight: normal; fill: rgb(68, 68, 68); fill-opacity: 1;">1,590</text><line stroke="rgb(225,225,225)" stroke-width="1px" x1="85.9" x2="1426.6" y1="130.5" y2="130.5" class="wj-gridline" stroke-opacity="1" stroke-dasharray="none" style="box-sizing: inherit; opacity: 0.75; stroke: rgb(225, 225, 225); stroke-opacity: 1; stroke-width: 1px; stroke-dasharray: none;"/><text x="41.3" y="136.0" fill="rgb(68,68,68)" class="wj-label" fill-opacity="1" style="box-sizing: inherit; cursor: default; font-size: 10pt; font-family: &apos;Segoe UI&apos;; font-style: normal; font-weight: normal; fill: rgb(68, 68, 68); fill-opacity: 1;">1,600</text><line stroke="rgb(225,225,225)" stroke-width="1px" x1="85.9" x2="1426.6" y1="79.5" y2="79.5" class="wj-gridline" stroke-opacity="1" stroke-dasharray="none" style="box-sizing: inherit; opacity: 0.75; stroke: rgb(225, 225, 225); stroke-opacity: 1; stroke-width: 1px; stroke-dasharray: none;"/><text x="41.3" y="85.0" fill="rgb(68,68,68)" class="wj-label" fill-opacity="1" style="box-sizing: inherit; cursor: default; font-size: 10pt; font-family: &apos;Segoe UI&apos;; font-style: normal; font-weight: normal; fill: rgb(68, 68, 68); fill-opacity: 1;">1,610</text><g transform="rotate(-90.0,10.5,411.5)" style="box-sizing: inherit;"><text x="-21.4" y="418.0" fill="rgb(68,68,68)" class="wj-title" fill-opacity="1" style="box-sizing: inherit; cursor: default; font-size: 12pt; font-family: &apos;Segoe UI&apos;; font-style: normal; font-weight: normal; fill: rgb(68, 68, 68); fill-opacity: 1;">Elevation</text></g><line stroke="rgb(156,156,156)" stroke-width="1px" x1="85.9" x2="85.9" y1="45.0" y2="778.0" class="wj-line" stroke-opacity="0" stroke-dasharray="none" style="box-sizing: inherit; stroke: rgb(156, 156, 156); stroke-opacity: 0; stroke-width: 1px; stroke-dasharray: none;"/></g><g class="wj-series-group" style="box-sizing: inherit;"><g style="box-sizing: inherit;"><polyline stroke="rgb(147,47,65)" stroke-width="1.35" fill="none" points="85.9,45.0 90.0,45.6 94.1,46.1 98.1,46.6 102.2,47.2 106.3,47.9 110.4,48.6 114.4,49.6 118.5,50.7 122.6,51.8 126.7,52.7 130.7,53.7 134.8,54.7 138.9,55.8 143.0,57.0 147.0,58.3 151.1,59.3 155.2,60.2 159.3,60.9 163.3,61.7 167.4,62.5 171.5,63.8 175.6,65.5 179.6,67.0 183.7,68.5 187.8,69.8 191.9,71.0 195.9,72.3 200.0,73.6 204.1,74.8 208.2,76.0 212.2,77.1 216.3,78.1 220.4,78.9 224.5,79.5 228.5,80.2 232.6,81.1 236.7,81.9 240.8,82.8 244.8,83.8 248.9,85.1 253.0,86.3 257.1,87.5 261.1,88.8 265.2,89.9 269.3,91.0 273.4,92.4 277.4,93.9 281.5,95.4 285.6,97.0 289.7,98.6 293.7,99.9 297.8,101.3 301.9,102.5 306.0,103.6 310.0,104.7 314.1,105.9 318.2,107.3 322.3,108.8 326.3,110.2 330.4,111.3 334.5,112.8 338.6,114.6 342.6,116.4 346.7,117.9 350.8,119.5 354.9,121.3 358.9,123.1 363.0,124.8 367.1,126.5 371.2,128.4 375.2,130.4 379.3,132.5 383.4,134.5 387.5,136.2 391.5,137.9 395.6,139.9 399.7,141.9 403.8,143.7 407.8,145.2 411.9,146.7 416.0,148.4 420.1,150.0 424.1,151.6 428.2,153.3 432.3,154.7 436.4,155.8 440.4,157.4 444.5,159.4 448.6,161.3 452.7,163.0 456.7,164.9 460.8,166.6 464.9,168.4 469.0,170.2 473.0,171.8 477.1,173.3 481.2,174.9 485.3,176.5 489.3,178.0 493.4,179.5 497.5,180.8 501.6,182.3 505.6,184.1 509.7,186.2 513.8,188.4 517.9,190.4 521.9,192.3 526.0,194.3 530.1,196.6 534.2,198.9 538.2,201.0 542.3,203.0 546.4,204.6 550.5,206.0 554.5,207.7 558.6,209.9 562.7,211.7 566.8,213.3 570.8,215.1 574.9,216.8 579.0,218.4 583.1,220.1 587.1,221.8 591.2,223.6 595.3,225.5 599.4,227.5 603.4,229.7 607.5,231.4 611.6,232.9 615.7,234.9 619.7,237.4 623.8,240.1 627.9,242.6 632.0,244.7 636.0,246.6 640.1,248.2 644.2,250.0 648.3,252.7 652.3,255.3 656.4,257.3 660.5,258.8 664.6,260.3 668.6,262.3 672.7,264.0 676.8,265.5 680.9,267.3 684.9,269.6 689.0,271.9 693.1,273.9 697.2,276.0 701.2,277.8 705.3,279.8 709.4,281.9 713.5,283.5 717.5,285.9 721.6,287.8 725.7,290.2 729.8,292.9 733.8,295.1 737.9,297.1 742.0,299.0 746.1,301.1 750.1,303.1 754.2,305.2 758.3,307.2 762.4,309.2 766.4,311.4 770.5,313.7 774.6,315.6 778.7,317.3 782.7,319.0 786.8,320.9 790.9,322.7 795.0,324.4 799.0,326.1 803.1,327.9 807.2,329.5 811.3,331.2 815.3,332.7 819.4,333.9 823.5,335.3 827.6,337.3 831.6,339.4 835.7,341.6 839.8,343.6 843.9,345.0 847.9,346.1 852.0,347.2 856.1,348.6 860.2,350.6 864.2,352.8 868.3,354.5 872.4,356.4 876.5,358.3 880.5,360.0 884.6,361.5 888.7,362.8 892.8,364.1 896.8,365.3 900.9,366.8 905.0,368.3 909.1,369.7 913.1,371.7 917.2,374.0 921.3,376.1 925.4,378.0 929.4,379.5 933.5,380.6 937.6,381.6 941.7,382.7 945.7,383.6 949.8,384.7 953.9,385.9 958.0,387.2 962.0,388.5 966.1,389.8 970.2,390.9 974.3,392.1 978.3,393.3 982.4,394.3 986.5,395.2 990.6,396.3 994.6,397.6 998.7,398.7 1002.8,399.7 1006.9,400.8 1010.9,402.3 1015.0,404.4 1019.1,406.5 1023.2,408.6 1027.2,410.8 1031.3,414.2 1035.4,419.4 1039.5,425.5 1043.5,432.0 1047.6,440.0 1051.7,449.6 1055.8,459.6 1059.8,468.7 1063.9,476.1 1068.0,481.7 1072.1,486.1 1076.1,489.5 1080.2,492.6 1084.3,496.5 1088.4,501.1 1092.4,505.0 1096.5,508.0 1100.6,511.2 1104.7,514.6 1108.7,517.9 1112.8,520.8 1116.9,523.9 1121.0,527.2 1125.0,530.4 1129.1,533.6 1133.2,537.5 1137.3,541.4 1141.3,544.6 1145.4,548.0 1149.5,551.7 1153.6,555.0 1157.6,558.3 1161.7,561.8 1165.8,565.4 1169.9,569.1 1173.9,572.7 1178.0,576.4 1182.1,580.0 1186.2,583.5 1190.2,587.0 1194.3,590.5 1198.4,593.9 1202.5,597.5 1206.5,601.2 1210.6,604.9 1214.7,608.4 1218.8,611.9 1222.8,615.9 1226.9,619.7 1231.0,623.2 1235.1,626.7 1239.1,630.4 1243.2,634.0 1247.3,637.4 1251.4,641.1 1255.4,644.8 1259.5,648.5 1263.6,652.0 1267.7,655.4 1271.7,658.6 1275.8,661.9 1279.9,665.2 1284.0,668.6 1288.0,672.3 1292.1,675.9 1296.2,679.2 1300.3,682.6 1304.3,686.3 1308.4,690.1 1312.5,693.6 1316.6,697.0 1320.6,700.7 1324.7,704.7 1328.8,709.3 1332.9,714.1 1336.9,718.4 1341.0,722.0 1345.1,725.6 1349.2,729.3 1353.2,733.1 1357.3,737.3 1361.4,741.8 1365.5,745.6 1369.5,748.9 1373.6,752.3 1377.7,755.9 1381.8,758.8 1385.8,760.4 1389.9,761.3 1394.0,762.3 1398.1,763.7 1402.1,765.9 1406.2,768.9 1410.3,772.4 1414.4,775.9 1418.4,778.0 1422.5,777.9 1426.6,776.9 " clip-path="url(#plotRect613165)" style="box-sizing: inherit; stroke-width: 1.35;" stroke-opacity="1"/></g></g><clipPath id="plotRect613165" style="box-sizing: inherit;"><rect x="84.9" y="44.0" width="1342.7" height="735.0" style="box-sizing: inherit;"/></clipPath><clipPath id="plotRect297302" style="box-sizing: inherit;"><rect x="-1.0" y="-1.0" width="1342.7" height="735.0" style="box-sizing: inherit;"/></clipPath><g class="wj-chart-annotationlayer" transform="translate(85.90625, 45)" style="box-sizing: inherit;" clip-path="url(#plotRect297302)"/></svg>