<svg xmlns="http://www.w3.org/2000/svg" width="1745" height="839" style="box-sizing: inherit; font-family: Calibri;"><rect id="backgroundRect" width="100%" height="100%" x="0" y="0" fill="rgb(255,255,255)" fill-opacity="1" visibility="visible" style="box-sizing: inherit; fill: rgb(255, 255, 255); fill-opacity: 1;"/><defs style="box-sizing: inherit;"/><clipPath id="chartRect22267" style="box-sizing: inherit;"><rect x="-1.0" y="-1.0" width="1742.0" height="833.0" style="box-sizing: inherit;"/></clipPath><g class="wj-header" style="box-sizing: inherit; background: rgb(238, 238, 238); color: rgb(68, 68, 68); font-weight: 700;" clip-path="url(#chartRect22267)"><text x="662.4" y="23.0" fill="rgb(68,68,68)" class="wj-title" fill-opacity="1" style="box-sizing: inherit; cursor: default; font-size: 16pt; font-family: &apos;Segoe UI&apos;; font-style: normal; font-weight: normal; fill: rgb(68, 68, 68); fill-opacity: 1;">Profile Graph lc_1m_dem_InterpolateShape8</text></g><g class="wj-footer" style="box-sizing: inherit;" clip-path="url(#chartRect22267)"/><clipPath id="legRect262657" style="box-sizing: inherit;"><rect x="1739.0" y="428.5" width="2.0" height="2.0" style="box-sizing: inherit;"/></clipPath><g class="wj-legend" style="box-sizing: inherit;" clip-path="url(#legRect262657)"/><g class="wj-plot-area" style="box-sizing: inherit;"><rect fill="#000000" stroke-width="1" x="85.9" y="45.0" width="1634.7" height="734.0" fill-opacity="0" style="box-sizing: inherit;"/></g><g class="wj-axis-x" style="box-sizing: inherit;" clip-path="url(#chartRect22267)"><text x="82.3" y="802.0" fill="rgb(68,68,68)" class="wj-label" fill-opacity="1" style="box-sizing: inherit; cursor: default; font-size: 10pt; font-family: &apos;Segoe UI&apos;; font-style: normal; font-weight: normal; fill: rgb(68, 68, 68); fill-opacity: 1;">0</text><line stroke="rgb(156,156,156)" stroke-width="1px" x1="85.9" x2="85.9" y1="779.0" y2="783.0" class="wj-tick" stroke-opacity="1" stroke-dasharray="none" style="box-sizing: inherit; stroke: rgb(156, 156, 156); stroke-opacity: 1; stroke-width: 1px; stroke-dasharray: none;"/><text x="131.2" y="802.0" fill="rgb(68,68,68)" class="wj-label" fill-opacity="1" style="box-sizing: inherit; cursor: default; font-size: 10pt; font-family: &apos;Segoe UI&apos;; font-style: normal; font-weight: normal; fill: rgb(68, 68, 68); fill-opacity: 1;">10</text><line stroke="rgb(156,156,156)" stroke-width="1px" x1="138.4" x2="138.4" y1="779.0" y2="783.0" class="wj-tick" stroke-opacity="1" stroke-dasharray="none" style="box-sizing: inherit; stroke: rgb(156, 156, 156); stroke-opacity: 1; stroke-width: 1px; stroke-dasharray: none;"/><text x="183.7" y="802.0" fill="rgb(68,68,68)" class="wj-label" fill-opacity="1" style="box-sizing: inherit; cursor: default; font-size: 10pt; font-family: &apos;Segoe UI&apos;; font-style: normal; font-weight: normal; fill: rgb(68, 68, 68); fill-opacity: 1;">20</text><line stroke="rgb(156,156,156)" stroke-width="1px" x1="190.9" x2="190.9" y1="779.0" y2="783.0" class="wj-tick" stroke-opacity="1" stroke-dasharray="none" style="box-sizing: inherit; stroke: rgb(156, 156, 156); stroke-opacity: 1; stroke-width: 1px; stroke-dasharray: none;"/><text x="236.2" y="802.0" fill="rgb(68,68,68)" class="wj-label" fill-opacity="1" style="box-sizing: inherit; cursor: default; font-size: 10pt; font-family: &apos;Segoe UI&apos;; font-style: normal; font-weight: normal; fill: rgb(68, 68, 68); fill-opacity: 1;">30</text><line stroke="rgb(156,156,156)" stroke-width="1px" x1="243.4" x2="243.4" y1="779.0" y2="783.0" class="wj-tick" stroke-opacity="1" stroke-dasharray="none" style="box-sizing: inherit; stroke: rgb(156, 156, 156); stroke-opacity: 1; stroke-width: 1px; stroke-dasharray: none;"/><text x="288.2" y="802.0" fill="rgb(68,68,68)" class="wj-label" fill-opacity="1" style="box-sizing: inherit; cursor: default; font-size: 10pt; font-family: &apos;Segoe UI&apos;; font-style: normal; font-weight: normal; fill: rgb(68, 68, 68); fill-opacity: 1;">40</text><line stroke="rgb(156,156,156)" stroke-width="1px" x1="295.9" x2="295.9" y1="779.0" y2="783.0" class="wj-tick" stroke-opacity="1" stroke-dasharray="none" style="box-sizing: inherit; stroke: rgb(156, 156, 156); stroke-opacity: 1; stroke-width: 1px; stroke-dasharray: none;"/><text x="341.2" y="802.0" fill="rgb(68,68,68)" class="wj-label" fill-opacity="1" style="box-sizing: inherit; cursor: default; font-size: 10pt; font-family: &apos;Segoe UI&apos;; font-style: normal; font-weight: normal; fill: rgb(68, 68, 68); fill-opacity: 1;">50</text><line stroke="rgb(156,156,156)" stroke-width="1px" x1="348.4" x2="348.4" y1="779.0" y2="783.0" class="wj-tick" stroke-opacity="1" stroke-dasharray="none" style="box-sizing: inherit; stroke: rgb(156, 156, 156); stroke-opacity: 1; stroke-width: 1px; stroke-dasharray: none;"/><text x="393.7" y="802.0" fill="rgb(68,68,68)" class="wj-label" fill-opacity="1" style="box-sizing: inherit; cursor: default; font-size: 10pt; font-family: &apos;Segoe UI&apos;; font-style: normal; font-weight: normal; fill: rgb(68, 68, 68); fill-opacity: 1;">60</text><line stroke="rgb(156,156,156)" stroke-width="1px" x1="400.9" x2="400.9" y1="779.0" y2="783.0" class="wj-tick" stroke-opacity="1" stroke-dasharray="none" style="box-sizing: inherit; stroke: rgb(156, 156, 156); stroke-opacity: 1; stroke-width: 1px; stroke-dasharray: none;"/><text x="446.2" y="802.0" fill="rgb(68,68,68)" class="wj-label" fill-opacity="1" style="box-sizing: inherit; cursor: default; font-size: 10pt; font-family: &apos;Segoe UI&apos;; font-style: normal; font-weight: normal; fill: rgb(68, 68, 68); fill-opacity: 1;">70</text><line stroke="rgb(156,156,156)" stroke-width="1px" x1="453.4" x2="453.4" y1="779.0" y2="783.0" class="wj-tick" stroke-opacity="1" stroke-dasharray="none" style="box-sizing: inherit; stroke: rgb(156, 156, 156); stroke-opacity: 1; stroke-width: 1px; stroke-dasharray: none;"/><text x="498.7" y="802.0" fill="rgb(68,68,68)" class="wj-label" fill-opacity="1" style="box-sizing: inherit; cursor: default; font-size: 10pt; font-family: &apos;Segoe UI&apos;; font-style: normal; font-weight: normal; fill: rgb(68, 68, 68); fill-opacity: 1;">80</text><line stroke="rgb(156,156,156)" stroke-width="1px" x1="505.9" x2="505.9" y1="779.0" y2="783.0" class="wj-tick" stroke-opacity="1" stroke-dasharray="none" style="box-sizing: inherit; stroke: rgb(156, 156, 156); stroke-opacity: 1; stroke-width: 1px; stroke-dasharray: none;"/><text x="551.2" y="802.0" fill="rgb(68,68,68)" class="wj-label" fill-opacity="1" style="box-sizing: inherit; cursor: default; font-size: 10pt; font-family: &apos;Segoe UI&apos;; font-style: normal; font-weight: normal; fill: rgb(68, 68, 68); fill-opacity: 1;">90</text><line stroke="rgb(156,156,156)" stroke-width="1px" x1="558.4" x2="558.4" y1="779.0" y2="783.0" class="wj-tick" stroke-opacity="1" stroke-dasharray="none" style="box-sizing: inherit; stroke: rgb(156, 156, 156); stroke-opacity: 1; stroke-width: 1px; stroke-dasharray: none;"/><text x="600.1" y="802.0" fill="rgb(68,68,68)" class="wj-label" fill-opacity="1" style="box-sizing: inherit; cursor: default; font-size: 10pt; font-family: &apos;Segoe UI&apos;; font-style: normal; font-weight: normal; fill: rgb(68, 68, 68); fill-opacity: 1;">100</text><line stroke="rgb(156,156,156)" stroke-width="1px" x1="610.9" x2="610.9" y1="779.0" y2="783.0" class="wj-tick" stroke-opacity="1" stroke-dasharray="none" style="box-sizing: inherit; stroke: rgb(156, 156, 156); stroke-opacity: 1; stroke-width: 1px; stroke-dasharray: none;"/><text x="652.6" y="802.0" fill="rgb(68,68,68)" class="wj-label" fill-opacity="1" style="box-sizing: inherit; cursor: default; font-size: 10pt; font-family: &apos;Segoe UI&apos;; font-style: normal; font-weight: normal; fill: rgb(68, 68, 68); fill-opacity: 1;">110</text><line stroke="rgb(156,156,156)" stroke-width="1px" x1="663.4" x2="663.4" y1="779.0" y2="783.0" class="wj-tick" stroke-opacity="1" stroke-dasharray="none" style="box-sizing: inherit; stroke: rgb(156, 156, 156); stroke-opacity: 1; stroke-width: 1px; stroke-dasharray: none;"/><text x="705.1" y="802.0" fill="rgb(68,68,68)" class="wj-label" fill-opacity="1" style="box-sizing: inherit; cursor: default; font-size: 10pt; font-family: &apos;Segoe UI&apos;; font-style: normal; font-weight: normal; fill: rgb(68, 68, 68); fill-opacity: 1;">120</text><line stroke="rgb(156,156,156)" stroke-width="1px" x1="715.9" x2="715.9" y1="779.0" y2="783.0" class="wj-tick" stroke-opacity="1" stroke-dasharray="none" style="box-sizing: inherit; stroke: rgb(156, 156, 156); stroke-opacity: 1; stroke-width: 1px; stroke-dasharray: none;"/><text x="757.6" y="802.0" fill="rgb(68,68,68)" class="wj-label" fill-opacity="1" style="box-sizing: inherit; cursor: default; font-size: 10pt; font-family: &apos;Segoe UI&apos;; font-style: normal; font-weight: normal; fill: rgb(68, 68, 68); fill-opacity: 1;">130</text><line stroke="rgb(156,156,156)" stroke-width="1px" x1="768.4" x2="768.4" y1="779.0" y2="783.0" class="wj-tick" stroke-opacity="1" stroke-dasharray="none" style="box-sizing: inherit; stroke: rgb(156, 156, 156); stroke-opacity: 1; stroke-width: 1px; stroke-dasharray: none;"/><text x="810.1" y="802.0" fill="rgb(68,68,68)" class="wj-label" fill-opacity="1" style="box-sizing: inherit; cursor: default; font-size: 10pt; font-family: &apos;Segoe UI&apos;; font-style: normal; font-weight: normal; fill: rgb(68, 68, 68); fill-opacity: 1;">140</text><line stroke="rgb(156,156,156)" stroke-width="1px" x1="820.9" x2="820.9" y1="779.0" y2="783.0" class="wj-tick" stroke-opacity="1" stroke-dasharray="none" style="box-sizing: inherit; stroke: rgb(156, 156, 156); stroke-opacity: 1; stroke-width: 1px; stroke-dasharray: none;"/><text x="862.6" y="802.0" fill="rgb(68,68,68)" class="wj-label" fill-opacity="1" style="box-sizing: inherit; cursor: default; font-size: 10pt; font-family: &apos;Segoe UI&apos;; font-style: normal; font-weight: normal; fill: rgb(68, 68, 68); fill-opacity: 1;">150</text><line stroke="rgb(156,156,156)" stroke-width="1px" x1="873.4" x2="873.4" y1="779.0" y2="783.0" class="wj-tick" stroke-opacity="1" stroke-dasharray="none" style="box-sizing: inherit; stroke: rgb(156, 156, 156); stroke-opacity: 1; stroke-width: 1px; stroke-dasharray: none;"/><text x="915.1" y="802.0" fill="rgb(68,68,68)" class="wj-label" fill-opacity="1" style="box-sizing: inherit; cursor: default; font-size: 10pt; font-family: &apos;Segoe UI&apos;; font-style: normal; font-weight: normal; fill: rgb(68, 68, 68); fill-opacity: 1;">160</text><line stroke="rgb(156,156,156)" stroke-width="1px" x1="925.9" x2="925.9" y1="779.0" y2="783.0" class="wj-tick" stroke-opacity="1" stroke-dasharray="none" style="box-sizing: inherit; stroke: rgb(156, 156, 156); stroke-opacity: 1; stroke-width: 1px; stroke-dasharray: none;"/><text x="967.6" y="802.0" fill="rgb(68,68,68)" class="wj-label" fill-opacity="1" style="box-sizing: inherit; cursor: default; font-size: 10pt; font-family: &apos;Segoe UI&apos;; font-style: normal; font-weight: normal; fill: rgb(68, 68, 68); fill-opacity: 1;">170</text><line stroke="rgb(156,156,156)" stroke-width="1px" x1="978.3" x2="978.3" y1="779.0" y2="783.0" class="wj-tick" stroke-opacity="1" stroke-dasharray="none" style="box-sizing: inherit; stroke: rgb(156, 156, 156); stroke-opacity: 1; stroke-width: 1px; stroke-dasharray: none;"/><text x="1020.1" y="802.0" fill="rgb(68,68,68)" class="wj-label" fill-opacity="1" style="box-sizing: inherit; cursor: default; font-size: 10pt; font-family: &apos;Segoe UI&apos;; font-style: normal; font-weight: normal; fill: rgb(68, 68, 68); fill-opacity: 1;">180</text><line stroke="rgb(156,156,156)" stroke-width="1px" x1="1030.8" x2="1030.8" y1="779.0" y2="783.0" class="wj-tick" stroke-opacity="1" stroke-dasharray="none" style="box-sizing: inherit; stroke: rgb(156, 156, 156); stroke-opacity: 1; stroke-width: 1px; stroke-dasharray: none;"/><text x="1072.6" y="802.0" fill="rgb(68,68,68)" class="wj-label" fill-opacity="1" style="box-sizing: inherit; cursor: default; font-size: 10pt; font-family: &apos;Segoe UI&apos;; font-style: normal; font-weight: normal; fill: rgb(68, 68, 68); fill-opacity: 1;">190</text><line stroke="rgb(156,156,156)" stroke-width="1px" x1="1083.3" x2="1083.3" y1="779.0" y2="783.0" class="wj-tick" stroke-opacity="1" stroke-dasharray="none" style="box-sizing: inherit; stroke: rgb(156, 156, 156); stroke-opacity: 1; stroke-width: 1px; stroke-dasharray: none;"/><text x="1125.1" y="802.0" fill="rgb(68,68,68)" class="wj-label" fill-opacity="1" style="box-sizing: inherit; cursor: default; font-size: 10pt; font-family: &apos;Segoe UI&apos;; font-style: normal; font-weight: normal; fill: rgb(68, 68, 68); fill-opacity: 1;">200</text><line stroke="rgb(156,156,156)" stroke-width="1px" x1="1135.8" x2="1135.8" y1="779.0" y2="783.0" class="wj-tick" stroke-opacity="1" stroke-dasharray="none" style="box-sizing: inherit; stroke: rgb(156, 156, 156); stroke-opacity: 1; stroke-width: 1px; stroke-dasharray: none;"/><text x="1177.6" y="802.0" fill="rgb(68,68,68)" class="wj-label" fill-opacity="1" style="box-sizing: inherit; cursor: default; font-size: 10pt; font-family: &apos;Segoe UI&apos;; font-style: normal; font-weight: normal; fill: rgb(68, 68, 68); fill-opacity: 1;">210</text><line stroke="rgb(156,156,156)" stroke-width="1px" x1="1188.3" x2="1188.3" y1="779.0" y2="783.0" class="wj-tick" stroke-opacity="1" stroke-dasharray="none" style="box-sizing: inherit; stroke: rgb(156, 156, 156); stroke-opacity: 1; stroke-width: 1px; stroke-dasharray: none;"/><text x="1230.0" y="802.0" fill="rgb(68,68,68)" class="wj-label" fill-opacity="1" style="box-sizing: inherit; cursor: default; font-size: 10pt; font-family: &apos;Segoe UI&apos;; font-style: normal; font-weight: normal; fill: rgb(68, 68, 68); fill-opacity: 1;">220</text><line stroke="rgb(156,156,156)" stroke-width="1px" x1="1240.8" x2="1240.8" y1="779.0" y2="783.0" class="wj-tick" stroke-opacity="1" stroke-dasharray="none" style="box-sizing: inherit; stroke: rgb(156, 156, 156); stroke-opacity: 1; stroke-width: 1px; stroke-dasharray: none;"/><text x="1282.5" y="802.0" fill="rgb(68,68,68)" class="wj-label" fill-opacity="1" style="box-sizing: inherit; cursor: default; font-size: 10pt; font-family: &apos;Segoe UI&apos;; font-style: normal; font-weight: normal; fill: rgb(68, 68, 68); fill-opacity: 1;">230</text><line stroke="rgb(156,156,156)" stroke-width="1px" x1="1293.3" x2="1293.3" y1="779.0" y2="783.0" class="wj-tick" stroke-opacity="1" stroke-dasharray="none" style="box-sizing: inherit; stroke: rgb(156, 156, 156); stroke-opacity: 1; stroke-width: 1px; stroke-dasharray: none;"/><text x="1335.0" y="802.0" fill="rgb(68,68,68)" class="wj-label" fill-opacity="1" style="box-sizing: inherit; cursor: default; font-size: 10pt; font-family: &apos;Segoe UI&apos;; font-style: normal; font-weight: normal; fill: rgb(68, 68, 68); fill-opacity: 1;">240</text><line stroke="rgb(156,156,156)" stroke-width="1px" x1="1345.8" x2="1345.8" y1="779.0" y2="783.0" class="wj-tick" stroke-opacity="1" stroke-dasharray="none" style="box-sizing: inherit; stroke: rgb(156, 156, 156); stroke-opacity: 1; stroke-width: 1px; stroke-dasharray: none;"/><text x="1387.5" y="802.0" fill="rgb(68,68,68)" class="wj-label" fill-opacity="1" style="box-sizing: inherit; cursor: default; font-size: 10pt; font-family: &apos;Segoe UI&apos;; font-style: normal; font-weight: normal; fill: rgb(68, 68, 68); fill-opacity: 1;">250</text><line stroke="rgb(156,156,156)" stroke-width="1px" x1="1398.3" x2="1398.3" y1="779.0" y2="783.0" class="wj-tick" stroke-opacity="1" stroke-dasharray="none" style="box-sizing: inherit; stroke: rgb(156, 156, 156); stroke-opacity: 1; stroke-width: 1px; stroke-dasharray: none;"/><text x="1440.0" y="802.0" fill="rgb(68,68,68)" class="wj-label" fill-opacity="1" style="box-sizing: inherit; cursor: default; font-size: 10pt; font-family: &apos;Segoe UI&apos;; font-style: normal; font-weight: normal; fill: rgb(68, 68, 68); fill-opacity: 1;">260</text><line stroke="rgb(156,156,156)" stroke-width="1px" x1="1450.8" x2="1450.8" y1="779.0" y2="783.0" class="wj-tick" stroke-opacity="1" stroke-dasharray="none" style="box-sizing: inherit; stroke: rgb(156, 156, 156); stroke-opacity: 1; stroke-width: 1px; stroke-dasharray: none;"/><text x="1492.5" y="802.0" fill="rgb(68,68,68)" class="wj-label" fill-opacity="1" style="box-sizing: inherit; cursor: default; font-size: 10pt; font-family: &apos;Segoe UI&apos;; font-style: normal; font-weight: normal; fill: rgb(68, 68, 68); fill-opacity: 1;">270</text><line stroke="rgb(156,156,156)" stroke-width="1px" x1="1503.3" x2="1503.3" y1="779.0" y2="783.0" class="wj-tick" stroke-opacity="1" stroke-dasharray="none" style="box-sizing: inherit; stroke: rgb(156, 156, 156); stroke-opacity: 1; stroke-width: 1px; stroke-dasharray: none;"/><text x="1545.0" y="802.0" fill="rgb(68,68,68)" class="wj-label" fill-opacity="1" style="box-sizing: inherit; cursor: default; font-size: 10pt; font-family: &apos;Segoe UI&apos;; font-style: normal; font-weight: normal; fill: rgb(68, 68, 68); fill-opacity: 1;">280</text><line stroke="rgb(156,156,156)" stroke-width="1px" x1="1555.8" x2="1555.8" y1="779.0" y2="783.0" class="wj-tick" stroke-opacity="1" stroke-dasharray="none" style="box-sizing: inherit; stroke: rgb(156, 156, 156); stroke-opacity: 1; stroke-width: 1px; stroke-dasharray: none;"/><text x="1597.5" y="802.0" fill="rgb(68,68,68)" class="wj-label" fill-opacity="1" style="box-sizing: inherit; cursor: default; font-size: 10pt; font-family: &apos;Segoe UI&apos;; font-style: normal; font-weight: normal; fill: rgb(68, 68, 68); fill-opacity: 1;">290</text><line stroke="rgb(156,156,156)" stroke-width="1px" x1="1608.3" x2="1608.3" y1="779.0" y2="783.0" class="wj-tick" stroke-opacity="1" stroke-dasharray="none" style="box-sizing: inherit; stroke: rgb(156, 156, 156); stroke-opacity: 1; stroke-width: 1px; stroke-dasharray: none;"/><text x="1650.0" y="802.0" fill="rgb(68,68,68)" class="wj-label" fill-opacity="1" style="box-sizing: inherit; cursor: default; font-size: 10pt; font-family: &apos;Segoe UI&apos;; font-style: normal; font-weight: normal; fill: rgb(68, 68, 68); fill-opacity: 1;">300</text><line stroke="rgb(156,156,156)" stroke-width="1px" x1="1660.8" x2="1660.8" y1="779.0" y2="783.0" class="wj-tick" stroke-opacity="1" stroke-dasharray="none" style="box-sizing: inherit; stroke: rgb(156, 156, 156); stroke-opacity: 1; stroke-width: 1px; stroke-dasharray: none;"/><text x="1702.5" y="802.0" fill="rgb(68,68,68)" class="wj-label" fill-opacity="1" style="box-sizing: inherit; cursor: default; font-size: 10pt; font-family: &apos;Segoe UI&apos;; font-style: normal; font-weight: normal; fill: rgb(68, 68, 68); fill-opacity: 1;">310</text><line stroke="rgb(156,156,156)" stroke-width="1px" x1="1713.3" x2="1713.3" y1="779.0" y2="783.0" class="wj-tick" stroke-opacity="1" stroke-dasharray="none" style="box-sizing: inherit; stroke: rgb(156, 156, 156); stroke-opacity: 1; stroke-width: 1px; stroke-dasharray: none;"/><line stroke="rgb(156,156,156)" stroke-width="1px" x1="85.9" x2="1720.6" y1="779.0" y2="779.0" class="wj-line" stroke-opacity="1" stroke-dasharray="none" style="box-sizing: inherit; stroke: rgb(156, 156, 156); stroke-opacity: 1; stroke-width: 1px; stroke-dasharray: none;"/><text x="840.2" y="827.0" fill="rgb(68,68,68)" class="wj-title" fill-opacity="1" style="box-sizing: inherit; cursor: default; font-size: 12pt; font-family: &apos;Segoe UI&apos;; font-style: normal; font-weight: normal; fill: rgb(68, 68, 68); fill-opacity: 1;">Horizontal Distance</text></g><g class="wj-axis-y" style="box-sizing: inherit;" clip-path="url(#chartRect22267)"><line stroke="rgb(225,225,225)" stroke-width="1px" x1="85.9" x2="1720.6" y1="751.4" y2="751.4" class="wj-gridline" stroke-opacity="1" stroke-dasharray="none" style="box-sizing: inherit; opacity: 0.75; stroke: rgb(225, 225, 225); stroke-opacity: 1; stroke-width: 1px; stroke-dasharray: none;"/><text x="41.3" y="756.9" fill="rgb(68,68,68)" class="wj-label" fill-opacity="1" style="box-sizing: inherit; cursor: default; font-size: 10pt; font-family: &apos;Segoe UI&apos;; font-style: normal; font-weight: normal; fill: rgb(68, 68, 68); fill-opacity: 1;">1,550</text><line stroke="rgb(225,225,225)" stroke-width="1px" x1="85.9" x2="1720.6" y1="688.8" y2="688.8" class="wj-gridline" stroke-opacity="1" stroke-dasharray="none" style="box-sizing: inherit; opacity: 0.75; stroke: rgb(225, 225, 225); stroke-opacity: 1; stroke-width: 1px; stroke-dasharray: none;"/><text x="41.3" y="694.3" fill="rgb(68,68,68)" class="wj-label" fill-opacity="1" style="box-sizing: inherit; cursor: default; font-size: 10pt; font-family: &apos;Segoe UI&apos;; font-style: normal; font-weight: normal; fill: rgb(68, 68, 68); fill-opacity: 1;">1,560</text><line stroke="rgb(225,225,225)" stroke-width="1px" x1="85.9" x2="1720.6" y1="626.2" y2="626.2" class="wj-gridline" stroke-opacity="1" stroke-dasharray="none" style="box-sizing: inherit; opacity: 0.75; stroke: rgb(225, 225, 225); stroke-opacity: 1; stroke-width: 1px; stroke-dasharray: none;"/><text x="41.3" y="631.7" fill="rgb(68,68,68)" class="wj-label" fill-opacity="1" style="box-sizing: inherit; cursor: default; font-size: 10pt; font-family: &apos;Segoe UI&apos;; font-style: normal; font-weight: normal; fill: rgb(68, 68, 68); fill-opacity: 1;">1,570</text><line stroke="rgb(225,225,225)" stroke-width="1px" x1="85.9" x2="1720.6" y1="563.7" y2="563.7" class="wj-gridline" stroke-opacity="1" stroke-dasharray="none" style="box-sizing: inherit; opacity: 0.75; stroke: rgb(225, 225, 225); stroke-opacity: 1; stroke-width: 1px; stroke-dasharray: none;"/><text x="41.3" y="569.2" fill="rgb(68,68,68)" class="wj-label" fill-opacity="1" style="box-sizing: inherit; cursor: default; font-size: 10pt; font-family: &apos;Segoe UI&apos;; font-style: normal; font-weight: normal; fill: rgb(68, 68, 68); fill-opacity: 1;">1,580</text><line stroke="rgb(225,225,225)" stroke-width="1px" x1="85.9" x2="1720.6" y1="501.1" y2="501.1" class="wj-gridline" stroke-opacity="1" stroke-dasharray="none" style="box-sizing: inherit; opacity: 0.75; stroke: rgb(225, 225, 225); stroke-opacity: 1; stroke-width: 1px; stroke-dasharray: none;"/><text x="41.3" y="506.6" fill="rgb(68,68,68)" class="wj-label" fill-opacity="1" style="box-sizing: inherit; cursor: default; font-size: 10pt; font-family: &apos;Segoe UI&apos;; font-style: normal; font-weight: normal; fill: rgb(68, 68, 68); fill-opacity: 1;">1,590</text><line stroke="rgb(225,225,225)" stroke-width="1px" x1="85.9" x2="1720.6" y1="438.5" y2="438.5" class="wj-gridline" stroke-opacity="1" stroke-dasharray="none" style="box-sizing: inherit; opacity: 0.75; stroke: rgb(225, 225, 225); stroke-opacity: 1; stroke-width: 1px; stroke-dasharray: none;"/><text x="41.3" y="444.0" fill="rgb(68,68,68)" class="wj-label" fill-opacity="1" style="box-sizing: inherit; cursor: default; font-size: 10pt; font-family: &apos;Segoe UI&apos;; font-style: normal; font-weight: normal; fill: rgb(68, 68, 68); fill-opacity: 1;">1,600</text><line stroke="rgb(225,225,225)" stroke-width="1px" x1="85.9" x2="1720.6" y1="375.9" y2="375.9" class="wj-gridline" stroke-opacity="1" stroke-dasharray="none" style="box-sizing: inherit; opacity: 0.75; stroke: rgb(225, 225, 225); stroke-opacity: 1; stroke-width: 1px; stroke-dasharray: none;"/><text x="41.3" y="381.4" fill="rgb(68,68,68)" class="wj-label" fill-opacity="1" style="box-sizing: inherit; cursor: default; font-size: 10pt; font-family: &apos;Segoe UI&apos;; font-style: normal; font-weight: normal; fill: rgb(68, 68, 68); fill-opacity: 1;">1,610</text><line stroke="rgb(225,225,225)" stroke-width="1px" x1="85.9" x2="1720.6" y1="313.3" y2="313.3" class="wj-gridline" stroke-opacity="1" stroke-dasharray="none" style="box-sizing: inherit; opacity: 0.75; stroke: rgb(225, 225, 225); stroke-opacity: 1; stroke-width: 1px; stroke-dasharray: none;"/><text x="41.3" y="318.8" fill="rgb(68,68,68)" class="wj-label" fill-opacity="1" style="box-sizing: inherit; cursor: default; font-size: 10pt; font-family: &apos;Segoe UI&apos;; font-style: normal; font-weight: normal; fill: rgb(68, 68, 68); fill-opacity: 1;">1,620</text><line stroke="rgb(225,225,225)" stroke-width="1px" x1="85.9" x2="1720.6" y1="250.7" y2="250.7" class="wj-gridline" stroke-opacity="1" stroke-dasharray="none" style="box-sizing: inherit; opacity: 0.75; stroke: rgb(225, 225, 225); stroke-opacity: 1; stroke-width: 1px; stroke-dasharray: none;"/><text x="41.3" y="256.2" fill="rgb(68,68,68)" class="wj-label" fill-opacity="1" style="box-sizing: inherit; cursor: default; font-size: 10pt; font-family: &apos;Segoe UI&apos;; font-style: normal; font-weight: normal; fill: rgb(68, 68, 68); fill-opacity: 1;">1,630</text><line stroke="rgb(225,225,225)" stroke-width="1px" x1="85.9" x2="1720.6" y1="188.1" y2="188.1" class="wj-gridline" stroke-opacity="1" stroke-dasharray="none" style="box-sizing: inherit; opacity: 0.75; stroke: rgb(225, 225, 225); stroke-opacity: 1; stroke-width: 1px; stroke-dasharray: none;"/><text x="41.3" y="193.6" fill="rgb(68,68,68)" class="wj-label" fill-opacity="1" style="box-sizing: inherit; cursor: default; font-size: 10pt; font-family: &apos;Segoe UI&apos;; font-style: normal; font-weight: normal; fill: rgb(68, 68, 68); fill-opacity: 1;">1,640</text><line stroke="rgb(225,225,225)" stroke-width="1px" x1="85.9" x2="1720.6" y1="125.6" y2="125.6" class="wj-gridline" stroke-opacity="1" stroke-dasharray="none" style="box-sizing: inherit; opacity: 0.75; stroke: rgb(225, 225, 225); stroke-opacity: 1; stroke-width: 1px; stroke-dasharray: none;"/><text x="41.3" y="131.1" fill="rgb(68,68,68)" class="wj-label" fill-opacity="1" style="box-sizing: inherit; cursor: default; font-size: 10pt; font-family: &apos;Segoe UI&apos;; font-style: normal; font-weight: normal; fill: rgb(68, 68, 68); fill-opacity: 1;">1,650</text><line stroke="rgb(225,225,225)" stroke-width="1px" x1="85.9" x2="1720.6" y1="63.0" y2="63.0" class="wj-gridline" stroke-opacity="1" stroke-dasharray="none" style="box-sizing: inherit; opacity: 0.75; stroke: rgb(225, 225, 225); stroke-opacity: 1; stroke-width: 1px; stroke-dasharray: none;"/><text x="41.3" y="68.5" fill="rgb(68,68,68)" class="wj-label" fill-opacity="1" style="box-sizing: inherit; cursor: default; font-size: 10pt; font-family: &apos;Segoe UI&apos;; font-style: normal; font-weight: normal; fill: rgb(68, 68, 68); fill-opacity: 1;">1,660</text><g transform="rotate(-90.0,10.5,412.0)" style="box-sizing: inherit;"><text x="-21.4" y="418.5" fill="rgb(68,68,68)" class="wj-title" fill-opacity="1" style="box-sizing: inherit; cursor: default; font-size: 12pt; font-family: &apos;Segoe UI&apos;; font-style: normal; font-weight: normal; fill: rgb(68, 68, 68); fill-opacity: 1;">Elevation</text></g><line stroke="rgb(156,156,156)" stroke-width="1px" x1="85.9" x2="85.9" y1="45.0" y2="779.0" class="wj-line" stroke-opacity="0" stroke-dasharray="none" style="box-sizing: inherit; stroke: rgb(156, 156, 156); stroke-opacity: 0; stroke-width: 1px; stroke-dasharray: none;"/></g><g class="wj-series-group" style="box-sizing: inherit;"><g style="box-sizing: inherit;"><polyline stroke="rgb(148,86,173)" stroke-width="1.35" fill="none" points="85.9,779.0 91.1,778.3 96.4,775.8 101.6,771.8 106.9,767.9 112.1,764.3 117.3,760.5 122.6,756.8 127.8,753.3 133.1,750.0 138.3,746.6 143.5,742.8 148.8,738.7 154.0,735.0 159.3,731.0 164.5,726.8 169.7,723.0 175.0,719.6 180.2,716.3 185.5,712.9 190.7,709.3 195.9,705.2 201.2,700.8 206.4,696.0 211.7,689.9 216.9,683.4 222.1,678.2 227.4,673.9 232.6,669.0 237.8,664.2 243.1,660.1 248.3,656.0 253.6,652.5 258.8,648.9 264.0,645.1 269.3,640.8 274.5,636.2 279.8,632.1 285.0,628.3 290.2,624.1 295.5,618.7 300.7,613.1 306.0,608.2 311.2,604.4 316.4,600.6 321.7,596.9 326.9,593.3 332.2,589.6 337.4,584.9 342.6,580.0 347.9,575.2 353.1,571.0 358.4,566.8 363.6,562.3 368.8,557.7 374.1,553.3 379.3,548.8 384.5,544.2 389.8,539.7 395.0,535.7 400.3,531.7 405.5,527.5 410.7,523.6 416.0,519.8 421.2,516.2 426.5,512.6 431.7,509.2 436.9,505.6 442.2,501.6 447.4,497.4 452.7,493.4 457.9,489.6 463.1,485.8 468.4,482.3 473.6,478.1 478.9,473.4 484.1,469.0 489.3,465.1 494.6,461.5 499.8,458.3 505.1,455.5 510.3,452.4 515.5,448.8 520.8,445.0 526.0,441.7 531.3,438.6 536.5,435.3 541.7,431.8 547.0,428.1 552.2,424.4 557.4,421.7 562.7,419.0 567.9,415.5 573.2,412.1 578.4,408.6 583.6,405.0 588.9,401.6 594.1,398.7 599.4,395.6 604.6,392.1 609.8,388.6 615.1,385.2 620.3,381.9 625.6,378.1 630.8,373.4 636.0,368.5 641.3,364.4 646.5,360.8 651.8,357.6 657.0,354.4 662.2,351.2 667.5,346.1 672.7,336.9 678.0,322.9 683.2,313.4 688.4,308.9 693.7,306.2 698.9,302.7 704.2,299.7 709.4,297.0 714.6,293.4 719.9,289.5 725.1,286.0 730.3,282.8 735.6,279.1 740.8,275.3 746.1,271.9 751.3,269.3 756.5,267.2 761.8,264.7 767.0,261.2 772.3,252.7 777.5,244.1 782.7,238.3 788.0,236.8 793.2,235.2 798.5,233.6 803.7,231.9 808.9,229.7 814.2,227.1 819.4,224.3 824.7,220.9 829.9,217.5 835.1,214.1 840.4,210.3 845.6,206.4 850.9,203.2 856.1,200.9 861.3,199.3 866.6,198.2 871.8,196.9 877.0,195.3 882.3,194.0 887.5,192.5 892.8,190.8 898.0,189.4 903.2,188.2 908.5,186.9 913.7,185.6 919.0,184.5 924.2,183.1 929.4,181.8 934.7,181.0 939.9,180.4 945.2,179.8 950.4,178.9 955.6,177.7 960.9,176.5 966.1,175.2 971.4,174.1 976.6,173.2 981.8,172.2 987.1,171.2 992.3,170.1 997.6,169.1 1002.8,167.5 1008.0,165.8 1013.3,164.3 1018.5,163.0 1023.8,161.7 1029.0,160.4 1034.2,159.3 1039.5,158.4 1044.7,157.4 1049.9,156.2 1055.2,154.9 1060.4,153.7 1065.7,152.5 1070.9,151.2 1076.1,150.0 1081.4,149.0 1086.6,147.9 1091.9,146.8 1097.1,145.9 1102.3,144.9 1107.6,143.8 1112.8,142.6 1118.1,141.3 1123.3,139.8 1128.5,138.6 1133.8,137.4 1139.0,136.3 1144.3,134.8 1149.5,133.3 1154.7,132.1 1160.0,130.9 1165.2,129.4 1170.5,128.0 1175.7,126.5 1180.9,125.0 1186.2,123.4 1191.4,121.6 1196.7,119.5 1201.9,117.5 1207.1,115.7 1212.4,113.8 1217.6,111.9 1222.8,109.9 1228.1,108.3 1233.3,106.7 1238.6,105.3 1243.8,103.6 1249.0,101.7 1254.3,99.6 1259.5,97.3 1264.8,95.1 1270.0,93.1 1275.2,91.4 1280.5,90.0 1285.7,89.2 1291.0,88.5 1296.2,87.6 1301.4,86.2 1306.7,84.9 1311.9,83.9 1317.2,82.9 1322.4,81.8 1327.6,80.8 1332.9,79.7 1338.1,78.6 1343.4,77.6 1348.6,76.7 1353.8,75.6 1359.1,74.5 1364.3,73.8 1369.5,73.0 1374.8,72.0 1380.0,71.1 1385.3,70.3 1390.5,69.4 1395.7,68.6 1401.0,67.8 1406.2,67.1 1411.5,66.5 1416.7,65.7 1421.9,64.7 1427.2,63.5 1432.4,62.2 1437.7,60.9 1442.9,59.9 1448.1,59.1 1453.4,58.5 1458.6,58.0 1463.9,57.5 1469.1,57.1 1474.3,56.5 1479.6,55.9 1484.8,55.3 1490.1,54.9 1495.3,54.4 1500.5,53.9 1505.8,53.4 1511.0,52.9 1516.3,52.4 1521.5,52.1 1526.7,51.7 1532.0,51.3 1537.2,50.9 1542.4,50.5 1547.7,50.3 1552.9,50.3 1558.2,50.4 1563.4,50.3 1568.6,50.1 1573.9,49.9 1579.1,49.6 1584.4,49.4 1589.6,49.2 1594.8,49.1 1600.1,49.0 1605.3,48.9 1610.6,48.8 1615.8,48.6 1621.0,48.3 1626.3,48.0 1631.5,47.8 1636.8,47.7 1642.0,47.6 1647.2,47.4 1652.5,47.2 1657.7,47.1 1663.0,46.9 1668.2,46.5 1673.4,46.3 1678.7,46.3 1683.9,46.3 1689.1,46.3 1694.4,46.1 1699.6,45.9 1704.9,45.6 1710.1,45.4 1715.3,45.1 1720.6,45.0 " clip-path="url(#plotRect944920)" style="box-sizing: inherit; stroke-width: 1.35;" stroke-opacity="1"/></g></g><clipPath id="plotRect944920" style="box-sizing: inherit;"><rect x="84.9" y="44.0" width="1636.7" height="736.0" style="box-sizing: inherit;"/></clipPath><clipPath id="plotRect246258" style="box-sizing: inherit;"><rect x="-1.0" y="-1.0" width="1636.7" height="736.0" style="box-sizing: inherit;"/></clipPath><g class="wj-chart-annotationlayer" transform="translate(85.90625, 45)" style="box-sizing: inherit;" clip-path="url(#plotRect246258)"/></svg>