<svg xmlns="http://www.w3.org/2000/svg" width="1451" height="839" style="box-sizing: inherit; font-family: Calibri;"><rect id="backgroundRect" width="100%" height="100%" x="0" y="0" fill="rgb(255,255,255)" fill-opacity="1" visibility="visible" style="box-sizing: inherit; fill: rgb(255, 255, 255); fill-opacity: 1;"/><defs style="box-sizing: inherit;"/><clipPath id="chartRect458539" style="box-sizing: inherit;"><rect x="-1.0" y="-1.0" width="1448.0" height="833.0" style="box-sizing: inherit;"/></clipPath><g class="wj-header" style="box-sizing: inherit; background: rgb(238, 238, 238); color: rgb(68, 68, 68); font-weight: 700;" clip-path="url(#chartRect458539)"><text x="515.4" y="23.0" fill="rgb(68,68,68)" class="wj-title" fill-opacity="1" style="box-sizing: inherit; cursor: default; font-size: 16pt; font-family: &apos;Segoe UI&apos;; font-style: normal; font-weight: normal; fill: rgb(68, 68, 68); fill-opacity: 1;">Profile Graph lc_1m_dem_InterpolateShape7</text></g><g class="wj-footer" style="box-sizing: inherit;" clip-path="url(#chartRect458539)"/><clipPath id="legRect369456" style="box-sizing: inherit;"><rect x="1445.0" y="428.5" width="2.0" height="2.0" style="box-sizing: inherit;"/></clipPath><g class="wj-legend" style="box-sizing: inherit;" clip-path="url(#legRect369456)"/><g class="wj-plot-area" style="box-sizing: inherit;"><rect fill="#000000" stroke-width="1" x="85.9" y="45.0" width="1340.7" height="734.0" fill-opacity="0" style="box-sizing: inherit;"/></g><g class="wj-axis-x" style="box-sizing: inherit;" clip-path="url(#chartRect458539)"><text x="82.3" y="802.0" fill="rgb(68,68,68)" class="wj-label" fill-opacity="1" style="box-sizing: inherit; cursor: default; font-size: 10pt; font-family: &apos;Segoe UI&apos;; font-style: normal; font-weight: normal; fill: rgb(68, 68, 68); fill-opacity: 1;">0</text><line stroke="rgb(156,156,156)" stroke-width="1px" x1="85.9" x2="85.9" y1="779.0" y2="783.0" class="wj-tick" stroke-opacity="1" stroke-dasharray="none" style="box-sizing: inherit; stroke: rgb(156, 156, 156); stroke-opacity: 1; stroke-width: 1px; stroke-dasharray: none;"/><text x="165.0" y="802.0" fill="rgb(68,68,68)" class="wj-label" fill-opacity="1" style="box-sizing: inherit; cursor: default; font-size: 10pt; font-family: &apos;Segoe UI&apos;; font-style: normal; font-weight: normal; fill: rgb(68, 68, 68); fill-opacity: 1;">20</text><line stroke="rgb(156,156,156)" stroke-width="1px" x1="172.1" x2="172.1" y1="779.0" y2="783.0" class="wj-tick" stroke-opacity="1" stroke-dasharray="none" style="box-sizing: inherit; stroke: rgb(156, 156, 156); stroke-opacity: 1; stroke-width: 1px; stroke-dasharray: none;"/><text x="250.7" y="802.0" fill="rgb(68,68,68)" class="wj-label" fill-opacity="1" style="box-sizing: inherit; cursor: default; font-size: 10pt; font-family: &apos;Segoe UI&apos;; font-style: normal; font-weight: normal; fill: rgb(68, 68, 68); fill-opacity: 1;">40</text><line stroke="rgb(156,156,156)" stroke-width="1px" x1="258.4" x2="258.4" y1="779.0" y2="783.0" class="wj-tick" stroke-opacity="1" stroke-dasharray="none" style="box-sizing: inherit; stroke: rgb(156, 156, 156); stroke-opacity: 1; stroke-width: 1px; stroke-dasharray: none;"/><text x="337.4" y="802.0" fill="rgb(68,68,68)" class="wj-label" fill-opacity="1" style="box-sizing: inherit; cursor: default; font-size: 10pt; font-family: &apos;Segoe UI&apos;; font-style: normal; font-weight: normal; fill: rgb(68, 68, 68); fill-opacity: 1;">60</text><line stroke="rgb(156,156,156)" stroke-width="1px" x1="344.6" x2="344.6" y1="779.0" y2="783.0" class="wj-tick" stroke-opacity="1" stroke-dasharray="none" style="box-sizing: inherit; stroke: rgb(156, 156, 156); stroke-opacity: 1; stroke-width: 1px; stroke-dasharray: none;"/><text x="423.7" y="802.0" fill="rgb(68,68,68)" class="wj-label" fill-opacity="1" style="box-sizing: inherit; cursor: default; font-size: 10pt; font-family: &apos;Segoe UI&apos;; font-style: normal; font-weight: normal; fill: rgb(68, 68, 68); fill-opacity: 1;">80</text><line stroke="rgb(156,156,156)" stroke-width="1px" x1="430.8" x2="430.8" y1="779.0" y2="783.0" class="wj-tick" stroke-opacity="1" stroke-dasharray="none" style="box-sizing: inherit; stroke: rgb(156, 156, 156); stroke-opacity: 1; stroke-width: 1px; stroke-dasharray: none;"/><text x="506.3" y="802.0" fill="rgb(68,68,68)" class="wj-label" fill-opacity="1" style="box-sizing: inherit; cursor: default; font-size: 10pt; font-family: &apos;Segoe UI&apos;; font-style: normal; font-weight: normal; fill: rgb(68, 68, 68); fill-opacity: 1;">100</text><line stroke="rgb(156,156,156)" stroke-width="1px" x1="517.1" x2="517.1" y1="779.0" y2="783.0" class="wj-tick" stroke-opacity="1" stroke-dasharray="none" style="box-sizing: inherit; stroke: rgb(156, 156, 156); stroke-opacity: 1; stroke-width: 1px; stroke-dasharray: none;"/><text x="592.5" y="802.0" fill="rgb(68,68,68)" class="wj-label" fill-opacity="1" style="box-sizing: inherit; cursor: default; font-size: 10pt; font-family: &apos;Segoe UI&apos;; font-style: normal; font-weight: normal; fill: rgb(68, 68, 68); fill-opacity: 1;">120</text><line stroke="rgb(156,156,156)" stroke-width="1px" x1="603.3" x2="603.3" y1="779.0" y2="783.0" class="wj-tick" stroke-opacity="1" stroke-dasharray="none" style="box-sizing: inherit; stroke: rgb(156, 156, 156); stroke-opacity: 1; stroke-width: 1px; stroke-dasharray: none;"/><text x="678.8" y="802.0" fill="rgb(68,68,68)" class="wj-label" fill-opacity="1" style="box-sizing: inherit; cursor: default; font-size: 10pt; font-family: &apos;Segoe UI&apos;; font-style: normal; font-weight: normal; fill: rgb(68, 68, 68); fill-opacity: 1;">140</text><line stroke="rgb(156,156,156)" stroke-width="1px" x1="689.5" x2="689.5" y1="779.0" y2="783.0" class="wj-tick" stroke-opacity="1" stroke-dasharray="none" style="box-sizing: inherit; stroke: rgb(156, 156, 156); stroke-opacity: 1; stroke-width: 1px; stroke-dasharray: none;"/><text x="765.0" y="802.0" fill="rgb(68,68,68)" class="wj-label" fill-opacity="1" style="box-sizing: inherit; cursor: default; font-size: 10pt; font-family: &apos;Segoe UI&apos;; font-style: normal; font-weight: normal; fill: rgb(68, 68, 68); fill-opacity: 1;">160</text><line stroke="rgb(156,156,156)" stroke-width="1px" x1="775.8" x2="775.8" y1="779.0" y2="783.0" class="wj-tick" stroke-opacity="1" stroke-dasharray="none" style="box-sizing: inherit; stroke: rgb(156, 156, 156); stroke-opacity: 1; stroke-width: 1px; stroke-dasharray: none;"/><text x="851.2" y="802.0" fill="rgb(68,68,68)" class="wj-label" fill-opacity="1" style="box-sizing: inherit; cursor: default; font-size: 10pt; font-family: &apos;Segoe UI&apos;; font-style: normal; font-weight: normal; fill: rgb(68, 68, 68); fill-opacity: 1;">180</text><line stroke="rgb(156,156,156)" stroke-width="1px" x1="862.0" x2="862.0" y1="779.0" y2="783.0" class="wj-tick" stroke-opacity="1" stroke-dasharray="none" style="box-sizing: inherit; stroke: rgb(156, 156, 156); stroke-opacity: 1; stroke-width: 1px; stroke-dasharray: none;"/><text x="937.5" y="802.0" fill="rgb(68,68,68)" class="wj-label" fill-opacity="1" style="box-sizing: inherit; cursor: default; font-size: 10pt; font-family: &apos;Segoe UI&apos;; font-style: normal; font-weight: normal; fill: rgb(68, 68, 68); fill-opacity: 1;">200</text><line stroke="rgb(156,156,156)" stroke-width="1px" x1="948.3" x2="948.3" y1="779.0" y2="783.0" class="wj-tick" stroke-opacity="1" stroke-dasharray="none" style="box-sizing: inherit; stroke: rgb(156, 156, 156); stroke-opacity: 1; stroke-width: 1px; stroke-dasharray: none;"/><text x="1023.7" y="802.0" fill="rgb(68,68,68)" class="wj-label" fill-opacity="1" style="box-sizing: inherit; cursor: default; font-size: 10pt; font-family: &apos;Segoe UI&apos;; font-style: normal; font-weight: normal; fill: rgb(68, 68, 68); fill-opacity: 1;">220</text><line stroke="rgb(156,156,156)" stroke-width="1px" x1="1034.5" x2="1034.5" y1="779.0" y2="783.0" class="wj-tick" stroke-opacity="1" stroke-dasharray="none" style="box-sizing: inherit; stroke: rgb(156, 156, 156); stroke-opacity: 1; stroke-width: 1px; stroke-dasharray: none;"/><text x="1109.9" y="802.0" fill="rgb(68,68,68)" class="wj-label" fill-opacity="1" style="box-sizing: inherit; cursor: default; font-size: 10pt; font-family: &apos;Segoe UI&apos;; font-style: normal; font-weight: normal; fill: rgb(68, 68, 68); fill-opacity: 1;">240</text><line stroke="rgb(156,156,156)" stroke-width="1px" x1="1120.7" x2="1120.7" y1="779.0" y2="783.0" class="wj-tick" stroke-opacity="1" stroke-dasharray="none" style="box-sizing: inherit; stroke: rgb(156, 156, 156); stroke-opacity: 1; stroke-width: 1px; stroke-dasharray: none;"/><text x="1196.2" y="802.0" fill="rgb(68,68,68)" class="wj-label" fill-opacity="1" style="box-sizing: inherit; cursor: default; font-size: 10pt; font-family: &apos;Segoe UI&apos;; font-style: normal; font-weight: normal; fill: rgb(68, 68, 68); fill-opacity: 1;">260</text><line stroke="rgb(156,156,156)" stroke-width="1px" x1="1207.0" x2="1207.0" y1="779.0" y2="783.0" class="wj-tick" stroke-opacity="1" stroke-dasharray="none" style="box-sizing: inherit; stroke: rgb(156, 156, 156); stroke-opacity: 1; stroke-width: 1px; stroke-dasharray: none;"/><text x="1282.4" y="802.0" fill="rgb(68,68,68)" class="wj-label" fill-opacity="1" style="box-sizing: inherit; cursor: default; font-size: 10pt; font-family: &apos;Segoe UI&apos;; font-style: normal; font-weight: normal; fill: rgb(68, 68, 68); fill-opacity: 1;">280</text><line stroke="rgb(156,156,156)" stroke-width="1px" x1="1293.2" x2="1293.2" y1="779.0" y2="783.0" class="wj-tick" stroke-opacity="1" stroke-dasharray="none" style="box-sizing: inherit; stroke: rgb(156, 156, 156); stroke-opacity: 1; stroke-width: 1px; stroke-dasharray: none;"/><text x="1368.6" y="802.0" fill="rgb(68,68,68)" class="wj-label" fill-opacity="1" style="box-sizing: inherit; cursor: default; font-size: 10pt; font-family: &apos;Segoe UI&apos;; font-style: normal; font-weight: normal; fill: rgb(68, 68, 68); fill-opacity: 1;">300</text><line stroke="rgb(156,156,156)" stroke-width="1px" x1="1379.4" x2="1379.4" y1="779.0" y2="783.0" class="wj-tick" stroke-opacity="1" stroke-dasharray="none" style="box-sizing: inherit; stroke: rgb(156, 156, 156); stroke-opacity: 1; stroke-width: 1px; stroke-dasharray: none;"/><line stroke="rgb(156,156,156)" stroke-width="1px" x1="85.9" x2="1426.6" y1="779.0" y2="779.0" class="wj-line" stroke-opacity="1" stroke-dasharray="none" style="box-sizing: inherit; stroke: rgb(156, 156, 156); stroke-opacity: 1; stroke-width: 1px; stroke-dasharray: none;"/><text x="693.2" y="827.0" fill="rgb(68,68,68)" class="wj-title" fill-opacity="1" style="box-sizing: inherit; cursor: default; font-size: 12pt; font-family: &apos;Segoe UI&apos;; font-style: normal; font-weight: normal; fill: rgb(68, 68, 68); fill-opacity: 1;">Horizontal Distance</text></g><g class="wj-axis-y" style="box-sizing: inherit;" clip-path="url(#chartRect458539)"><line stroke="rgb(225,225,225)" stroke-width="1px" x1="85.9" x2="1426.6" y1="761.5" y2="761.5" class="wj-gridline" stroke-opacity="1" stroke-dasharray="none" style="box-sizing: inherit; opacity: 0.75; stroke: rgb(225, 225, 225); stroke-opacity: 1; stroke-width: 1px; stroke-dasharray: none;"/><text x="41.3" y="767.0" fill="rgb(68,68,68)" class="wj-label" fill-opacity="1" style="box-sizing: inherit; cursor: default; font-size: 10pt; font-family: &apos;Segoe UI&apos;; font-style: normal; font-weight: normal; fill: rgb(68, 68, 68); fill-opacity: 1;">1,530</text><line stroke="rgb(225,225,225)" stroke-width="1px" x1="85.9" x2="1426.6" y1="705.8" y2="705.8" class="wj-gridline" stroke-opacity="1" stroke-dasharray="none" style="box-sizing: inherit; opacity: 0.75; stroke: rgb(225, 225, 225); stroke-opacity: 1; stroke-width: 1px; stroke-dasharray: none;"/><text x="41.3" y="711.3" fill="rgb(68,68,68)" class="wj-label" fill-opacity="1" style="box-sizing: inherit; cursor: default; font-size: 10pt; font-family: &apos;Segoe UI&apos;; font-style: normal; font-weight: normal; fill: rgb(68, 68, 68); fill-opacity: 1;">1,540</text><line stroke="rgb(225,225,225)" stroke-width="1px" x1="85.9" x2="1426.6" y1="650.1" y2="650.1" class="wj-gridline" stroke-opacity="1" stroke-dasharray="none" style="box-sizing: inherit; opacity: 0.75; stroke: rgb(225, 225, 225); stroke-opacity: 1; stroke-width: 1px; stroke-dasharray: none;"/><text x="41.3" y="655.6" fill="rgb(68,68,68)" class="wj-label" fill-opacity="1" style="box-sizing: inherit; cursor: default; font-size: 10pt; font-family: &apos;Segoe UI&apos;; font-style: normal; font-weight: normal; fill: rgb(68, 68, 68); fill-opacity: 1;">1,550</text><line stroke="rgb(225,225,225)" stroke-width="1px" x1="85.9" x2="1426.6" y1="594.3" y2="594.3" class="wj-gridline" stroke-opacity="1" stroke-dasharray="none" style="box-sizing: inherit; opacity: 0.75; stroke: rgb(225, 225, 225); stroke-opacity: 1; stroke-width: 1px; stroke-dasharray: none;"/><text x="41.3" y="599.8" fill="rgb(68,68,68)" class="wj-label" fill-opacity="1" style="box-sizing: inherit; cursor: default; font-size: 10pt; font-family: &apos;Segoe UI&apos;; font-style: normal; font-weight: normal; fill: rgb(68, 68, 68); fill-opacity: 1;">1,560</text><line stroke="rgb(225,225,225)" stroke-width="1px" x1="85.9" x2="1426.6" y1="538.6" y2="538.6" class="wj-gridline" stroke-opacity="1" stroke-dasharray="none" style="box-sizing: inherit; opacity: 0.75; stroke: rgb(225, 225, 225); stroke-opacity: 1; stroke-width: 1px; stroke-dasharray: none;"/><text x="41.3" y="544.1" fill="rgb(68,68,68)" class="wj-label" fill-opacity="1" style="box-sizing: inherit; cursor: default; font-size: 10pt; font-family: &apos;Segoe UI&apos;; font-style: normal; font-weight: normal; fill: rgb(68, 68, 68); fill-opacity: 1;">1,570</text><line stroke="rgb(225,225,225)" stroke-width="1px" x1="85.9" x2="1426.6" y1="482.9" y2="482.9" class="wj-gridline" stroke-opacity="1" stroke-dasharray="none" style="box-sizing: inherit; opacity: 0.75; stroke: rgb(225, 225, 225); stroke-opacity: 1; stroke-width: 1px; stroke-dasharray: none;"/><text x="41.3" y="488.4" fill="rgb(68,68,68)" class="wj-label" fill-opacity="1" style="box-sizing: inherit; cursor: default; font-size: 10pt; font-family: &apos;Segoe UI&apos;; font-style: normal; font-weight: normal; fill: rgb(68, 68, 68); fill-opacity: 1;">1,580</text><line stroke="rgb(225,225,225)" stroke-width="1px" x1="85.9" x2="1426.6" y1="427.1" y2="427.1" class="wj-gridline" stroke-opacity="1" stroke-dasharray="none" style="box-sizing: inherit; opacity: 0.75; stroke: rgb(225, 225, 225); stroke-opacity: 1; stroke-width: 1px; stroke-dasharray: none;"/><text x="41.3" y="432.6" fill="rgb(68,68,68)" class="wj-label" fill-opacity="1" style="box-sizing: inherit; cursor: default; font-size: 10pt; font-family: &apos;Segoe UI&apos;; font-style: normal; font-weight: normal; fill: rgb(68, 68, 68); fill-opacity: 1;">1,590</text><line stroke="rgb(225,225,225)" stroke-width="1px" x1="85.9" x2="1426.6" y1="371.4" y2="371.4" class="wj-gridline" stroke-opacity="1" stroke-dasharray="none" style="box-sizing: inherit; opacity: 0.75; stroke: rgb(225, 225, 225); stroke-opacity: 1; stroke-width: 1px; stroke-dasharray: none;"/><text x="41.3" y="376.9" fill="rgb(68,68,68)" class="wj-label" fill-opacity="1" style="box-sizing: inherit; cursor: default; font-size: 10pt; font-family: &apos;Segoe UI&apos;; font-style: normal; font-weight: normal; fill: rgb(68, 68, 68); fill-opacity: 1;">1,600</text><line stroke="rgb(225,225,225)" stroke-width="1px" x1="85.9" x2="1426.6" y1="315.6" y2="315.6" class="wj-gridline" stroke-opacity="1" stroke-dasharray="none" style="box-sizing: inherit; opacity: 0.75; stroke: rgb(225, 225, 225); stroke-opacity: 1; stroke-width: 1px; stroke-dasharray: none;"/><text x="41.3" y="321.1" fill="rgb(68,68,68)" class="wj-label" fill-opacity="1" style="box-sizing: inherit; cursor: default; font-size: 10pt; font-family: &apos;Segoe UI&apos;; font-style: normal; font-weight: normal; fill: rgb(68, 68, 68); fill-opacity: 1;">1,610</text><line stroke="rgb(225,225,225)" stroke-width="1px" x1="85.9" x2="1426.6" y1="259.9" y2="259.9" class="wj-gridline" stroke-opacity="1" stroke-dasharray="none" style="box-sizing: inherit; opacity: 0.75; stroke: rgb(225, 225, 225); stroke-opacity: 1; stroke-width: 1px; stroke-dasharray: none;"/><text x="41.3" y="265.4" fill="rgb(68,68,68)" class="wj-label" fill-opacity="1" style="box-sizing: inherit; cursor: default; font-size: 10pt; font-family: &apos;Segoe UI&apos;; font-style: normal; font-weight: normal; fill: rgb(68, 68, 68); fill-opacity: 1;">1,620</text><line stroke="rgb(225,225,225)" stroke-width="1px" x1="85.9" x2="1426.6" y1="204.2" y2="204.2" class="wj-gridline" stroke-opacity="1" stroke-dasharray="none" style="box-sizing: inherit; opacity: 0.75; stroke: rgb(225, 225, 225); stroke-opacity: 1; stroke-width: 1px; stroke-dasharray: none;"/><text x="41.3" y="209.7" fill="rgb(68,68,68)" class="wj-label" fill-opacity="1" style="box-sizing: inherit; cursor: default; font-size: 10pt; font-family: &apos;Segoe UI&apos;; font-style: normal; font-weight: normal; fill: rgb(68, 68, 68); fill-opacity: 1;">1,630</text><line stroke="rgb(225,225,225)" stroke-width="1px" x1="85.9" x2="1426.6" y1="148.4" y2="148.4" class="wj-gridline" stroke-opacity="1" stroke-dasharray="none" style="box-sizing: inherit; opacity: 0.75; stroke: rgb(225, 225, 225); stroke-opacity: 1; stroke-width: 1px; stroke-dasharray: none;"/><text x="41.3" y="153.9" fill="rgb(68,68,68)" class="wj-label" fill-opacity="1" style="box-sizing: inherit; cursor: default; font-size: 10pt; font-family: &apos;Segoe UI&apos;; font-style: normal; font-weight: normal; fill: rgb(68, 68, 68); fill-opacity: 1;">1,640</text><line stroke="rgb(225,225,225)" stroke-width="1px" x1="85.9" x2="1426.6" y1="92.7" y2="92.7" class="wj-gridline" stroke-opacity="1" stroke-dasharray="none" style="box-sizing: inherit; opacity: 0.75; stroke: rgb(225, 225, 225); stroke-opacity: 1; stroke-width: 1px; stroke-dasharray: none;"/><text x="41.3" y="98.2" fill="rgb(68,68,68)" class="wj-label" fill-opacity="1" style="box-sizing: inherit; cursor: default; font-size: 10pt; font-family: &apos;Segoe UI&apos;; font-style: normal; font-weight: normal; fill: rgb(68, 68, 68); fill-opacity: 1;">1,650</text><g transform="rotate(-90.0,10.5,412.0)" style="box-sizing: inherit;"><text x="-21.4" y="418.5" fill="rgb(68,68,68)" class="wj-title" fill-opacity="1" style="box-sizing: inherit; cursor: default; font-size: 12pt; font-family: &apos;Segoe UI&apos;; font-style: normal; font-weight: normal; fill: rgb(68, 68, 68); fill-opacity: 1;">Elevation</text></g><line stroke="rgb(156,156,156)" stroke-width="1px" x1="85.9" x2="85.9" y1="45.0" y2="779.0" class="wj-line" stroke-opacity="0" stroke-dasharray="none" style="box-sizing: inherit; stroke: rgb(156, 156, 156); stroke-opacity: 0; stroke-width: 1px; stroke-dasharray: none;"/></g><g class="wj-series-group" style="box-sizing: inherit;"><g style="box-sizing: inherit;"><polyline stroke="rgb(82,76,165)" stroke-width="1.35" fill="none" points="85.9,779.0 90.2,776.0 94.5,772.0 98.8,768.4 103.1,765.4 107.5,762.4 111.8,756.3 116.1,745.1 120.4,728.9 124.7,714.6 129.0,705.1 133.3,699.1 137.6,695.6 141.9,692.4 146.3,689.4 150.6,686.2 154.9,683.4 159.2,680.6 163.5,677.2 167.8,672.0 172.1,666.8 176.4,663.3 180.7,660.5 185.1,657.3 189.4,653.5 193.7,650.2 198.0,647.1 202.3,644.2 206.6,641.1 210.9,638.0 215.2,634.8 219.5,631.7 223.9,628.8 228.2,626.0 232.5,622.8 236.8,619.0 241.1,615.4 245.4,612.0 249.7,608.5 254.0,604.8 258.3,601.3 262.7,598.0 267.0,594.8 271.3,591.2 275.6,587.6 279.9,584.2 284.2,581.0 288.5,577.5 292.8,573.4 297.1,569.2 301.4,565.5 305.8,562.3 310.1,559.3 314.4,556.5 318.7,553.4 323.0,549.4 327.3,545.1 331.6,541.2 335.9,537.6 340.2,534.4 344.6,531.4 348.9,528.2 353.2,525.0 357.5,521.4 361.8,517.7 366.1,514.4 370.4,511.6 374.7,508.5 379.0,505.2 383.4,502.0 387.7,498.8 392.0,495.7 396.3,492.7 400.6,489.6 404.9,486.0 409.2,481.5 413.5,476.1 417.8,471.3 422.2,467.9 426.5,465.1 430.8,461.9 435.1,458.7 439.4,455.7 443.7,452.4 448.0,449.1 452.3,445.8 456.6,442.4 461.0,439.1 465.3,436.0 469.6,433.2 473.9,430.5 478.2,427.6 482.5,424.8 486.8,422.0 491.1,419.2 495.4,416.5 499.7,413.7 504.1,410.7 508.4,407.6 512.7,404.5 517.0,401.4 521.3,398.3 525.6,395.3 529.9,392.3 534.2,389.2 538.5,386.4 542.9,383.7 547.2,380.9 551.5,378.2 555.8,375.5 560.1,372.8 564.4,369.9 568.7,367.0 573.0,363.7 577.3,359.9 581.7,356.3 586.0,352.9 590.3,349.9 594.6,347.4 598.9,345.0 603.2,342.6 607.5,340.0 611.8,337.4 616.1,334.9 620.5,332.3 624.8,329.0 629.1,325.8 633.4,322.9 637.7,320.3 642.0,317.8 646.3,315.0 650.6,312.2 654.9,309.5 659.3,306.8 663.6,303.9 667.9,300.7 672.2,297.0 676.5,293.1 680.8,289.7 685.1,286.6 689.4,284.0 693.7,281.7 698.0,279.5 702.4,277.3 706.7,274.8 711.0,271.7 715.3,267.9 719.6,264.2 723.9,260.8 728.2,257.6 732.5,254.6 736.8,251.9 741.2,249.6 745.5,246.9 749.8,244.0 754.1,241.2 758.4,238.8 762.7,236.5 767.0,234.3 771.3,232.3 775.6,229.9 780.0,227.2 784.3,225.0 788.6,222.7 792.9,220.1 797.2,217.4 801.5,214.8 805.8,212.5 810.1,210.3 814.4,208.1 818.8,205.9 823.1,203.7 827.4,201.4 831.7,198.8 836.0,196.1 840.3,193.4 844.6,190.5 848.9,187.8 853.2,185.2 857.6,182.5 861.9,178.9 866.2,174.8 870.5,171.8 874.8,169.6 879.1,166.7 883.4,163.8 887.7,161.3 892.0,159.3 896.3,157.2 900.7,154.8 905.0,152.2 909.3,149.7 913.6,146.8 917.9,143.4 922.2,140.3 926.5,137.6 930.8,135.6 935.1,133.9 939.5,132.4 943.8,130.9 948.1,129.3 952.4,127.5 956.7,125.5 961.0,123.7 965.3,122.3 969.6,121.0 973.9,119.5 978.3,117.9 982.6,116.8 986.9,115.5 991.2,114.2 995.5,112.9 999.8,111.4 1004.1,109.9 1008.4,108.8 1012.7,107.7 1017.1,106.6 1021.4,105.4 1025.7,104.1 1030.0,103.0 1034.3,101.9 1038.6,101.0 1042.9,100.1 1047.2,99.2 1051.5,98.4 1055.9,97.5 1060.2,96.7 1064.5,95.7 1068.8,94.6 1073.1,93.7 1077.4,92.8 1081.7,91.9 1086.0,90.9 1090.3,89.8 1094.6,89.0 1099.0,88.2 1103.3,87.3 1107.6,86.2 1111.9,84.9 1116.2,83.6 1120.5,82.3 1124.8,81.1 1129.1,79.7 1133.4,78.5 1137.8,77.3 1142.1,76.0 1146.4,74.7 1150.7,73.4 1155.0,71.9 1159.3,70.4 1163.6,68.9 1167.9,67.3 1172.2,66.0 1176.6,65.0 1180.9,64.0 1185.2,62.9 1189.5,61.7 1193.8,60.6 1198.1,59.5 1202.4,58.3 1206.7,57.1 1211.0,56.2 1215.4,55.5 1219.7,54.8 1224.0,54.0 1228.3,53.5 1232.6,53.1 1236.9,52.9 1241.2,52.7 1245.5,52.6 1249.8,52.4 1254.2,52.2 1258.5,51.9 1262.8,51.5 1267.1,51.2 1271.4,51.1 1275.7,50.9 1280.0,50.6 1284.3,50.3 1288.6,50.1 1292.9,49.9 1297.3,49.8 1301.6,49.7 1305.9,49.6 1310.2,49.5 1314.5,49.2 1318.8,48.9 1323.1,48.7 1327.4,48.3 1331.7,48.1 1336.1,47.9 1340.4,47.8 1344.7,47.7 1349.0,47.6 1353.3,47.5 1357.6,47.4 1361.9,47.3 1366.2,47.2 1370.5,47.1 1374.9,47.0 1379.2,46.8 1383.5,46.6 1387.8,46.4 1392.1,46.2 1396.4,46.0 1400.7,45.8 1405.0,45.7 1409.3,45.6 1413.7,45.5 1418.0,45.4 1422.3,45.3 1426.6,45.0 " clip-path="url(#plotRect79028)" style="box-sizing: inherit; stroke-width: 1.35;" stroke-opacity="1"/></g></g><clipPath id="plotRect79028" style="box-sizing: inherit;"><rect x="84.9" y="44.0" width="1342.7" height="736.0" style="box-sizing: inherit;"/></clipPath><clipPath id="plotRect156294" style="box-sizing: inherit;"><rect x="-1.0" y="-1.0" width="1342.7" height="736.0" style="box-sizing: inherit;"/></clipPath><g class="wj-chart-annotationlayer" transform="translate(85.90625, 45)" style="box-sizing: inherit;" clip-path="url(#plotRect156294)"/></svg>