<svg xmlns="http://www.w3.org/2000/svg" width="1451" height="838" style="box-sizing: inherit; font-family: Calibri;"><rect id="backgroundRect" width="100%" height="100%" x="0" y="0" fill="rgb(255,255,255)" fill-opacity="1" visibility="visible" style="box-sizing: inherit; fill: rgb(255, 255, 255); fill-opacity: 1;"/><defs style="box-sizing: inherit;"/><clipPath id="chartRect29567" style="box-sizing: inherit;"><rect x="-1.0" y="-1.0" width="1448.0" height="832.0" style="box-sizing: inherit;"/></clipPath><g class="wj-header" style="box-sizing: inherit; background: rgb(238, 238, 238); color: rgb(68, 68, 68); font-weight: 700;" clip-path="url(#chartRect29567)"><text x="515.4" y="23.0" fill="rgb(68,68,68)" class="wj-title" fill-opacity="1" style="box-sizing: inherit; cursor: default; font-size: 16pt; font-family: &apos;Segoe UI&apos;; font-style: normal; font-weight: normal; fill: rgb(68, 68, 68); fill-opacity: 1;">Profile Graph lc_1m_dem_InterpolateShape5</text></g><g class="wj-footer" style="box-sizing: inherit;" clip-path="url(#chartRect29567)"/><clipPath id="legRect809607" style="box-sizing: inherit;"><rect x="1445.0" y="428.0" width="2.0" height="2.0" style="box-sizing: inherit;"/></clipPath><g class="wj-legend" style="box-sizing: inherit;" clip-path="url(#legRect809607)"/><g class="wj-plot-area" style="box-sizing: inherit;"><rect fill="#000000" stroke-width="1" x="78.7" y="45.0" width="1347.9" height="733.0" fill-opacity="0" style="box-sizing: inherit;"/></g><g class="wj-axis-x" style="box-sizing: inherit;" clip-path="url(#chartRect29567)"><text x="75.1" y="801.0" fill="rgb(68,68,68)" class="wj-label" fill-opacity="1" style="box-sizing: inherit; cursor: default; font-size: 10pt; font-family: &apos;Segoe UI&apos;; font-style: normal; font-weight: normal; fill: rgb(68, 68, 68); fill-opacity: 1;">0</text><line stroke="rgb(156,156,156)" stroke-width="1px" x1="78.7" x2="78.7" y1="778.0" y2="782.0" class="wj-tick" stroke-opacity="1" stroke-dasharray="none" style="box-sizing: inherit; stroke: rgb(156, 156, 156); stroke-opacity: 1; stroke-width: 1px; stroke-dasharray: none;"/><text x="185.0" y="801.0" fill="rgb(68,68,68)" class="wj-label" fill-opacity="1" style="box-sizing: inherit; cursor: default; font-size: 10pt; font-family: &apos;Segoe UI&apos;; font-style: normal; font-weight: normal; fill: rgb(68, 68, 68); fill-opacity: 1;">20</text><line stroke="rgb(156,156,156)" stroke-width="1px" x1="192.2" x2="192.2" y1="778.0" y2="782.0" class="wj-tick" stroke-opacity="1" stroke-dasharray="none" style="box-sizing: inherit; stroke: rgb(156, 156, 156); stroke-opacity: 1; stroke-width: 1px; stroke-dasharray: none;"/><text x="297.9" y="801.0" fill="rgb(68,68,68)" class="wj-label" fill-opacity="1" style="box-sizing: inherit; cursor: default; font-size: 10pt; font-family: &apos;Segoe UI&apos;; font-style: normal; font-weight: normal; fill: rgb(68, 68, 68); fill-opacity: 1;">40</text><line stroke="rgb(156,156,156)" stroke-width="1px" x1="305.6" x2="305.6" y1="778.0" y2="782.0" class="wj-tick" stroke-opacity="1" stroke-dasharray="none" style="box-sizing: inherit; stroke: rgb(156, 156, 156); stroke-opacity: 1; stroke-width: 1px; stroke-dasharray: none;"/><text x="411.9" y="801.0" fill="rgb(68,68,68)" class="wj-label" fill-opacity="1" style="box-sizing: inherit; cursor: default; font-size: 10pt; font-family: &apos;Segoe UI&apos;; font-style: normal; font-weight: normal; fill: rgb(68, 68, 68); fill-opacity: 1;">60</text><line stroke="rgb(156,156,156)" stroke-width="1px" x1="419.1" x2="419.1" y1="778.0" y2="782.0" class="wj-tick" stroke-opacity="1" stroke-dasharray="none" style="box-sizing: inherit; stroke: rgb(156, 156, 156); stroke-opacity: 1; stroke-width: 1px; stroke-dasharray: none;"/><text x="525.3" y="801.0" fill="rgb(68,68,68)" class="wj-label" fill-opacity="1" style="box-sizing: inherit; cursor: default; font-size: 10pt; font-family: &apos;Segoe UI&apos;; font-style: normal; font-weight: normal; fill: rgb(68, 68, 68); fill-opacity: 1;">80</text><line stroke="rgb(156,156,156)" stroke-width="1px" x1="532.5" x2="532.5" y1="778.0" y2="782.0" class="wj-tick" stroke-opacity="1" stroke-dasharray="none" style="box-sizing: inherit; stroke: rgb(156, 156, 156); stroke-opacity: 1; stroke-width: 1px; stroke-dasharray: none;"/><text x="635.2" y="801.0" fill="rgb(68,68,68)" class="wj-label" fill-opacity="1" style="box-sizing: inherit; cursor: default; font-size: 10pt; font-family: &apos;Segoe UI&apos;; font-style: normal; font-weight: normal; fill: rgb(68, 68, 68); fill-opacity: 1;">100</text><line stroke="rgb(156,156,156)" stroke-width="1px" x1="646.0" x2="646.0" y1="778.0" y2="782.0" class="wj-tick" stroke-opacity="1" stroke-dasharray="none" style="box-sizing: inherit; stroke: rgb(156, 156, 156); stroke-opacity: 1; stroke-width: 1px; stroke-dasharray: none;"/><text x="748.6" y="801.0" fill="rgb(68,68,68)" class="wj-label" fill-opacity="1" style="box-sizing: inherit; cursor: default; font-size: 10pt; font-family: &apos;Segoe UI&apos;; font-style: normal; font-weight: normal; fill: rgb(68, 68, 68); fill-opacity: 1;">120</text><line stroke="rgb(156,156,156)" stroke-width="1px" x1="759.4" x2="759.4" y1="778.0" y2="782.0" class="wj-tick" stroke-opacity="1" stroke-dasharray="none" style="box-sizing: inherit; stroke: rgb(156, 156, 156); stroke-opacity: 1; stroke-width: 1px; stroke-dasharray: none;"/><text x="862.1" y="801.0" fill="rgb(68,68,68)" class="wj-label" fill-opacity="1" style="box-sizing: inherit; cursor: default; font-size: 10pt; font-family: &apos;Segoe UI&apos;; font-style: normal; font-weight: normal; fill: rgb(68, 68, 68); fill-opacity: 1;">140</text><line stroke="rgb(156,156,156)" stroke-width="1px" x1="872.9" x2="872.9" y1="778.0" y2="782.0" class="wj-tick" stroke-opacity="1" stroke-dasharray="none" style="box-sizing: inherit; stroke: rgb(156, 156, 156); stroke-opacity: 1; stroke-width: 1px; stroke-dasharray: none;"/><text x="975.5" y="801.0" fill="rgb(68,68,68)" class="wj-label" fill-opacity="1" style="box-sizing: inherit; cursor: default; font-size: 10pt; font-family: &apos;Segoe UI&apos;; font-style: normal; font-weight: normal; fill: rgb(68, 68, 68); fill-opacity: 1;">160</text><line stroke="rgb(156,156,156)" stroke-width="1px" x1="986.3" x2="986.3" y1="778.0" y2="782.0" class="wj-tick" stroke-opacity="1" stroke-dasharray="none" style="box-sizing: inherit; stroke: rgb(156, 156, 156); stroke-opacity: 1; stroke-width: 1px; stroke-dasharray: none;"/><text x="1089.0" y="801.0" fill="rgb(68,68,68)" class="wj-label" fill-opacity="1" style="box-sizing: inherit; cursor: default; font-size: 10pt; font-family: &apos;Segoe UI&apos;; font-style: normal; font-weight: normal; fill: rgb(68, 68, 68); fill-opacity: 1;">180</text><line stroke="rgb(156,156,156)" stroke-width="1px" x1="1099.8" x2="1099.8" y1="778.0" y2="782.0" class="wj-tick" stroke-opacity="1" stroke-dasharray="none" style="box-sizing: inherit; stroke: rgb(156, 156, 156); stroke-opacity: 1; stroke-width: 1px; stroke-dasharray: none;"/><text x="1202.4" y="801.0" fill="rgb(68,68,68)" class="wj-label" fill-opacity="1" style="box-sizing: inherit; cursor: default; font-size: 10pt; font-family: &apos;Segoe UI&apos;; font-style: normal; font-weight: normal; fill: rgb(68, 68, 68); fill-opacity: 1;">200</text><line stroke="rgb(156,156,156)" stroke-width="1px" x1="1213.2" x2="1213.2" y1="778.0" y2="782.0" class="wj-tick" stroke-opacity="1" stroke-dasharray="none" style="box-sizing: inherit; stroke: rgb(156, 156, 156); stroke-opacity: 1; stroke-width: 1px; stroke-dasharray: none;"/><text x="1315.9" y="801.0" fill="rgb(68,68,68)" class="wj-label" fill-opacity="1" style="box-sizing: inherit; cursor: default; font-size: 10pt; font-family: &apos;Segoe UI&apos;; font-style: normal; font-weight: normal; fill: rgb(68, 68, 68); fill-opacity: 1;">220</text><line stroke="rgb(156,156,156)" stroke-width="1px" x1="1326.7" x2="1326.7" y1="778.0" y2="782.0" class="wj-tick" stroke-opacity="1" stroke-dasharray="none" style="box-sizing: inherit; stroke: rgb(156, 156, 156); stroke-opacity: 1; stroke-width: 1px; stroke-dasharray: none;"/><line stroke="rgb(156,156,156)" stroke-width="1px" x1="78.7" x2="1426.6" y1="778.0" y2="778.0" class="wj-line" stroke-opacity="1" stroke-dasharray="none" style="box-sizing: inherit; stroke: rgb(156, 156, 156); stroke-opacity: 1; stroke-width: 1px; stroke-dasharray: none;"/><text x="689.6" y="826.0" fill="rgb(68,68,68)" class="wj-title" fill-opacity="1" style="box-sizing: inherit; cursor: default; font-size: 12pt; font-family: &apos;Segoe UI&apos;; font-style: normal; font-weight: normal; fill: rgb(68, 68, 68); fill-opacity: 1;">Horizontal Distance</text></g><g class="wj-axis-y" style="box-sizing: inherit;" clip-path="url(#chartRect29567)"><line stroke="rgb(225,225,225)" stroke-width="1px" x1="78.7" x2="1426.6" y1="763.1" y2="763.1" class="wj-gridline" stroke-opacity="1" stroke-dasharray="none" style="box-sizing: inherit; opacity: 0.75; stroke: rgb(225, 225, 225); stroke-opacity: 1; stroke-width: 1px; stroke-dasharray: none;"/><text x="34.1" y="768.6" fill="rgb(68,68,68)" class="wj-label" fill-opacity="1" style="box-sizing: inherit; cursor: default; font-size: 10pt; font-family: &apos;Segoe UI&apos;; font-style: normal; font-weight: normal; fill: rgb(68, 68, 68); fill-opacity: 1;">1,585</text><line stroke="rgb(225,225,225)" stroke-width="1px" x1="78.7" x2="1426.6" y1="718.3" y2="718.3" class="wj-gridline" stroke-opacity="1" stroke-dasharray="none" style="box-sizing: inherit; opacity: 0.75; stroke: rgb(225, 225, 225); stroke-opacity: 1; stroke-width: 1px; stroke-dasharray: none;"/><text x="34.1" y="723.8" fill="rgb(68,68,68)" class="wj-label" fill-opacity="1" style="box-sizing: inherit; cursor: default; font-size: 10pt; font-family: &apos;Segoe UI&apos;; font-style: normal; font-weight: normal; fill: rgb(68, 68, 68); fill-opacity: 1;">1,590</text><line stroke="rgb(225,225,225)" stroke-width="1px" x1="78.7" x2="1426.6" y1="673.5" y2="673.5" class="wj-gridline" stroke-opacity="1" stroke-dasharray="none" style="box-sizing: inherit; opacity: 0.75; stroke: rgb(225, 225, 225); stroke-opacity: 1; stroke-width: 1px; stroke-dasharray: none;"/><text x="34.1" y="679.0" fill="rgb(68,68,68)" class="wj-label" fill-opacity="1" style="box-sizing: inherit; cursor: default; font-size: 10pt; font-family: &apos;Segoe UI&apos;; font-style: normal; font-weight: normal; fill: rgb(68, 68, 68); fill-opacity: 1;">1,595</text><line stroke="rgb(225,225,225)" stroke-width="1px" x1="78.7" x2="1426.6" y1="628.7" y2="628.7" class="wj-gridline" stroke-opacity="1" stroke-dasharray="none" style="box-sizing: inherit; opacity: 0.75; stroke: rgb(225, 225, 225); stroke-opacity: 1; stroke-width: 1px; stroke-dasharray: none;"/><text x="34.1" y="634.2" fill="rgb(68,68,68)" class="wj-label" fill-opacity="1" style="box-sizing: inherit; cursor: default; font-size: 10pt; font-family: &apos;Segoe UI&apos;; font-style: normal; font-weight: normal; fill: rgb(68, 68, 68); fill-opacity: 1;">1,600</text><line stroke="rgb(225,225,225)" stroke-width="1px" x1="78.7" x2="1426.6" y1="583.9" y2="583.9" class="wj-gridline" stroke-opacity="1" stroke-dasharray="none" style="box-sizing: inherit; opacity: 0.75; stroke: rgb(225, 225, 225); stroke-opacity: 1; stroke-width: 1px; stroke-dasharray: none;"/><text x="34.1" y="589.4" fill="rgb(68,68,68)" class="wj-label" fill-opacity="1" style="box-sizing: inherit; cursor: default; font-size: 10pt; font-family: &apos;Segoe UI&apos;; font-style: normal; font-weight: normal; fill: rgb(68, 68, 68); fill-opacity: 1;">1,605</text><line stroke="rgb(225,225,225)" stroke-width="1px" x1="78.7" x2="1426.6" y1="539.1" y2="539.1" class="wj-gridline" stroke-opacity="1" stroke-dasharray="none" style="box-sizing: inherit; opacity: 0.75; stroke: rgb(225, 225, 225); stroke-opacity: 1; stroke-width: 1px; stroke-dasharray: none;"/><text x="34.1" y="544.6" fill="rgb(68,68,68)" class="wj-label" fill-opacity="1" style="box-sizing: inherit; cursor: default; font-size: 10pt; font-family: &apos;Segoe UI&apos;; font-style: normal; font-weight: normal; fill: rgb(68, 68, 68); fill-opacity: 1;">1,610</text><line stroke="rgb(225,225,225)" stroke-width="1px" x1="78.7" x2="1426.6" y1="494.3" y2="494.3" class="wj-gridline" stroke-opacity="1" stroke-dasharray="none" style="box-sizing: inherit; opacity: 0.75; stroke: rgb(225, 225, 225); stroke-opacity: 1; stroke-width: 1px; stroke-dasharray: none;"/><text x="34.1" y="499.8" fill="rgb(68,68,68)" class="wj-label" fill-opacity="1" style="box-sizing: inherit; cursor: default; font-size: 10pt; font-family: &apos;Segoe UI&apos;; font-style: normal; font-weight: normal; fill: rgb(68, 68, 68); fill-opacity: 1;">1,615</text><line stroke="rgb(225,225,225)" stroke-width="1px" x1="78.7" x2="1426.6" y1="449.5" y2="449.5" class="wj-gridline" stroke-opacity="1" stroke-dasharray="none" style="box-sizing: inherit; opacity: 0.75; stroke: rgb(225, 225, 225); stroke-opacity: 1; stroke-width: 1px; stroke-dasharray: none;"/><text x="34.1" y="455.0" fill="rgb(68,68,68)" class="wj-label" fill-opacity="1" style="box-sizing: inherit; cursor: default; font-size: 10pt; font-family: &apos;Segoe UI&apos;; font-style: normal; font-weight: normal; fill: rgb(68, 68, 68); fill-opacity: 1;">1,620</text><line stroke="rgb(225,225,225)" stroke-width="1px" x1="78.7" x2="1426.6" y1="404.7" y2="404.7" class="wj-gridline" stroke-opacity="1" stroke-dasharray="none" style="box-sizing: inherit; opacity: 0.75; stroke: rgb(225, 225, 225); stroke-opacity: 1; stroke-width: 1px; stroke-dasharray: none;"/><text x="34.1" y="410.2" fill="rgb(68,68,68)" class="wj-label" fill-opacity="1" style="box-sizing: inherit; cursor: default; font-size: 10pt; font-family: &apos;Segoe UI&apos;; font-style: normal; font-weight: normal; fill: rgb(68, 68, 68); fill-opacity: 1;">1,625</text><line stroke="rgb(225,225,225)" stroke-width="1px" x1="78.7" x2="1426.6" y1="359.9" y2="359.9" class="wj-gridline" stroke-opacity="1" stroke-dasharray="none" style="box-sizing: inherit; opacity: 0.75; stroke: rgb(225, 225, 225); stroke-opacity: 1; stroke-width: 1px; stroke-dasharray: none;"/><text x="34.1" y="365.4" fill="rgb(68,68,68)" class="wj-label" fill-opacity="1" style="box-sizing: inherit; cursor: default; font-size: 10pt; font-family: &apos;Segoe UI&apos;; font-style: normal; font-weight: normal; fill: rgb(68, 68, 68); fill-opacity: 1;">1,630</text><line stroke="rgb(225,225,225)" stroke-width="1px" x1="78.7" x2="1426.6" y1="315.1" y2="315.1" class="wj-gridline" stroke-opacity="1" stroke-dasharray="none" style="box-sizing: inherit; opacity: 0.75; stroke: rgb(225, 225, 225); stroke-opacity: 1; stroke-width: 1px; stroke-dasharray: none;"/><text x="34.1" y="320.6" fill="rgb(68,68,68)" class="wj-label" fill-opacity="1" style="box-sizing: inherit; cursor: default; font-size: 10pt; font-family: &apos;Segoe UI&apos;; font-style: normal; font-weight: normal; fill: rgb(68, 68, 68); fill-opacity: 1;">1,635</text><line stroke="rgb(225,225,225)" stroke-width="1px" x1="78.7" x2="1426.6" y1="270.4" y2="270.4" class="wj-gridline" stroke-opacity="1" stroke-dasharray="none" style="box-sizing: inherit; opacity: 0.75; stroke: rgb(225, 225, 225); stroke-opacity: 1; stroke-width: 1px; stroke-dasharray: none;"/><text x="34.1" y="275.9" fill="rgb(68,68,68)" class="wj-label" fill-opacity="1" style="box-sizing: inherit; cursor: default; font-size: 10pt; font-family: &apos;Segoe UI&apos;; font-style: normal; font-weight: normal; fill: rgb(68, 68, 68); fill-opacity: 1;">1,640</text><line stroke="rgb(225,225,225)" stroke-width="1px" x1="78.7" x2="1426.6" y1="225.6" y2="225.6" class="wj-gridline" stroke-opacity="1" stroke-dasharray="none" style="box-sizing: inherit; opacity: 0.75; stroke: rgb(225, 225, 225); stroke-opacity: 1; stroke-width: 1px; stroke-dasharray: none;"/><text x="34.1" y="231.1" fill="rgb(68,68,68)" class="wj-label" fill-opacity="1" style="box-sizing: inherit; cursor: default; font-size: 10pt; font-family: &apos;Segoe UI&apos;; font-style: normal; font-weight: normal; fill: rgb(68, 68, 68); fill-opacity: 1;">1,645</text><line stroke="rgb(225,225,225)" stroke-width="1px" x1="78.7" x2="1426.6" y1="180.8" y2="180.8" class="wj-gridline" stroke-opacity="1" stroke-dasharray="none" style="box-sizing: inherit; opacity: 0.75; stroke: rgb(225, 225, 225); stroke-opacity: 1; stroke-width: 1px; stroke-dasharray: none;"/><text x="34.1" y="186.3" fill="rgb(68,68,68)" class="wj-label" fill-opacity="1" style="box-sizing: inherit; cursor: default; font-size: 10pt; font-family: &apos;Segoe UI&apos;; font-style: normal; font-weight: normal; fill: rgb(68, 68, 68); fill-opacity: 1;">1,650</text><line stroke="rgb(225,225,225)" stroke-width="1px" x1="78.7" x2="1426.6" y1="136.0" y2="136.0" class="wj-gridline" stroke-opacity="1" stroke-dasharray="none" style="box-sizing: inherit; opacity: 0.75; stroke: rgb(225, 225, 225); stroke-opacity: 1; stroke-width: 1px; stroke-dasharray: none;"/><text x="34.1" y="141.5" fill="rgb(68,68,68)" class="wj-label" fill-opacity="1" style="box-sizing: inherit; cursor: default; font-size: 10pt; font-family: &apos;Segoe UI&apos;; font-style: normal; font-weight: normal; fill: rgb(68, 68, 68); fill-opacity: 1;">1,655</text><line stroke="rgb(225,225,225)" stroke-width="1px" x1="78.7" x2="1426.6" y1="91.2" y2="91.2" class="wj-gridline" stroke-opacity="1" stroke-dasharray="none" style="box-sizing: inherit; opacity: 0.75; stroke: rgb(225, 225, 225); stroke-opacity: 1; stroke-width: 1px; stroke-dasharray: none;"/><text x="34.1" y="96.7" fill="rgb(68,68,68)" class="wj-label" fill-opacity="1" style="box-sizing: inherit; cursor: default; font-size: 10pt; font-family: &apos;Segoe UI&apos;; font-style: normal; font-weight: normal; fill: rgb(68, 68, 68); fill-opacity: 1;">1,660</text><line stroke="rgb(225,225,225)" stroke-width="1px" x1="78.7" x2="1426.6" y1="46.4" y2="46.4" class="wj-gridline" stroke-opacity="1" stroke-dasharray="none" style="box-sizing: inherit; opacity: 0.75; stroke: rgb(225, 225, 225); stroke-opacity: 1; stroke-width: 1px; stroke-dasharray: none;"/><text x="34.1" y="51.9" fill="rgb(68,68,68)" class="wj-label" fill-opacity="1" style="box-sizing: inherit; cursor: default; font-size: 10pt; font-family: &apos;Segoe UI&apos;; font-style: normal; font-weight: normal; fill: rgb(68, 68, 68); fill-opacity: 1;">1,665</text><g transform="rotate(-90.0,10.5,411.5)" style="box-sizing: inherit;"><text x="-21.4" y="418.0" fill="rgb(68,68,68)" class="wj-title" fill-opacity="1" style="box-sizing: inherit; cursor: default; font-size: 12pt; font-family: &apos;Segoe UI&apos;; font-style: normal; font-weight: normal; fill: rgb(68, 68, 68); fill-opacity: 1;">Elevation</text></g><line stroke="rgb(156,156,156)" stroke-width="1px" x1="78.7" x2="78.7" y1="45.0" y2="778.0" class="wj-line" stroke-opacity="0" stroke-dasharray="none" style="box-sizing: inherit; stroke: rgb(156, 156, 156); stroke-opacity: 0; stroke-width: 1px; stroke-dasharray: none;"/></g><g class="wj-series-group" style="box-sizing: inherit;"><g style="box-sizing: inherit;"><polyline stroke="rgb(61,153,94)" stroke-width="1.35" fill="none" points="78.7,758.3 84.4,761.2 90.0,763.5 95.7,765.7 101.4,768.0 107.0,770.2 112.7,772.6 118.4,775.1 124.0,777.1 129.7,778.0 135.4,776.5 141.0,770.0 146.7,759.4 152.3,747.0 158.0,734.3 163.7,723.3 169.3,715.0 175.0,708.8 180.7,703.3 186.3,697.3 192.0,690.8 197.6,684.7 203.3,679.1 209.0,673.5 214.6,667.2 220.3,660.5 226.0,653.8 231.6,647.5 237.3,641.8 243.0,636.1 248.6,629.5 254.3,621.9 259.9,614.5 265.6,608.2 271.3,602.7 276.9,597.0 282.6,590.9 288.3,584.0 293.9,577.1 299.6,571.2 305.3,565.6 310.9,559.8 316.6,553.9 322.2,548.2 327.9,542.5 333.6,536.9 339.2,531.7 344.9,526.9 350.6,520.8 356.2,512.8 361.9,504.3 367.5,497.0 373.2,491.2 378.9,486.1 384.5,479.7 390.2,472.1 395.9,464.5 401.5,457.1 407.2,449.2 412.9,439.5 418.5,428.6 424.2,419.8 429.8,413.3 435.5,407.6 441.2,401.8 446.8,395.4 452.5,388.7 458.2,382.7 463.8,376.6 469.5,369.1 475.2,362.9 480.8,358.3 486.5,353.1 492.1,344.7 497.8,334.5 503.5,325.2 509.1,317.4 514.8,309.4 520.5,300.4 526.1,291.5 531.8,283.3 537.4,274.8 543.1,264.0 548.8,251.6 554.4,242.4 560.1,236.6 565.8,231.1 571.4,224.9 577.1,217.2 582.8,210.2 588.4,205.4 594.1,201.8 599.7,198.2 605.4,194.8 611.1,191.9 616.7,188.9 622.4,184.9 628.1,180.6 633.7,176.6 639.4,173.3 645.0,170.3 650.7,166.6 656.4,162.7 662.0,158.9 667.7,155.1 673.4,151.3 679.0,147.7 684.7,144.2 690.4,140.4 696.0,136.6 701.7,133.2 707.3,130.0 713.0,127.0 718.7,124.1 724.3,121.2 730.0,118.5 735.7,115.5 741.3,112.5 747.0,109.5 752.7,106.8 758.3,104.7 764.0,102.8 769.6,100.7 775.3,98.1 781.0,95.1 786.6,92.1 792.3,89.3 798.0,86.8 803.6,84.4 809.3,81.8 814.9,79.5 820.6,77.3 826.3,75.2 831.9,73.1 837.6,71.0 843.3,69.5 848.9,68.1 854.6,66.8 860.3,65.8 865.9,64.8 871.6,63.7 877.2,63.0 882.9,62.4 888.6,61.9 894.2,61.3 899.9,60.7 905.6,60.3 911.2,60.0 916.9,59.7 922.6,59.0 928.2,58.1 933.9,57.5 939.5,57.1 945.2,56.8 950.9,56.7 956.5,56.7 962.2,56.5 967.9,56.2 973.5,55.7 979.2,55.1 984.8,54.6 990.5,54.7 996.2,54.7 1001.8,54.4 1007.5,54.2 1013.2,54.0 1018.8,53.7 1024.5,53.3 1030.2,53.0 1035.8,52.4 1041.5,51.8 1047.1,51.8 1052.8,52.0 1058.5,52.1 1064.1,51.9 1069.8,51.7 1075.5,51.4 1081.1,51.3 1086.8,51.3 1092.5,51.3 1098.1,51.2 1103.8,50.9 1109.4,50.7 1115.1,50.7 1120.8,50.8 1126.4,50.9 1132.1,50.8 1137.8,50.7 1143.4,50.5 1149.1,50.4 1154.7,50.1 1160.4,49.9 1166.1,49.7 1171.7,49.6 1177.4,49.8 1183.1,49.9 1188.7,50.1 1194.4,50.1 1200.1,49.9 1205.7,49.8 1211.4,49.7 1217.0,49.6 1222.7,49.4 1228.4,49.2 1234.0,49.1 1239.7,49.0 1245.4,49.1 1251.0,49.2 1256.7,49.2 1262.4,49.0 1268.0,48.7 1273.7,48.4 1279.3,48.2 1285.0,47.9 1290.7,47.8 1296.3,47.7 1302.0,47.6 1307.7,47.3 1313.3,47.0 1319.0,46.9 1324.6,46.8 1330.3,46.8 1336.0,46.7 1341.6,46.5 1347.3,46.2 1353.0,45.8 1358.6,45.4 1364.3,45.0 1370.0,45.0 1375.6,45.2 1381.3,45.5 1386.9,45.9 1392.6,46.2 1398.3,46.2 1403.9,46.2 1409.6,46.2 1415.3,46.1 1420.9,46.1 1426.6,46.0 " clip-path="url(#plotRect577989)" style="box-sizing: inherit; stroke-width: 1.35;" stroke-opacity="1"/></g></g><clipPath id="plotRect577989" style="box-sizing: inherit;"><rect x="77.7" y="44.0" width="1349.9" height="735.0" style="box-sizing: inherit;"/></clipPath><clipPath id="plotRect675513" style="box-sizing: inherit;"><rect x="-1.0" y="-1.0" width="1349.9" height="735.0" style="box-sizing: inherit;"/></clipPath><g class="wj-chart-annotationlayer" transform="translate(78.71875, 45)" style="box-sizing: inherit;" clip-path="url(#plotRect675513)"/></svg>