<svg xmlns="http://www.w3.org/2000/svg" width="1451" height="838" style="box-sizing: inherit; font-family: Calibri;"><rect id="backgroundRect" width="100%" height="100%" x="0" y="0" fill="rgb(255,255,255)" fill-opacity="1" visibility="visible" style="box-sizing: inherit; fill: rgb(255, 255, 255); fill-opacity: 1;"/><defs style="box-sizing: inherit;"/><clipPath id="chartRect216557" style="box-sizing: inherit;"><rect x="-1.0" y="-1.0" width="1448.0" height="832.0" style="box-sizing: inherit;"/></clipPath><g class="wj-header" style="box-sizing: inherit; background: rgb(238, 238, 238); color: rgb(68, 68, 68); font-weight: 700;" clip-path="url(#chartRect216557)"><text x="515.4" y="23.0" fill="rgb(68,68,68)" class="wj-title" fill-opacity="1" style="box-sizing: inherit; cursor: default; font-size: 16pt; font-family: &apos;Segoe UI&apos;; font-style: normal; font-weight: normal; fill: rgb(68, 68, 68); fill-opacity: 1;">Profile Graph lc_1m_dem_InterpolateShape1</text></g><g class="wj-footer" style="box-sizing: inherit;" clip-path="url(#chartRect216557)"/><clipPath id="legRect360002" style="box-sizing: inherit;"><rect x="1445.0" y="428.0" width="2.0" height="2.0" style="box-sizing: inherit;"/></clipPath><g class="wj-legend" style="box-sizing: inherit;" clip-path="url(#legRect360002)"/><g class="wj-plot-area" style="box-sizing: inherit;"><rect fill="#000000" stroke-width="1" x="78.7" y="45.0" width="1347.9" height="733.0" fill-opacity="0" style="box-sizing: inherit;"/></g><g class="wj-axis-x" style="box-sizing: inherit;" clip-path="url(#chartRect216557)"><text x="75.1" y="801.0" fill="rgb(68,68,68)" class="wj-label" fill-opacity="1" style="box-sizing: inherit; cursor: default; font-size: 10pt; font-family: &apos;Segoe UI&apos;; font-style: normal; font-weight: normal; fill: rgb(68, 68, 68); fill-opacity: 1;">0</text><line stroke="rgb(156,156,156)" stroke-width="1px" x1="78.7" x2="78.7" y1="778.0" y2="782.0" class="wj-tick" stroke-opacity="1" stroke-dasharray="none" style="box-sizing: inherit; stroke: rgb(156, 156, 156); stroke-opacity: 1; stroke-width: 1px; stroke-dasharray: none;"/><text x="130.5" y="801.0" fill="rgb(68,68,68)" class="wj-label" fill-opacity="1" style="box-sizing: inherit; cursor: default; font-size: 10pt; font-family: &apos;Segoe UI&apos;; font-style: normal; font-weight: normal; fill: rgb(68, 68, 68); fill-opacity: 1;">20</text><line stroke="rgb(156,156,156)" stroke-width="1px" x1="137.7" x2="137.7" y1="778.0" y2="782.0" class="wj-tick" stroke-opacity="1" stroke-dasharray="none" style="box-sizing: inherit; stroke: rgb(156, 156, 156); stroke-opacity: 1; stroke-width: 1px; stroke-dasharray: none;"/><text x="189.0" y="801.0" fill="rgb(68,68,68)" class="wj-label" fill-opacity="1" style="box-sizing: inherit; cursor: default; font-size: 10pt; font-family: &apos;Segoe UI&apos;; font-style: normal; font-weight: normal; fill: rgb(68, 68, 68); fill-opacity: 1;">40</text><line stroke="rgb(156,156,156)" stroke-width="1px" x1="196.7" x2="196.7" y1="778.0" y2="782.0" class="wj-tick" stroke-opacity="1" stroke-dasharray="none" style="box-sizing: inherit; stroke: rgb(156, 156, 156); stroke-opacity: 1; stroke-width: 1px; stroke-dasharray: none;"/><text x="248.5" y="801.0" fill="rgb(68,68,68)" class="wj-label" fill-opacity="1" style="box-sizing: inherit; cursor: default; font-size: 10pt; font-family: &apos;Segoe UI&apos;; font-style: normal; font-weight: normal; fill: rgb(68, 68, 68); fill-opacity: 1;">60</text><line stroke="rgb(156,156,156)" stroke-width="1px" x1="255.7" x2="255.7" y1="778.0" y2="782.0" class="wj-tick" stroke-opacity="1" stroke-dasharray="none" style="box-sizing: inherit; stroke: rgb(156, 156, 156); stroke-opacity: 1; stroke-width: 1px; stroke-dasharray: none;"/><text x="307.5" y="801.0" fill="rgb(68,68,68)" class="wj-label" fill-opacity="1" style="box-sizing: inherit; cursor: default; font-size: 10pt; font-family: &apos;Segoe UI&apos;; font-style: normal; font-weight: normal; fill: rgb(68, 68, 68); fill-opacity: 1;">80</text><line stroke="rgb(156,156,156)" stroke-width="1px" x1="314.7" x2="314.7" y1="778.0" y2="782.0" class="wj-tick" stroke-opacity="1" stroke-dasharray="none" style="box-sizing: inherit; stroke: rgb(156, 156, 156); stroke-opacity: 1; stroke-width: 1px; stroke-dasharray: none;"/><text x="362.9" y="801.0" fill="rgb(68,68,68)" class="wj-label" fill-opacity="1" style="box-sizing: inherit; cursor: default; font-size: 10pt; font-family: &apos;Segoe UI&apos;; font-style: normal; font-weight: normal; fill: rgb(68, 68, 68); fill-opacity: 1;">100</text><line stroke="rgb(156,156,156)" stroke-width="1px" x1="373.7" x2="373.7" y1="778.0" y2="782.0" class="wj-tick" stroke-opacity="1" stroke-dasharray="none" style="box-sizing: inherit; stroke: rgb(156, 156, 156); stroke-opacity: 1; stroke-width: 1px; stroke-dasharray: none;"/><text x="421.9" y="801.0" fill="rgb(68,68,68)" class="wj-label" fill-opacity="1" style="box-sizing: inherit; cursor: default; font-size: 10pt; font-family: &apos;Segoe UI&apos;; font-style: normal; font-weight: normal; fill: rgb(68, 68, 68); fill-opacity: 1;">120</text><line stroke="rgb(156,156,156)" stroke-width="1px" x1="432.7" x2="432.7" y1="778.0" y2="782.0" class="wj-tick" stroke-opacity="1" stroke-dasharray="none" style="box-sizing: inherit; stroke: rgb(156, 156, 156); stroke-opacity: 1; stroke-width: 1px; stroke-dasharray: none;"/><text x="480.9" y="801.0" fill="rgb(68,68,68)" class="wj-label" fill-opacity="1" style="box-sizing: inherit; cursor: default; font-size: 10pt; font-family: &apos;Segoe UI&apos;; font-style: normal; font-weight: normal; fill: rgb(68, 68, 68); fill-opacity: 1;">140</text><line stroke="rgb(156,156,156)" stroke-width="1px" x1="491.7" x2="491.7" y1="778.0" y2="782.0" class="wj-tick" stroke-opacity="1" stroke-dasharray="none" style="box-sizing: inherit; stroke: rgb(156, 156, 156); stroke-opacity: 1; stroke-width: 1px; stroke-dasharray: none;"/><text x="539.9" y="801.0" fill="rgb(68,68,68)" class="wj-label" fill-opacity="1" style="box-sizing: inherit; cursor: default; font-size: 10pt; font-family: &apos;Segoe UI&apos;; font-style: normal; font-weight: normal; fill: rgb(68, 68, 68); fill-opacity: 1;">160</text><line stroke="rgb(156,156,156)" stroke-width="1px" x1="550.7" x2="550.7" y1="778.0" y2="782.0" class="wj-tick" stroke-opacity="1" stroke-dasharray="none" style="box-sizing: inherit; stroke: rgb(156, 156, 156); stroke-opacity: 1; stroke-width: 1px; stroke-dasharray: none;"/><text x="598.9" y="801.0" fill="rgb(68,68,68)" class="wj-label" fill-opacity="1" style="box-sizing: inherit; cursor: default; font-size: 10pt; font-family: &apos;Segoe UI&apos;; font-style: normal; font-weight: normal; fill: rgb(68, 68, 68); fill-opacity: 1;">180</text><line stroke="rgb(156,156,156)" stroke-width="1px" x1="609.7" x2="609.7" y1="778.0" y2="782.0" class="wj-tick" stroke-opacity="1" stroke-dasharray="none" style="box-sizing: inherit; stroke: rgb(156, 156, 156); stroke-opacity: 1; stroke-width: 1px; stroke-dasharray: none;"/><text x="657.9" y="801.0" fill="rgb(68,68,68)" class="wj-label" fill-opacity="1" style="box-sizing: inherit; cursor: default; font-size: 10pt; font-family: &apos;Segoe UI&apos;; font-style: normal; font-weight: normal; fill: rgb(68, 68, 68); fill-opacity: 1;">200</text><line stroke="rgb(156,156,156)" stroke-width="1px" x1="668.7" x2="668.7" y1="778.0" y2="782.0" class="wj-tick" stroke-opacity="1" stroke-dasharray="none" style="box-sizing: inherit; stroke: rgb(156, 156, 156); stroke-opacity: 1; stroke-width: 1px; stroke-dasharray: none;"/><text x="716.9" y="801.0" fill="rgb(68,68,68)" class="wj-label" fill-opacity="1" style="box-sizing: inherit; cursor: default; font-size: 10pt; font-family: &apos;Segoe UI&apos;; font-style: normal; font-weight: normal; fill: rgb(68, 68, 68); fill-opacity: 1;">220</text><line stroke="rgb(156,156,156)" stroke-width="1px" x1="727.7" x2="727.7" y1="778.0" y2="782.0" class="wj-tick" stroke-opacity="1" stroke-dasharray="none" style="box-sizing: inherit; stroke: rgb(156, 156, 156); stroke-opacity: 1; stroke-width: 1px; stroke-dasharray: none;"/><text x="775.9" y="801.0" fill="rgb(68,68,68)" class="wj-label" fill-opacity="1" style="box-sizing: inherit; cursor: default; font-size: 10pt; font-family: &apos;Segoe UI&apos;; font-style: normal; font-weight: normal; fill: rgb(68, 68, 68); fill-opacity: 1;">240</text><line stroke="rgb(156,156,156)" stroke-width="1px" x1="786.7" x2="786.7" y1="778.0" y2="782.0" class="wj-tick" stroke-opacity="1" stroke-dasharray="none" style="box-sizing: inherit; stroke: rgb(156, 156, 156); stroke-opacity: 1; stroke-width: 1px; stroke-dasharray: none;"/><text x="834.9" y="801.0" fill="rgb(68,68,68)" class="wj-label" fill-opacity="1" style="box-sizing: inherit; cursor: default; font-size: 10pt; font-family: &apos;Segoe UI&apos;; font-style: normal; font-weight: normal; fill: rgb(68, 68, 68); fill-opacity: 1;">260</text><line stroke="rgb(156,156,156)" stroke-width="1px" x1="845.7" x2="845.7" y1="778.0" y2="782.0" class="wj-tick" stroke-opacity="1" stroke-dasharray="none" style="box-sizing: inherit; stroke: rgb(156, 156, 156); stroke-opacity: 1; stroke-width: 1px; stroke-dasharray: none;"/><text x="893.9" y="801.0" fill="rgb(68,68,68)" class="wj-label" fill-opacity="1" style="box-sizing: inherit; cursor: default; font-size: 10pt; font-family: &apos;Segoe UI&apos;; font-style: normal; font-weight: normal; fill: rgb(68, 68, 68); fill-opacity: 1;">280</text><line stroke="rgb(156,156,156)" stroke-width="1px" x1="904.6" x2="904.6" y1="778.0" y2="782.0" class="wj-tick" stroke-opacity="1" stroke-dasharray="none" style="box-sizing: inherit; stroke: rgb(156, 156, 156); stroke-opacity: 1; stroke-width: 1px; stroke-dasharray: none;"/><text x="952.9" y="801.0" fill="rgb(68,68,68)" class="wj-label" fill-opacity="1" style="box-sizing: inherit; cursor: default; font-size: 10pt; font-family: &apos;Segoe UI&apos;; font-style: normal; font-weight: normal; fill: rgb(68, 68, 68); fill-opacity: 1;">300</text><line stroke="rgb(156,156,156)" stroke-width="1px" x1="963.6" x2="963.6" y1="778.0" y2="782.0" class="wj-tick" stroke-opacity="1" stroke-dasharray="none" style="box-sizing: inherit; stroke: rgb(156, 156, 156); stroke-opacity: 1; stroke-width: 1px; stroke-dasharray: none;"/><text x="1011.9" y="801.0" fill="rgb(68,68,68)" class="wj-label" fill-opacity="1" style="box-sizing: inherit; cursor: default; font-size: 10pt; font-family: &apos;Segoe UI&apos;; font-style: normal; font-weight: normal; fill: rgb(68, 68, 68); fill-opacity: 1;">320</text><line stroke="rgb(156,156,156)" stroke-width="1px" x1="1022.6" x2="1022.6" y1="778.0" y2="782.0" class="wj-tick" stroke-opacity="1" stroke-dasharray="none" style="box-sizing: inherit; stroke: rgb(156, 156, 156); stroke-opacity: 1; stroke-width: 1px; stroke-dasharray: none;"/><text x="1070.9" y="801.0" fill="rgb(68,68,68)" class="wj-label" fill-opacity="1" style="box-sizing: inherit; cursor: default; font-size: 10pt; font-family: &apos;Segoe UI&apos;; font-style: normal; font-weight: normal; fill: rgb(68, 68, 68); fill-opacity: 1;">340</text><line stroke="rgb(156,156,156)" stroke-width="1px" x1="1081.6" x2="1081.6" y1="778.0" y2="782.0" class="wj-tick" stroke-opacity="1" stroke-dasharray="none" style="box-sizing: inherit; stroke: rgb(156, 156, 156); stroke-opacity: 1; stroke-width: 1px; stroke-dasharray: none;"/><text x="1129.8" y="801.0" fill="rgb(68,68,68)" class="wj-label" fill-opacity="1" style="box-sizing: inherit; cursor: default; font-size: 10pt; font-family: &apos;Segoe UI&apos;; font-style: normal; font-weight: normal; fill: rgb(68, 68, 68); fill-opacity: 1;">360</text><line stroke="rgb(156,156,156)" stroke-width="1px" x1="1140.6" x2="1140.6" y1="778.0" y2="782.0" class="wj-tick" stroke-opacity="1" stroke-dasharray="none" style="box-sizing: inherit; stroke: rgb(156, 156, 156); stroke-opacity: 1; stroke-width: 1px; stroke-dasharray: none;"/><text x="1188.8" y="801.0" fill="rgb(68,68,68)" class="wj-label" fill-opacity="1" style="box-sizing: inherit; cursor: default; font-size: 10pt; font-family: &apos;Segoe UI&apos;; font-style: normal; font-weight: normal; fill: rgb(68, 68, 68); fill-opacity: 1;">380</text><line stroke="rgb(156,156,156)" stroke-width="1px" x1="1199.6" x2="1199.6" y1="778.0" y2="782.0" class="wj-tick" stroke-opacity="1" stroke-dasharray="none" style="box-sizing: inherit; stroke: rgb(156, 156, 156); stroke-opacity: 1; stroke-width: 1px; stroke-dasharray: none;"/><text x="1247.3" y="801.0" fill="rgb(68,68,68)" class="wj-label" fill-opacity="1" style="box-sizing: inherit; cursor: default; font-size: 10pt; font-family: &apos;Segoe UI&apos;; font-style: normal; font-weight: normal; fill: rgb(68, 68, 68); fill-opacity: 1;">400</text><line stroke="rgb(156,156,156)" stroke-width="1px" x1="1258.6" x2="1258.6" y1="778.0" y2="782.0" class="wj-tick" stroke-opacity="1" stroke-dasharray="none" style="box-sizing: inherit; stroke: rgb(156, 156, 156); stroke-opacity: 1; stroke-width: 1px; stroke-dasharray: none;"/><text x="1306.3" y="801.0" fill="rgb(68,68,68)" class="wj-label" fill-opacity="1" style="box-sizing: inherit; cursor: default; font-size: 10pt; font-family: &apos;Segoe UI&apos;; font-style: normal; font-weight: normal; fill: rgb(68, 68, 68); fill-opacity: 1;">420</text><line stroke="rgb(156,156,156)" stroke-width="1px" x1="1317.6" x2="1317.6" y1="778.0" y2="782.0" class="wj-tick" stroke-opacity="1" stroke-dasharray="none" style="box-sizing: inherit; stroke: rgb(156, 156, 156); stroke-opacity: 1; stroke-width: 1px; stroke-dasharray: none;"/><text x="1365.3" y="801.0" fill="rgb(68,68,68)" class="wj-label" fill-opacity="1" style="box-sizing: inherit; cursor: default; font-size: 10pt; font-family: &apos;Segoe UI&apos;; font-style: normal; font-weight: normal; fill: rgb(68, 68, 68); fill-opacity: 1;">440</text><line stroke="rgb(156,156,156)" stroke-width="1px" x1="1376.6" x2="1376.6" y1="778.0" y2="782.0" class="wj-tick" stroke-opacity="1" stroke-dasharray="none" style="box-sizing: inherit; stroke: rgb(156, 156, 156); stroke-opacity: 1; stroke-width: 1px; stroke-dasharray: none;"/><line stroke="rgb(156,156,156)" stroke-width="1px" x1="78.7" x2="1426.6" y1="778.0" y2="778.0" class="wj-line" stroke-opacity="1" stroke-dasharray="none" style="box-sizing: inherit; stroke: rgb(156, 156, 156); stroke-opacity: 1; stroke-width: 1px; stroke-dasharray: none;"/><text x="689.6" y="826.0" fill="rgb(68,68,68)" class="wj-title" fill-opacity="1" style="box-sizing: inherit; cursor: default; font-size: 12pt; font-family: &apos;Segoe UI&apos;; font-style: normal; font-weight: normal; fill: rgb(68, 68, 68); fill-opacity: 1;">Horizontal Distance</text></g><g class="wj-axis-y" style="box-sizing: inherit;" clip-path="url(#chartRect216557)"><line stroke="rgb(225,225,225)" stroke-width="1px" x1="78.7" x2="1426.6" y1="744.1" y2="744.1" class="wj-gridline" stroke-opacity="1" stroke-dasharray="none" style="box-sizing: inherit; opacity: 0.75; stroke: rgb(225, 225, 225); stroke-opacity: 1; stroke-width: 1px; stroke-dasharray: none;"/><text x="34.1" y="749.6" fill="rgb(68,68,68)" class="wj-label" fill-opacity="1" style="box-sizing: inherit; cursor: default; font-size: 10pt; font-family: &apos;Segoe UI&apos;; font-style: normal; font-weight: normal; fill: rgb(68, 68, 68); fill-opacity: 1;">1,555</text><line stroke="rgb(225,225,225)" stroke-width="1px" x1="78.7" x2="1426.6" y1="702.1" y2="702.1" class="wj-gridline" stroke-opacity="1" stroke-dasharray="none" style="box-sizing: inherit; opacity: 0.75; stroke: rgb(225, 225, 225); stroke-opacity: 1; stroke-width: 1px; stroke-dasharray: none;"/><text x="34.1" y="707.6" fill="rgb(68,68,68)" class="wj-label" fill-opacity="1" style="box-sizing: inherit; cursor: default; font-size: 10pt; font-family: &apos;Segoe UI&apos;; font-style: normal; font-weight: normal; fill: rgb(68, 68, 68); fill-opacity: 1;">1,560</text><line stroke="rgb(225,225,225)" stroke-width="1px" x1="78.7" x2="1426.6" y1="660.1" y2="660.1" class="wj-gridline" stroke-opacity="1" stroke-dasharray="none" style="box-sizing: inherit; opacity: 0.75; stroke: rgb(225, 225, 225); stroke-opacity: 1; stroke-width: 1px; stroke-dasharray: none;"/><text x="34.1" y="665.6" fill="rgb(68,68,68)" class="wj-label" fill-opacity="1" style="box-sizing: inherit; cursor: default; font-size: 10pt; font-family: &apos;Segoe UI&apos;; font-style: normal; font-weight: normal; fill: rgb(68, 68, 68); fill-opacity: 1;">1,565</text><line stroke="rgb(225,225,225)" stroke-width="1px" x1="78.7" x2="1426.6" y1="618.0" y2="618.0" class="wj-gridline" stroke-opacity="1" stroke-dasharray="none" style="box-sizing: inherit; opacity: 0.75; stroke: rgb(225, 225, 225); stroke-opacity: 1; stroke-width: 1px; stroke-dasharray: none;"/><text x="34.1" y="623.5" fill="rgb(68,68,68)" class="wj-label" fill-opacity="1" style="box-sizing: inherit; cursor: default; font-size: 10pt; font-family: &apos;Segoe UI&apos;; font-style: normal; font-weight: normal; fill: rgb(68, 68, 68); fill-opacity: 1;">1,570</text><line stroke="rgb(225,225,225)" stroke-width="1px" x1="78.7" x2="1426.6" y1="576.0" y2="576.0" class="wj-gridline" stroke-opacity="1" stroke-dasharray="none" style="box-sizing: inherit; opacity: 0.75; stroke: rgb(225, 225, 225); stroke-opacity: 1; stroke-width: 1px; stroke-dasharray: none;"/><text x="34.1" y="581.5" fill="rgb(68,68,68)" class="wj-label" fill-opacity="1" style="box-sizing: inherit; cursor: default; font-size: 10pt; font-family: &apos;Segoe UI&apos;; font-style: normal; font-weight: normal; fill: rgb(68, 68, 68); fill-opacity: 1;">1,575</text><line stroke="rgb(225,225,225)" stroke-width="1px" x1="78.7" x2="1426.6" y1="533.9" y2="533.9" class="wj-gridline" stroke-opacity="1" stroke-dasharray="none" style="box-sizing: inherit; opacity: 0.75; stroke: rgb(225, 225, 225); stroke-opacity: 1; stroke-width: 1px; stroke-dasharray: none;"/><text x="34.1" y="539.4" fill="rgb(68,68,68)" class="wj-label" fill-opacity="1" style="box-sizing: inherit; cursor: default; font-size: 10pt; font-family: &apos;Segoe UI&apos;; font-style: normal; font-weight: normal; fill: rgb(68, 68, 68); fill-opacity: 1;">1,580</text><line stroke="rgb(225,225,225)" stroke-width="1px" x1="78.7" x2="1426.6" y1="491.9" y2="491.9" class="wj-gridline" stroke-opacity="1" stroke-dasharray="none" style="box-sizing: inherit; opacity: 0.75; stroke: rgb(225, 225, 225); stroke-opacity: 1; stroke-width: 1px; stroke-dasharray: none;"/><text x="34.1" y="497.4" fill="rgb(68,68,68)" class="wj-label" fill-opacity="1" style="box-sizing: inherit; cursor: default; font-size: 10pt; font-family: &apos;Segoe UI&apos;; font-style: normal; font-weight: normal; fill: rgb(68, 68, 68); fill-opacity: 1;">1,585</text><line stroke="rgb(225,225,225)" stroke-width="1px" x1="78.7" x2="1426.6" y1="449.9" y2="449.9" class="wj-gridline" stroke-opacity="1" stroke-dasharray="none" style="box-sizing: inherit; opacity: 0.75; stroke: rgb(225, 225, 225); stroke-opacity: 1; stroke-width: 1px; stroke-dasharray: none;"/><text x="34.1" y="455.4" fill="rgb(68,68,68)" class="wj-label" fill-opacity="1" style="box-sizing: inherit; cursor: default; font-size: 10pt; font-family: &apos;Segoe UI&apos;; font-style: normal; font-weight: normal; fill: rgb(68, 68, 68); fill-opacity: 1;">1,590</text><line stroke="rgb(225,225,225)" stroke-width="1px" x1="78.7" x2="1426.6" y1="407.8" y2="407.8" class="wj-gridline" stroke-opacity="1" stroke-dasharray="none" style="box-sizing: inherit; opacity: 0.75; stroke: rgb(225, 225, 225); stroke-opacity: 1; stroke-width: 1px; stroke-dasharray: none;"/><text x="34.1" y="413.3" fill="rgb(68,68,68)" class="wj-label" fill-opacity="1" style="box-sizing: inherit; cursor: default; font-size: 10pt; font-family: &apos;Segoe UI&apos;; font-style: normal; font-weight: normal; fill: rgb(68, 68, 68); fill-opacity: 1;">1,595</text><line stroke="rgb(225,225,225)" stroke-width="1px" x1="78.7" x2="1426.6" y1="365.8" y2="365.8" class="wj-gridline" stroke-opacity="1" stroke-dasharray="none" style="box-sizing: inherit; opacity: 0.75; stroke: rgb(225, 225, 225); stroke-opacity: 1; stroke-width: 1px; stroke-dasharray: none;"/><text x="34.1" y="371.3" fill="rgb(68,68,68)" class="wj-label" fill-opacity="1" style="box-sizing: inherit; cursor: default; font-size: 10pt; font-family: &apos;Segoe UI&apos;; font-style: normal; font-weight: normal; fill: rgb(68, 68, 68); fill-opacity: 1;">1,600</text><line stroke="rgb(225,225,225)" stroke-width="1px" x1="78.7" x2="1426.6" y1="323.7" y2="323.7" class="wj-gridline" stroke-opacity="1" stroke-dasharray="none" style="box-sizing: inherit; opacity: 0.75; stroke: rgb(225, 225, 225); stroke-opacity: 1; stroke-width: 1px; stroke-dasharray: none;"/><text x="34.1" y="329.2" fill="rgb(68,68,68)" class="wj-label" fill-opacity="1" style="box-sizing: inherit; cursor: default; font-size: 10pt; font-family: &apos;Segoe UI&apos;; font-style: normal; font-weight: normal; fill: rgb(68, 68, 68); fill-opacity: 1;">1,605</text><line stroke="rgb(225,225,225)" stroke-width="1px" x1="78.7" x2="1426.6" y1="281.7" y2="281.7" class="wj-gridline" stroke-opacity="1" stroke-dasharray="none" style="box-sizing: inherit; opacity: 0.75; stroke: rgb(225, 225, 225); stroke-opacity: 1; stroke-width: 1px; stroke-dasharray: none;"/><text x="34.1" y="287.2" fill="rgb(68,68,68)" class="wj-label" fill-opacity="1" style="box-sizing: inherit; cursor: default; font-size: 10pt; font-family: &apos;Segoe UI&apos;; font-style: normal; font-weight: normal; fill: rgb(68, 68, 68); fill-opacity: 1;">1,610</text><line stroke="rgb(225,225,225)" stroke-width="1px" x1="78.7" x2="1426.6" y1="239.7" y2="239.7" class="wj-gridline" stroke-opacity="1" stroke-dasharray="none" style="box-sizing: inherit; opacity: 0.75; stroke: rgb(225, 225, 225); stroke-opacity: 1; stroke-width: 1px; stroke-dasharray: none;"/><text x="34.1" y="245.2" fill="rgb(68,68,68)" class="wj-label" fill-opacity="1" style="box-sizing: inherit; cursor: default; font-size: 10pt; font-family: &apos;Segoe UI&apos;; font-style: normal; font-weight: normal; fill: rgb(68, 68, 68); fill-opacity: 1;">1,615</text><line stroke="rgb(225,225,225)" stroke-width="1px" x1="78.7" x2="1426.6" y1="197.6" y2="197.6" class="wj-gridline" stroke-opacity="1" stroke-dasharray="none" style="box-sizing: inherit; opacity: 0.75; stroke: rgb(225, 225, 225); stroke-opacity: 1; stroke-width: 1px; stroke-dasharray: none;"/><text x="34.1" y="203.1" fill="rgb(68,68,68)" class="wj-label" fill-opacity="1" style="box-sizing: inherit; cursor: default; font-size: 10pt; font-family: &apos;Segoe UI&apos;; font-style: normal; font-weight: normal; fill: rgb(68, 68, 68); fill-opacity: 1;">1,620</text><line stroke="rgb(225,225,225)" stroke-width="1px" x1="78.7" x2="1426.6" y1="155.6" y2="155.6" class="wj-gridline" stroke-opacity="1" stroke-dasharray="none" style="box-sizing: inherit; opacity: 0.75; stroke: rgb(225, 225, 225); stroke-opacity: 1; stroke-width: 1px; stroke-dasharray: none;"/><text x="34.1" y="161.1" fill="rgb(68,68,68)" class="wj-label" fill-opacity="1" style="box-sizing: inherit; cursor: default; font-size: 10pt; font-family: &apos;Segoe UI&apos;; font-style: normal; font-weight: normal; fill: rgb(68, 68, 68); fill-opacity: 1;">1,625</text><line stroke="rgb(225,225,225)" stroke-width="1px" x1="78.7" x2="1426.6" y1="113.6" y2="113.6" class="wj-gridline" stroke-opacity="1" stroke-dasharray="none" style="box-sizing: inherit; opacity: 0.75; stroke: rgb(225, 225, 225); stroke-opacity: 1; stroke-width: 1px; stroke-dasharray: none;"/><text x="34.1" y="119.1" fill="rgb(68,68,68)" class="wj-label" fill-opacity="1" style="box-sizing: inherit; cursor: default; font-size: 10pt; font-family: &apos;Segoe UI&apos;; font-style: normal; font-weight: normal; fill: rgb(68, 68, 68); fill-opacity: 1;">1,630</text><line stroke="rgb(225,225,225)" stroke-width="1px" x1="78.7" x2="1426.6" y1="71.5" y2="71.5" class="wj-gridline" stroke-opacity="1" stroke-dasharray="none" style="box-sizing: inherit; opacity: 0.75; stroke: rgb(225, 225, 225); stroke-opacity: 1; stroke-width: 1px; stroke-dasharray: none;"/><text x="34.1" y="77.0" fill="rgb(68,68,68)" class="wj-label" fill-opacity="1" style="box-sizing: inherit; cursor: default; font-size: 10pt; font-family: &apos;Segoe UI&apos;; font-style: normal; font-weight: normal; fill: rgb(68, 68, 68); fill-opacity: 1;">1,635</text><g transform="rotate(-90.0,10.5,411.5)" style="box-sizing: inherit;"><text x="-21.4" y="418.0" fill="rgb(68,68,68)" class="wj-title" fill-opacity="1" style="box-sizing: inherit; cursor: default; font-size: 12pt; font-family: &apos;Segoe UI&apos;; font-style: normal; font-weight: normal; fill: rgb(68, 68, 68); fill-opacity: 1;">Elevation</text></g><line stroke="rgb(156,156,156)" stroke-width="1px" x1="78.7" x2="78.7" y1="45.0" y2="778.0" class="wj-line" stroke-opacity="0" stroke-dasharray="none" style="box-sizing: inherit; stroke: rgb(156, 156, 156); stroke-opacity: 0; stroke-width: 1px; stroke-dasharray: none;"/></g><g class="wj-series-group" style="box-sizing: inherit;"><g style="box-sizing: inherit;"><polyline stroke="rgb(66,124,158)" stroke-width="1.35" fill="none" points="78.7,777.9 81.6,777.4 84.6,777.6 87.5,778.0 90.4,778.0 93.4,777.5 96.3,776.6 99.2,775.5 102.2,774.0 105.1,772.0 108.0,769.4 111.0,765.9 113.9,761.9 116.8,757.8 119.8,753.4 122.7,748.8 125.6,744.1 128.5,739.5 131.5,735.2 134.4,731.1 137.3,726.4 140.3,720.8 143.2,713.5 146.1,706.7 149.1,701.9 152.0,697.8 154.9,693.5 157.9,689.5 160.8,685.7 163.7,681.7 166.7,677.5 169.6,673.9 172.5,670.6 175.4,667.0 178.4,663.3 181.3,658.6 184.2,653.9 187.2,649.8 190.1,646.7 193.0,643.7 196.0,640.4 198.9,636.6 201.8,632.6 204.8,628.0 207.7,622.2 210.6,615.0 213.6,607.8 216.5,602.0 219.4,597.5 222.3,593.3 225.3,588.7 228.2,584.0 231.1,579.8 234.1,576.1 237.0,572.3 239.9,568.2 242.9,562.6 245.8,554.3 248.7,545.9 251.7,539.9 254.6,536.9 257.5,535.4 260.4,534.1 263.4,532.9 266.3,531.7 269.2,530.3 272.2,529.4 275.1,528.1 278.1,526.6 281.0,525.2 284.0,524.3 286.9,523.4 289.9,522.5 292.8,521.6 295.7,520.5 298.7,519.8 301.6,519.2 304.6,518.8 307.5,518.5 310.5,518.2 313.4,517.8 316.4,517.0 319.3,516.0 322.3,515.0 325.2,514.4 328.1,513.9 331.1,513.4 334.0,513.0 337.0,512.5 339.9,512.0 342.9,511.6 345.8,511.2 348.8,510.6 351.7,509.7 354.6,508.9 357.6,508.0 360.5,507.1 363.5,506.1 366.4,505.5 369.4,504.9 372.3,504.5 375.3,503.9 378.2,503.2 381.1,502.6 384.1,501.6 387.0,499.8 390.0,498.5 392.9,498.0 395.9,497.5 398.8,496.9 401.8,496.5 404.7,496.0 407.7,495.3 410.6,494.4 413.5,493.6 416.5,492.6 419.4,491.8 422.4,491.2 425.3,490.7 428.3,490.2 431.2,489.6 434.2,488.6 437.1,487.4 440.0,486.3 443.0,485.1 445.9,483.9 448.9,482.4 451.8,481.2 454.8,480.3 457.7,479.5 460.7,478.5 463.6,477.4 466.6,476.1 469.5,474.6 472.4,473.0 475.4,471.1 478.3,469.2 481.3,467.4 484.2,466.1 487.2,465.3 490.1,464.4 493.1,462.9 496.0,461.2 498.9,459.6 501.9,457.8 504.8,455.6 507.8,453.5 510.7,452.1 513.7,450.8 516.6,449.6 519.6,448.5 522.5,447.5 525.4,446.3 528.4,445.0 531.3,443.8 534.3,442.7 537.2,441.6 540.2,440.6 543.1,439.7 546.1,438.7 549.0,437.7 552.0,436.6 554.9,435.3 557.8,433.9 560.8,432.8 563.7,431.8 566.7,430.7 569.6,429.5 572.6,428.4 575.5,427.4 578.5,426.5 581.4,425.5 584.3,424.4 587.3,423.3 590.2,422.2 593.2,421.2 596.1,420.1 599.1,419.0 602.0,417.8 605.0,416.8 607.9,415.8 610.9,414.8 613.8,413.8 616.7,412.8 619.7,411.8 622.6,411.0 625.6,410.0 628.5,408.8 631.5,407.8 634.4,407.2 637.4,406.6 640.3,406.0 643.2,405.2 646.2,404.1 649.1,402.8 652.1,401.4 655.0,400.3 658.0,399.1 660.9,398.2 663.9,397.1 666.8,396.0 669.7,394.8 672.7,393.9 675.6,393.0 678.6,391.8 681.5,390.4 684.5,388.9 687.4,387.7 690.4,386.7 693.3,385.5 696.3,384.3 699.2,383.3 702.1,381.9 705.1,380.7 708.0,379.3 711.0,378.2 713.9,377.0 716.9,375.7 719.8,374.6 722.8,373.4 725.7,372.3 728.6,371.2 731.6,369.9 734.5,368.3 737.5,366.8 740.4,365.3 743.4,363.7 746.3,362.1 749.3,360.3 752.2,358.7 755.2,357.4 758.1,356.0 761.0,354.7 764.0,353.5 766.9,352.6 769.9,351.5 772.8,350.3 775.8,348.9 778.7,347.5 781.7,346.3 784.6,345.2 787.5,343.7 790.5,342.5 793.4,341.7 796.4,341.0 799.3,339.9 802.3,338.6 805.2,337.0 808.2,335.4 811.1,334.1 814.0,333.1 817.0,332.0 819.9,330.6 822.9,329.3 825.8,328.0 828.8,326.7 831.7,325.7 834.7,324.8 837.6,324.0 840.6,323.0 843.5,321.6 846.4,320.1 849.4,318.4 852.3,316.8 855.3,315.5 858.2,314.4 861.2,313.4 864.1,312.3 867.1,311.1 870.0,309.9 872.9,308.4 875.9,307.0 878.8,305.5 881.8,304.1 884.7,302.8 887.7,301.3 890.6,299.8 893.6,298.2 896.5,296.8 899.4,295.4 902.4,294.2 905.3,293.0 908.3,291.8 911.2,290.2 914.2,288.3 917.1,286.6 920.1,285.3 923.0,284.1 926.0,283.0 928.9,281.9 931.8,280.7 934.8,279.1 937.7,277.5 940.7,276.0 943.6,274.5 946.6,273.2 949.5,272.2 952.5,271.4 955.4,270.4 958.3,269.0 961.3,266.9 964.2,263.9 967.2,260.6 970.1,258.0 973.1,256.3 976.0,255.0 979.0,253.4 981.9,251.8 984.9,250.1 987.8,248.1 990.7,246.0 993.7,243.9 996.6,242.1 999.6,240.4 1002.5,238.8 1005.5,237.2 1008.4,235.7 1011.4,233.9 1014.3,231.6 1017.2,229.3 1020.2,226.7 1023.1,224.6 1026.1,222.9 1029.0,221.0 1032.0,219.1 1034.9,217.4 1037.9,215.8 1040.8,214.3 1043.7,212.6 1046.7,210.7 1049.6,208.5 1052.6,206.1 1055.5,203.9 1058.5,202.0 1061.4,199.9 1064.4,197.5 1067.3,195.7 1070.3,193.8 1073.2,191.7 1076.1,189.4 1079.1,186.9 1082.0,184.2 1085.0,181.7 1087.9,179.9 1090.9,178.5 1093.8,177.2 1096.8,176.0 1099.7,175.0 1102.6,173.8 1105.6,172.3 1108.5,170.6 1111.5,168.5 1114.4,165.3 1117.4,162.2 1120.3,160.3 1123.3,158.7 1126.2,157.2 1129.2,155.6 1132.1,154.0 1135.0,152.3 1138.0,150.5 1140.9,148.5 1143.9,146.5 1146.8,144.3 1149.8,142.1 1152.7,140.1 1155.7,138.1 1158.6,136.3 1161.5,134.5 1164.5,132.4 1167.4,130.7 1170.4,129.4 1173.3,127.9 1176.3,126.0 1179.2,123.6 1182.2,121.1 1185.1,119.1 1188.0,117.8 1191.0,117.0 1193.9,116.2 1196.9,115.3 1199.8,114.2 1202.8,112.5 1205.7,110.7 1208.7,108.8 1211.6,106.7 1214.6,104.5 1217.5,102.1 1220.4,99.5 1223.4,97.1 1226.3,94.9 1229.3,92.8 1232.2,90.4 1235.2,88.5 1238.1,87.4 1241.1,86.3 1244.0,84.7 1246.9,82.9 1249.9,81.6 1252.8,80.6 1255.8,79.6 1258.7,78.1 1261.7,76.6 1264.6,75.3 1267.6,74.3 1270.5,73.4 1273.5,72.6 1276.4,71.7 1279.3,70.8 1282.3,70.0 1285.2,69.2 1288.2,68.3 1291.1,67.4 1294.1,66.3 1297.0,65.3 1300.0,64.2 1302.9,62.9 1305.8,61.5 1308.8,60.3 1311.7,59.2 1314.7,58.2 1317.6,57.4 1320.6,56.8 1323.5,56.4 1326.5,56.3 1329.4,55.9 1332.3,55.3 1335.3,54.6 1338.2,54.0 1341.2,53.7 1344.1,53.3 1347.1,52.7 1350.0,52.2 1353.0,51.7 1355.9,51.2 1358.9,50.6 1361.8,50.0 1364.7,49.4 1367.7,48.8 1370.6,48.3 1373.6,48.0 1376.5,47.6 1379.5,47.4 1382.4,47.3 1385.4,47.2 1388.3,47.1 1391.2,46.8 1394.2,46.4 1397.1,46.0 1400.1,45.7 1403.0,45.5 1406.0,45.4 1408.9,45.2 1411.9,45.1 1414.8,45.0 1417.8,45.0 1420.7,45.0 1423.6,45.0 1426.6,45.0 " clip-path="url(#plotRect665654)" style="box-sizing: inherit; stroke-width: 1.35;" stroke-opacity="1"/></g></g><clipPath id="plotRect665654" style="box-sizing: inherit;"><rect x="77.7" y="44.0" width="1349.9" height="735.0" style="box-sizing: inherit;"/></clipPath><clipPath id="plotRect239207" style="box-sizing: inherit;"><rect x="-1.0" y="-1.0" width="1349.9" height="735.0" style="box-sizing: inherit;"/></clipPath><g class="wj-chart-annotationlayer" transform="translate(78.71875, 45)" style="box-sizing: inherit;" clip-path="url(#plotRect239207)"/></svg>